<svg width="125" height="126" viewBox="0 0 125 126" fill="none" xmlns="http://www.w3.org/2000/svg">
<path d="M85.5112 4.875V86.3421H4.61328C13.8297 109.268 36.1452 125.442 62.2154 125.442C96.5246 125.442 124.338 97.433 124.338 62.8824C124.338 36.6287 108.277 14.1562 85.5112 4.875Z" fill="#000058"/>
<path d="M42.8024 0.370117V43.3321H0.140625C1.15421 65.0983 18.9964 82.4319 40.8614 82.4319C63.3766 82.4319 81.6292 64.051 81.6292 41.3773C81.6292 19.3591 64.416 1.39083 42.8024 0.370117Z" fill="#000058"/>
<path d="M38.9218 19.8729C38.9218 9.07562 30.23 0.323242 19.5087 0.323242C8.78629 0.323242 0.0944824 9.07562 0.0944824 19.8729C0.0944824 30.6702 8.78629 39.4226 19.5087 39.4226C30.23 39.4226 38.9218 30.6702 38.9218 19.8729Z" fill="#000058"/>
</svg>
