<svg width="534" height="479" viewBox="0 0 534 479" fill="none" xmlns="http://www.w3.org/2000/svg">
<path d="M529 199.5C531 180.7 515.833 171 508 168.5C508 168.5 487 108.5 457.5 76.5C428 44.5 416 30 368 13C320 -4.00004 264 0.999958 264 0.999958C186.5 0.999958 114 38.5 83 65.5C52.0001 92.5 28.5 145.5 20.5 199.5C12.5 253.5 19.4999 288.5 11.9999 323C4.49988 357.5 -4.00012 372 2.99988 383C8.59988 391.8 37.6665 390.333 51.4999 388.5C58.4999 397.333 80.7999 421 114 445C155.5 475 178 478.5 229 478.5C280 478.5 350 432.5 378 424C406 415.5 411.5 428.5 448 432.5C484.5 436.5 514.5 415 529 388.5C543.5 362 520 332 514.5 309.5C510.1 291.5 512.667 246 514.5 225.5C518.5 224.667 527 218.3 529 199.5Z" fill="#000058"/>
</svg>
