<svg width="432" height="64" viewBox="0 0 432 64" fill="none" xmlns="http://www.w3.org/2000/svg">
<g clip-path="url(#clip0_10090_41)">
<path fill-rule="evenodd" clip-rule="evenodd" d="M113.808 64H0V0H113.808V64ZM55.0367 49.6141C55.0367 49.7629 54.9326 49.867 54.7838 49.867H32.1562C32.0074 49.867 31.9033 49.7629 31.9033 49.6141V44.9577C31.9033 44.6527 32.0074 44.4519 32.1562 44.3031L45.7239 30.8396C46.5867 30.0288 49.0637 27.6485 49.0116 24.8666C48.9596 22.4863 47.3901 19.3473 43.4403 19.3473C40.0484 19.3473 37.921 22.2334 37.921 24.8666C37.921 25.0153 37.8168 25.1195 37.6681 25.1195H32.1488C32 25.1195 31.8959 25.0153 31.8959 24.8666C31.8959 18.5886 36.7011 13.7313 43.4328 13.7313C50.7225 13.7313 55.0739 18.6406 55.0739 24.8666C55.0739 30.0809 51.8828 33.272 50.0604 34.9382L40.4426 43.8494C40.2938 43.9981 40.3384 44.3031 40.5914 44.3031H54.7615C54.9103 44.3031 55.0144 44.4073 55.0144 44.556V49.6141H55.0367ZM70.1218 13.7313C76.9056 13.7313 81.4579 18.4919 81.4579 24.2566C81.4579 28.1543 79.0776 30.4826 77.2552 31.5983C77.0023 31.7471 77.0544 32 77.2552 32.1041C79.0776 33.0191 81.9117 35.8531 81.9117 40.0483C81.9117 45.5156 78.1181 50.3208 70.1218 50.3728C62.3784 50.3728 58.6295 45.2627 58.6295 39.5425C58.6295 39.3938 58.7336 39.2896 58.8824 39.2896H64.4537C64.6025 39.2896 64.7066 39.3938 64.7066 39.5425C64.7066 41.3649 66.2241 44.8089 70.1218 44.8089C73.5137 44.8089 75.8419 42.3766 75.8419 40.0483C75.8419 36.2548 73.112 34.6853 70.1218 34.6332H68.4482C68.2994 34.6332 68.1953 34.5291 68.1953 34.3803V29.3222C68.1953 29.1734 68.2994 29.0693 68.4482 29.0693H70.1218C72.755 29.0693 75.3882 27.656 75.3882 24.2641C75.3882 21.8838 73.3129 19.3026 70.1218 19.3026C66.9307 19.3026 64.9075 22.2408 64.9075 24.8666C64.9075 25.0153 64.8033 25.1195 64.6546 25.1195H59.1353C58.9865 25.1195 58.8824 25.0153 58.8824 24.8666C58.8824 18.5886 63.3901 13.7313 70.1218 13.7313Z" fill="#000058"/>
<path d="M150.033 18.3082C149.981 18.2041 149.877 18.0999 149.773 18.0999H139.842C139.686 18.0999 139.582 17.9959 139.582 17.8397V13.9791C139.582 13.8229 139.686 13.7188 139.842 13.7188H165.103C165.259 13.7188 165.364 13.8229 165.364 13.9791V17.8397C165.364 17.9959 165.259 18.0999 165.103 18.0999H155.173C155.017 18.0999 154.913 18.2042 154.913 18.3604V49.6982C154.913 49.8545 154.808 49.9586 154.652 49.9586H150.278C150.122 49.9586 150.018 49.8545 150.018 49.6982V18.3156L150.033 18.3082Z" fill="#000058"/>
<path d="M184.711 49.9482C184.555 49.9482 184.503 49.844 184.451 49.6878L179.46 29.1578C179.408 28.8975 178.999 28.8975 178.947 29.1578L174.007 49.6878C173.955 49.844 173.903 49.9482 173.747 49.9482H167.216C167.06 49.9482 166.956 49.844 166.911 49.6878L160.789 24.1667C160.737 23.9584 160.946 23.9062 161.102 23.9062H165.476C165.632 23.9062 165.684 24.0105 165.736 24.1667L170.214 44.8529C170.266 45.1132 170.675 45.1132 170.727 44.8529L175.822 24.1667C175.874 24.0105 175.927 23.9062 176.083 23.9062H182.413C182.569 23.9062 182.621 24.0105 182.673 24.1667L187.768 44.8529C187.821 45.1132 188.23 45.1132 188.282 44.8529L192.76 24.1667C192.812 24.0105 192.864 23.9062 193.02 23.9062H197.394C197.55 23.9062 197.751 23.9584 197.699 24.1667L191.577 49.6878C191.525 49.844 191.421 49.9482 191.265 49.9482H184.734H184.711Z" fill="#000058"/>
<path d="M205.656 38.9411C205.656 42.6975 208.386 46.0894 212.961 46.0894C216.613 46.0894 218.413 44.5496 219.492 42.4892C219.596 42.2809 219.7 42.2289 219.849 42.2289H224.431C224.587 42.2289 224.743 42.2809 224.691 42.4892C223.352 47.5324 218.778 50.4632 212.961 50.4632C205.24 50.4632 200.457 44.9588 200.457 36.9327C200.457 28.9067 204.987 23.4023 212.961 23.4023C220.935 23.4023 225.517 28.9067 225.517 36.9327C225.517 37.446 225.465 38.0113 225.361 38.4278C225.309 38.584 225.257 38.6882 225.1 38.6882H205.909C205.753 38.6882 205.649 38.7923 205.649 38.9485L205.656 38.9411ZM212.961 27.776C207.97 27.776 205.656 32.1498 205.656 34.5673C205.656 34.7235 205.813 34.8277 205.917 34.8277H219.908C220.065 34.8277 220.169 34.7235 220.169 34.5673C220.169 31.6366 218.056 27.776 212.968 27.776H212.961Z" fill="#000058"/>
<path d="M234.726 23.9155C234.882 23.9155 234.934 24.0197 234.986 24.1759L235.5 26.4892C235.604 26.7942 235.961 26.6975 236.065 26.5413C237.143 25.0462 239.36 23.4023 242.804 23.4023C250.265 23.4023 254.021 28.8546 254.021 35.5417V49.6896C254.021 49.8458 253.917 49.9499 253.761 49.9499H249.387C249.231 49.9499 249.127 49.8458 249.127 49.6896V35.5417C249.127 31.6291 247.379 27.776 242.283 27.776C237.962 27.776 235.492 31.5324 235.492 35.5417V49.6896C235.492 49.8458 235.388 49.9499 235.232 49.9499H230.858C230.702 49.9499 230.598 49.8458 230.598 49.6896V24.1684C230.598 24.0122 230.702 23.9081 230.858 23.9081H234.719L234.726 23.9155Z" fill="#000058"/>
<path d="M273.778 49.6949C273.778 49.8511 273.674 49.9553 273.518 49.9553H269.553C265.283 50.0594 262.814 48.1031 262.814 43.8856V28.0418C262.814 27.8855 262.71 27.7814 262.553 27.7814H257.971C257.815 27.7814 257.711 27.6773 257.711 27.5211V24.1738C257.711 24.0176 257.815 23.9134 257.971 23.9134H262.553C262.71 23.9134 262.814 23.8093 262.814 23.6531V16.7056C262.814 16.5494 262.918 16.4453 263.074 16.4453H267.448C267.604 16.4453 267.708 16.5494 267.708 16.7056V23.6531C267.708 23.8093 267.812 23.9134 267.969 23.9134H273.525C273.681 23.9134 273.785 24.0176 273.785 24.1738V27.5211C273.785 27.6773 273.681 27.7814 273.525 27.7814H267.969C267.812 27.7814 267.708 27.8855 267.708 28.0418V43.0153C267.708 44.6071 268.43 45.5889 270.49 45.5889H273.525C273.681 45.5889 273.785 45.6931 273.785 45.8493V49.7098L273.778 49.6949Z" fill="#000058"/>
<path d="M277.43 55.7654H283.247C286.282 55.7654 287.212 53.8091 286.282 51.0866L285.821 49.6956L277.125 24.1745C277.073 23.9662 277.282 23.9141 277.438 23.9141H282.117C282.273 23.9141 282.325 24.0183 282.377 24.1745L289.116 44.8607C289.22 45.121 289.525 45.121 289.629 44.8607L296.421 24.1745C296.473 24.0183 296.525 23.9141 296.681 23.9141H301.36C301.516 23.9141 301.665 24.0183 301.62 24.1745L292.82 49.9485L291.325 54.4265C289.83 58.592 288.29 60.1391 284.125 60.1391H277.438C277.282 60.1391 277.177 60.035 277.177 59.8788V56.0183C277.177 55.8621 277.282 55.7579 277.438 55.7579L277.43 55.7654Z" fill="#000058"/>
<path d="M310.619 18.3082C310.567 18.2041 310.463 18.0999 310.359 18.0999H300.428C300.272 18.0999 300.168 17.9959 300.168 17.8397V13.9791C300.168 13.8229 300.272 13.7188 300.428 13.7188H325.689C325.845 13.7188 325.949 13.8229 325.949 13.9791V17.8397C325.949 17.9959 325.845 18.0999 325.689 18.0999H315.759C315.603 18.0999 315.498 18.2042 315.498 18.3604V49.6982C315.498 49.8545 315.394 49.9586 315.238 49.9586H310.864C310.708 49.9586 310.604 49.8545 310.604 49.6982V18.3156L310.619 18.3082Z" fill="#000058"/>
<path d="M335.114 13.7305C335.27 13.7305 335.375 13.8347 335.375 13.9909V26.4428C335.375 26.7031 335.732 26.7998 335.94 26.5469C337.48 24.5906 340.001 23.4079 342.679 23.4079C350.653 23.4079 353.896 28.8603 353.896 35.5474V49.6952C353.896 49.8514 353.792 49.9556 353.636 49.9556H349.262C349.106 49.9556 349.002 49.8514 349.002 49.6952V35.5474C349.002 31.6348 347.254 27.7817 342.158 27.7817C337.837 27.7817 335.367 31.5381 335.367 35.5474V49.6952C335.367 49.8514 335.263 49.9556 335.107 49.9556H330.733C330.577 49.9556 330.473 49.8514 330.473 49.6952V13.9909C330.473 13.8347 330.577 13.7305 330.733 13.7305H335.107H335.114Z" fill="#000058"/>
<path d="M371.541 27.7757C367.219 27.7757 364.75 31.5321 364.75 35.5414V49.6893C364.75 49.8455 364.646 49.9496 364.49 49.9496H360.116C359.96 49.9496 359.855 49.8455 359.855 49.6893V24.1681C359.855 24.0119 359.96 23.9078 360.116 23.9078H363.976C364.133 23.9078 364.185 24.0119 364.237 24.1681L364.75 26.4815C364.854 26.7864 365.159 26.6897 365.315 26.5335C367.063 24.7855 368.968 23.3945 371.541 23.3945H374.167C374.323 23.3945 374.427 23.4987 374.427 23.6549V27.5154C374.427 27.6716 374.323 27.7757 374.167 27.7757H371.541Z" fill="#000058"/>
<path d="M381.524 38.9411C381.524 42.6975 384.254 46.0894 388.828 46.0894C392.48 46.0894 394.28 44.5496 395.359 42.4892C395.463 42.2809 395.567 42.2289 395.716 42.2289H400.298C400.454 42.2289 400.611 42.2809 400.559 42.4892C399.22 47.5324 394.645 50.4632 388.828 50.4632C381.107 50.4632 376.324 44.9588 376.324 36.9327C376.324 28.9067 380.854 23.4023 388.828 23.4023C396.802 23.4023 401.384 28.9067 401.384 36.9327C401.384 37.446 401.332 38.0113 401.228 38.4278C401.176 38.584 401.124 38.6882 400.968 38.6882H381.777C381.62 38.6882 381.516 38.7923 381.516 38.9485L381.524 38.9411ZM388.828 27.776C383.837 27.776 381.524 32.1498 381.524 34.5673C381.524 34.7235 381.68 34.8277 381.784 34.8277H395.776C395.932 34.8277 396.036 34.7235 396.036 34.5673C396.036 31.6366 393.923 27.776 388.836 27.776H388.828Z" fill="#000058"/>
<path d="M411.367 38.9411C411.367 42.6975 414.097 46.0894 418.672 46.0894C422.324 46.0894 424.124 44.5496 425.203 42.4892C425.307 42.2809 425.411 42.2289 425.56 42.2289H430.142C430.298 42.2289 430.447 42.2809 430.402 42.4892C429.063 47.5324 424.489 50.4632 418.672 50.4632C410.951 50.4632 406.168 44.9588 406.168 36.9327C406.168 28.9067 410.698 23.4023 418.672 23.4023C426.646 23.4023 431.228 28.9067 431.228 36.9327C431.228 37.446 431.176 38.0113 431.072 38.4278C431.02 38.584 430.968 38.6882 430.811 38.6882H411.62C411.464 38.6882 411.36 38.7923 411.36 38.9485L411.367 38.9411ZM418.672 27.776C413.681 27.776 411.367 32.1498 411.367 34.5673C411.367 34.7235 411.524 34.8277 411.628 34.8277H425.619C425.776 34.8277 425.88 34.7235 425.88 34.5673C425.88 31.6366 423.767 27.776 418.679 27.776H418.672Z" fill="#000058"/>
</g>
<defs>
<clipPath id="clip0_10090_41">
<rect width="432" height="64" fill="white"/>
</clipPath>
</defs>
</svg>
