<svg width="533" height="299" viewBox="0 0 533 299" fill="none" xmlns="http://www.w3.org/2000/svg">
<path fill-rule="evenodd" clip-rule="evenodd" d="M531.697 299H0V0H531.697V299ZM257.125 231.791C257.125 232.486 256.638 232.972 255.943 232.972H150.23C149.535 232.972 149.048 232.486 149.048 231.791V210.037C149.048 208.612 149.535 207.674 150.23 206.979L213.616 144.079C217.647 140.291 229.219 129.17 228.976 116.174C228.733 105.053 221.401 90.3882 202.948 90.3882C187.101 90.3882 177.162 103.872 177.162 116.174C177.162 116.868 176.675 117.355 175.981 117.355H150.195C149.5 117.355 149.014 116.868 149.014 116.174C149.014 86.8436 171.463 64.1509 202.913 64.1509C236.969 64.1509 257.298 87.0866 257.298 116.174C257.298 140.534 242.39 155.443 233.876 163.227L188.943 204.859C188.248 205.554 188.456 206.979 189.638 206.979H255.839C256.534 206.979 257.02 207.465 257.02 208.16V231.791H257.125ZM327.6 64.1509C359.293 64.1509 380.561 86.3918 380.561 113.324C380.561 131.533 369.441 142.411 360.927 147.623C359.745 148.318 359.989 149.5 360.927 149.986C369.441 154.261 382.681 167.501 382.681 187.101C382.681 212.643 364.958 235.092 327.6 235.335C291.424 235.335 273.91 211.462 273.91 184.738C273.91 184.043 274.396 183.556 275.091 183.556H301.12C301.815 183.556 302.301 184.043 302.301 184.738C302.301 193.252 309.391 209.342 327.6 209.342C343.447 209.342 354.324 197.978 354.324 187.101C354.324 169.378 341.57 162.045 327.6 161.802H319.781C319.086 161.802 318.6 161.316 318.6 160.62V136.99C318.6 136.294 319.086 135.808 319.781 135.808H327.6C339.902 135.808 352.204 129.205 352.204 113.359C352.204 102.238 342.509 90.1793 327.6 90.1793C312.692 90.1793 303.24 103.906 303.24 116.174C303.24 116.868 302.753 117.355 302.058 117.355H276.273C275.578 117.355 275.091 116.868 275.091 116.174C275.091 86.8436 296.151 64.1509 327.6 64.1509Z" fill="#000058"/>
</svg>
