<svg width="304" height="144" viewBox="0 0 304 144" fill="none" xmlns="http://www.w3.org/2000/svg">
<path fill-rule="evenodd" clip-rule="evenodd" d="M93.0253 108.189C90.1121 103.588 87.7237 101.146 83.487 101.146C79.2426 101.146 76.8542 103.58 73.941 108.189L61.2309 128.514C56.4617 136.363 52.4836 141.787 43.2039 141.787C33.9242 141.787 29.6875 137.991 25.1845 127.426C18.2687 111.292 12.6847 94.6189 8.48865 77.574C2.647 54.002 0 39.3751 0 27.456C0 15.5369 3.71188 8.49341 16.4297 6.05939C33.9242 2.80389 57.5114 0.909912 83.487 0.909912C109.455 0.909912 133.042 2.81149 150.537 6.05939C163.254 8.49341 166.966 15.5369 166.966 27.4636C166.966 39.3827 164.319 54.0096 158.485 77.5892C154.289 94.6315 148.705 111.302 141.789 127.433C137.286 138.006 133.042 141.794 123.762 141.794C114.49 141.794 110.52 136.371 105.743 128.521L93.0253 108.189ZM294.714 127.205C285.701 136.957 268.739 144 246.475 144C201.689 144 175.181 112.845 175.181 71.9377C175.181 28.0493 205.66 2.03565 245.152 2.03565C280.399 2.03565 303.72 20.732 303.72 45.9241C303.72 69.7699 283.845 85.2108 261.315 85.2108C249.13 85.2108 240.116 82.7767 234.024 77.9011C231.635 75.9995 230.312 76.2733 230.312 78.4411C230.312 87.3786 233.491 94.9697 239.318 100.925C244.094 105.801 253.1 109.057 261.581 109.057C270.329 109.057 278.011 107.155 284.902 103.633C291.794 100.112 297.628 101.199 301.073 106.889C305.051 113.392 299.476 121.79 294.714 127.205Z" fill="#000058"/>
</svg>
