<svg width="61" height="61" viewBox="0 0 61 61" fill="none" xmlns="http://www.w3.org/2000/svg">
<path d="M5.09375 47.9288L5.78137 47.6531L5.71755 47.6075L5.95319 47.3986L7.73029 46.4196L9.56937 44.7349L9.94267 44.3438L9.87624 44.2911L10.1104 43.9735L11.1401 43.1935L11.5257 42.6732L11.6025 42.3571L13.1499 40.6334L13.2312 40.2886L13.485 40.1584L13.5677 39.8619L14.6079 38.2009L16.1293 36.5381L16.2596 36.2995L16.1835 36.1162L16.5386 35.8657L17.4032 34.6645L17.6856 34.5046L17.8433 34.0994L18.3417 33.4968L18.5562 32.9156L19.131 32.1883L20.242 31.2747L21.087 30.8884L21.6822 30.2376L22.0874 30.0034L22.2867 29.6431L23.1242 29.0026L24.4501 27.6292L24.5903 27.3576L25.2783 26.8459L26.8339 25.7568L27.3478 25.6232L28.4982 24.8992L29.6318 23.95L31.5544 23.0434L32.4149 23L33.3044 23.2705L33.8681 23.5737L33.9401 24.2105L33.7653 24.2298L33.9679 24.3515L34.1056 24.6854L33.9015 25.13L34.0047 25.2343L33.7753 25.8978L33.6302 25.9041L33.6833 26.1015L33.3215 26.3015L33.2759 26.451L32.3214 27.1709L32.2008 27.4192L31.0137 28.4196L30.5128 29.3121L30.1398 29.6557L29.8263 29.767L28.8032 31.0168L28.7702 31.2001L27.7033 32.293L27.2562 33.0114L27.2892 33.175L26.9693 33.4741L27.0298 33.6901L26.6131 33.9302L25.6824 34.9328L25.4034 35.0642L24.4341 36.2576L24.0296 36.9248L24.0237 37.1775L23.8003 37.3746L23.6804 37.6855L23.4879 37.779L23.4782 38.3932L23.4775 38.31L24.0942 38.2462L24.3013 38.0343L24.8894 37.8091L25.5214 37.3289L25.921 37.1801L27.736 35.6947L28.6882 35.1102L28.7765 34.9462L29.2377 34.8059L29.4622 34.4271L29.9265 34.2152L30.1874 33.8174L30.744 33.381L31.4256 32.3197L31.9734 31.815L32.5986 31.6109L32.5571 31.5382L32.8691 31.3196L33.4718 31.1163L34.8734 30.1266L37.9785 28.6278L39.6614 27.5921L41.9298 26.5672L44.2535 25.8035L46.4711 25.2421L47.3131 25.5122L47.7729 25.8035L47.8378 25.9653L47.7324 26.0614L47.8092 26.2737L47.6871 26.3382L47.7944 26.4303L47.6667 26.4544L47.7261 26.6214L46.9082 27.6085L45.1493 28.8441L44.7957 29.2549L44.4769 29.4308L44.514 29.5611L43.996 29.7804L43.2683 30.3437L41.8148 31.0743L41.4738 31.3567L41.0927 31.4859L40.7498 31.802L39.4361 32.5334L38.8651 33.1149L36.8397 34.3799L34.3338 35.587L34.3824 35.6661L31.9908 37.4369L31.682 37.8755L30.9076 38.4937L30.9239 38.7286L30.7406 38.8017L30.895 39.4526L31.0939 39.6641L31.4946 39.7112L33.1946 39.2441L39.7434 36.3545L41.974 35.642L44.825 34.5458L46.2941 34.1369L49.4568 33.66L51.6454 33.5261L52.316 33.3227L53.1283 33.2492L53.5413 33.3045L54.5432 33.8318L54.5258 34.0775L54.6386 34.1677L53.7246 35.5722L51.4339 36.7493L50.9894 37.1712L47.9346 38.4525L43.7129 39.7677L41.2489 40.8753L37.3711 42.2027L35.7599 43.0588L35.6166 43.2343L35.3131 43.2903L34.6518 43.9048L34.7372 43.9531L34.2922 44.1969L34.5394 44.5345L35.1279 44.8099L36.538 44.8485L38.1619 44.5802L43.2074 43.264L49.7388 42.6153L51.4644 42.648L53.3357 42.4658L55.1091 42.7029L55.7407 43.0554L56.0405 43.1037L56.0969 43.2309L57.2169 43.5723L57.6262 43.867L57.5831 43.9954L57.723 44.0139L57.3653 44.0551L57.1556 44.3854L56.805 44.6377L53.0214 46.5076L51.1931 46.9013L48.5903 47.8728L47.2793 48.0902L45.2361 48.9311L43.2594 49.179L40.6492 49.7972L39.3367 49.9798L38.8061 50.1126L38.1355 50.5631L38.1411 51.0029L38.4168 51.3643L39.3694 51.6764L42.5035 51.7695L44.7126 51.47L45.5163 51.5676L46.08 51.7506L46.0139 51.8114L46.6919 51.8771L47.2656 52.1265L47.4916 52.2931L47.4582 52.9247L47.6051 53.0327L47.43 53.1815L47.581 53.2735L46.8225 53.8895L46.6904 54.2925L46.5171 54.343L46.2091 54.7241L44.9222 55.1371L44.0787 55.2744L43.9422 55.4009L42.1528 55.7371L36.1703 56.2692L33.0885 56.7379L32.7886 56.8871L30.7373 57.1921L30.5458 57.3587L30.0367 57.4292L26.5793 57.1324L25.0813 57.1253L24.6319 56.9324L22.2896 56.6481L21.418 56.6964L21.2751 56.8314L20.0049 57.0518L18.9176 57.0144L16.5486 57.7977L15.8851 58.1758L14.5092 58.5432L14.2543 58.6553L14.2654 58.7918L13.9459 59.0483L12.4753 59.5218L12.0003 59.7867" stroke="black" stroke-width="1.5" stroke-linecap="round" stroke-linejoin="round"/>
<path d="M4.31974 51L4.16307 51.9923L4 52.2262L4.0719 52.5718L4.28978 52.7975L4.22598 52.9992L4.3972 53.1241L4.31117 53.3004L4.55429 53.4178L4.38093 53.5544L4.34926 53.8806L4.56798 55.2246L4.75075 55.5179L4.61592 55.5873L4.76789 55.7522L4.55685 55.8398L5.39151 56.5002L5.68772 57.2893L6.25442 57.5411L6.19493 57.6244L6.72012 58.2061L7.30952 58.4361L7.63909 58.7891L7.54922 58.8278L7.85569 58.9333L7.77907 58.9737L8.36847 59.2606L9.09526 59.3497L9.59391 59.7696L10.1829 59.8111L10.5433 60L10.64 59.878L11 59.8076L10.8339 59.692" stroke="black" stroke-width="1.5" stroke-linecap="round" stroke-linejoin="round"/>
<path d="M25.7629 17.3762L26.3854 19.7595L26.808 20.7668L27.6003 23.5476L27.7844 23.7588L27.8593 24.4139L28.1223 25.2224L28.9969 27.1523L29.8252 28.5849L29.7882 28.7294L30.6384 29.9854L30.9474 30.1394L30.8062 30.1975L30.8274 30.2876L31.0741 30.5257L31.1827 30.7908L31.1089 30.826L31.247 30.869L31.5292 31.4247L31.511 31.5542L31.6138 31.5949L31.6283 32.0014L31.832 32.1494" stroke="black" stroke-width="1.5" stroke-linecap="round" stroke-linejoin="round"/>
<path d="M22.3821 19.2863L22.0274 18.9168L22.1907 18.8492L21.1927 18.4008L20.4285 17.4546L20.7277 15.6574L19.4037 15.1626L17.667 14.8389L16.1348 14.1359L15.4584 13.1236L14.625 12.3012L14.625 10.8188L12.356 11.0319L11.6117 10.1138L11.5942 9.55487L11.1853 8.82424L11.464 8.54847L8.36401 7.49175L9.13199 6.15236L9.23669 5.62499L10.681 5.14893L12.4246 5.21454L13.1526 5.58502L14.2111 6.64865L14.625 7.35954L16.2744 8.24162L17.1166 9.47347L17.6196 9.87109L18.4643 10.1952L19.3794 10.1602L19.491 10.0398L19.7989 10.8188L20.8898 11.6066L21.4901 11.5351L21.4196 11.0886L21.6808 11.0304L21.2133 10.7201" stroke="black" stroke-width="1.5" stroke-linecap="round" stroke-linejoin="round"/>
<path d="M22.1573 10.6679L22.3448 10.5028L22.0547 10.1281L22.1504 9.48497L22.547 8.65494L22.5564 8.00695L22.8055 7.57257L23.0206 6.11146L23.6896 4.33924L24.3413 3.18833L25.1725 2.35163L25.0211 2.24482L25.437 2.02407L25.9935 1.35115L26.2312 1.30664L26.2391 1.11037L26.5243 1L27.6264 1.23454L27.7127 1.94174L27.2495 6.2561L26.7433 7.70876L26.6111 9.22907L26.1666 10.3653L25.693 11.0863L25.4675 11.9083L25.5588 12.1713L25.2258 12.6079L25.4064 12.7134L25.361 12.8594L26.1267 12.5323L26.6215 11.9657L26.7966 11.4926L26.7132 11.3017L27.8429 9.53704L29.1907 8.38613L31.022 6.40786L31.9923 5.71001L32.9386 5.31036L33.5547 5.25339L34.0767 5.79191L34.0219 6.07763L34.2153 6.14039L33.8907 6.31574L33.9445 6.57431L33.6948 6.68424L33.8216 6.84446L33.6855 7.20718L33.1413 8.16538L32.9203 8.31492L32.9173 8.54947L31.6352 9.88641L31.6016 10.1405L30.32 10.9301L29.2928 11.8309L28.8123 12.4477L29.1567 12.6742L29.9909 12.7192L30.9218 12.2648L33.1236 10.7676L35.0219 9.69236L36.6134 8.11153L37.1343 7.78931L38.3904 7.49914L39.047 7.53162L39.7159 7.69451L40.6365 8.36209L40.6863 8.23837L40.5892 8.35498L40.746 8.93221L40.45 9.88597L39.8605 10.4868L39.6454 10.5237L39.2512 11.0133L37.7022 12.069L36.2256 12.8438L35.4037 13.0316L35.2863 13.2982L35.015 13.3365L34.2878 13.8541L34.2395 14.1919L33.9509 14.2466L34.1102 14.5039L34.1674 14.3641L35.1023 14.9783L36.3332 15.3619L35.2661 16.6495L34.868 16.7425L34.4023 17.1947L33.3263 17.6829L32.6766 17.6962L31.7437 18.1052L29.6175 19.4377L27.9855 19.4235" stroke="black" stroke-width="1.5" stroke-linecap="round" stroke-linejoin="round"/>
<path d="M35.364 35.2158C35.4565 35.6552 36.051 35.6176 36.2132 35.9862C36.2534 36.0776 36.3068 36.1866 36.3707 36.2575C36.5442 36.4503 36.6749 36.6558 36.7822 36.8703" stroke="black" stroke-width="1.5" stroke-linecap="round"/>
<path d="M40.6428 41.5188C40.6878 42.0138 41.0429 42.404 41.1943 42.8582" stroke="black" stroke-width="1.5" stroke-linecap="round"/>
<path d="M43.2427 49.7915C43.2427 50.0695 43.0692 50.863 43.4003 50.9733" stroke="black" stroke-width="1.5" stroke-linecap="round"/>
<path d="M43.5579 55.9368C43.5579 56.4965 43.5508 57.415 44.0306 57.8101C44.2608 57.9997 44.6356 57.9879 44.8141 58.2259C45.0814 58.5824 45.1739 59.1688 45.3699 59.5609" stroke="black" stroke-width="1.5" stroke-linecap="round"/>
</svg>
