<svg width="143" height="143" viewBox="0 0 143 143" fill="none" xmlns="http://www.w3.org/2000/svg">
<path fill-rule="evenodd" clip-rule="evenodd" d="M35.0467 20.9057C59.1544 -3.20197 98.2405 -3.20197 122.348 20.9057C146.456 45.0135 146.456 84.0996 122.348 108.207C122.223 108.332 122.102 108.456 121.976 108.579L108.915 121.641C84.8069 145.749 45.7208 145.749 21.613 121.641C-2.49469 97.5333 -2.49469 58.4471 21.613 34.3394L35.0467 20.9057ZM11.1444 72.0541C11.1057 72.4094 11.2944 72.7507 11.6161 72.9065C11.9379 73.0623 12.3227 72.9987 12.5774 72.7477L16.3835 68.9952C16.8321 68.5528 17.0725 67.9396 17.0443 67.3102C16.8076 62.0102 17.244 56.6869 18.366 51.4796C18.3971 51.3353 18.3181 51.1899 18.18 51.1375C18.0421 51.0851 17.8866 51.1414 17.814 51.2701C14.1533 57.7626 11.9307 64.8433 11.1444 72.0541ZM75.2159 126.173C80.7561 126.485 86.3287 126.061 91.7745 124.888C91.9187 124.857 92.0641 124.936 92.1164 125.074C92.1688 125.212 92.1125 125.367 91.984 125.44C85.2043 129.264 77.7839 131.528 70.2436 132.218C69.8896 132.25 69.5532 132.057 69.402 131.736C69.2508 131.414 69.317 131.032 69.568 130.78L73.5139 126.823C73.9625 126.374 74.5817 126.137 75.2159 126.173ZM50.2736 119.353C54.5605 121.578 59.0518 123.266 63.6518 124.418C63.977 124.5 64.2334 124.749 64.323 125.072C64.4126 125.396 64.322 125.742 64.0848 125.979L58.9065 131.158C58.392 131.672 57.6628 131.91 56.9436 131.799C51.7904 131.007 46.7318 129.471 41.9343 127.197C41.6609 127.067 41.4675 126.812 41.4158 126.514C41.3641 126.216 41.4606 125.911 41.6747 125.697L47.6079 119.764C48.312 119.06 49.3898 118.894 50.2736 119.353ZM18.6692 78.928C19.7754 83.5695 21.4244 88.1066 23.6189 92.44C24.0644 93.3199 23.8948 94.388 23.1974 95.0854L17.2864 100.996C17.0709 101.212 16.7635 101.308 16.4635 101.254C16.1636 101.201 15.9089 101.003 15.7819 100.726C13.5476 95.8625 12.0685 90.7399 11.344 85.5297C11.2455 84.8216 11.4851 84.1051 11.9906 83.5996L17.1056 78.4847C17.3441 78.2462 17.6931 78.1553 18.0177 78.2473C18.3423 78.3392 18.5909 78.5998 18.6692 78.928ZM35.0465 108.207C37.0205 110.181 39.0975 111.988 41.2566 113.637C41.5701 113.876 41.7649 114.24 41.7909 114.633C41.8169 115.027 41.6713 115.412 41.3923 115.691L35.1183 121.965C34.6442 122.439 33.8953 122.5 33.3519 122.107C31.0449 120.438 28.835 118.575 26.757 116.497C24.5272 114.267 22.5398 111.888 20.7794 109.397C20.3957 108.854 20.4576 108.113 20.9277 107.643L27.2007 101.37C27.4812 101.09 27.8695 100.945 28.2651 100.973C28.6608 101.001 29.0257 101.199 29.2632 101.517C31.0062 103.849 32.9277 106.089 35.0465 108.207ZM92.4164 61.2023C91.7761 60.8206 91.2176 60.262 90.7572 59.5408C90.2915 58.8107 89.9327 57.8928 89.6914 56.8106C89.447 55.7203 89.323 54.4592 89.323 53.0621C89.323 51.6658 89.447 50.4047 89.6914 49.3129C89.9327 48.2323 90.2915 47.3143 90.7572 46.5835C91.2169 45.8638 91.7754 45.3045 92.4156 44.922C93.0521 44.544 93.7844 44.3524 94.5933 44.3524C95.4541 44.3524 96.2131 44.544 96.8489 44.922C97.4891 45.3038 98.0394 45.8616 98.4858 46.5805C98.9396 47.3121 99.2858 48.23 99.5137 49.31C99.7462 50.4047 99.8635 51.6674 99.8635 53.0621C99.8635 54.4815 99.7402 55.7493 99.4958 56.8292C99.253 57.9002 98.8995 58.8137 98.4464 59.5438C98.0001 60.2628 97.449 60.8213 96.8096 61.2023C96.1753 61.5803 95.4296 61.772 94.5933 61.772C93.783 61.772 93.0507 61.5803 92.4164 61.2023ZM40.1907 103.063C61.4573 124.33 95.9374 124.33 117.204 103.063C138.471 81.7967 138.471 47.3165 117.204 26.0498C95.9376 4.78326 61.4573 4.78314 40.1907 26.0498C18.9239 47.3165 18.9241 81.7966 40.1907 103.063ZM83.529 59.0818C82.9824 57.2949 82.7047 55.2695 82.7047 53.0621C82.7047 50.8548 82.9824 48.8294 83.529 47.0425C84.0787 45.2473 84.8741 43.6899 85.8946 42.4146C86.9225 41.1305 88.197 40.1308 89.6818 39.4431C91.1649 38.7553 92.8174 38.4062 94.5933 38.4062C96.3943 38.4062 98.0603 38.7553 99.5442 39.4431C101.03 40.1315 102.303 41.1312 103.331 42.4146C104.352 43.6913 105.148 45.248 105.698 47.0425C106.244 48.8302 106.521 50.8555 106.521 53.0621C106.521 55.2687 106.244 57.3 105.698 59.1004C105.148 60.9097 104.344 62.4745 103.31 63.7505C102.27 65.0339 100.996 66.0269 99.5242 66.7014C98.0528 67.3757 96.3935 67.7181 94.5933 67.7181C92.8174 67.7181 91.1649 67.369 89.6818 66.682C88.1955 65.9928 86.9217 64.9931 85.8946 63.7097C84.8741 62.4344 84.0787 60.877 83.529 59.0818ZM53.1484 49.9517C52.7837 49.6301 52.5751 49.1696 52.5751 48.6868V46.738C52.5751 45.9106 53.167 45.2124 53.9817 45.0765C54.5105 44.9889 55.0111 44.8567 55.4701 44.6836C56.2269 44.3984 56.8805 43.9899 57.4138 43.47C57.9471 42.9486 58.3763 42.3374 58.6883 41.6511C58.8264 41.3474 58.9342 41.0183 59.0099 40.6752C59.2312 39.6725 60.1039 38.9722 61.1318 38.9722H63.3927C64.5914 38.9722 65.5665 39.9473 65.5665 41.1453V64.9797C65.5665 66.1777 64.5914 67.1529 63.3927 67.1529H60.9327C59.7347 67.1529 58.7596 66.1777 58.7596 64.9797V48.9505C58.4736 49.1146 58.1796 49.2698 57.8773 49.4162C57.402 49.6479 56.8872 49.8403 56.3473 49.9881C55.8132 50.1351 55.2502 50.251 54.6747 50.3312L54.4726 50.3579C54.4028 50.3668 54.3315 50.3713 54.2602 50.3713C53.8518 50.3713 53.4567 50.222 53.1484 49.9517ZM112.444 85.1693C112.92 85.584 113.204 86.1777 113.232 86.8089C113.259 87.4399 113.026 88.0545 112.587 88.5089C104.02 97.3792 92.0032 102.895 78.6975 102.895C65.3916 102.895 53.3745 97.3793 44.8077 88.5089C44.3686 88.0543 44.1348 87.4398 44.1617 86.8083C44.1888 86.1769 44.4741 85.5844 44.9507 85.1693L46.9664 83.4142C47.8885 82.6115 49.2779 82.6708 50.13 83.5474C57.3679 90.9943 67.4924 95.6207 78.6975 95.6207C89.9023 95.6207 100.027 90.9943 107.265 83.5474C108.118 82.6696 109.505 82.6104 110.428 83.4143L112.444 85.1693Z" fill="#000058"/>
</svg>
