<svg width="344" height="344" viewBox="0 0 344 344" fill="none" xmlns="http://www.w3.org/2000/svg">
<g clip-path="url(#clip0_115_39)">
<path d="M136.336 0.67371C135.72 1.00338 132.079 1.46204 128.267 1.67704C111.081 2.63738 91.0861 6.77971 79.2754 11.8107C77.9854 12.427 76.3084 13.1007 75.5774 13.4447C61.7476 19.3695 49.184 27.8945 38.5688 38.5567C27.7251 49.3486 19.0926 62.1536 13.1558 76.2534C12.4821 77.6867 11.7511 79.55 11.4214 80.2667C10.4611 82.3164 7.72342 91.16 6.49076 95.7467C3.97565 106.414 2.36461 117.274 1.67476 128.212C1.45976 132.024 1.00109 135.722 0.671422 136.382C-0.288911 138.073 -0.288911 205.927 0.671422 207.618C1.00109 208.278 1.45976 211.976 1.67476 215.788C2.63509 232.917 6.77742 252.912 11.8084 264.722C12.4248 266.012 13.0984 267.689 13.4424 268.42C19.3715 282.251 27.9014 294.815 38.5688 305.429C49.3606 316.273 62.1657 324.905 76.2654 330.842C77.6988 331.516 79.5621 332.247 80.2788 332.576C82.2998 333.537 91.1434 336.274 95.7444 337.507C106.411 340.022 117.272 341.633 128.209 342.323C132.022 342.538 135.72 342.997 136.379 343.326C138.071 344.287 205.925 344.287 207.616 343.326C208.275 342.997 211.973 342.538 215.786 342.323C232.914 341.363 252.909 337.22 264.72 332.189C266.01 331.573 267.687 330.899 268.418 330.57C282.25 324.636 294.814 316.102 305.427 305.429C316.27 294.637 324.903 281.832 330.84 267.732C331.513 266.299 332.244 264.436 332.574 263.719C333.534 261.698 336.272 252.854 337.505 248.253C340.02 237.586 341.631 226.726 342.321 215.788C342.536 211.976 342.994 208.278 343.324 207.618C344.284 205.927 344.284 138.073 343.324 136.382C342.994 135.722 342.536 132.024 342.321 128.212C341.36 111.083 337.218 91.0884 332.187 79.2777C331.571 77.9877 330.897 76.3107 330.567 75.5797C324.634 61.7476 316.099 49.1838 305.427 38.571C294.635 27.7274 281.83 19.0949 267.73 13.158C266.297 12.4844 264.433 11.7534 263.717 11.4237C261.681 10.4634 252.838 7.72571 248.251 6.49304C237.584 3.97794 226.724 2.3669 215.786 1.67704C211.973 1.46204 208.275 1.00338 207.616 0.67371C205.925 -0.22929 137.784 -0.22929 136.336 0.67371ZM243.994 72.9567C257.998 76.54 267.458 86 271.041 100.004C272.001 103.745 272.102 111.972 272.102 172C272.102 232.028 272.102 240.255 271.041 243.996C267.458 258 257.998 267.46 243.994 271.043C240.253 272.004 232.069 272.104 172.901 272.104C114.994 272.104 105.477 272.004 101.836 271.101C87.9041 267.632 78.8884 258.774 74.6314 244.555C73.6854 241.259 73.5708 233.762 73.5708 172C73.5708 110.238 73.6854 102.741 74.6314 99.4447C78.8168 85.3789 87.756 76.5496 101.449 72.9567C104.531 72.1684 116.227 71.9964 172.442 71.9534C232.183 71.9534 240.239 71.9964 243.994 72.9567ZM99.8294 147.762L88.4631 159.129L100.001 170.538C125.744 196.238 135.104 202.358 157.55 208.392C162.136 209.625 183.206 209.625 187.793 208.392C210.354 202.286 219.14 196.582 244.553 171.556L256.994 159.286L245.571 147.82C239.293 141.542 233.86 136.396 233.473 136.396C233.144 136.396 226.98 142.215 219.713 149.382C212.547 156.491 205.81 162.927 204.864 163.658C199.398 168.314 193.192 172.025 186.503 174.637C183.975 175.438 181.386 176.037 178.763 176.429C175.226 177.285 171.548 177.382 167.97 176.716C153.235 174.408 144.793 168.861 122.619 146.53C117.13 140.983 112.256 136.396 111.869 136.396C111.482 136.396 106.093 141.484 99.8294 147.762Z" fill="#000058"/>
</g>
<defs>
<clipPath id="clip0_115_39">
<rect width="344" height="344" fill="white"/>
</clipPath>
</defs>
</svg>
