<svg width="3980" height="1025" viewBox="0 0 3980 1025" fill="none" xmlns="http://www.w3.org/2000/svg">
<g clip-path="url(#clip0_115_2)">
<path d="M1935.17 735.06C2001.04 735.06 2054.43 681.665 2054.43 615.8C2054.43 549.935 2001.04 496.54 1935.17 496.54C1869.3 496.54 1815.91 549.935 1815.91 615.8C1815.91 681.665 1869.3 735.06 1935.17 735.06Z" fill="#000058"/>
<path d="M3477.89 371.05C3401.35 371.05 3339.94 434.24 3339.94 512.56C3339.94 589.99 3401.35 653.18 3477.89 653.18C3553.54 653.18 3615.89 589.99 3615.89 512.56C3615.84 434.24 3553.54 371.05 3477.89 371.05Z" fill="#000058"/>
<path d="M451.66 384.4C383.13 384.4 328 440.47 328 509.89C328 579.31 383.18 636.27 451.71 636.27C520.24 636.27 576.31 579.27 576.31 509.89C576.31 440.51 520.19 384.4 451.66 384.4Z" fill="#000058"/>
<path d="M0 0V1025H3980V0H0ZM427.63 824.06H201.57V201.06H427.63C601.18 201.06 739.13 337.23 739.13 512.56C739.13 687 601.18 824.06 427.63 824.06ZM915.16 291.84V824.06H821.71V201.06H915.16V291.84ZM1603.56 668.31C1603.56 761.76 1532.36 832.96 1437.13 832.96C1341.9 832.96 1269.81 761.76 1269.81 668.31V355.92C1269.81 309.64 1238.66 277.6 1196.81 277.6C1154.09 277.6 1122.94 309.6 1122.94 355.92V824.06H1029.49V360.37C1029.49 262.47 1101.58 192.16 1196.81 192.16C1292.04 192.16 1363.24 262.47 1363.24 360.37V672.76C1363.24 719.04 1394.39 746.63 1437.11 746.63C1478.94 746.63 1510.11 719.04 1510.11 672.76V201.06H1603.56V668.31ZM1624.56 824.06L1889.78 227.76C1901.35 203.76 1915.59 192.16 1935.17 192.16C1954.75 192.16 1968.99 203.73 1979.67 227.76L2243.11 824.06H1624.56ZM3072.14 824.06H2978.69V353.25C2978.69 310.53 2949.32 279.38 2909.27 279.38C2868.33 279.38 2838.96 310.53 2838.96 353.25V671.87C2838.96 764.43 2772.21 832.96 2680.54 832.96C2588.87 832.96 2523 764.43 2523 671.87V353.25C2523 310.53 2493.63 279.38 2452.69 279.38C2412.69 279.38 2382.38 310.53 2382.38 353.25V824.06H2288.93V363.93C2288.93 264.25 2358.35 192.16 2452.69 192.16C2547.03 192.16 2616.45 264.25 2616.45 363.93V677.21C2616.45 716.37 2643.15 745.74 2680.53 745.74C2717.91 745.74 2745.53 716.37 2745.53 677.21V363.93C2745.53 264.25 2814.95 192.16 2909.29 192.16C3003.63 192.16 3072.16 264.25 3072.16 363.93L3072.14 824.06ZM3477.89 832.96C3294.55 832.96 3152.15 690.56 3152.15 512.56C3152.15 334.56 3294.55 192.16 3477.89 192.16C3660.34 192.16 3803.63 334.56 3803.63 512.56C3803.63 690.56 3661.23 833 3477.89 833V832.96Z" fill="#000058"/>
</g>
<defs>
<clipPath id="clip0_115_2">
<rect width="3980" height="1025" fill="white"/>
</clipPath>
</defs>
</svg>
