<svg width="169" height="162" viewBox="0 0 169 162" fill="none" xmlns="http://www.w3.org/2000/svg">
<mask id="mask0_190_4006" style="mask-type:luminance" maskUnits="userSpaceOnUse" x="0" y="0" width="169" height="162">
<path d="M168.859 0H0V162H168.859V0Z" fill="white"/>
</mask>
<g mask="url(#mask0_190_4006)">
<path d="M23.5937 114.841C23.6169 115.604 23.8037 116.158 24.2466 116.52C24.7123 116.883 25.342 117.074 26.2739 117.074C27.7423 117.074 29.327 116.788 29.327 115.68C29.327 115.432 29.2108 115.223 29.0246 115.051C28.0686 114.173 20.0274 113.524 17.7666 111.902C16.8579 111.253 16.578 110.28 16.578 109.497C16.578 106.482 19.9575 105.127 26.6932 105.127C33.8487 105.127 36.0164 106.749 36.1098 109.592H29.1641C29.1177 108.829 28.8146 108.352 28.3018 108.065C27.8122 107.779 27.1129 107.684 26.2275 107.684C24.7358 107.684 23.9435 108.142 23.9435 108.848C23.9435 109.058 24.0366 109.325 24.2466 109.478C25.342 110.337 33.1265 110.948 35.3641 112.589C36.0164 113.066 36.6922 113.81 36.6922 115.146C36.6922 117.875 33.7556 119.631 26.0877 119.631C16.951 119.631 16.5081 117.398 16.3687 114.841H23.5937Z" fill="#000058"/>
<path d="M52.4458 113.963L49.8355 109.153L47.1086 113.963H52.4458ZM45.7332 105.489H54.5668L63.144 119.269H55.336L54.1007 116.979H45.4069L44.1018 119.269H37.156L45.7332 105.489Z" fill="#000058"/>
<path d="M64.6316 105.489H75.0035L80.667 114.726H80.7369V105.489H86.8903V119.269H76.8446L70.8317 109.459H70.7843V119.269H64.6316V105.489Z" fill="#000058"/>
<path d="M103.017 110.604C102.83 108.905 101.945 108.142 100.034 108.142C97.2829 108.142 96.351 110.089 96.351 112.379C96.351 114.669 97.2829 116.616 100.034 116.616C102.178 116.616 103.226 115.795 103.296 114.02H110.522C110.475 115.261 110.312 116.463 109.007 117.494C107.119 118.982 103.809 119.631 100.197 119.631C91.7592 119.631 88.9856 116.788 88.9856 112.379C88.9856 109.115 90.7803 105.127 100.197 105.127C104.415 105.127 107.352 105.775 108.82 106.921C109.869 107.741 110.219 108.581 110.242 110.604H103.017Z" fill="#000058"/>
<path d="M117.417 108.848H111.893V105.489H130.026V108.848H124.502V119.268H117.417V108.848Z" fill="#000058"/>
<path d="M132.214 105.489H139.066V113.047C139.066 115.68 140.185 116.501 142.329 116.501C144.474 116.501 145.593 115.68 145.593 113.047V105.489H152.305V113.543C152.305 115.719 151.792 116.635 150.697 117.57C148.996 119.02 146.059 119.631 142.26 119.631C138.46 119.631 135.524 119.02 133.822 117.57C132.727 116.635 132.214 115.719 132.214 113.543V105.489Z" fill="#000058"/>
<path d="M38.1575 152.958C37.9707 151.259 37.0853 150.496 35.1742 150.496C32.4235 150.496 31.4917 152.442 31.4917 154.732C31.4917 157.023 32.4235 158.969 35.1742 158.969C37.3181 158.969 38.3669 158.149 38.4368 156.374H45.6624C45.6157 157.614 45.4524 158.817 44.1476 159.847C42.2595 161.336 38.9499 161.985 35.3372 161.985C26.8998 161.985 24.1262 159.141 24.1262 154.732C24.1262 151.469 25.921 147.48 35.3372 147.48C39.5554 147.48 42.4923 148.129 43.9608 149.274C45.0095 150.095 45.3593 150.935 45.3825 152.958H38.1575Z" fill="#000058"/>
<path d="M59.0154 150.61C56.6847 150.61 54.9831 151.908 54.9831 154.732C54.9831 157.557 56.6847 158.855 59.0154 158.855C61.3461 158.855 63.0478 157.557 63.0478 154.732C63.0478 151.908 61.3461 150.61 59.0154 150.61ZM68.0822 159.599C66.2643 161.03 63.3509 161.985 59.0154 161.985C50.788 161.985 47.7581 158.855 47.7581 154.732C47.7581 152.061 49.0632 150.133 50.9981 149.007C52.606 148.072 54.6806 147.48 59.0154 147.48C67.2428 147.48 70.2728 150.61 70.2728 154.732C70.2728 156.851 69.4804 158.511 68.0822 159.599Z" fill="#000058"/>
<path d="M72.3682 147.843H83.1131L86.6321 157.08H86.6788L90.0821 147.843H100.873V161.622H94.3006V151.259H94.2539L89.6388 161.622H82.7865L78.4514 151.259H78.3815V161.622H72.3682V147.843Z" fill="#000058"/>
<path d="M110.405 154.293H111.849C114.366 154.293 115.276 153.836 115.276 152.48C115.276 151.335 114.576 150.743 112.548 150.743H110.405V154.293ZM103.319 147.843H115.322C119.378 147.843 122.221 149.045 122.221 152.633C122.221 155.992 119.494 157.194 115.951 157.194H110.405V161.622H103.319V147.843Z" fill="#000058"/>
<mask id="mask1_190_4006" style="mask-type:alpha" maskUnits="userSpaceOnUse" x="124" y="147" width="21" height="15">
<path d="M124.456 161.985H144.547V147.843H124.456V161.985Z" fill="white"/>
</mask>
<g mask="url(#mask1_190_4006)">
<path d="M124.456 147.843H131.308V155.401C131.308 158.034 132.427 158.855 134.572 158.855C136.716 158.855 137.835 158.034 137.835 155.401V147.843H144.547V155.896C144.547 158.072 144.034 158.988 142.939 159.924C141.238 161.374 138.301 161.985 134.502 161.985C130.702 161.985 127.766 161.374 126.064 159.924C124.969 158.988 124.456 158.072 124.456 155.896V147.843Z" fill="#000058"/>
</g>
<path d="M3.59274 131.851H165.081V26.8911L84.3367 3.73816L3.59274 26.8911V131.851ZM168.674 135.443H0V24.1838L84.3367 0.000732422L168.674 24.1838V135.443Z" fill="#000058"/>
</g>
</svg>
