<svg width="290" height="243" viewBox="0 0 290 243" fill="none" xmlns="http://www.w3.org/2000/svg">
<path d="M48.3731 165.239C52.2231 165.239 55.3441 161.619 55.3441 157.154C55.3441 152.688 52.2231 149.068 48.3731 149.068C44.5231 149.068 41.4021 152.688 41.4021 157.154C41.4021 161.619 44.5231 165.239 48.3731 165.239Z" fill="#000000"/>
<path d="M48.3731 72.6552C52.2231 72.6552 55.3441 69.0351 55.3441 64.5694C55.3441 60.1037 52.2231 56.4835 48.3731 56.4835C44.5231 56.4835 41.4021 60.1037 41.4021 64.5694C41.4021 69.0351 44.5231 72.6552 48.3731 72.6552Z" fill="#000000"/>
<path d="M76.1622 141.687C75.3724 142.313 74.8637 143.228 74.7478 144.229C74.6319 145.23 74.9185 146.236 75.5444 147.026C78.3986 150.626 82.2602 156.321 81.7632 163.339C81.0916 172.775 80.0238 175.602 77.586 181.787C77.1937 182.712 77.1769 183.753 77.5393 184.689C77.9016 185.626 78.6145 186.384 79.5268 186.804C80.0088 187.018 80.5306 187.128 81.0581 187.126C81.7949 187.127 82.516 186.913 83.1336 186.511C83.7512 186.11 84.2387 185.537 84.5369 184.863C87.8948 177.294 88.6537 173.836 89.3521 163.869C90.1311 152.694 82.7437 143.863 81.508 142.305C80.8806 141.515 79.9653 141.006 78.963 140.89C77.9606 140.774 76.9533 141.061 76.1622 141.687Z" fill="#000000"/>
<path d="M76.2772 45.5367C75.8801 45.846 75.5484 46.2312 75.3016 46.67C75.0548 47.1087 74.8978 47.5922 74.8397 48.0922C74.7815 48.5922 74.8235 49.0988 74.9631 49.5825C75.1026 50.0661 75.3371 50.5172 75.6527 50.9093C78.5069 54.5224 82.3685 60.2309 81.8715 67.2221C81.1999 76.6242 80.4478 79.7403 77.6876 85.6771C77.4836 86.1341 77.3723 86.6269 77.3599 87.1271C77.3476 87.6273 77.4344 88.1251 77.6155 88.5915C77.7966 89.058 78.0683 89.4839 78.415 89.8448C78.7616 90.2056 79.1763 90.4942 79.6352 90.6939C80.1183 90.9045 80.6393 91.0142 81.1664 91.0162C81.901 90.9996 82.6164 90.7784 83.2322 90.3774C83.848 89.9763 84.3396 89.4115 84.6519 88.7463C88.2918 81.4327 89.138 76.134 89.4604 67.7526C89.8835 56.5573 82.852 47.7462 81.6163 46.1881C80.994 45.3948 80.0824 44.8806 79.0815 44.7585C78.0806 44.6364 77.0721 44.9162 76.2772 45.5367Z" fill="#000000"/>
<path d="M284.615 159.746C284.3 158.698 284.011 157.819 283.762 157.06C282.668 153.702 282.668 153.702 285.958 146.005C288.095 141.019 289.192 135.648 289.182 130.223C289.181 128.982 288.87 127.761 288.278 126.671C287.686 125.58 286.831 124.654 285.791 123.978C284.742 123.294 283.54 122.881 282.293 122.777C281.046 122.673 279.792 122.88 278.645 123.38C271.513 126.469 258.605 132.05 252.232 134.709C242.735 138.665 234.099 139.108 225.086 136.106C221.137 134.763 216.409 132.822 211.406 130.734C202.333 126.953 192.058 122.675 182.172 120.445C179.761 119.908 177.558 119.377 175.456 118.873L174.63 118.679C176.826 118.101 179.076 117.477 181.313 116.812C193.237 113.104 204.964 108.791 216.45 103.89C228.437 98.5648 236.208 99.6125 245.583 103.219C250.056 104.938 258.947 108.934 270.62 114.461C272.328 115.204 274.22 115.417 276.051 115.072C277.882 114.727 279.567 113.841 280.888 112.527C281.974 111.502 282.705 110.157 282.972 108.688C283.239 107.218 283.029 105.702 282.372 104.361C280.002 99.4715 279.343 90.7879 282.372 85.2877C286.993 76.9668 286.442 73.9514 284.179 66.4834L283.83 65.335C283.514 64.2873 283.232 63.4075 282.983 62.6486C281.882 59.2907 281.882 59.2907 285.173 51.5944C287.051 47.2306 288.131 42.5654 288.363 37.8202C288.43 36.3701 288.127 34.9267 287.481 33.6263C286.836 32.3259 285.87 31.2115 284.674 30.3882C283.479 29.5648 282.093 29.0598 280.648 28.9207C279.203 28.7817 277.746 29.0132 276.415 29.5934C268.209 33.1729 257.188 37.9143 251.479 40.2984C241.977 44.254 233.347 44.704 224.327 41.6953L178.566 26.4571C178.521 26.4489 178.478 26.4315 178.44 26.4061C178.402 26.3807 178.369 26.3478 178.344 26.3093C175.524 22.3201 169.869 15.3155 163.637 13.2403C157.283 11.1249 132.072 3.43524 122.563 1.82344C121.219 1.59511 119.917 1.35334 118.694 1.11828C111.488 -0.224881 104.678 -1.52775 99.3661 4.67095C96.0082 8.5527 90.743 14.8589 88.1977 17.9011C88.1446 17.9591 88.0787 18.0039 88.0053 18.0319C87.9318 18.0599 87.8528 18.0703 87.7746 18.0623C80.5215 17.7265 54.9342 17.6593 30.0857 30.7082C6.94969 42.8907 1.41586 62.4069 0.112989 70.2308C-0.070262 71.3431 -0.0302896 72.4809 0.230576 73.5776C0.491442 74.6743 0.967983 75.7082 1.63243 76.6189C2.29688 77.5297 3.13594 78.299 4.10072 78.8822C5.0655 79.4654 6.1367 79.8507 7.25191 80.0157C15.4049 81.3253 19.2329 82.9506 20.6433 83.8639C19.8038 84.5892 17.8025 85.8048 13.7595 87.0741C12.3015 87.5076 10.9886 88.3288 9.96078 89.45C8.93296 90.5713 8.22882 91.9506 7.92349 93.4407C7.61142 94.9357 7.70395 96.487 8.19152 97.9343C8.67909 99.3817 9.54405 100.673 10.6971 101.674C16.0228 106.322 26.6942 113.924 44.1218 119.317C39.5707 120.942 35.1386 122.883 30.858 125.126C7.09744 137.624 1.87925 157.664 0.724128 165.696C0.444404 167.679 0.956133 169.692 2.14871 171.301C3.3413 172.909 5.11894 173.984 7.09744 174.292C15.828 175.636 19.8978 177.321 21.3618 178.275C20.4283 179.088 18.0375 180.498 13.0208 181.915C11.7309 182.278 10.5607 182.978 9.62968 183.942C8.69871 184.906 8.04039 186.1 7.72201 187.402C7.40279 188.702 7.44015 190.065 7.83017 191.346C8.22019 192.627 8.94844 193.78 9.93823 194.682C18.6151 202.801 38.8163 216.844 76.6801 219.618C81.5625 219.973 87.0896 220.175 93.1405 220.202C99.2587 227.932 109.285 237.153 123.436 240.463C128.175 241.638 133.033 242.269 137.915 242.344C140.892 242.385 143.86 242.009 146.733 241.229C147.949 240.891 149.069 240.272 150.002 239.421C150.936 238.571 151.656 237.513 152.105 236.333C152.571 235.128 152.752 233.831 152.636 232.544C152.519 231.257 152.108 230.015 151.434 228.912L144.496 217.623C150.158 217.099 153.825 216.689 154.335 216.636C154.668 216.6 154.998 216.539 155.322 216.454C160.272 215.212 204.046 204.151 217.202 198.322C229.183 192.996 236.96 194.044 246.342 197.65C252.695 200.095 265.871 206.273 273.165 209.739C274.519 210.378 276.031 210.606 277.514 210.395C278.996 210.183 280.384 209.542 281.506 208.55C282.576 207.642 283.352 206.436 283.736 205.086C284.119 203.736 284.094 202.303 283.662 200.968C281.788 195.132 281.217 184.212 283.319 179.396C287.234 170.417 287.087 168.02 284.615 159.746ZM278.571 142.836C274.542 152.238 274.152 153.5 276.126 159.551C276.355 160.263 276.623 161.082 276.919 162.063C278.934 168.725 279.034 169.121 275.965 176.166C272.896 183.211 273.742 195.011 275.583 201.962C266.684 197.737 255.281 192.452 249.257 190.135C238.511 185.998 228.377 184.554 213.951 190.961C201.191 196.629 155.329 208.174 153.462 208.651C152.79 208.724 146.504 209.423 137.344 210.182C136.658 210.238 135.998 210.47 135.426 210.854C134.855 211.238 134.391 211.762 134.08 212.377C133.769 212.991 133.621 213.675 133.649 214.363C133.677 215.051 133.881 215.72 134.241 216.307L144.597 233.157C144.634 233.209 144.651 233.273 144.645 233.337C144.639 233.402 144.61 233.461 144.564 233.506C141.38 234.419 135.457 235.01 125.316 232.639C112.502 229.644 103.57 220.726 98.3251 213.775C97.9498 213.276 97.4639 212.872 96.9056 212.594C96.3474 212.315 95.7321 212.17 95.1083 212.17C88.4932 212.237 82.4758 211.988 77.2643 211.606C42.8525 209.074 24.3638 196.905 16.1034 189.443C25.21 186.757 29.7096 183.077 29.8574 178.288C30.0387 172.459 23.343 168.678 8.78983 166.421C9.89122 159.356 14.5856 142.829 34.639 132.278C42.8781 128 51.6663 124.875 60.7568 122.99C61.6655 122.793 62.4781 122.288 63.0569 121.56C63.6356 120.833 63.9449 119.927 63.9323 118.997C63.9196 118.068 63.5858 117.171 62.9875 116.459C62.3892 115.748 61.5631 115.265 60.6494 115.092C36.0023 110.546 22.114 100.942 16.0228 95.6166C15.9501 95.5569 15.8953 95.4782 15.8645 95.3894C15.8337 95.3005 15.828 95.2048 15.8482 95.1129C15.8606 95.0309 15.8974 94.9544 15.9536 94.8934C16.0098 94.8324 16.083 94.7895 16.1638 94.7704C19.3135 93.7832 28.9239 90.7812 29.1052 83.8706C29.2865 78.1017 22.7453 74.3543 8.51448 72.0777C8.4482 72.0698 8.38423 72.0484 8.32649 72.0149C8.26875 71.9814 8.21845 71.9365 8.17869 71.8829C8.14598 71.8379 8.12309 71.7866 8.11152 71.7322C8.09995 71.6778 8.09995 71.6216 8.11153 71.5672C9.46141 63.3068 14.6393 47.9477 33.8667 37.874C56.8617 25.7855 80.6625 25.8325 87.4052 26.1481C88.7239 26.2221 90.0415 25.9847 91.2513 25.455C92.4612 24.9253 93.5294 24.1183 94.3695 23.0992C96.9014 20.077 102.167 13.8045 105.477 9.94287C107.586 7.48488 110.064 7.71322 117.197 9.0631C118.473 9.30487 119.822 9.56007 121.226 9.79512C129.876 11.239 154.221 18.5996 161.078 20.8829C164.503 22.0246 168.841 26.8399 171.756 30.9567C172.795 32.4376 174.287 33.5407 176.007 34.0997L221.769 49.3513C232.588 52.9644 243.32 52.4406 254.562 47.7529C260.317 45.3554 271.352 40.5872 279.632 37.0076C279.711 36.9678 279.799 36.9505 279.886 36.9576C279.974 36.9648 280.058 36.996 280.129 37.0479C280.196 37.091 280.249 37.151 280.285 37.2219C280.32 37.2928 280.336 37.3718 280.331 37.4509C280.145 41.238 279.283 44.9613 277.785 48.4447C273.756 57.8468 273.366 59.1094 275.334 65.1604C275.569 65.8722 275.838 66.6916 276.126 67.6721L276.482 68.8339C278.349 75.0057 278.544 75.6505 275.341 81.4194C270.982 89.2701 271.768 100.284 274.75 107.121C274.54 107.219 274.305 107.247 274.078 107.201C265.697 103.232 254.455 98.0141 248.491 95.7241C237.746 91.5871 227.605 90.1432 213.193 96.5501C202.014 101.288 190.605 105.464 179.009 109.062C167.142 112.587 155.504 114.837 153.999 114.978C153.011 115.08 152.095 115.542 151.427 116.278C150.759 117.013 150.386 117.97 150.38 118.963C150.374 119.957 150.736 120.917 151.395 121.661C152.055 122.404 152.965 122.877 153.952 122.99C161.602 123.823 167.156 125.146 173.576 126.684C175.712 127.194 177.948 127.725 180.399 128.276C189.6 130.351 199.533 134.488 208.303 138.141C213.448 140.284 218.303 142.312 222.528 143.715C233.353 147.322 244.079 146.805 255.328 142.117C261.533 139.531 273.85 134.206 281.116 131.056C281.025 135.109 280.161 139.107 278.571 142.836Z" fill="#000000"/>
<path d="M111.507 48.3775C126.219 48.9099 140.881 50.3927 155.402 52.8167C177 56.5977 203.353 65.3484 203.615 65.4088C203.964 65.5229 204.329 65.5818 204.696 65.5834C205.512 65.589 206.303 65.3027 206.926 64.7761C207.549 64.2495 207.963 63.5175 208.094 62.7122C208.224 61.907 208.063 61.0816 207.638 60.3851C207.213 59.6887 206.553 59.1671 205.777 58.9146C204.696 58.5721 178.686 49.9624 156.584 46.074C141.732 43.5998 126.736 42.0811 111.689 41.5274C111.235 41.5065 110.782 41.5779 110.356 41.7372C109.931 41.8966 109.542 42.1406 109.214 42.4545C108.886 42.7685 108.624 43.1457 108.446 43.5635C108.268 43.9813 108.176 44.431 108.176 44.8853C108.16 45.7887 108.501 46.662 109.124 47.3158C109.748 47.9696 110.604 48.3511 111.507 48.3775Z" fill="#000000"/>
<path d="M205.779 149.974C204.684 149.612 178.687 140.982 156.586 137.114C141.733 134.639 126.737 133.121 111.69 132.567C110.803 132.575 109.953 132.927 109.32 133.549C108.688 134.171 108.321 135.014 108.297 135.901C108.274 136.788 108.595 137.65 109.194 138.304C109.794 138.959 110.623 139.355 111.509 139.41C126.221 139.951 140.882 141.436 155.404 143.856C177.002 147.637 203.348 156.381 203.616 156.469C203.964 156.588 204.33 156.649 204.698 156.65C205.511 156.65 206.299 156.361 206.919 155.834C207.538 155.306 207.95 154.576 208.08 153.773C208.21 152.969 208.05 152.146 207.629 151.45C207.207 150.754 206.551 150.231 205.779 149.974Z" fill="#000000"/>
</svg>
