<?xml version="1.0" encoding="UTF-8"?>
<svg width="102px" height="88px" viewBox="0 0 102 88" version="1.1" xmlns="http://www.w3.org/2000/svg" xmlns:xlink="http://www.w3.org/1999/xlink">
    <title>outline-logo-only</title>
    <g id="outline-logo-only" stroke="none" stroke-width="1" fill="none" fill-rule="evenodd">
        <g id="Group-Copy" transform="translate(8.000000, 11.000000)" fill="#000000">
            <path d="M42.1990852,-2.5 L44.6475249,-2.49350266 L46.3856069,-2.47700728 L47.5753295,-2.45653561 L48.6781082,-2.42804243 L49.3697172,-2.40411124 L50.3488536,-2.36009184 L51.2665634,-2.30546249 L52.1324156,-2.2392525 L52.6855659,-2.18819949 L53.2227566,-2.13128051 L53.7468229,-2.06820797 L54.2605999,-1.99869426 L54.766923,-1.92245176 L55.2686275,-1.83919288 L55.7685485,-1.74863001 L56.2695214,-1.65047555 L56.7743814,-1.54444188 L57.2859637,-1.4302414 C57.3719452,-1.41051144 57.4583248,-1.39042921 57.5451618,-1.36998873 C60.9713122,-0.563509943 64.2507666,0.776468168 67.7675503,2.84516446 C67.8703201,2.90561725 67.9686334,2.97334462 68.0617376,3.04782798 C72.379201,6.50179872 76.0477615,10.9699691 78.2386273,14.778977 L78.4759336,15.1994025 L79.6867287,17.3866325 L75.3122686,19.8082226 L74.1014735,17.6209925 C72.3167019,14.3969075 69.1327307,10.4214226 65.3900163,7.32003841 L65.074,7.063 L64.6556666,6.82147868 C61.9784311,5.30198088 59.4967815,4.28548587 56.9470385,3.63161086 L56.3995267,3.49699393 L55.9261027,3.38866065 L55.2259504,3.24083247 L54.7614222,3.15165259 L54.2951533,3.06964336 L53.8241158,2.99452439 L53.3452815,2.92601527 L52.8556225,2.8638356 L52.3521108,2.80770498 L51.8317183,2.75734301 L51.291417,2.71246929 L50.728179,2.67280342 L49.8336917,2.62245593 L49.1998641,2.59458292 L48.5325017,2.57093634 L47.4619565,2.54277768 L46.2989253,2.52255125 L44.1272588,2.50389738 L43.1681121,2.50088789 L42.1990852,2.5 C36.3382147,2.5 31.1963065,3.3437784 26.7280493,5.03062044 L26.1730225,5.2458666 C21.4305082,7.03974136 17.4436889,9.33571165 14.1673981,12.1558142 L13.725031,12.5436244 C8.77303279,16.797054 5.6707743,24.564684 5.0865574,32.1604068 C4.90155554,34.565717 4.99458677,36.3654782 5.33844743,38.7817872 L5.74345169,41.5174001 L5.81209288,42.0498153 L5.85604574,42.4772528 L5.88164888,42.8570364 L5.8952409,43.2464899 L5.9013657,43.5794096 C5.90937756,44.1112255 5.88696403,44.6285315 5.8306842,45.1431779 L5.804,45.349 L5.80135974,45.5685493 C5.7508307,47.2563187 5.37203293,48.746693 4.66938822,50.5294445 L4.4630879,51.0390026 L3.97721806,52.1965889 L3.83635529,52.5473763 C3.81578444,52.6003195 3.79659865,52.6506916 3.77869582,52.6987769 L3.6858574,52.9621212 L3.64945314,53.0774766 C3.48957774,53.6081355 3.33555466,54.0465339 3.17414005,54.4427492 L3.00634678,54.8332404 L2.788,55.309 L2.75969791,55.4939364 L2.72571845,55.671786 L2.5952847,56.2204691 C2.4720253,56.7250537 2.44762529,57.1656142 2.60080738,58.0874324 L2.68440284,58.5490447 C3.00245197,60.1914279 4.77618583,61.9373875 6.14010912,62.0435847 L6.37877571,62.0561787 L6.50384433,62.0570757 L6.71208706,62.0501799 L7.15411078,62.0122915 L7.77968378,61.9342282 L9.60713883,61.6660274 L10.6125389,61.5137843 L11.4431851,61.3949531 L12.2134635,61.2945353 C13.4536095,61.1422695 14.4921374,61.0648713 15.5786209,61.0530646 C16.8876061,61.0388399 18.1097364,61.1362186 19.267044,61.3677076 L20.7320887,61.667165 L21.6252286,61.863824 L22.2197712,62.0080032 C23.0170278,62.2107688 23.6674547,62.4213535 24.2983929,62.6872712 L24.9511763,62.9799431 L25.3390936,63.169535 L25.7291437,63.3835447 L26.481425,63.8337042 L28.8205155,65.289706 C30.6017566,66.403114 32.4990225,67.0543926 35.1138552,67.3341713 L35.7302898,67.3921822 C36.0451498,67.4179315 36.3701793,67.4388277 36.7063023,67.4550099 L37.3936135,67.4811303 C37.5107219,67.4844499 37.6291314,67.487256 37.7488761,67.4895538 L38.4836417,67.4972824 L39.2520972,67.4930592 L40.0558852,67.4771317 L40.8966487,67.4497475 L41.7760304,67.4111539 L42.695673,67.3615986 L43.6572196,67.301329 C46.8199965,67.0904522 49.714931,66.2540703 52.4962423,64.9371109 L52.8940165,64.7416336 L53.3488478,64.5066069 L53.8428564,64.2430874 L55.0230353,63.5931805 L57.1023832,62.4125057 C57.5483292,62.1985612 58.0477163,62.1217049 58.5373552,62.1916616 L59.0507587,62.2669536 L59.8202459,62.3937614 L60.9681292,62.6106864 L65.0718036,63.4307011 L65.903765,63.5890638 L66.679813,63.7294018 L67.4027955,63.8518224 C67.5190287,63.8707387 67.6331695,63.8889129 67.7452772,63.9063473 L68.3940011,64.0020932 L68.9967791,64.0801901 C69.7711183,64.1726009 70.4305292,64.2182339 71.005389,64.2182339 C73.4593913,64.2182339 75.771364,62.9382424 78.8089709,59.5666801 L79.158,59.172 L79.2109043,59.0655336 C79.9776727,57.433629 80.3849027,55.8655665 80.4788667,54.4337985 L80.4950108,54.1058429 C80.5310763,53.0011008 80.3654319,52.0852728 80.1504661,51.614064 L80.1000525,51.5133326 C80.0087466,51.3480265 79.9364649,51.1729072 79.8845906,50.9913255 C79.4197062,49.3640368 79.0961294,47.1931655 78.8633689,44.4996021 L78.8180127,43.9539264 C78.7847269,43.5375209 78.7538288,43.1141331 78.7249448,42.6810069 L78.6439619,41.3496567 L78.5728229,39.9433391 L78.4320129,36.4665404 L78.3975854,35.8403187 L78.350773,35.1504511 L78.2921216,34.4089725 L78.222177,33.627918 L77.9349741,30.7386585 L82.9102785,30.2423262 L83.2002808,33.1604812 L83.2753786,34.0000347 L83.3385621,34.8010606 L83.3892535,35.551649 L83.4268747,36.23989 L83.5527984,39.3881908 L83.5958432,40.3031904 L83.6570706,41.4380717 L83.7254019,42.5190226 C83.7374534,42.6952133 83.7498542,42.8695516 83.7626307,43.0422349 L83.840265,44.0158831 L83.9218633,44.9007538 L84.0105397,45.7363588 C84.0259099,45.8714241 84.0415758,46.0043641 84.0575378,46.1351424 L84.1568652,46.893583 C84.2768991,47.7474907 84.4114766,48.4919241 84.5607275,49.1144369 L84.631,49.397 L84.700743,49.5403865 C86.0004576,52.3742667 85.7886959,56.8904901 83.6735096,61.3237748 L83.4978292,61.6830137 C83.4054493,61.8673899 83.2906109,62.0396274 83.1559313,62.1958005 C78.9749438,67.0440321 75.2860057,69.2182339 71.005389,69.2182339 C70.2561759,69.2182339 69.4532718,69.1666555 68.5488024,69.0630005 L67.8506588,68.9754871 C67.4913172,68.9268404 67.1160099,68.8708529 66.7222123,68.8074985 L65.9092153,68.670959 C65.7693575,68.6465627 65.6272582,68.6213459 65.482824,68.5953076 L64.5874503,68.4292123 L63.3246058,68.182435 L59.3685475,67.3947439 L58.675,67.27 L57.812597,67.7641481 L56.8065367,68.3248227 L56.4226077,68.5344092 L55.7867604,68.8747196 L55.181429,69.1880177 L54.6360054,69.4561168 C51.3215699,71.0255121 47.8302572,72.0341949 43.989854,72.2902522 L42.951039,72.3550867 L41.9512509,72.408148 L40.9889431,72.4490668 L40.0625689,72.4774735 C39.3051332,72.4960621 38.5835172,72.5007682 37.8936934,72.4913264 L37.0809072,72.4730322 C32.5586719,72.329554 29.4320073,71.5033498 26.4344791,69.6919497 L23.6800839,67.9829802 L23.2889369,67.7519979 L22.9046751,67.5457915 L22.5423905,67.3762468 C22.1627671,67.2035475 21.775326,67.0660838 21.2576291,66.9248507 L20.7397849,66.7923657 L20.4711366,66.7289714 L19.6587785,66.5508377 L18.2863512,66.2705886 C17.4950013,66.1122998 16.6140697,66.0421077 15.6329523,66.0527694 C15.4545973,66.0547076 15.2763954,66.0589536 15.0966377,66.0655957 L14.5509878,66.0927988 C14.1818309,66.1158441 13.7996148,66.1488269 13.3906681,66.1924533 L12.755491,66.265964 L12.0699643,66.3559697 L11.3238344,66.463 L8.59565327,66.8710201 L7.90183671,66.9640914 L7.35518287,67.0250205 L7.01505207,67.0520659 L6.71398328,67.0650269 L6.43324062,67.065616 L6.05815254,67.0501163 L5.75197585,67.0284972 C2.03902335,66.7394008 -1.49631753,63.2594187 -2.22440243,59.4996397 C-2.57887333,57.669177 -2.57803562,56.4772957 -2.31744818,55.274796 L-2.16465161,54.6269029 C-2.10437014,54.1935994 -2.00360942,53.8210937 -1.85067506,53.4430478 L-1.66745229,53.0295217 L-1.51300883,52.6913121 C-1.4527266,52.5519052 -1.39320117,52.4014715 -1.33163193,52.2290834 L-1.20493857,51.8517971 L-1.13799219,51.6351288 C-1.05592243,51.3627225 -0.960575657,51.0896675 -0.842085567,50.7824574 L-0.610239653,50.2064046 L-0.123095755,49.0454246 C0.519044884,47.4831465 0.807191021,46.3813684 0.807191021,45.175337 C0.807191021,45.0570537 0.815585569,44.9389196 0.832311403,44.8218248 C0.872448889,44.540829 0.895024564,44.2559824 0.901192104,43.9577602 L0.900548796,43.5688291 L0.889070913,43.1850509 L0.875039039,42.9614793 L0.831318978,42.5281035 L0.771043431,42.0669768 L0.519078713,40.3662996 C0.506131611,40.2809143 0.492734228,40.1926255 0.478870362,40.1012949 C0.0150047571,37.0455 -0.131400646,34.802197 0.101281488,31.7769696 C0.765127694,23.1459428 4.23026731,14.3356919 10.0837498,9.08712817 L10.4308239,8.78252539 C14.0719127,5.53073157 18.5059889,2.8829083 23.6838389,0.847093576 L24.3634246,0.585023933 C29.5406345,-1.47718838 35.4893774,-2.5 42.1990852,-2.5 Z" id="Path-Copy-7" fill-rule="nonzero"></path>
            <path d="M76.2253729,14.5311708 C76.1340302,14.536832 76.0430673,14.5475047 75.9528949,14.5631405 C72.768904,15.1152437 69.6537849,15.7067437 66.6075232,16.3376692 C66.3876865,16.3832007 66.1749844,16.4581364 65.975154,16.5604551 C62.4183722,18.3816276 61.0162831,22.0083445 61.6501235,26.8342732 L61.6664865,26.9409642 C61.9608107,28.6176205 62.6750771,30.2107462 63.782167,31.7035145 C65.1822441,33.5913383 67.3724054,34.5 70.0943348,34.5 C70.2273686,34.5 70.3601903,34.4893812 70.4915343,34.4682448 L75.3730084,33.6694744 L77.4035736,33.3211382 L78.4129048,33.1390877 L79.232916,32.9822802 L79.9793527,32.8248658 L80.3399945,32.7371036 L80.4809014,32.6980269 L80.6445699,32.645089 C81.5421617,32.3164438 82.817555,31.4470929 83.5738458,30.7715462 L83.9144533,30.4559632 C84.0458343,30.331326 84.1687279,30.2065805 84.2954904,30.0656276 C84.6294423,29.6942911 84.9343228,29.2698866 85.2110138,28.7691849 C85.7696843,27.7582111 86.1754014,26.5007568 86.4116991,24.9443554 C86.7052676,23.0107336 86.2667906,21.1537135 85.3639288,19.4331466 C85.0622573,18.8582568 84.7272081,18.3372002 84.3802789,17.8733107 C84.297348,17.7624212 84.2168889,17.6591034 84.1396533,17.5635534 L83.938,17.324 L84.0258147,17.4378855 C82.3973048,15.2224619 79.6991617,14.3158733 76.2253729,14.5311708 Z M80.0838561,20.5105177 L80.2540033,20.7102576 L80.3761892,20.86785 C80.5721228,21.1298388 80.7653987,21.4304144 80.9364779,21.7564369 C81.3843324,22.6099048 81.5818332,23.4463526 81.4683473,24.1938402 C81.3323944,25.0893094 81.1373935,25.7410936 80.9112542,26.2036041 L80.7646888,26.4768361 L80.7072336,26.5690506 L80.6401408,26.6537302 L80.5411572,26.7571226 L80.284208,27.0047151 C80.217243,27.0687129 80.112497,27.1547859 79.9896315,27.2491469 L79.7255665,27.4448341 L79.4481363,27.6381116 C79.2664954,27.7607132 79.0992467,27.8653676 78.9929955,27.9193939 L78.9059032,27.9560955 L78.5786147,28.0275761 L76.9140089,28.3311441 L74.0260009,28.8231801 L69.908,29.497 L69.6237743,29.485137 C68.6676545,29.4210928 68.1151923,29.1524351 67.7982336,28.725057 L67.6085558,28.4589128 C67.1238355,27.7499799 66.8072349,27.0469659 66.6448692,26.3412557 L66.599,26.114 L66.5714325,25.8867914 C66.2883669,23.360808 66.7824507,21.9358533 67.9680968,21.174972 L67.997,21.157 L69.4254668,20.8664794 C71.2376643,20.5038119 73.0747799,20.1549821 74.9368105,19.8199964 L76.664,19.514 L76.5346681,19.5215953 C78.3764843,19.4074437 79.4221608,19.7238906 79.9256552,20.3094425 L80.0838561,20.5105177 Z" id="Path-2-Copy-7" fill-rule="nonzero"></path>
            <path d="M49.5556525,19.5815356 L44.4776815,20.3707586 L41.3015975,20.8898532 L39.6156139,21.1858538 L38.5593851,21.3908394 L38.0391053,21.5074029 L37.8847732,21.5472274 C35.9179947,22.0832184 34.1170769,23.5868491 33.1283637,25.4000131 L32.7825417,26.0810078 L32.5990312,26.4576316 C32.5705499,26.5175464 32.5427677,26.5768161 32.5151549,26.6366149 C31.4378456,28.9696548 31.1099297,31.1820611 31.9898681,33.6709975 L32.2046915,34.2651229 C32.2393035,34.3584446 32.273376,34.4490385 32.306994,34.5370878 L32.5039269,35.0363109 C32.6967635,35.5079251 32.8793481,35.9011037 33.070013,36.2553668 C33.411495,36.889854 33.7803985,37.4009534 34.2527801,37.9115281 L34.4754873,38.1458868 L34.7284623,38.3966486 L35.2316726,38.8756097 C37.0423815,40.5844662 39.5798202,40.7912573 43.0313532,40.2650536 L44.3191741,40.063859 L45.8199585,39.8094149 L47.1977456,39.563385 L48.2827525,39.3631879 L50.2420559,38.9873149 L51.6466321,38.7035485 L52.282039,38.5693228 L53.1197178,38.3831626 C53.3645413,38.3265663 53.5994332,38.233383 53.8164743,38.1067542 L54.3774,37.7731756 L54.8859063,37.456127 C56.7405883,36.2663056 57.5412584,35.3347295 58.4540005,33.441207 L58.6954161,32.9246212 C59.7610536,30.5805205 59.7051822,28.5128343 58.9950262,26.0644615 C58.4213655,24.0866769 57.4770794,22.6615256 55.612224,21.129797 C53.9765428,19.7863043 51.9030591,19.2881151 49.5556525,19.5815356 Z M52.4386715,24.9935471 C53.5270582,25.8875108 53.9015661,26.4527319 54.1929476,27.4573149 C54.6015482,28.866029 54.6265991,29.7931095 54.143684,30.8553858 L53.9736786,31.225039 L53.8133863,31.5572746 C53.4277342,32.3259544 53.1275443,32.6585743 52.2912261,33.1909617 L51.9266319,33.4160781 L51.628,33.593 L51.0960438,33.7100568 L49.696418,33.9981536 L48.1378963,34.3020392 L46.5361504,34.6012835 L45.006852,34.8754561 L43.6656729,35.104127 L43.1017755,35.1950147 L42.1000869,35.3465615 C41.8434388,35.3819137 41.5981768,35.4106272 41.3652459,35.4331736 L40.9161057,35.4701837 L40.5015283,35.4915869 L40.1231937,35.4982219 C40.0632515,35.4982219 40.0048894,35.4974849 39.9481424,35.4962633 L39.6273218,35.482318 C39.1258563,35.4482831 38.7929014,35.3614484 38.6634552,35.2392835 L38.1191478,34.7185881 L37.9678782,34.5640257 L37.9229189,34.5159308 C37.731561,34.3091012 37.6101937,34.1409522 37.4728463,33.8857551 L37.3583715,33.6595819 L37.2352388,33.3890479 C37.2138715,33.3399219 37.1920506,33.2886922 37.1697297,33.2352312 L37.0294336,32.886669 L36.8749106,32.4784298 L36.7039333,32.0043872 C36.3310243,30.9496011 36.4728948,29.9924189 37.0545655,28.7327424 L37.1843295,28.4599655 L37.4770136,27.8726568 C37.8154524,27.1910143 38.5649799,26.5442019 39.1994398,26.3712974 L39.3963017,26.3229619 L40.0288643,26.1929494 L41.3601449,25.9519636 L43.2378834,25.6359236 L45.988449,25.1937126 L50.2435123,24.5335229 C51.1578217,24.4201054 51.8243123,24.5546182 52.3186342,24.9022259 L52.4386715,24.9935471 Z" id="Path-3-Copy-7" fill-rule="nonzero"></path>
            <path d="M63.79618,37.9615534 C63.0314839,38.1358453 62.2367686,38.3515124 61.3738132,38.6118168 L60.810982,38.7847913 L59.2524377,39.2860541 C56.0592056,40.3202961 54.941524,42.8825199 54.5277254,46.848331 L54.5152759,47.0353538 C54.4250234,50.1495371 54.905806,51.6499303 57.1282821,53.6984892 C57.2688975,53.8281009 57.4239205,53.9411502 57.5903094,54.0354191 C58.5668775,54.5887011 59.4935319,54.6237849 61.1685347,54.3882649 L61.7232899,54.3051838 L62.4554259,54.1844023 L64.3359256,53.8647508 L64.4133579,53.8599276 C66.4176766,53.7503492 70.183197,52.3611898 71.4962862,50.8476285 C72.7200184,49.4370665 73.1797685,47.8379159 73.4356654,45.3854214 C73.7415328,42.4540133 73.0027146,40.0127871 70.4224151,38.2478175 C70.3196583,38.1775301 70.2117948,38.1150165 70.0997248,38.0607986 C68.4665758,37.2707035 66.4366775,37.3597228 63.79618,37.9615534 Z M67.796,42.523 L67.8571932,42.5730885 C68.4410945,43.0844998 68.5814297,43.7282804 68.462663,44.866531 C68.3061014,46.3670046 68.0791099,47.15655 67.7194912,47.5710724 L67.6991321,47.5891527 L67.6132024,47.6458975 L67.471932,47.7261545 L67.2812502,47.8252033 L67.0470866,47.9383238 L66.6272834,48.124063 L66.3103564,48.2517112 L66.142999,48.3149118 C65.9635424,48.3811162 65.7813092,48.4436451 65.6031008,48.5011774 L65.2540653,48.6091886 L64.9278533,48.7015272 C64.8760583,48.7154804 64.825718,48.7286828 64.7770845,48.7410853 L64.5077783,48.8055114 L64.2915231,48.8483936 C64.2605732,48.8536148 64.2323375,48.8578405 64.207068,48.8610217 L63.9829326,48.8782565 L63.6406198,48.9149915 L63.242642,48.9725583 L61.4058362,49.2912202 L60.9679042,49.3620447 L60.52071,49.4261472 L60.1376327,49.4703734 C60.0789273,49.4760822 60.0227417,49.4809585 59.969,49.485 L59.9226047,49.4330998 C59.6382583,49.1006928 59.5341507,48.8161272 59.5067521,48.2899159 L59.4987926,47.9771867 L59.5023146,47.6060881 L59.51,47.273 L59.5608263,46.8555489 L59.6293486,46.3912526 C59.8597467,44.9945001 60.2178927,44.2890868 60.7136504,44.0728818 L61.7425618,43.7348374 L62.2997842,43.5579988 L62.8177659,43.3987783 C63.5787581,43.1692304 64.2666995,42.9825392 64.9073004,42.8365315 C65.2629561,42.7554693 65.5966791,42.6900699 65.9035817,42.6389332 L66.3432095,42.5727501 L66.738941,42.5269109 C67.173596,42.4848907 67.5111454,42.4822619 67.7253947,42.5115207 L67.796,42.523 Z" id="Path-6-Copy-7" fill-rule="nonzero"></path>
            <path d="M49,23 C49.9807952,22.7068851 50.1462104,22.8747119 50.7140699,23.0481106 C51.2819295,23.2215094 53.5195751,24.311251 54.5495556,27.0772675 C55.2362093,28.9212785 55.1378161,30.7118425 54.2543759,32.4489595 C53.6244694,33.8080761 52.3730107,34.4917842 50.5,34.5000838 C47.6904839,34.5123656 44.9200105,33.157503 44.5,29.5 C44.0799895,25.842497 48.0540219,23.2827097 49,23 Z" id="Path-4-Copy-7" stroke="#000000" stroke-linecap="square" stroke-linejoin="round"></path>
            <path d="M77,18.5 C79.9392282,17.6560152 81.9392282,17.6560152 83,18.5 C84.4387453,19.644713 85.0886834,20.3280562 84.9204011,21.9927418 C84.9025743,22.1690889 84.164251,24.7027314 83.0126155,27.2031454 C82.2448586,28.8700881 81.4073201,29.4690397 80.5,29 C76.5,28.6666667 74.3807699,27.0286354 74.1423098,24.0859061 C73.9038496,21.1431768 74.856413,19.2812081 77,18.5 Z" id="Path-5-Copy-7" stroke="#000000" stroke-linecap="square" stroke-linejoin="round"></path>
        </g>
    </g>
</svg>