<svg width="1430" height="1430" viewBox="0 0 1430 1430" fill="none" xmlns="http://www.w3.org/2000/svg">
<path d="M1369.33 1428.69C1369.33 1429.06 1359.5 1429.35 1359.5 1429.72C1362.78 1429.72 1356.22 1429.72 1359.5 1429.72C912.259 1429.72 529.589 1429.72 82.3509 1429.64C62.2372 1429.64 44.0183 1423.3 28.8601 1409.89C10.2768 1393.5 0.292915 1372.73 0.22004 1347.88C0.00141257 1275.07 0.365744 1202.2 0.00136585 1129.39C-0.0715098 1115.77 2.77063 1103.45 8.81931 1091.43C23.9774 1061.33 49.3382 1046.32 81.9865 1046.1C211.487 1045.37 341.059 1045.66 470.56 1045.37C483.896 1045.37 497.596 1045.51 510.422 1042.53C530.973 1037.72 551.306 1031.96 570.618 1022.49C609.825 1003.1 641.38 975.773 664.044 938.46C686.563 901.367 700.701 861.504 698.66 817.414C697.932 801.527 696.766 785.495 693.923 769.899C688.385 739.219 675.486 711.38 658.287 685.509C646.627 667.873 630.959 654.027 615.946 639.379C558.666 583.41 501.604 527.296 444.47 471.182C423.919 450.995 403.732 430.372 382.526 410.841C369.408 398.743 356.363 386.792 345.068 372.945C307.318 326.669 291.65 273.834 297.698 214.368C299.958 192.214 306.225 171.226 316.063 151.695C331.221 121.452 351.408 94.8518 377.497 72.6976C409.271 45.7337 444.324 25.183 484.552 14.2517C506.56 8.27587 528.787 3.24731 551.816 1.35254C571.274 -0.250723 590.513 -0.469332 609.898 0.915305C639.34 3.0287 667.907 9.22327 695.527 19.2801C736.556 34.2925 772.921 57.1754 803.601 88.439C828.67 114.018 846.817 143.824 858.112 177.857C858.914 180.335 860.371 182.594 861.465 184.926C862.558 187.258 864.015 189.517 864.525 191.995C869.699 217.793 874.801 243.664 879.829 269.462C891.562 329.366 903.368 389.27 914.955 449.174C925.959 506.017 936.745 562.932 947.531 619.848C951.83 642.658 955.984 665.396 962.252 687.841C968.519 710.068 980.981 727.048 1001.46 737.397C1034.54 754.158 1067.63 754.012 1100.57 736.085C1119.52 725.809 1131.83 710.797 1136.72 689.809C1142.25 665.905 1148.08 642.148 1153.11 618.172C1161.27 579.184 1168.71 540.122 1176.8 501.134C1183.94 466.664 1191.81 432.339 1198.95 397.869C1204.85 369.52 1209.96 341.026 1215.71 312.677C1220.81 287.899 1226.28 263.195 1231.82 238.49C1234 228.579 1235.46 218.231 1239.62 209.121C1256.96 170.789 1301.2 153.59 1341.06 156.651C1360.81 158.181 1378.52 165.25 1394.99 176.545C1418.31 192.578 1429.6 214.368 1429.75 242.061C1430.04 309.981 1429.97 377.828 1429.97 445.748C1429.97 745.194 1429.97 1044.57 1429.97 1344.01C1429.97 1345.47 1430.04 1347 1429.97 1348.46C1429.09 1376.73 1418.02 1399.91 1394.33 1416.01C1386.46 1421.33 1377.28 1424.69 1369.33 1428.69C1390.25 1428.69 1347.47 1428.69 1369.33 1428.69Z" fill="#000000"/>
</svg>
