<svg width="2955" height="505" viewBox="0 0 2955 505" fill="none" xmlns="http://www.w3.org/2000/svg">
<path d="M608.5 63.1C586.6 86.1 579.9 98.4 564.2 133.2L418.9 467L316.2 233.1L214.6 467L68.1999 133.2C52.9999 98.4 46.2999 87.2 23.8999 63.1H209.6C195.6 74.9 188.3 90 188.3 109.1C188.3 122.5 190.6 132.1 197.8 149.5L253.3 281.9L294.3 183.2L271.3 129.9C257.8 99.1 248.3 80 234.8 63.2H420.5C402.5 75 393.6 90.1 393.6 109.2C393.6 122.6 395.9 132.2 403.1 149.6L459.8 282L515.9 149.6C523.2 132.2 526 122.7 526 109.8C526 93 514.2 72.8 500.7 63.3L608.5 63.1Z" fill="#000000"/>
<path d="M801.5 360.4C783.5 438.4 740.3 464.2 677.5 464.2C605.7 464.2 538.3 412 538.3 313.9C538.3 219.7 597.8 152.9 675.8 152.9C726.9 152.9 798.7 179.3 798.7 290.3H629.3C641.1 349.7 679.8 380.6 733.7 380.6C761.1 380.6 780.2 375.6 801.5 360.4ZM625.9 251.6V258.9H700C700 202.8 687.6 185.4 664.1 185.4C639.9 185.4 625.9 209.5 625.9 251.6Z" fill="#000000"/>
<path d="M1141.6 164.6C1095 120.3 1049 97.3 1013.7 97.3V344.7C1013.7 394.6 1026.6 424.9 1060.8 455.8H848.7C882.9 425 895.8 394.7 895.8 344.7V97.3C860.4 97.3 812.2 120.3 767.9 164.6L790.4 46.2C805.6 58 833.6 63 865 63H1044.6C1076 63 1104.1 57.9 1119.2 46.2L1141.6 164.6Z" fill="#000000"/>
<path d="M1270.6 455.8H1092.2C1114.1 430 1123.6 413.2 1123.6 372.2V281.3C1123.6 249.3 1119.1 234.2 1097.8 214.6L1085.5 203.4L1220.2 152.9V223C1233.1 182.6 1253.3 152.9 1286.4 152.9C1313.3 152.9 1330.7 172 1330.7 200C1330.7 229.7 1312.2 250.5 1286.4 250.5C1280.8 237.6 1267.3 231.4 1255 231.4C1244.9 231.4 1235.4 234.2 1230.3 239.3V368.9C1230.2 412 1237.5 423.8 1270.6 455.8Z" fill="#000000"/>
<path d="M1639.3 404.2C1632.6 439.5 1603.4 464.2 1563.5 464.2C1529.8 464.2 1504 444 1496.2 421C1479.4 451.3 1447.9 464.2 1414.3 464.2C1367.7 464.2 1336.3 433.4 1336.3 391.3C1336.3 341.9 1371.7 307.7 1453 288.1L1490.6 279.1V228.6C1490.6 197.2 1479.9 184.3 1460.9 184.3C1443 184.3 1431.2 196.1 1431.2 212.3C1431.2 226.3 1437.9 235.3 1449.7 246.5C1449.7 264.4 1421.6 282.9 1392.5 282.9C1363.9 282.9 1343.7 261 1343.7 234.1C1343.7 186.4 1396.4 152.8 1473.9 152.8C1554.7 152.8 1597.3 187 1597.3 263.3V383.9C1597.3 399 1606.3 409.1 1620.3 409.1C1628.6 409.2 1634.8 407.5 1639.3 404.2ZM1490.6 395.8V305.5L1483.3 307.7C1459.2 315 1442.9 330.7 1442.9 362.1C1442.9 389 1453.6 405.3 1471 405.3C1479.9 405.3 1487.2 402.5 1490.6 395.8Z" fill="#000000"/>
<path d="M1791.3 455.8H1640.4C1656.1 440.7 1666.2 418.2 1666.2 372.2V281.3C1666.2 250.5 1662.3 234.8 1643.8 217.4L1630.9 205.6L1770.1 152.9V196.6C1786.4 169.7 1820.6 152.9 1854.8 152.9C1908.7 152.9 1938.4 182.1 1938.4 234.2V391.3C1938.4 423.3 1946.8 442.9 1960.3 455.8H1813.3C1827.9 441.8 1831.8 422.7 1831.8 407.6V247.1C1831.8 223.6 1824 211.8 1802.1 211.8C1789.8 211.8 1779.6 216.3 1772.9 223V407.5C1772.8 422.7 1776.7 441.2 1791.3 455.8Z" fill="#000000"/>
<path d="M1987.7 439.5V343.6C2028.1 396.3 2070.2 425.5 2109.5 425.5C2128.6 425.5 2137.6 415.4 2137.6 401.4C2137.6 387.9 2130.3 380.1 2117.4 375L2052.3 350.9C2002.4 332.4 1979.9 301.5 1979.9 255.6C1979.9 196.2 2028.7 153 2098.3 153C2135.9 153 2177.4 163.6 2198.2 178.8V260.7C2172.4 215.3 2130.3 190 2089.3 190C2068.5 190 2057.9 196.7 2057.9 209.6C2057.9 222.5 2065.8 227.5 2083.1 234.8L2160 266.2C2198.7 281.9 2216.1 315 2216.1 354.8C2216.1 420.4 2168.4 464.2 2096.6 464.2C2060.6 464.2 2023.6 456.3 1987.7 439.5Z" fill="#000000"/>
<path d="M2227.3 189.3L2259.8 139.4C2301.3 76.6 2334.5 46.3 2390.6 46.3C2434.4 46.3 2462.4 65.4 2462.4 94C2462.4 118.7 2442.2 136.6 2399.5 136.6C2399.5 101.8 2379.9 88.9 2360.2 88.9C2340.6 88.9 2325.4 102.9 2325.4 125.9C2325.4 141.6 2333.8 157.3 2359.6 161.2H2421.9L2399.4 189.2H2361.2V355.8C2361.2 387.2 2366.3 415.2 2398.8 443.9L2412.3 455.7H2218.7C2241.2 433.3 2254.6 405.8 2254.6 365.4V189.3H2227.3Z" fill="#000000"/>
<path d="M2667.2 360.4C2649.2 438.4 2606 464.2 2543.2 464.2C2471.4 464.2 2404 412 2404 313.9C2404 219.7 2463.5 152.9 2541.5 152.9C2592.6 152.9 2664.4 179.3 2664.4 290.3H2495C2506.8 349.7 2545.5 380.6 2599.4 380.6C2626.8 380.6 2645.9 375.6 2667.2 360.4ZM2491.6 251.6V258.9H2565.7C2565.7 202.8 2553.3 185.4 2529.8 185.4C2505.6 185.4 2491.6 209.5 2491.6 251.6Z" fill="#000000"/>
<path d="M2855.2 455.8H2676.8C2698.7 430 2708.2 413.2 2708.2 372.2V281.3C2708.2 249.3 2703.7 234.2 2682.4 214.6L2670 203.4L2804.7 152.9V223C2817.6 182.6 2837.8 152.9 2870.9 152.9C2897.8 152.9 2915.2 172 2915.2 200C2915.2 229.7 2896.7 250.5 2870.9 250.5C2865.3 237.6 2851.8 231.4 2839.5 231.4C2829.4 231.4 2819.9 234.2 2814.8 239.3V368.9C2814.8 412 2822.1 423.8 2855.2 455.8Z" fill="#000000"/>
</svg>
