<svg width="548" height="430" viewBox="0 0 548 430" fill="none" xmlns="http://www.w3.org/2000/svg">
<path d="M2.65601 165.93L3.16205 165.553L2.45001 164.643L2.60602 164.802L2.27002 164.997L2.86603 165.38L3.65204 169.247L4.02203 172.362L3.69501 173.165L4.16504 174.792L4.08301 175.795L4.96899 178.309L4.79602 179.42L6.71301 183.401L7.36102 185.95L8.29102 187.156L8.86804 189.573L9.67902 190.912L12.858 203.859L14.468 208.238L18.437 221.456L19.551 224.395L25.643 235.39L30.735 245.783L31.979 249.364L32.215 251.055L33.719 254.855L34.113 257.096L34.809 258.257L34.6801 259.359L35.1 260.858L36.113 263.678L36.938 264.716L36.859 265.17L38.082 268.37L41.429 275.712L42.162 278.778L42.159 285.412L42.847 288.646L43.639 289.828L43.558 290.296L46.454 292.362L47.276 294.579L47.42 296.321L48.813 297.215L51.26 296.835" stroke="black" stroke-width="4" stroke-linecap="round" stroke-linejoin="round"/>
<path d="M53.475 306.146L54.859 306.243L54.565 306.244L54.763 306.008L55.437 305.738L61.095 304.606L69.403 303.492L80.425 301.017L92.948 299.399L99.879 298.138L111.258 297.236L115.111 296.416L116.94 296.371L122.643 295.049L131.889 293.481L149.782 289.468L159.385 288.244L167.827 285.947L169.677 284.942L172.802 284.084L180.417 282.589L191.88 279.143L198.584 277.435L202.336 276.865L206.425 275.594" stroke="black" stroke-width="4" stroke-linecap="round" stroke-linejoin="round"/>
<path d="M98.531 196.093L100.384 195.35L100.212 195.227L100.847 194.664L105.636 192.026L110.592 187.486L111.598 186.432L111.419 186.29L112.05 185.434L114.825 183.332L115.864 181.93L116.071 181.078L120.241 176.433L120.46 175.504L121.144 175.153L121.367 174.354L124.17 169.878L128.27 165.397L128.621 164.754L128.416 164.26L129.373 163.585L131.703 160.348L132.464 159.917L132.889 158.825L134.232 157.201L134.81 155.635L136.359 153.675L139.353 151.213L141.63 150.172L143.234 148.418L144.326 147.787L144.863 146.816L147.12 145.09L150.693 141.389L151.071 140.657L152.925 139.278L157.117 136.343L158.502 135.983L161.602 134.032L164.657 131.474L169.838 129.031L172.157 128.914L174.554 129.643L176.073 130.46L176.267 132.176L175.796 132.228L176.342 132.556L176.713 133.456L176.163 134.654L176.441 134.935L175.823 136.723L175.432 136.74L175.575 137.272L174.6 137.811L174.477 138.214L171.905 140.154L171.58 140.823L168.381 143.519L167.031 145.924L166.026 146.85L165.181 147.15L162.424 150.518L162.335 151.012L159.46 153.957L158.255 155.893L158.344 156.334L157.482 157.14L157.645 157.722L156.522 158.369L154.014 161.071L153.262 161.425L150.65 164.641L149.56 166.439L149.544 167.12L148.942 167.651L148.619 168.489L148.1 168.741L148.074 170.396L148.072 170.172L149.734 170L150.292 169.429L151.877 168.822L153.58 167.528L154.657 167.127L159.548 163.124L162.114 161.549L162.352 161.107L163.595 160.729L164.2 159.708L165.451 159.137L166.154 158.065L167.654 156.889L169.491 154.029L170.967 152.669L172.652 152.119L172.54 151.923L173.381 151.334L175.005 150.786L178.782 148.119L187.15 144.08L191.685 141.289L197.798 138.527L204.06 136.469L210.036 134.956L212.305 135.684L213.544 136.469L213.719 136.905L213.435 137.164L213.642 137.736L213.313 137.91L213.602 138.158L213.258 138.223L213.418 138.673L211.214 141.333L206.474 144.663L205.521 145.77L204.662 146.244L204.762 146.595L203.366 147.186L201.405 148.704L197.488 150.673L196.569 151.434L195.542 151.782L194.618 152.634L191.078 154.605L189.539 156.172L184.081 159.581L177.328 162.834L177.459 163.047L171.014 167.819L170.182 169.001L168.095 170.667L168.139 171.3L167.645 171.497L168.061 173.251L168.597 173.821L169.677 173.948L174.258 172.689L191.906 164.902L197.917 162.982L205.6 160.028L209.559 158.926L218.082 157.641L223.98 157.28L225.787 156.732L227.976 156.534L229.089 156.683L231.789 158.104L231.742 158.766L232.046 159.009L229.583 162.794L223.41 165.966L222.212 167.103L213.98 170.556L202.603 174.1L195.963 177.085L185.513 180.662L181.171 182.969L180.785 183.442L179.967 183.593L178.185 185.249L178.415 185.379L177.216 186.036L177.882 186.946L179.468 187.688L183.268 187.792L187.644 187.069L201.241 183.522L218.842 181.774L223.492 181.862L228.535 181.371L233.314 182.01L235.016 182.96L235.824 183.09L235.976 183.433L238.994 184.353L240.097 185.147L239.981 185.493L240.358 185.543L239.394 185.654L238.829 186.544L237.884 187.224L227.688 192.263L222.761 193.324L215.747 195.942L212.214 196.528L206.708 198.794L201.381 199.462L194.347 201.128L190.81 201.62L189.38 201.978L187.573 203.192L187.588 204.377L188.331 205.351L190.898 206.192L199.344 206.443L205.297 205.636L207.463 205.899L208.982 206.392L208.804 206.556L210.631 206.733L212.177 207.405L212.786 207.854L212.696 209.556L213.092 209.847L212.62 210.248L213.027 210.496L210.983 212.156L210.627 213.242L210.16 213.378L209.33 214.405L205.862 215.518L203.589 215.888L203.221 216.229L198.399 217.135L182.277 218.569L173.972 219.832L173.164 220.234L167.636 221.056L167.12 221.505L165.748 221.695L156.431 220.895L152.394 220.876L151.183 220.356L144.871 219.59L142.522 219.72L142.137 220.084L138.714 220.678L135.784 220.577L129.4 222.688L127.612 223.707L123.904 224.697L123.217 224.999L123.247 225.367L122.386 226.058L118.423 227.334L117.143 228.048" stroke="black" stroke-width="4" stroke-linecap="round" stroke-linejoin="round"/>
<path d="M2 161.7L4.414 161.547L8.80804 160.07L18.116 157.84L24.845 156.941L31.207 156.576L38.923 155.236L57.551 149.898L61.448 149.132L81.594 146.248L86.088 145.08L91.276 144.193L103.568 142.543L107.683 142.28L111.063 142.487L118.567 140.503L121.01 140.801L123.938 139.79L124.304 139.99L125.227 139.317L128.55 138.331L130.367 137.326L131.505 137.31L131.284 137.194L132.154 137.045L133.787 135.912L134.198 136.028L133.859 135.853L135.033 135.754L134.822 135.5L135.548 135.134L137.654 134.522L137.668 134.281L140.619 133.058L140.412 133.335L140.869 133.514L141.155 134.137" stroke="black" stroke-width="4" stroke-linecap="round" stroke-linejoin="round"/>
<path d="M145.836 132.3L146.487 130.431L148.677 130.509L148.337 130.309L148.778 130.614L148.276 130.8L149.249 131.206L150.08 130.92L149.531 131.024L149.806 131.149L149.546 131.268L150.131 133.153L150.516 133.45L150.352 134.744L151.181 134.927L150.745 135.207L151.043 135.963L150.85 136.144L151.237 136.5L151.065 136.725L151.99 137.163L152.577 136.988L152.295 137.072L152.399 137.417L151.996 137.468" stroke="black" stroke-width="4" stroke-linecap="round" stroke-linejoin="round"/>
<path d="M201.995 220.756V221.376L202.437 221.477L201.532 221.884L202.114 223.232L202.436 224.604L202.219 224.69L202.776 225.335L202.212 225.651L202.911 225.861L202.94 226.639L203.49 227.438L203.749 232.31L205.645 237.125L205.413 237.82L205.856 238.14L205.305 240.854L205.445 241.624L205.041 241.998L207.254 244.772L207.022 245.056L207.941 246.15L207.841 246.935L208.148 247.138L208.635 249.166L209.182 249.428L209.017 249.931L209.413 250.061L209.244 250.259L209.685 250.751L209.702 251.436L210.792 252.487L210.873 253.139L211.221 253.384L211.097 254.067L211.479 254.41L211.345 255.903L212.262 256.684L212.801 257.756L212.852 259.68L213.204 260.043L212.812 260.223L214.375 261.393L214.94 264.046L215.45 264.249L215.151 264.858L215.56 265.159L215.247 265.458L215.451 265.976L215.079 266.285L215.561 267.033L215.294 267.239L215.773 267.714L215.719 268.547L215.329 268.743L215.559 269.143L215.244 269.297L215.628 270.631L215.543 271.795L215.816 271.879L215.55 272.492L215.891 272.843L215.405 273.328L212.427 274.759L207.903 275.157L205.716 276.021" stroke="black" stroke-width="4" stroke-linecap="round" stroke-linejoin="round"/>
<path d="M545.003 170.337L544.496 169.96L545.208 169.05L545.052 169.21L545.389 169.405L544.792 169.787L544.007 173.654L543.637 176.77L543.964 177.572L543.493 179.199L543.575 180.202L542.69 182.716L542.863 183.827L540.946 187.808L540.298 190.357L539.368 191.563L538.791 193.981L537.979 195.32L534.8 208.266L533.191 212.645L529.221 225.864L528.108 228.803L522.015 239.798L516.924 250.19L515.68 253.772L515.443 255.462L513.94 259.262L513.546 261.504L512.85 262.664L512.979 263.766L512.558 265.265L511.546 268.085L510.721 269.124L510.799 269.578L509.576 272.777L506.229 280.119L505.497 283.185L505.5 289.819L504.812 293.053L504.02 294.236L504.101 294.703L501.205 296.769L500.383 298.987L500.239 300.728L498.846 301.623L496.398 301.243" stroke="black" stroke-width="4" stroke-linecap="round" stroke-linejoin="round"/>
<path d="M494.183 310.553L492.8 310.651L493.094 310.652L492.896 310.416L492.221 310.146L486.564 309.014L478.255 307.9L467.233 305.425L454.71 303.806L447.78 302.545L436.401 301.644L432.547 300.823L430.719 300.778L425.015 299.457L415.769 297.888L397.876 293.876L388.273 292.651L379.832 290.354L377.982 289.35L374.857 288.492L367.241 286.996L355.779 283.551L349.075 281.842L345.323 281.273L341.234 280.001" stroke="black" stroke-width="4" stroke-linecap="round" stroke-linejoin="round"/>
<path d="M449.127 200.501L447.274 199.758L447.446 199.634L446.811 199.071L442.022 196.433L437.067 191.894L436.061 190.839L436.239 190.698L435.608 189.842L432.833 187.739L431.794 186.337L431.587 185.485L427.417 180.84L427.198 179.912L426.514 179.56L426.292 178.761L423.488 174.286L419.388 169.805L419.038 169.162L419.242 168.667L418.286 167.993L415.955 164.756L415.195 164.324L414.77 163.233L413.427 161.608L412.848 160.043L411.299 158.083L408.305 155.621L406.028 154.579L404.425 152.825L403.332 152.194L402.796 151.224L400.539 149.497L396.966 145.796L396.588 145.065L394.734 143.686L390.541 140.751L389.157 140.391L386.056 138.439L383.002 135.881L377.821 133.439L375.501 133.322L373.105 134.051L371.586 134.867L371.392 136.583L371.863 136.635L371.316 136.963L370.945 137.863L371.496 139.062L371.218 139.343L371.836 141.131L372.226 141.147L372.084 141.68L373.058 142.218L373.182 142.621L375.753 144.562L376.079 145.231L379.277 147.927L380.628 150.332L381.633 151.258L382.477 151.558L385.235 154.926L385.323 155.42L388.199 158.365L389.403 160.301L389.315 160.741L390.177 161.547L390.013 162.13L391.136 162.776L393.644 165.478L394.396 165.833L397.008 169.048L398.098 170.847L398.115 171.528L398.716 172.058L399.039 172.897L399.558 173.148L399.585 174.803L399.586 174.58L397.924 174.408L397.367 173.836L395.782 173.23L394.079 171.936L393.002 171.535L388.111 167.531L385.545 165.957L385.307 165.515L384.064 165.136L383.458 164.115L382.208 163.544L381.505 162.472L380.005 161.296L378.168 158.436L376.691 157.077L375.006 156.527L375.118 156.331L374.278 155.742L372.653 155.193L368.876 152.526L360.508 148.487L355.974 145.697L349.86 142.935L343.599 140.877L337.623 139.363L335.354 140.092L334.115 140.877L333.939 141.313L334.224 141.571L334.016 142.144L334.345 142.317L334.057 142.566L334.401 142.631L334.24 143.08L336.444 145.74L341.184 149.071L342.138 150.178L342.997 150.652L342.897 151.002L344.293 151.593L346.254 153.112L350.171 155.081L351.09 155.842L352.117 156.19L353.041 157.041L356.581 159.012L358.12 160.58L363.577 163.988L370.331 167.242L370.2 167.454L376.645 172.226L377.477 173.408L379.564 175.075L379.519 175.708L380.014 175.905L379.598 177.658L379.061 178.229L377.981 178.355L373.401 177.096L355.753 169.309L349.742 167.389L342.058 164.435L338.1 163.333L329.577 162.048L323.678 161.688L321.871 161.139L319.683 160.942L318.57 161.09L315.87 162.512L315.917 163.174L315.612 163.417L318.076 167.201L324.248 170.373L325.446 171.51L333.678 174.964L345.056 178.507L351.696 181.492L362.146 185.069L366.488 187.376L366.873 187.849L367.691 188.001L369.474 189.657L369.244 189.787L370.443 190.443L369.776 191.353L368.19 192.096L364.391 192.199L360.014 191.476L346.417 187.929L328.817 186.181L324.167 186.269L319.124 185.779L314.344 186.417L312.642 187.367L311.835 187.497L311.683 187.84L308.665 188.76L307.561 189.554L307.678 189.9L307.301 189.95L308.264 190.061L308.829 190.951L309.775 191.632L319.97 196.67L324.897 197.732L331.912 200.349L335.444 200.935L340.95 203.202L346.277 203.87L353.311 205.535L356.849 206.028L358.279 206.386L360.085 207.599L360.071 208.785L359.327 209.759L356.761 210.6L348.315 210.851L342.362 210.044L340.196 210.306L338.677 210.799L338.854 210.964L337.027 211.141L335.481 211.812L334.872 212.261L334.963 213.964L334.567 214.255L335.038 214.655L334.631 214.904L336.675 216.563L337.032 217.649L337.499 217.785L338.328 218.812L341.797 219.925L344.07 220.295L344.437 220.637L349.259 221.543L365.382 222.976L373.687 224.239L374.495 224.642L380.023 225.464L380.539 225.913L381.911 226.102L391.228 225.303L395.264 225.283L396.476 224.764L402.787 223.997L405.137 224.128L405.521 224.491L408.944 225.086L411.875 224.984L418.258 227.095L420.047 228.114L423.754 229.105L424.442 229.406L424.411 229.774L425.272 230.465L429.236 231.741L430.515 232.455" stroke="black" stroke-width="4" stroke-linecap="round" stroke-linejoin="round"/>
<path d="M545.658 166.108L543.244 165.954L538.851 164.478L529.543 162.248L522.813 161.348L516.452 160.983L508.736 159.644L490.108 154.306L486.21 153.539L466.064 150.655L461.57 149.488L456.383 148.6L444.091 146.951L439.975 146.687L436.595 146.895L429.091 144.911L426.649 145.208L423.721 144.198L423.355 144.398L422.432 143.724L419.108 142.738L417.291 141.734L416.154 141.718L416.375 141.601L415.504 141.453L413.871 140.32L413.46 140.436L413.799 140.261L412.626 140.162L412.837 139.907L412.11 139.541L410.005 138.93L409.99 138.689L407.04 137.465L407.246 137.743L406.79 137.921L406.504 138.545" stroke="black" stroke-width="4" stroke-linecap="round" stroke-linejoin="round"/>
<path d="M401.823 136.708L401.172 134.839L398.981 134.917L399.321 134.717L398.88 135.022L399.383 135.208L398.409 135.613L397.579 135.328L398.127 135.431L397.852 135.556L398.113 135.675L397.527 137.56L397.143 137.857L397.306 139.152L396.477 139.335L396.914 139.614L396.616 140.37L396.809 140.552L396.421 140.907L396.593 141.132L395.669 141.57L395.082 141.396L395.364 141.48L395.259 141.824L395.662 141.876" stroke="black" stroke-width="4" stroke-linecap="round" stroke-linejoin="round"/>
<path d="M345.663 225.163V225.783L345.222 225.884L346.126 226.292L345.544 227.64L345.222 229.011L345.44 229.098L344.883 229.743L345.446 230.058L344.747 230.269L344.719 231.046L344.169 231.845L343.91 236.718L342.013 241.533L342.246 242.228L341.802 242.548L342.354 245.261L342.213 246.032L342.618 246.406L340.404 249.179L340.637 249.464L339.717 250.557L339.817 251.343L339.511 251.546L339.024 253.573L338.476 253.835L338.642 254.338L338.246 254.469L338.414 254.667L337.973 255.158L337.957 255.843L336.867 256.895L336.786 257.547L336.438 257.792L336.561 258.474L336.179 258.817L336.314 260.31L335.397 261.091L334.858 262.163L334.806 264.088L334.455 264.451L334.847 264.63L333.284 265.801L332.719 268.454L332.209 268.656L332.507 269.265L332.099 269.566L332.412 269.865L332.208 270.383L332.58 270.692L332.097 271.441L332.365 271.647L331.886 272.121L331.939 272.955L332.329 273.151L332.099 273.551L332.415 273.704L332.031 275.039L332.116 276.202L331.843 276.286L332.109 276.899L331.768 277.251L332.253 277.736L335.232 279.167L339.755 279.565L341.942 280.428" stroke="black" stroke-width="4" stroke-linecap="round" stroke-linejoin="round"/>
<path d="M14.768 169.988L15.707 170.203L19.25 168.994L23.926 168.065L28.855 168.095L35.277 167.551L46.088 164.742L51.5811 163.806L56.052 164.412L57.948 164.234L70.367 161.845L80.835 161.187L94.105 158.815L100.895 158.644L105.186 157.288L113.478 155.557L115.819 154.216L117.972 153.797L118.23 153.399L120.647 152.635L122.433 151.642L127.061 150.851L127.519 150.692L127.257 150.523L127.435 150.764L131.512 149.2L131.228 149.42L131.483 149.592L131.867 149.177L135.996 148.427L136.68 148.564L136.374 148.999" stroke="black" stroke-width="4" stroke-linecap="round" stroke-linejoin="round"/>
<path d="M13.395 169.338L14.431 169.409L14.756 169.097L14.407 169.38L14.745 169.917L16.038 170.545L17.479 173.138L19.8651 175.952L22.561 180.722L22.4431 181.263L23.136 182.559L23.025 183.119L23.886 184.41L24.424 186.252L24.837 186.456L25.698 188.196L26.393 190L27.435 195.312L28.854 197.412L28.885 199.095L30.442 202.33L31.23 204.865L31.094 205.332L33.33 209.949L33.3181 211.723L34.26 216.065L35.548 218.707L37.162 221.038L38.268 223.625L38.733 227.048L39.627 230.256L40.201 230.873L40.438 231.823L41.244 232.422L41.403 234.265L46.243 242.755L46.3 244.768L47.031 246.203L46.925 246.807L47.4561 247.42L49.3 251.836L50.987 253.965L51.419 255.655L53.507 260.212L53.935 262.47L54.86 264.528L55.121 266.852L56.215 268.441L57.53 271.883L57.719 273.479L58.617 275.536L58.272 275.901L58.967 276.38L60.17 279.069L62.01 286.193L62.48 286.53L62.395 287.245L63.045 288.093L64.082 290.641L64.088 291.337L63.844 291.444L64.938 292.782L65.566 292.903L64.773 293.142L65.171 293.531L64.969 293.804L65.537 293.905L65.011 293.827L65.322 293.665L64.875 293.886L64.534 293.614L65.057 293.275L65.015 292.801L64.5031 292.733L66.54 291.729L85.982 286.609L98.9171 284.551L107.346 282.054L116.722 280.352L137.357 278.219L150.145 275.284L160.037 274.054L165.163 272.446L170.149 272.111L173.401 271.525L178.394 269.681L179.869 269.529L179.592 269.479L180.355 268.505L188.917 266.292L189.802 266.276L190.069 266.373L189.948 266.599L189.707 266.378L193.101 265.528L193.955 264.893L194.434 264.957L193.442 265.238L193.989 265.291L194.211 265.025L193.846 264.557L195.015 264.051L195.29 263.516L194.906 263.433L195.35 263.217L194.567 261.79L194.803 261.754L195.279 259.448L195.64 259.133L195.462 258.214L195.838 257.941L195.294 257.498L194.933 256.103L194.158 248.842L194.374 248.52L193.539 246.643L193.676 243.346L192.858 241.658L192.727 238.852L192.197 238.351L192.167 235.601L192.522 235.333L192.008 234.998L191.643 233.715L191.81 233.325L190.463 229.992L190.965 229.589L190.627 229.506L189.668 227.888L189.125 227.61L189.658 227.218L189.806 226.567L189.794 224.005L189.251 222.315L188.705 221.845L188.811 221.332L188.493 221.217L188.751 220.525L188.389 220.127L188.482 219.207L188.231 219.295L188.106 218.994L188.402 218.922L188.154 218.916" stroke="black" stroke-width="4" stroke-linecap="round" stroke-linejoin="round"/>
<path d="M357.08 222.408L357.463 224.268L357.749 224.213L357.352 224.431L357.648 224.615L357.423 224.756L357.693 225.228L357.222 225.425L357.661 225.858L357.733 226.739L357.418 227.311L357.787 227.651L357.235 228.011L356.482 229.442L356.426 232.25L354.797 236.047L354.103 239.194L353.589 239.892L353.603 240.527L353.225 240.791L353.474 241.568L353.001 241.851L353.109 243.749L352.595 245.13L352.043 245.708L352.473 246.151L352.05 246.308L351.058 247.664L350.702 249.333L350.904 249.525L350.546 249.859L350.937 250.134L350.293 250.612L350.688 250.867L349.676 251.418L349.107 252.511L348.499 256.098L348.166 256.951L347.473 257.32L347.728 257.873L347.112 258.209L347.192 259.083L346.642 259.46L347.094 260.178L346.759 260.545L347.183 260.738L346.574 261.581L346.4 262.976L346.078 263.301L346.35 263.508L345.83 264.069L346.099 264.39L345.294 265.05L345.376 265.621L344.676 266.46L344.991 266.268L345.244 266.591L344.894 266.758L345.033 266.924L346.391 266.576L346.628 266.86L348.093 266.785L350.304 266.183L351.662 267.122L354.521 268.034L355.26 268.464L354.849 268.651L359.606 269.684L361.155 271.209L363.9 272.811L367.187 273.67L369.036 274.486L374.161 275.261L375.991 275.883L377.717 277.135L378.901 277.583L387.041 277.581L392.295 279.83L394.354 280.359L397.372 280.711L403.634 280.153L406.68 280.605L414.27 283.197L417.353 283.628L427.771 284.149L430.061 284.832L430.139 285.406L431.057 285.779L430.819 286.894L431.167 287.298L433.389 288.452L436.068 288.669L443.117 288.396L447.109 288.902L450.349 290.189L452.041 291.618L451.892 291.943L454.268 292.951L457.615 293.23L460.773 292.932L465.389 293.405L468.232 294.511L468.615 295.308L468.053 295.489L471.138 296.123L476.522 296.399L477.879 296.897L477.669 297.058L478.344 297.5L478.961 297.563L478.34 297.614L479.408 297.601L479.078 297.323L479.458 297.253L480.152 297.477L479.952 297.201L482.548 297.226L482.099 297.069L483.322 296.203L486.513 295.223L485.079 295.193L486.363 289.478L485.586 288.88L485.993 288.595L486.046 287L486.599 285.607L486.322 284.792L486.923 283.717V282.387L488.225 278.476L488.93 273.568L489.778 271.846L489.841 270.967L491.693 266.059L492.417 265.316L492.258 264.97L493.544 260.931L494.602 260.038L494.381 259.652L496.032 254.06L498.902 245.953L499.406 242.534L499.226 241.899L500.276 239.886L500.127 238.991L501.16 237.29L500.96 236.483L502.272 234.982L502.796 233.183L504.994 229.294L505.348 227.71L505.869 227.015L505.858 225.322L506.877 223.079L508.585 220.246L509.17 219.964L509.471 218.154L510.362 217.472L510.142 217.23L510.878 215.104L511.045 212.843L513.945 204.738L513.521 204.589L514.069 203.593L513.745 203.182L514.575 202.437L514.545 201.72L515.251 201.316L515.213 200.743L516.841 198.8L517.279 197.499L518.139 196.9L517.926 196.642L518.451 192.723L519.448 191.23L520.011 191.01L519.802 190.889L519.906 190.227L520.298 189.896L520.289 189.053L520.85 188.577L520.659 188.155L520.888 187.442L520.58 187.201L521.095 186.291L520.339 185.204L520.804 184.372L520.194 184.087L521.069 183.336L520.653 183.184L520.661 182.883L521.343 182.629L522.509 181.338L522.052 179.938L522.18 179.689L522.666 179.759L522.259 179.475L522.914 179.489L522.362 179.309L522.478 178.922L521.821 178.313L522.043 178.12L519.99 177.825L520.395 177.853L520.009 177.834L520.221 177.623L519.782 177.473L519.544 176.915L516.363 176.282L515.646 175.99L515.534 175.766L515.939 175.711L510.166 174.162L508.027 174.031L505.174 173.172L502.995 173.168L498.488 172.266L488.816 171.831L485.315 170.842L473.059 168.947L461.944 165.492L452.558 164.724L448.66 164.033L447.611 163.502L446.368 161.909L445.454 161.613L436.103 160.094L429.219 157.181L423.694 157.164L421.8 156.72L421.069 156.45L420.668 155.99L421.052 155.824L420.169 155.335L415.26 154.537L414.322 153.904L413.905 153.957L413.874 153.319L412.499 153.529L411.454 153.053L409.672 153.529L409.953 153.412L409.462 153.288L409.328 153.572L408.272 153.159L407.827 153.36L407.092 152.806L407.23 151.97" stroke="black" stroke-width="4" stroke-linecap="round" stroke-linejoin="round"/>
<path d="M53.517 315.936L54.009 315.501L54.936 315.737L54.117 315.764L54.606 316.01L53.695 316.59L54.007 317.415L60.327 323.228L62.186 325.785L62.722 327.035L64.608 329.041L73.604 335.965L76.281 338.851L83.297 344.89L87.053 347.471L87.076 347.901L88.793 348.84L88.92 349.284L93.89 352.418L98.704 357.534L106.658 362.765L114.309 366.476L121.091 371.711L129.369 377.167L132.508 378.997L135.911 380.513L139.791 382.87L141.207 383.878L143.382 386.187L146.213 388.246L160.749 396.023L161.766 396.308L164.819 398.426L169.882 400.053L169.853 400.673L170.219 400.906L169.728 401.452" stroke="black" stroke-width="4" stroke-linecap="round" stroke-linejoin="round"/>
<path d="M214.353 278.25L214.05 278.453L214.516 278.488L213.989 278.652L214.539 278.589L215.946 279.68L216.056 280.224L216.787 280.459L216.732 280.784L219.631 284.428L220.243 284.804L220.586 285.57L224.626 289.679L224.537 290.078L226.408 291.226L230.101 294.439L233.918 299.206L239.386 303.378L240.698 303.977L241.547 305.024L243.075 306.139L244.726 307.017L249.989 311.898L254.368 314.78L255.583 315.974L255.613 316.544L265.246 322.728L266.678 324.087L266.635 324.414L268.243 325.304L270.366 327.098L271.659 327.632L272.118 328.443L274.141 329.74L280.676 332.669L280.623 333.037L281.71 333.48L286.773 336.943L295.962 340.537L295.929 340.775L301.121 343.283L303.582 344.954L303.298 345.036L305.393 345.516L306.293 346.472L306.043 346.503L307.387 346.282L307.038 346.168" stroke="black" stroke-width="4" stroke-linecap="round" stroke-linejoin="round"/>
<path d="M333.688 280.179L333.637 279.194L333.866 279.167L333.74 279.438L332.247 281.904L331.541 282.273L331.807 282.383L331.701 282.973L331.082 283.28L331.013 284.507L330.456 284.978L330.635 285.23L330.2 286.472L327.836 289.982L325.597 294.301L325.053 296.374L324.115 297.72L324.226 298.278L323.013 299.395L322.987 299.967L321.923 300.863L320.284 303.423L317.179 309.704L313.815 313.109L313.746 313.706L312.961 314.054L312.456 315.446L309.398 318.943L309.116 319.746L309.285 320.065L307.695 321.472L308.051 321.812L306.198 322.911L305.651 323.764L305.729 324.12L304.8 325.001L304.888 325.329L304.285 325.632L303.087 327.327L302.427 327.607L302.267 328.177L301.448 328.609L301.791 328.72L301.832 329.575L301.088 330.885L300.528 330.989L300.765 331.174L300.45 332.091L299.884 332.224L300.303 332.891L299.783 333.398L300.061 333.656L299.22 333.981L299.341 334.316L297.731 335.52L297.552 336.363L297.775 336.477L295.505 338.639L295.767 338.903L295.082 339.465L295.125 339.801L294.027 340.231L295.03 340.396L294.067 340.343L294.436 340.234L294.632 339.353" stroke="black" stroke-width="4" stroke-linecap="round" stroke-linejoin="round"/>
<path d="M495.939 314.765L496.82 314.678L495.69 314.696L495.843 315.089L495.531 315.206L495.788 315.559L494.203 318.427L493.547 318.995L491.897 323.034L487.844 329.97L487.764 330.615L484.787 334.748L482.587 338.435L482.471 339.11L481.412 340.241L480.903 341.552L477.485 346.683L476.784 350.405L476.187 351.288L475.392 354.007L472.554 358.544L471.689 359.447L471.262 362.004L470.723 362.844L470.297 366.423L469.698 367.497L469.93 368.103L468.135 369.939L464.674 375.185L464.967 375.584L464.128 376.428L462.845 378.83L461.297 382.8L460.843 383.279L460.566 384.557L460.1 385.017L459.857 385.918L459.494 386.088L459.345 386.882L458.618 387.351L458.8 388.23L456.104 391.69L456.036 392.549L455.032 393.571L455.359 393.8L454.727 394.344L454.772 394.743L453.348 396.801L452.859 397.083L451.578 399.98L450.421 400.942L450.423 401.387L448.213 404.743L448.303 405.042L447.475 405.698L447.357 406.539L446.941 406.819L447.308 406.986L445.958 407.713L445.546 408.308L445.319 408.327L445.495 408.014L445.685 408.222L445.009 408.25L445.055 408.68L444.062 410.275L444.183 409.738L443.902 409.3L444.193 408.555" stroke="black" stroke-width="4" stroke-linecap="round" stroke-linejoin="round"/>
<path d="M175.389 401.585L175.134 401.424L175.699 401.387L176.602 401.767L177.651 401.687L183.026 400.438L192.978 397.539L204.645 393.353L212.356 390.994L225.557 388.488L239.972 384.138L251.041 380.018L266.306 375.034L279.998 371.756L289.593 368.307L294.835 366.028L299.286 364.618L299.472 364.197L301.803 362.775L306.95 361.099L306.707 361.031L308.415 360.009L309.851 358.713L309.771 358.502L309.709 358.719L310.398 358.501L310.855 358.115L310.884 357.565L310.456 357.613L310.922 357.844L312.657 357.43" stroke="black" stroke-width="4" stroke-linecap="round" stroke-linejoin="round"/>
<path d="M266.871 380.252L264.961 380.518L265.293 380.596L264.108 382.281L261.175 384.502L261.327 384.771L260.581 385.311L259.663 386.97L258.451 387.981L258.728 388.175L258.494 388.257L258.623 388.693L260.255 389.837L260.449 390.402L267.569 393.769L272.196 394.94L284.449 396.498L292.13 399.463L309.597 403.932L316.158 405.254L325.18 408.403L337.624 411.421L346.072 414.23L360.05 415.759L364.019 416.476L370.49 418.347L378.632 422.046L384.792 422.959L396.152 423.842L403.178 426.364L407.225 427.316L419.67 427.3L422.874 427.734L425.653 426.797L425.229 426.741L427.272 425.111L427.648 424.028L428.091 423.858L428.512 422.393L431.035 419.186L432.844 417.55L435.123 416.322L436.159 414.653L435.958 414.427L436.983 413.89L441.386 410.198L441.656 409.284L442.432 408.579L442.286 407.822" stroke="black" stroke-width="4" stroke-linecap="round" stroke-linejoin="round"/>
<path d="M88.954 317.717L89.256 317.58L88.957 317.687L89.915 318.187L92.306 318.041L93.444 317.663L93.229 317.593L94.023 316.819L94.37 316.987L93.729 316.909L93.947 316.709L91.679 317.354L88.109 319.5L89.659 319.498L89.076 319.513L89.302 319.928L90.256 320.565L92.39 320.636L94.728 320.144L97.91 318.922L96.612 318.956L94.847 318.438L93.559 318.857L93.627 319.132L93.173 319.161L93.759 319.179" stroke="black" stroke-width="4" stroke-linecap="round" stroke-linejoin="round"/>
<path d="M115.092 310.338L112.891 311.193L115.309 311.72L117.162 311.45L121.667 309.761L124.292 309.285L123.581 308.817L117.692 311.965L117.583 312.511L117.897 312.988L119.473 312.816L121.839 311.388L121.762 310.945L123.309 310.434L123.308 310.102L124.07 309.767L123.539 309.823L123.912 309.515L123.702 309.755L122.199 309.662L120.344 310L118.481 310.666L117.263 311.588L117.449 311.881L118.913 311.347" stroke="black" stroke-width="4" stroke-linecap="round" stroke-linejoin="round"/>
<path d="M143.604 309.677L141.908 309.779L143.147 309.767L143.1 310.051L145.491 309.934L146.078 309.488L147.451 309.303L149.99 308.354L151.303 307.353L149.259 307.793L146.245 309.487L145.152 309.735L144.635 310.172L144.545 310.702L143.994 311.011L144.174 311.175L143.848 311.826L145.622 312.068L149.206 310.861L152.532 309.086L152.653 308.765L152.968 308.848L152.436 309.072L149.964 308.585L147.628 309.061L145.338 310.426L144.716 311.213L144.795 311.657L145.542 311.797" stroke="black" stroke-width="4" stroke-linecap="round" stroke-linejoin="round"/>
<path d="M168.067 303.97L167.379 303.646L167.535 303.404L166.955 302.813L167.331 302.846L167.589 303.419L165.883 304.123L165.592 304.589L166.416 304.414L167.836 303.419L168.578 301.964L169.765 301.132L171.459 300.723L171.37 301.009L171.09 300.893L169.123 301.844L167.356 303.089L166.556 304.331L167.294 304.659L168.803 304.333L170.872 303.598L173.372 302.217L171.992 302.991L172.081 303.826L171.645 304.995L171.861 305.054" stroke="black" stroke-width="4" stroke-linecap="round" stroke-linejoin="round"/>
<path d="M191.638 297.022L191.453 298.603L190.914 299.915L189.938 300.927L190.01 301.172L189.457 301.143L196.813 298.103L193.32 298.551L192.294 299.105L191.534 299.905L191.415 300.801L190.778 301.405L190.315 301.387L192.538 301.855L195.37 301.477L200.331 299.36L202.384 297.586L202.299 297.109L200.512 296.987L197.282 297.869L194.202 299.309L194.839 299.801L195.4 299.722" stroke="black" stroke-width="4" stroke-linecap="round" stroke-linejoin="round"/>
<path d="M111.64 336.58L112.225 336.726L112.941 336.441L114.217 335.12L114.258 334.43L114.633 334.07L114.303 333.898L114.794 333.506L114.785 333.126L110.804 333.128L108.998 333.438L107.851 334.204L107.782 335.434L108.442 336.219L110.116 336.199L112.184 335.83L119.416 331.839L117.927 332.183L114.483 333.805L114.493 334.129L113.534 334.64L113.703 334.908L113.233 334.974L113.121 335.538L114.239 335.933L117.649 334.603" stroke="black" stroke-width="4" stroke-linecap="round" stroke-linejoin="round"/>
<path d="M132.086 329.563L132.444 330.348L132.208 330.591L132.436 330.57L132.538 329.996L135.081 329.627L141.147 327.15L140.948 327.333L141.227 327.361L140.752 327.376L141.168 327.508L138.914 327.983L135.876 329.802L135.424 330.389L135.543 331.249L135.207 331.552L136.468 331.66L139.668 330.044L143.622 327.322L143.735 327.036L143.048 327.089L143.289 326.476L143.085 326.378L143.384 326.372L142.355 326.284L140.643 326.906L139.355 327.638L139.138 328.088L139.105 328.541L139.925 329.099L141.351 328.869" stroke="black" stroke-width="4" stroke-linecap="round" stroke-linejoin="round"/>
<path d="M160.819 322.789L159.212 322.641L158.375 323.934L158.525 324.118L158.183 324.102L159.598 323.867L164.1 321.454L166.15 320.815L165.634 320.75L165.989 320.231L164.081 320.818L160.794 323.492L160.75 324.485L160.487 324.535L161.729 324.388L166.403 322.017L166.588 321.561L166.278 321.594L165.754 323.172L164.017 325.728" stroke="black" stroke-width="4" stroke-linecap="round" stroke-linejoin="round"/>
<path d="M184.406 321.238L182.429 323.164L181.16 323.802L182.179 323.236L185.164 320.243L185.015 320.01L186.684 319.339L186.603 319.723L182.719 321.699L182.797 322.125L182.434 322.443L182.822 322.641L182.197 322.968L182.353 323.359L181.781 323.89L183.056 324.043L187.412 322.108L187.978 322.273L188.139 323.446" stroke="black" stroke-width="4" stroke-linecap="round" stroke-linejoin="round"/>
<path d="M203.691 316.265L203.696 317.078L203.955 317.208L203.163 317.86L203.018 318.918L202.731 318.886L203.006 319.015L208.933 315.909L210.221 314.856L209.887 314.814L205.793 317.386L204.047 319.193L204.44 319.252L204.32 319.082L205.201 318.758L205.817 318.071L209.206 316.716L210.115 316.828L209.647 317.498L209.561 318.346L209.834 318.476" stroke="black" stroke-width="4" stroke-linecap="round" stroke-linejoin="round"/>
<path d="M340.652 307.249L341.109 308.074L341.014 307.888L342.473 306.939L344.221 306.42L345.692 306.594L345.687 306.994L346.039 307.15L345.398 307.099L345.527 306.801L344.987 306.196L343.331 305.316L341.35 305.073L339.119 305.451L340.134 305.136L340.469 305.896L341.29 306.537L344.629 308.066L347.048 308.303L350.299 307.762L350.891 307.075L350.237 305.609L348.963 304.658L346.457 304.175L345.045 304.764L344.254 305.564L344.603 305.779L344.37 305.878L344.724 306.742L345.399 307.202L346.786 307.663L350.368 306.545" stroke="black" stroke-width="4" stroke-linecap="round" stroke-linejoin="round"/>
<path d="M366.672 307.005L365.899 306.893L366.181 307.011L365.916 307.29L369.231 309.821L370.398 310.087L372.26 309.988L374.379 309.558L374.119 309.416L374.917 309.466L374.604 309.45L374.701 308.936L373.801 307.17L373.115 306.564L370.385 306.1L368.381 306.66L367.099 307.463L367.896 307.565L369.662 309.41L372.824 310.3L376.027 310.31L377.979 310.745L375.869 308.597L372.765 307.831L371.818 308.144L371.55 308.577L371.41 309.649L371.131 309.854L371.47 310.988L372.568 311.892L374.156 312.017" stroke="black" stroke-width="4" stroke-linecap="round" stroke-linejoin="round"/>
<path d="M397.525 312.608L397.555 314.033L398.584 314.886L400.739 315.489L402.261 315.255L401.038 314.535L398.746 314.132L395.681 312.907L396.276 313.244L395.333 313.986L395.04 315.169L396.054 316.339L397.598 317.116L400.016 317.618L402.185 317.388L404.427 316.515L404.188 316.582L403.187 314.141L402.008 313.578L400.239 313.377L396.792 314.017L396.215 314.499L396.272 315.149L397.317 315.929L398.718 316.34L401.459 316.403" stroke="black" stroke-width="4" stroke-linecap="round" stroke-linejoin="round"/>
<path d="M417.623 318.889L418.819 318.987L418.593 319.154L419.524 319.63L421.72 320.389L424.021 320.566L426.19 320.197L427.327 319.371L426.669 318.741L423.284 317.562L420.731 317.128L419.274 317.228L418.219 318.511L418.05 319.247L419.203 320.167L420.376 320.644L424.736 320.971L426.958 320.87L428.34 320.433L426.585 319.905L420.074 319.187L419.962 318.982L420.496 318.858L421.447 319.086" stroke="black" stroke-width="4" stroke-linecap="round" stroke-linejoin="round"/>
<path d="M451.274 325.126L450.754 324.76L450.52 324.906L451.527 326.774L453.225 327.556L454.587 327.671L456.658 327.397L458.739 326.703L458.457 326.646L458.731 326.645L458.916 326.064L458.486 325.885L458.693 325.476L458.385 324.942L457.005 324.172L453.746 323.661L450.461 323.711L449.333 324.029L449.208 324.386L449.856 324.288L449.538 325.553L450.356 326.517L452.522 327.334L454.784 327.545L460.848 326.466L460.266 326.307L459.391 324.807L457.504 324.61L456.511 324.919L450.029 325.234L450.397 325.113L452.247 326.314L454.915 326.753" stroke="black" stroke-width="4" stroke-linecap="round" stroke-linejoin="round"/>
<path d="M338.416 324.951L338.267 325.369L338.823 325.528L340.882 325.177L343.586 323.607L342.342 323.959L339.907 323.552L336.632 323.508L333.334 324.627L332.98 325.935L333.849 326.15L333.836 326.523L335.04 327.429L337.187 328.065L340.924 327.971L344.834 327.299L346.566 326.451L346.365 326.275L347.109 325.801L346.651 326.034L339.082 326.367L337.723 326.322L336.836 325.903L336.992 326.711L339.552 327.574" stroke="black" stroke-width="4" stroke-linecap="round" stroke-linejoin="round"/>
<path d="M359.758 328.986L357.477 328.055L357.472 327.796L358.082 328.048L357.394 328.024L357.624 328.121L356.87 328.527L357.31 328.611L356.935 328.545L356.977 328.314L357.636 328.299L357.817 327.938L358.729 327.614L362.067 327.823L362.376 327.142L363.186 326.704L362.825 326.631L363.4 326.586L363.249 326.777L362.039 326.06L360.68 325.74L357.29 326.112L357.125 326.469L357.383 326.699L357.159 326.685L357.758 326.677L358.105 327.251L359.731 327.859L364.484 328.637L368.44 330.321L365.266 328.939L361.759 328.556L360.222 328.771L360.388 328.911L359.999 329.176L359.685 330.808L359.348 331.203L359.512 332.146L359.866 332.945L361.398 333.752L365.325 333.756L368.74 333.081L370.492 332.592L370.223 332.471" stroke="black" stroke-width="4" stroke-linecap="round" stroke-linejoin="round"/>
<path d="M391.543 335.228L391.846 335.898L391.358 336.413L391.582 336.466L391.246 336.125L391.669 336.048L391.237 335.631L392.077 335.964L392.835 335.829L394.056 335.06L393.223 333.883L392.226 333.403L390.018 333.077L388.386 333.322L387.905 333.673L388.108 334.015L387.661 334.161L387.932 334.346L386.961 335.537L387.768 337.423L389.425 338.358L391.44 338.621L397.552 337.77L396.732 336.901L393.903 336.449L389.304 336.85L389.776 337.067L390.452 338.542L390.381 339.124L390.831 339.458L392.894 339.496L396.691 338.446" stroke="black" stroke-width="4" stroke-linecap="round" stroke-linejoin="round"/>
<path d="M416.185 340.11L416.406 339.858L417.515 340.355L418.656 340.369L420.197 339.71L419.943 339.663L420.39 338.925L419.548 337.842L417.975 336.943L417.119 337.014L415.16 337.906L415.039 338.982L414.782 339.136L415.68 340.952L416.889 341.427L418.865 341.596L423.73 341.021L424.64 340.084L424.301 339.544L423.336 338.98L420.911 338.614L419.602 338.598L417.967 339.231L417.479 339.709L418.026 340.166L417.96 341.281L422.543 341.785" stroke="black" stroke-width="4" stroke-linecap="round" stroke-linejoin="round"/>
<path d="M445.649 344.182L445.282 344.83L445.547 344.923L445.031 345.032L445.309 345.22L445.054 345.3L445.835 345.061L447.535 345.503L448.143 345.413L448.185 344.807L448.506 344.606L448.27 344.539L448.579 344.579L447.729 343.863L444.349 343.449L442.817 343.457L441.619 343.861L441.583 344.13L442.473 344.397L442.215 344.628L442.275 346.351L442.847 346.929L444.325 347.626L447.571 347.844L452.276 347.377L451.859 347.385L452.166 347.169L447.426 346.854L446.438 347.206L445.953 348.365L449.804 346.869" stroke="black" stroke-width="4" stroke-linecap="round" stroke-linejoin="round"/>
<path d="M331.813 350.029L331.672 349.604L332.221 349.182L330.792 348.927L328.443 347.663L324.398 348.504L322.725 349.179L323.818 349.082L323.95 349.405L325.821 350.196L329.365 350.696L338.251 350.735L340.601 351.417L341.88 351.331L338.594 349.329L333.556 347.726L329.081 347.092L325.633 347.17L325.882 347.248L325.416 347.415L327.025 347.643L330.313 346.909L331.921 347.253" stroke="black" stroke-width="4" stroke-linecap="round" stroke-linejoin="round"/>
<path d="M352.973 348.653L353.184 348.977L352.425 348.882L353.607 348.343L353.681 347.87L353.313 348.244L353.666 348.777L355.738 349.335L362.086 348.883L363.739 349.402L364.148 349.806L363.741 350.383L364.334 350.116L364.089 350.27L361.135 349.198L358.633 348.787L355.956 349.549L355.448 349.382L356.853 348.95L358.393 349.845L362.379 350.411L364.429 350.464L364.909 350.749L365.908 350.165" stroke="black" stroke-width="4" stroke-linecap="round" stroke-linejoin="round"/>
<path d="M379.49 356.489L379.941 356.354L382.626 357.001L391.706 356.666L390.761 356.631L391.298 356.38L390.145 355.882L390.266 355.636L385.208 354.313L381.564 353.754L380.969 354.061L381.331 354.198L380.743 354.361L381.426 354.321L381.831 354.501L381.589 354.694L383.568 355.505L386.113 356.076L393.179 355.8L392.386 355.818L391.749 355.33L389.921 354.8L383.212 354.332L379.184 354.809L380.461 354.775L382.002 356.203L383.665 356.649L387.266 356.885L393.975 356.743L395.387 356.265L395.478 355.582L395.732 355.777L395.189 356.038L392.353 355.979L386.626 356.938L385.8 357.525" stroke="black" stroke-width="4" stroke-linecap="round" stroke-linejoin="round"/>
<path d="M411.096 358.583L409.943 359.243L411.003 359.053L413.323 360.074L415.018 360.028L417.835 361.068L418.578 361.182L419.322 360.814L418.595 360.751L417.687 359.671L415.742 358.587L411.921 357.518L410.776 357.413L411.323 357.571L411.273 357.998L410.914 358.078L411.405 358.038L411.129 358.127L411.586 358.157L411.804 358.722L413.952 359.836L415.771 360.28L421.356 360.8L420.969 360.9L421.223 360.759L417.09 358.651L413.832 358.246L412.123 358.693L411.356 359.293L411.167 359.898L410.491 360.158L410.587 360.94L409.803 361.241L410.098 362.394L410.771 363.197L412.796 363.917L414.265 363.85L417.324 362.926" stroke="black" stroke-width="4" stroke-linecap="round" stroke-linejoin="round"/>
<path d="M436.81 369.92L436.237 368.709L437.014 369.322L437.361 369.254L436.976 369.257L437.132 369.028L439.482 369.089L440.046 368.565L439.4 368.369L439.409 367.45L435.761 366.669L432.869 366.921L433.073 367.759L433.805 367.929L434.023 368.512L434.864 368.957L437.722 369.416L441.586 368.843L441.826 368.588L438.135 368.533L432.972 368.971L429.792 369.51L426.717 370.436" stroke="black" stroke-width="4" stroke-linecap="round" stroke-linejoin="round"/>
<path d="M212.155 348.506L210.677 347.884L211.352 347.245L211.106 347.464L211.297 347.575L210.544 347.822L206.025 348.567L200.568 350.662L195.599 351.893L188.578 354.536L187.189 354.761L184.425 354.353L182.486 354.514L178.822 356.453L178.486 357.057L177.116 357.325L176.732 357.708L176.921 358.141L176.601 358.353L176.812 359.204L176.632 361.13L177.112 362.629L176.923 362.879L179.624 366.069L180.716 366.323L180.6 366.658L182.943 369.657L183.706 370.962L184.008 372.682L184.743 373.399L184.574 373.583L184.96 374.004L184.656 374.221L185.248 374.448L185.111 374.659L186.838 377.968L188.884 378.92L188.763 379.18L189.429 378.977L191.332 379.248L192.932 379.077L196.106 378.061L200.414 377.385L210.527 374.362L213.461 374.02L224.778 369.6L226.83 369.14L229.641 369.03L232.148 368.309L235.476 366.807L235.3 366.601H235.567L235.202 366.78L235.534 366.667L234.231 366.188" stroke="black" stroke-width="4" stroke-linecap="round" stroke-linejoin="round"/>
<path d="M206.995 350.599L207.724 350.571L207.504 350.309L207.97 350.224L210.358 348.164L212.356 349.021L216.083 349.65L219.218 349.716L219.672 349.387L222.904 348.933L226.621 352.728L226.379 352.99L228.454 354.065L230.509 356.153L231.841 360.749L233.249 361.729L233.426 362.178L234.308 362.429L234.556 362.935L235.501 363.178L235.29 363.252L235.632 363.806L236.997 364.709L236.075 365.771" stroke="black" stroke-width="4" stroke-linecap="round" stroke-linejoin="round"/>
<path d="M387.615 379.813L387.335 380.774L386.773 380.345L386.727 379.634L386.126 378.935L385.185 378.537L370.73 376.139L366.143 374.982L359.111 375.136L354.165 375.645L349.637 374.052L347.65 374.017L343.626 374.773L343.226 374.716L343.612 374.523L344.089 374.691L343.586 374.819L344.376 374.976L343.586 374.933L344.074 374.968L343.328 375.232L342.639 376.788L342.779 378.312L342.449 379.935L341.837 381.004L341.912 381.487L340.937 382.871L340.583 384.22L340.107 384.54L340.093 385.089L339.434 385.374L339.829 385.699L339.334 386L339.665 386.268L337.005 389.578L336.587 389.67L336.689 389.981L336.307 390.102L336.606 390.228L336.054 390.282L337.452 390.537L336.972 390.731L337.455 390.823L337.191 391.048L337.78 391.528L343.657 393.38L345.764 394.449L354.438 395.813L359.779 398.658L366.32 400.849L378.191 403.486L380.222 403.236L380.969 403.55L381.572 403.354L383.605 403.674L383.996 403.438L383.771 402.974L384.064 402.637L383.831 402.555" stroke="black" stroke-width="4" stroke-linecap="round" stroke-linejoin="round"/>
<path d="M383.234 377.714L385.119 378.381L395.636 378.247L396.76 378.934L398.552 381.318L398.996 382.495L398.843 383.978L399.083 384.565L398.825 384.658L399.184 385.887L398.859 388.334L397.826 390.813L397.348 391.047L396.735 392.311L396.878 392.557L396.086 392.803L395.536 393.302L395.697 393.575L393.736 394.807L392.787 395.813L391.487 398.135L389.597 399L389.493 399.362L388.792 399.583L388.154 400.806L386.471 401.623L387.123 402.025L385.345 402.451" stroke="black" stroke-width="4" stroke-linecap="round" stroke-linejoin="round"/>
<path d="M451.449 198.851L450.858 198.468L451.509 198.534L451.651 199.152L453.401 199.922L455.575 201.632L455.35 201.734L456.196 203.056L457.134 206.447L457.738 207.542L457.489 208.857L457.929 210.181L458.061 212.404L457.338 216.857L457.683 217.192L457.339 217.814L457.465 218.779L455.675 222.091L455.795 222.358L454.477 223.509L453.751 223.661L453.974 223.684L453.872 223.984L452.099 226.327L451.265 226.914L449.177 227.561L448.427 228.311L447.97 228.252L448.134 227.865L448.114 228.074L447.403 227.991" stroke="black" stroke-width="4" stroke-linecap="round" stroke-linejoin="round"/>
<path d="M95.3911 200.193L95.025 202.967L94.644 203.621L94.812 204.587L95.321 205.218L95.172 205.782L95.572 206.131L95.371 206.624L95.939 206.952L95.534 207.334L95.46 208.246L95.971 212.003L96.398 212.823L96.083 213.017L96.438 213.478L95.945 213.723L97.895 215.569L98.587 217.775L99.911 218.479L99.772 218.712L100.999 220.338L102.376 220.981L103.146 221.968L102.936 222.076L103.652 222.371L103.473 222.484L104.85 223.286L106.548 223.535L107.713 224.709L109.089 224.825L109.931 225.353L110.157 225.012L110.998 224.815L110.61 224.492" stroke="black" stroke-width="4" stroke-linecap="round" stroke-linejoin="round"/>
<path d="M92.484 188.264L91.847 187.932L92.927 186.723L91.196 188.168L89.207 191.593L88.151 192.435L88.063 193.027L87.427 193.557L86.223 196.601L84.539 199.315L82.77 203.392L82.338 207.118L81.686 208.309L82.179 209.022L81.458 210.223L81.061 212.127L81.469 217.185L81.968 218.717L82.304 221.518L82.728 222.265L82.377 222.654L83.434 223.618L83.773 225.093L86.105 229.793L86.531 230.511L87.216 230.893L87.607 232.283L89.596 234.548L93.601 237.457L93.383 237.548L95.617 238.508L97.85 239.938L98.79 239.983L98.493 239.875L98.371 240.256L98.638 240.299L98.093 240.18L96.282 240.666L93.814 239.418L91.876 239.178L91.708 238.66" stroke="black" stroke-width="4" stroke-linecap="round" stroke-linejoin="round"/>
<path d="M80.048 240.061L82.777 242.88L83.82 243.317L83.63 243.755L84.703 244.461L85.28 245.13L85.207 245.427L89.278 246.5L91.012 248.064L90.898 248.369L91.648 248.81L91.382 249.086L96.657 250.012L98.401 251.06" stroke="black" stroke-width="4" stroke-linecap="round" stroke-linejoin="round"/>
<path d="M112.11 244.636L114.806 245.114L118.545 244.639L124.422 242.443L124.554 241.817" stroke="black" stroke-width="4" stroke-linecap="round" stroke-linejoin="round"/>
<path d="M469.825 194.515L469.455 194.916L471.227 197.619L471.984 198.033L471.861 199.036L472.587 200.896L472.702 203.046L473.635 206.777L474.062 207.264L473.56 208.522L472.801 215.685L472.042 218.28L469.894 222.721L469.052 225.015L469.186 225.509L468.795 225.743L467.842 227.806L464.093 232.447L463.933 232.993L458.707 237.968L457.931 238.161L457.63 238.59" stroke="black" stroke-width="4" stroke-linecap="round" stroke-linejoin="round"/>
<path d="M451.363 240.008L451.303 239.499L450.439 240.71L449.218 241.433L445.694 242.48L445.242 242.275L440.515 242.908L438.188 243.841L436.792 244.052L436.082 244.868" stroke="black" stroke-width="4" stroke-linecap="round" stroke-linejoin="round"/>
<path d="M449.363 252.827L448.694 252.622L454.181 250.582L457.399 248.479L459.026 247.857L458.96 247.622L460.007 247.506L461.444 246.723L464.283 243.975L464.911 243.729L464.864 243.495L466.222 243.168L466.731 242.566L467.257 242.521L467.211 242.163L467.679 242.008L468.091 240.077L468.548 240.054L468.352 239.895" stroke="black" stroke-width="4" stroke-linecap="round" stroke-linejoin="round"/>
<path d="M485.737 207.504L485.97 207.233L486.078 207.415L485.268 211.896L483.766 216.083L482.006 218.736L480.523 219.555" stroke="black" stroke-width="4" stroke-linecap="round" stroke-linejoin="round"/>
<path d="M183.158 73.461L184.091 82.994L185.046 87.115L186.367 98.276L186.903 99.195L186.821 101.76L187.32 105.024L189.378 112.957L191.535 118.949L191.329 119.484L193.656 124.809L194.661 125.58L194.134 125.722L194.161 126.081L194.903 127.14L195.145 128.223L194.867 128.316L195.33 128.561L196.029 130.863L195.897 131.351L196.237 131.567L196.074 133.14L196.712 133.827" stroke="black" stroke-width="4" stroke-linecap="round" stroke-linejoin="round"/>
<path d="M221.727 195.893L222.129 195.855L222.301 196.292L222.664 199.328L223.554 201.244L223.764 203.277L224.839 206.136L224.528 206.726L224.983 207.202L226.051 210.603L226.494 213.471L228.084 216.248L228.51 218.642L228.988 219.063L229.911 221.276L230.702 221.991L231.685 222.291L231.825 223.076L232.897 224.353L233.849 224.803L234.404 224.755L234.409 224.445L235.298 226.034L235.967 226.481L236.669 226.133L236.807 225.741L236.733 225.129L235.955 224.918" stroke="black" stroke-width="4" stroke-linecap="round" stroke-linejoin="round"/>
<path d="M204.566 149.341L206.439 149.864L207.233 152.401L208.334 154.039" stroke="black" stroke-width="4" stroke-linecap="round" stroke-linejoin="round"/>
<path d="M217.211 173.151L218.436 175.141L219.047 175.602" stroke="black" stroke-width="4" stroke-linecap="round" stroke-linejoin="round"/>
<path d="M177.353 70.903L176.784 70.154L177.046 70.017L175.445 69.108L174.219 67.19L172.13 65.144L170.006 64.141L167.22 63.485L164.762 62.06L163.677 60.008L162.34 58.341L157.23 54.693L156.159 53.528L154.965 51.667L154.937 50.534L154.281 49.053L154.728 48.494L154.865 46.995L156.097 44.28L156.265 43.211L158.582 42.246L161.379 42.379L162.547 43.13L164.245 45.286L164.909 46.727L167.555 48.515L168.906 51.012L169.713 51.818L171.068 52.475L172.536 52.404L172.715 52.16L173.209 53.739L174.959 55.336L175.922 55.191L175.809 54.286L176.228 54.168L175.478 53.539" stroke="black" stroke-width="4" stroke-linecap="round" stroke-linejoin="round"/>
<path d="M176.897 51.505L177.277 51.134L176.689 50.292L176.883 48.847L177.687 46.982L177.706 45.526L178.211 44.55L178.647 41.267L180.003 37.285L181.324 34.699L183.009 32.819L182.702 32.579L183.545 32.083L184.673 30.571L185.155 30.471L185.171 30.03L185.749 29.782L187.983 30.309L188.158 31.898L187.219 41.592L186.193 44.856L185.925 48.272L185.024 50.825L184.064 52.445L183.607 54.292L183.792 54.883L183.117 55.864L183.483 56.101L183.391 56.429L184.943 55.694L185.946 54.421L186.301 53.358L186.132 52.929L188.422 48.964L191.154 46.378L194.866 41.933L196.833 40.365L198.751 39.467L200 39.339L201.058 40.549L200.947 41.191L201.339 41.332L200.681 41.726L200.79 42.307L200.284 42.554L200.541 42.914L200.265 43.729L199.162 45.882L198.714 46.218L198.708 46.745L196.109 49.749L196.041 50.32L193.443 52.094L191.361 54.118L190.387 55.504L191.085 56.013L192.776 56.114L194.663 55.093L199.126 51.729L202.974 49.313L206.2 45.761L207.256 45.037L209.802 44.385L211.133 44.458L212.489 44.824L214.355 46.324L214.456 46.046L214.259 46.308L214.577 47.605L213.977 49.748L212.782 51.098L212.346 51.181L211.547 52.281L208.407 54.653L205.414 56.394L203.748 56.816L203.51 57.415L202.96 57.501L201.486 58.664L201.388 59.423L200.803 59.546L201.126 60.124L201.242 59.81L203.137 61.19L205.632 62.052L203.469 64.945L202.662 65.154L201.718 66.17L199.537 67.267L198.22 67.297L196.329 68.216L192.019 71.21L188.711 71.178" stroke="black" stroke-width="4" stroke-linecap="round" stroke-linejoin="round"/>
<path d="M341.303 50.98L341.832 52.04L341.787 52.924L342.217 53.401L341.867 56.322L342.237 58.984L342.681 59.621L342.79 62.892L343.164 63.992L343.016 67.264L343.4 70.9L343.189 71.621L343.608 73.784L344.049 80.62L343.85 88.272L344.67 91.841L344.821 99.116L344.576 100.592L344.807 102.652L343.903 107.717L344.129 111.919L343.954 113.003L343.619 113.248L343.941 113.779L343.644 114.026L343.949 114.304L344.167 115.78L343.62 117.223L343.892 117.646L343.51 118.367L343.289 120.49L343.329 121.648L343.649 121.882L343.288 123.179L343.571 123.269L343.038 123.715L343.263 125.485L343.012 127.031L342.762 127.146L343.268 128.215L342.858 128.861L342.99 129.774L342.757 129.977L342.973 130.1L342.635 130.524L342.934 130.801L342.419 131.158L342.44 131.856L341.917 132.198L342.132 132.456L341.75 132.79" stroke="black" stroke-width="4" stroke-linecap="round" stroke-linejoin="round"/>
<path d="M340.739 151.482L339.549 151.732L340.319 151.985L340.526 153.22L339.647 156.492L338.875 158.432L338.712 158.166L338.981 158.194" stroke="black" stroke-width="4" stroke-linecap="round" stroke-linejoin="round"/>
<path d="M337.616 173.672L337.275 173.667L337.553 173.954L337.536 174.88L336.836 178.361L335.798 180.786" stroke="black" stroke-width="4" stroke-linecap="round" stroke-linejoin="round"/>
<path d="M330.845 204.081L330.168 204.698L329.264 207.667L328.267 208.456L326.03 211.641L320.849 222.135L320.825 222.727L317.467 227.287L314.662 234.195L312.829 237.421L312.123 238.104L312.303 238.416L311.923 238.235L312.203 238.492L312.554 238.302L312.135 238.116L312.948 236.953" stroke="black" stroke-width="4" stroke-linecap="round" stroke-linejoin="round"/>
<path d="M336.277 39.485L335.998 39.897L335 36.315L333.872 34.599L332.444 33.723L330.797 33.539L327.603 32.305L319.074 31.436L314.375 32.566L312.867 33.078L312.358 33.64L309.962 34.28L309.849 34.624L309.018 34.86L306.358 36.667L304.625 38.49L301.966 42.28L301.714 43.312L300.826 43.936L300.755 44.745L300.044 44.849L300.049 45.521L299.057 46.408L298.31 47.8L297.639 51.806L297.683 53.398L297.342 54.041L297.844 56.328L297.634 56.429L298.561 57.319L298.511 59.112L299.181 60.959L299.756 61.577L301.161 61.979L302.033 61.881L303.936 60.468L305.843 59.628L310.634 59.734L312.302 58.913L314.514 56.959L316.599 55.693L317.932 55.489L319.816 55.923L321.254 55.555L326.221 52.955L327.835 52.565L329.379 53.328L330.881 54.613L333.272 57.799L333.831 58.037L336.35 57.484L339.073 58.093L340.668 57.472L342.859 54.55L344.988 53.348" stroke="black" stroke-width="4" stroke-linecap="round" stroke-linejoin="round"/>
<path d="M343.33 36.143L343.499 38.176L343.321 36.572L344.195 34.056L344.339 32.479L345.126 31.598L345.025 31.274L347.115 29.002L349.645 27.911L352.519 27.171L352.737 26.808L352.495 26.484L353.255 26.175L354.237 24.921L354.969 24.678L355.84 23.819L358.555 19.461L359.465 18.756L359.717 17.957L360.754 16.708L361.492 16.516L361.754 16.097L365.236 15.018L368.548 13.097L371.624 13.441L372.243 13.12L373.552 13.125L376.061 13.851L377.657 14.915L378.575 15.996L379.527 19.186L380.294 20.659L380.467 21.928L380.055 24.625L379.362 25.231L379.498 25.837L378.578 27.24L374.427 32.549L373.265 33.605L370.181 35.472L369.801 36.045L366.865 37.393L364.025 39.958L361.534 43.893L361.602 42.978L361.855 43.241L361.474 43.823L361.202 46.899L361.312 47.657L361.98 47.99L366.103 46.558L369.77 44.235L371.097 43.151L371.518 42.357L376.281 39.924L378.198 39.642L380.217 40.089L381.777 41.61L383.16 43.814L383.675 44.145L383.712 44.93L385.225 47.661L386.388 51.255L386.839 55.88L385.226 58.457L382.957 59.433L380.67 59.935L376.918 59.962L374.373 60.579L373.435 61.142L371.822 61.291L369.164 62.639L367.526 62.887L365.137 62.608L364.953 62.141L363.952 62.079L363.398 61.618L361.21 61.405L359.948 61.462L359.585 61.783L357.873 60.536L356.543 59.994L356.056 60.1L355.411 59.459L354.723 59.706L354.15 59.251L354.034 59.546L353.418 58.72L352.303 59.495L351.699 59.567L349.991 59.084L349.77 59.907" stroke="black" stroke-width="4" stroke-linecap="round" stroke-linejoin="round"/>
<path d="M339.58 58.276L339.874 59.721L339.957 59.497L339.674 59.607L339.381 59.161L338.603 59.311L337.939 59.863L337.465 59.799L334.489 62.137L333.327 62.537L328.432 65.682L328.547 66.005L327.397 66.675L327.613 66.993L325.742 68.703L324.373 70.648L324.32 71.38L323.641 71.795L323.441 72.761L322.662 73.515L322.684 74.142L321.252 75.971L321.367 76.565L320.82 78.34L320.388 78.705L320.073 80.167L319.205 81.75L319.162 82.861L318.695 83.542L318.75 84.686L318.483 85.186L318.938 88.315L319.901 89.763L320.786 89.892L323.527 89.494L328.174 87.436L330.92 86.953L333.536 85.848L336.355 83.653L336.457 83.05L337.059 82.758L337.623 81.775L339.274 80.852L341.072 79.327L342.166 79.25L342.434 78.955L343.624 79.207L345.974 78.784L347.308 79.195L347.537 79.638L347.326 79.746L348.469 80.086L348.722 80.518L349.47 80.544L349.908 81.091L350.208 80.956L351.75 82.809L352.506 83.02L353.156 82.752L356.546 79.376L358.894 78.221L359.647 78.333L361.772 80.311L364.591 80.98L366.139 80.304L370.666 77.238L372.699 76.735L375.047 77.028L373.829 73.996L372.088 72.118L370.564 71.266L369.143 69.5L366.013 67.077L364.129 65.933L362.206 65.144L361.184 65.135L360.09 64.279L359.607 64.415L358.569 63.633L357.636 63.368L357.473 62.943L356.328 62.733L356.323 62.4L355.305 61.411L355.837 60.488L355.92 59.075L356.15 59.105L355.343 58.362" stroke="black" stroke-width="4" stroke-linecap="round" stroke-linejoin="round"/>
<path d="M339.848 25.194L340.475 26.651L340.188 26.71L340.576 26.716L340.764 27.083L340.396 26.771L340.919 26.618L341.258 25.562L339.72 24.245L336.043 22.763L332.96 20.794L331.384 19.1L330.626 17.46L329.724 16.943L329.626 15.839L330.692 11.015L331.431 9.7L334.855 7.55L336.902 5.47899L338.804 2.87199L339.558 2.353L340.401 2L340.708 2.317L340.459 2.58099L342.916 7.30499L343.318 8.853L345.045 10.909L346.259 13.556L347.16 14.855L347.809 15.262L348.087 16.101L348.989 17.017L349.095 17.749L349.772 17.882L351.06 17.458L350.473 17.701L350.593 18.013" stroke="black" stroke-width="4" stroke-linecap="round" stroke-linejoin="round"/>
<path d="M346.723 47.489L346.96 48.387L346.708 49.031L346.285 49.002L346.57 49.048L346.608 48.485L346.184 48.165L345.62 46.515L345.078 46.716L344.94 47.22L345.511 51.422L345.867 52.55L346.337 52.628L349.08 50.285L352.502 45.636L352.78 44.835L351.727 45.414L349.488 45.326L347.215 44.831L346.619 44.304" stroke="black" stroke-width="4" stroke-linecap="round" stroke-linejoin="round"/>
</svg>
