<svg width="106" height="246" viewBox="0 0 106 246" fill="none" xmlns="http://www.w3.org/2000/svg">
<path d="M46.6933 180.847L46.7788 180.466L47.1538 180.453L47.9366 179.603L48.6931 179.171L49.1339 178.357L50.5088 176.765L50.3838 176.665L51.1009 176.264L51.7126 175.423L51.5547 174.726L51.3047 174.515L51.456 174.109L51.16 173.744L51.3047 173.677L50.6995 173.056L50.4759 172.402L50.0548 172.143L50.193 171.635L49.6997 171.426L49.9167 171.384L50.1865 170.58L50.535 170.328L50.1601 169.488L50.2786 169.308L50.0417 169.282L50.6995 168.996L50.8575 168.568L51.1469 168.536L51.2653 168.373L51.1009 168.308L51.7915 167.136L51.6468 166.985L52.1994 166.717L53.3374 165.624L54.3637 164.209L54.2914 163.807L54.6465 163.69L54.0545 163.022L54.094 162.662L53.8572 162.465L54.0019 161.961L53.6729 161.721L53.8046 161.069L53.4361 160.109L53.1927 159.992L53.2585 159.127L53.0349 158.9L53.2519 158.58L53.5743 158.524L53.6533 158.347L53.3901 158.139L53.7453 157.954L53.4361 157.371L53.8637 157.341L55.1794 156.244L55.7715 156.032L55.7452 155.795L56.1136 155.656L56.1136 155.391L56.3767 155.401L56.3438 155.116L56.0215 154.999L56.5806 154.69L57.0214 154.252L56.8832 154.08L57.3042 153.799L57.028 153.707L58.3831 153.158L58.3765 152.87L58.8041 152.688L58.6331 152.666L58.962 152.235L58.8305 152.018L59.4356 151.66L59.7185 151.706L59.7777 151.31L60.6263 151.013L60.4816 150.87L60.7315 150.61L62.192 150.216L63.1984 150.497L64.7378 150.442L65.5535 150.178L65.343 150.162L65.4219 150.016L65.9877 149.693L67.139 149.531L66.9416 149.392L68.4677 148.909L69.0006 147.782L69.4742 147.476L69.3098 147.196L69.5993 146.788L69.2374 146.496L69.7703 145.924L69.6716 145.632L70.5137 144.812L70.1913 143.908L70.3755 143.82L69.6782 143.433L69.3625 142.679L69.994 140.816L70.5137 140.124" stroke="black" stroke-width="1.31568" stroke-linecap="round" stroke-linejoin="round"/>
<path d="M69.9875 139.672L70.2835 139.261L70.0796 138.96L70.6519 137.774L70.7572 137.018L71.0992 136.594L70.8492 136.424L71.2768 136.124L70.8624 135.934L71.3557 135.589L71.1913 135.424L71.3689 135.234L71.1847 135.251L70.4545 134.234L71.1716 131.784L72.0597 130.938L75.1186 129.848L75.6054 129.413L78.3749 128.047L78.9538 127.691L79.6511 126.841L79.3946 126.774L79.6445 126.6L79.3683 126.476L79.5985 126.335L79.7038 125.409L78.8749 124.193L78.2565 123.669L78.4013 123.534L78.1907 123.042L78.6249 122.516L78.6512 122.06L80.9142 120.067L81.3352 119.31L81.8877 118.852L82.9995 116.818L83.1837 116.023L83.4666 115.892L83.164 115.478L83.4074 115.226L83.2955 114.921L83.677 114.49L83.4074 114.307L83.8218 114.067L83.7429 113.688L84.1836 112.68L83.4732 110.847L83.164 110.614L83.1903 110.267L82.8417 109.975L82.8877 109.784L81.2694 108.3L80.4997 107.191L78.3617 105.391L78.513 105.287L77.9473 105.475L78.467 105.554L78.7236 105.917" stroke="black" stroke-width="1.31568" stroke-linecap="round" stroke-linejoin="round"/>
<path d="M42.7595 227.569L41.9898 228.269L41.7925 228.666L41.9438 229.012L43.2332 230.144L44.3318 230.659L45.6606 232.112L46.8316 234.969L47.4763 235.958L51.7588 238.84L54.5414 241.828L58.2517 243.867L61.0409 244.715L64.1195 244.813L65.6918 243.026L65.8957 241.845L65.5734 240.987L64.0933 239.539L63.5736 237.868L63.0407 237.009L61.6856 235.698L61.2777 234.496L60.5672 233.827L60.6856 233.441L60.3304 233.382L60.508 233.343L60.4488 233.129L60.6856 233.446L61.4027 233.697L63.5472 235.114L68.5008 236.271L70.6717 237.22L72.6846 236.198L73.4543 235.538L74.9936 233.694L75.7172 232.192L76.4277 231.473L77.4211 231.487L77.9539 231.825L79.2432 232.895L79.9998 234.327L80.4076 234.467L79.9076 233.904L79.9537 232.33L80.4339 231.152L80.4471 230.263L81.1707 230.246L81.0128 230.033L81.3154 228.209L80.4471 224.443L78.0197 221.688L78.0592 221.438L77.4671 221.215L77.0592 220.691L74.816 219.277L70.7834 218.191L67.3232 217.53L66.3759 216.97L63.0012 215.733L60.5541 215.449L58.4095 214.936L57.4228 214.609L57.0018 214.251L56.4294 214.276L52.6731 212.796L50.772 212.281L50.2326 211.771L48.1012 210.681L46.917 210.464L45.7658 209.975L45.3975 209.615L43.9568 209.226L43.7069 209.248L43.9503 209.337L43.7858 209.393L44.4173 209.913L44.9896 213.357L46.9302 216.555L46.8316 218.399L46.9961 219.369L46.1277 220.122" stroke="black" stroke-width="1.31568" stroke-linecap="round" stroke-linejoin="round"/>
<path d="M45.628 229.699L45.0557 229.498L45.3517 229.45L44.9833 229.105L44.8912 228.514L45.1083 226.578L44.8714 226.16L44.7465 224.891L44.832 222.766L46.0885 218.396L45.7727 218.208L46.0358 217.873L45.8516 217.649L46.1805 217.199L46.0161 217.025L46.1543 216.485L45.9964 215.352L46.4569 214.86L46.7529 213.879L46.4239 213.515L46.72 213.123L46.516 212.968L46.7398 212.436L46.5753 212.122L47.2266 210.065L44.286 215.22L43.99 215.974L44.0689 216.738" stroke="black" stroke-width="1.31568" stroke-linecap="round" stroke-linejoin="round"/>
<path d="M43.4635 228.324L43.7266 227.855L44.1082 227.899L44.4766 229.087L43.5096 230.197L43.0491 231.235L42.0754 233.806L41.7399 235.707L40.2204 237.593L38.5889 239.229L34.563 241.824L33.1749 243.247L31.3 244.097L29.5765 244.328L28.8727 244.675L26.807 245.157L24.9716 245.086L23.8533 244.18L23.1758 244.193L22.6955 243.849L22.4061 243.051L22.2482 240.485L22.0048 239.696L22.314 239.182L23.0113 236.68L23.6823 236.107L24.3138 234.911L25.3203 234.027L24.9388 233.835L26.5966 232.568L26.84 232.037L27.3268 231.959L26.9583 231.796L26.9649 232.004L25.6756 232.747L21.893 234.406L19.2221 234.744L15.5974 235.793L13.2227 236.053L11.3084 235.416L9.05857 235.063L6.66403 234.259L6.47982 234.097L6.59168 233.789L5.84832 232.537L5.28917 230.268L5.8154 228.699L6.49299 227.499L6.6772 226.032L7.07847 225.45L8.15734 224.768L9.65723 224.249L9.61772 224.066L10.5124 223.346L12.6503 222.503L13.2556 221.347L14.0318 220.727L14.3279 220.788L18.2157 219.299L19.9392 219.027L21.1628 218.394L22.2088 218.244L23.2153 217.802L23.1889 217.528L25.6098 216.735L26.2413 216.327L27.7938 215.986L28.6095 215.568L31.3922 214.989L32.2868 214.321L34.8919 213.12L36.9114 212.586L37.885 212.535L38.0298 212.731L37.7601 212.769L37.9311 212.846L37.7601 212.836L37.8258 212.702L38.635 211.996L38.931 211.455L40.694 210.148L41.3387 209.55L41.2861 209.34L40.569 210.748" stroke="black" stroke-width="1.31568" stroke-linecap="round" stroke-linejoin="round"/>
<path d="M49.6669 212.225L50.305 212.482L50.0419 212.489L50.9892 213.591L50.8971 213.747L51.6602 214.35L53.3376 214.832L54.9362 215.017L56.7847 214.893L58.903 215.262L60.2647 215.888L60.8831 216.558L61.9882 216.9L63.6328 216.771L65.7182 215.806L68.264 214.956L68.8693 214.962L71.0533 215.657L74.6122 215.164L77.6185 215.055L78.8618 215.424L79.7038 216.15L80.4604 216.348L81.5129 215.974L83.3548 214.8L84.4008 214.4L84.9797 214.366L85.0587 214.525L85.802 214.293L85.6046 214.068L86.1638 213.942L86.1375 213.737L89.6964 212.652L89.9266 212.236L90.5648 212.237L90.3805 212.086L90.6437 211.981L90.124 211.795L90.3871 211.62L90.1963 211.151L91.1963 209.898L91.3344 209.082L90.7424 208.896L91.0186 208.752L90.7095 208.642L91.045 208.322L90.7161 208.125L91.2884 207.668L91.0713 207.16L91.262 206.969L89.5977 205.236L89.3214 204.568L89.6043 204.445L89.0123 204.147L89.1898 204.103L88.8412 204.171L88.486 203.861L85.4665 202.882L84.8679 202.269L83.9995 201.891L82.6312 201.688L80.7038 200.892L79.3222 200.915L79.5394 200.808L79.6709 201.081L79.3618 200.98L79.8683 200.902L80.5787 201.164L81.7563 201.14L83.4403 200.621L84.9139 200.584L86.5914 200.015L86.4072 199.855L89.3017 199.725L89.2819 199.501L90.0976 199.391L89.7819 199.368L89.8674 199.178L92.1173 197.632L92.9658 196.738L93.1106 196.391L92.9856 196.223L93.4263 195.857L93.0579 195.678L93.3737 195.578L93.6236 195.241L93.4592 195.132L94.2091 194.598L94.1829 193.454L94.4263 193.229L93.9723 190.964L93.4855 190.641L93.5513 190.443L92.9132 190.201L93.1172 190.051L91.7028 189.516L91.4067 188.852L91.2489 188.947L90.6437 188.538L88.1439 188.24L81.6379 188.931L80.7827 189.537L80.4735 189.432L78.9999 189.705L78.7039 190.024L76.0528 190.669L72.79 191.846L68.8495 194.226L67.7707 194.638L67.5075 195.024L65.5076 196.418L61.462 197.86L58.6662 200.058L56.6795 200.389L56.7189 200.534L54.7323 201.388L54.5941 201.617L52.0351 202.9L50.384 203.32L51.6404 203.398L51.1273 203.286L49.7656 204.286L48.0289 204.821L49.4499 205.313" stroke="black" stroke-width="1.31568" stroke-linecap="round" stroke-linejoin="round"/>
<path d="M42.0822 212.017L42.4572 211.831L42.9637 211.992L43.1479 212.357L43.3847 212.28L43.1084 212.327L43.3782 212.478L43.832 212.461L43.1874 212.275L43.5689 212.388L42.7598 212.497L40.3389 213.439L38.6812 213.708L35.2933 214.68L31.8725 215.819L29.7806 216.845L26.5901 217.476L22.0049 219.155L18.7421 220.013L17.2949 220.027L17.1896 220.276L15.7752 221.177L15.7358 221.431L14.8806 221.791L10.8809 222.576L10.6507 222.788L9.43364 222.984L9.66395 223.026L9.39421 223.058L9.51917 223.165L8.00619 222.504L6.2168 222.409L4.93405 221.824L4.12492 221.149L3.25003 221.082L3.34864 220.954L2.92111 220.849L3.13817 220.834L3.28287 220.496L2.48691 218.759L2.09881 218.45L2.32904 218.349L2.01979 218.323L2.59869 218.107L2.26327 217.877L2.51976 217.658L2.30928 217.71L2.30928 217.39L1.98695 217.193L2.38164 216.526L2.42773 215.77L3.35523 214.717L3.59204 214.717L3.61179 214.42L4.45384 213.295L4.79593 213.269L4.89462 213.45L5.96032 212.849L5.96032 212.541L7.276 212.131L7.64434 211.59L10.7099 210.692L11.0782 210.318L11.9926 210.155L13.4334 210.508L14.2293 210.433L15.1897 209.939L15.8279 210.04L15.3148 210.248L16.1436 210.219L15.4135 210.058L15.0121 210.225L13.907 209.984L12.1571 209.219L10.552 209.149L9.76915 208.899L9.45998 208.193L8.64427 207.566L6.08527 206.574L5.82212 206.635L5.8748 206.461L5.45377 206.178L5.59189 206.008L4.13151 204.913L3.23027 204L2.42773 202.765L1.58568 202.127L1.17782 201.29L1.00019 196.516L1.13831 195.463L1.15148 195.694L1.4278 195.845L1.59885 195.682L1.44748 195.585L2.57902 195.235L2.84209 194.918L5.32874 194.327L7.34176 194.141L9.91385 193.169L12.4071 192.756L13.0913 193.024L13.2294 193.761L13.5649 194.19L13.3281 194.391L15.0911 194.924L18.5448 195.255L19.6301 195.749L19.696 196.015L20.5972 196.403L20.709 196.654L22.1234 197.478L27.1756 197.942L28.6096 198.985L28.3071 199.293L28.7215 199.499L28.7215 199.805L29.3793 200.078L31.6291 200.091L33.3856 200.431L33.8263 200.689L33.6881 200.821L34.6749 201.081L36.8063 202.325L37.7339 203.217L37.9312 203.016L37.8325 203.127L38.1351 203.218L37.8851 203.317L38.714 203.848L38.497 204.123L38.9706 204.371L38.714 204.478L38.9904 204.421L38.8061 204.383L38.9378 203.932L40.1218 203.006L39.7995 202.597L39.1746 202.581L38.5957 203.018L38.3917 203.312L38.3917 203.986L38.0957 204.359L37.9838 205.389L38.7996 207.07" stroke="black" stroke-width="1.31568" stroke-linecap="round" stroke-linejoin="round"/>
<path d="M53.0349 201.625L52.8507 202.316L53.081 202.606L52.7389 202.791L52.6139 203.045L52.7521 203.221L52.5152 203.353L53.4428 203.128L53.7519 202.592L54.1204 202.455L54.2783 201.874L55.3571 200.823L57.1662 200.025L58.0674 199.348L58.6726 198.439L61.1658 196.354L63.6722 195.15L64.9681 194.129L67.218 191.403L68.5862 190.221L69.5664 189.908L71.165 189.84L71.5202 189.724L71.5794 189.497L72.4741 189.39L75.0199 187.655L75.4344 187.136L76.6842 186.431L77.1513 186.422L77.125 186.106L78.013 185.778L78.0262 185.532L79.6905 184.388L80.6641 184.086L81.1904 182.908L82.1969 181.858L82.2758 180.653L82.8876 179.672L82.6772 179.522L82.9995 179.492L82.8416 178.815L82.9797 178.674L82.7561 178.585L82.9995 178.305L82.664 178.106L83.4336 177.068L83.2823 176.76L83.4468 176.672L83.1442 176.288L82.2166 175.907L81.7956 175.947L81.2956 175.713L81.4009 175.621L80.0852 175.407L78.217 175.592L76.9013 176.014L73.8884 178.101L72.599 178.635L72.7767 178.763L72.678 178.951L70.7834 179.536L69.5204 180.258L69.2111 180.791L68.4349 180.99L64.9879 182.864L64.9747 183.037L65.2773 182.904L65.0997 182.644L64.9813 182.836L65.08 182.932L65.2181 182.328L65.1589 181.566L65.4155 181.445L65.4352 181.017L65.7181 180.84L65.7707 180.082L66.5338 179.005L66.3496 177.975L66.547 177.124L66.3759 176.83L66.8561 175.567L66.6719 175.336L66.8495 174.999L65.8825 173.167L65.8628 172.561L66.0733 172.318L65.8168 171.679L66.0536 171.416L65.0997 170.592L63.7182 170.409L60.2054 171.414L58.0411 172.634L56.357 173.149L55.0808 174.377L54.6269 175.192L54.8637 175.531L54.2651 176.155L54.3901 176.467L53.423 177.52L50.8246 179.151L50.8444 179.716L50.3115 180.466L50.1668 181.65L49.6931 182.197L48.9169 184.208L47.9696 185.494L48.1143 186.08L47.9038 186.33L47.7986 187.404L47.4235 188.082L46.0882 192.627L45.7395 192.926L45.8711 193.765L45.4566 193.959L45.7724 194.368L45.5159 194.468L45.7724 195.272L45.6277 197.006L45.9106 197.357L45.5948 197.571L45.7 197.739L45.483 197.714L45.6342 197.7L45.4632 197.56L45.5816 197.299L45.8053 197.204L45.404 196.808L45.2593 195.887L46.2131 195.678L46.4039 195.952" stroke="black" stroke-width="1.31568" stroke-linecap="round" stroke-linejoin="round"/>
<path d="M44.9767 188.135L45.674 188.631L46.1674 189.467L46.5094 191.012L46.4765 191.838L46.1608 191.692L45.8516 190.959L45.6871 190.206L45.799 189.21L46.0621 188.183L46.8252 187.075L46.8055 186.285L47.1344 185.508L47.437 182.921L47.7659 181.809L48.0093 181.666L48.0093 180.115L47.7395 179.854L47.9895 179.394L47.6212 179.107L48.0027 178.827L47.9303 178.57L48.1737 178.183L48.2461 176.609L48.0159 176.179L48.2395 176.1L45.1345 171.546L44.378 171.363L42.49 171.517L41.3059 171.354L39.0956 171.707L38.2075 171.971L37.4773 172.7L36.3129 172.988L35.734 173.897L34.7538 174.603L34.3394 175.401L33.9315 175.608L34.2013 176.039L33.8921 176.161L34.1223 176.485L33.9249 176.657L34.6946 178.275L34.2342 179.688L34.4512 180.085L34.1487 180.687L34.3394 181.46L34.004 181.763L33.8723 182.974L33.7211 182.959L33.8592 182.764L34.1749 182.724L33.8789 182.734L33.8921 182.898L33.971 182.767L33.7868 182.722L33.754 181.756L33.2671 181.286L33.4251 181.247L33.3987 180.555L32.9645 180.299L33.2013 179.973L32.7869 179.302L31.6554 178.929L30.4384 178.185L30.6621 178.162L27.3795 177.384L23.7154 177.429L23.0246 177.768L19.7683 178.116L18.7816 178.567L18.7552 178.779L16.5581 179.489L15.9134 179.867L15.7489 180.05L15.9199 180.192L15.5252 180.594L14.9332 180.801L14.5648 181.626L14.3608 182.547L14.499 182.707L14.3346 182.714L14.6503 182.678L14.0188 183.379L14.4267 184.286L14.4595 184.635L14.2556 184.727L14.9201 185.006L15.0187 185.336L15.3279 185.34L15.6503 186.145L15.5384 186.52L16.1239 186.485L16.2028 186.977L16.5252 186.967L16.3804 187.056L16.5317 187.738L19.0644 189.903L18.9065 190.068L21.1432 190.985L21.1103 191.187L21.5445 191.337L21.3011 191.432L21.63 191.511L21.3932 191.564L21.7418 191.679L21.4919 191.695L22.1825 191.852L23.472 192.797" stroke="black" stroke-width="1.31568" stroke-linecap="round" stroke-linejoin="round"/>
<path d="M60.5803 58.1653L61.0671 59.2988L60.9092 60.3743L60.633 60.546L61.4092 61.8722L61.7776 65.189L62.0605 65.9423L61.8434 66.5527L62.0408 66.6317L61.9749 67.0086L62.4355 68.1401L62.3368 68.4328L65.7773 73.1541L66.047 73.2831L66.0338 73.5199L66.2904 73.6251L66.2706 74.0514L67.0272 75.0191L66.9811 75.3184L67.8363 75.8717L68.5928 76.8459L70.6058 77.7307L70.6453 78.0412L71.4347 78.9859L72.4017 79.6062L73.4937 79.8819L73.8358 80.0371L73.7174 80.1358L75.5857 80.1667L78.0526 79.7075L78.9604 79.7786L79.1446 80.0253L79.6182 80.0923L79.48 80.3581L79.3946 79.966L79.6906 78.9418L80.4931 78.184L80.8352 77.5064L81.572 77.5728L81.1905 77.5373L81.3615 77.6261L81.5654 77.2235L81.8351 77.1854L82.2561 74.1481L82.7627 73.7172L82.4272 73.4061L82.5982 73.0851L82.2758 73.1127L82.7034 72.6647L82.6838 72.024L82.039 71.7457L82.164 71.5431L81.2628 70.205L81.2562 69.7972L80.8615 69.4564L81.0786 69.2577L80.5063 68.9433L80.7167 68.7788L79.2893 68.2605L78.6315 67.3724L77.9604 67.1099L78.2433 67.0757L78.217 66.6547L78.0394 66.6382L78.2828 66.6586L78.0394 66.5837L77.9473 66.6988L78.2433 66.8889L78.8091 66.7902L80.3682 67.2007L80.7628 67.602" stroke="black" stroke-width="1.31568" stroke-linecap="round" stroke-linejoin="round"/>
<path d="M82.7365 67.3964L82.1971 67.772L82.4931 68.1904L83.0391 68.4699L86.1047 68.9666L88.1374 70.2001L89.3215 70.581L90.3608 70.6185L93.4001 69.6672L93.979 69.7192L96.8209 68.5127L97.6102 67.0661L97.9983 64.8782L97.8602 64.2526L98.0444 64.0578L97.426 61.8416L97.1103 61.441L97.1892 61.2429L96.5511 60.5009L96.0972 60.3134L96.1367 59.9233L95.7288 59.7635L95.1697 57.9742L93.7947 56.6631L92.1962 55.5711L91.8805 55.2566L92.0646 55.0948L89.486 53.8955L87.6506 52.6739L85.9796 52.0983L85.506 51.7286L81.9602 50.9169L78.4934 49.6413L78.1777 49.367L74.8425 48.6664L68.3364 46.5186L66.5734 46.5264L66.1327 47.0172L66.1853 47.9171" stroke="black" stroke-width="1.31568" stroke-linecap="round" stroke-linejoin="round"/>
<path d="M60.2911 61.9257L60.5936 61.9277L60.6528 61.3613L60.2384 60.2588L60.2779 57.6873L60.5081 57.2728L60.3503 54.4369L60.0082 54.1271L60.3042 53.6889L60.4029 51.9878L59.7319 50.5826L59.8503 50.2767L60.199 50.1432L59.8635 49.9814L60.1003 48.865L59.6069 48.9097L59.699 49.1439" stroke="black" stroke-width="1.31568" stroke-linecap="round" stroke-linejoin="round"/>
<path d="M60.6724 65.6221L60.5212 65.8833L60.7711 65.8181L60.508 65.8741L60.5869 65.6596L60.8041 66.0694L60.6264 66.2859L60.8632 66.6003L60.7382 66.7042L61.3369 67.82L61.225 68.1824L61.5408 68.3811L61.3369 68.6922L61.3566 70.0349L61.896 71.4262L61.8171 71.8735L62.0145 72.034L61.8894 72.5853L62.0736 73.7431L61.85 74.0122L62.0276 74.5727L61.6921 74.8292L62.146 75.4982L62.0736 76.8836L61.4685 79.3387L60.5343 81.0681L60.7711 81.3622L59.8107 83.0154L58.745 83.8725L54.1072 84.9678L53.41 84.5744L53.5217 84.1745L51.5416 82.7206L51.1404 82.6634L50.8444 82.2279L50.8049 81.4786L50.2917 80.6438L50.4365 80.3176L50.2062 80.0972L50.5351 78.5565L50.3247 78.1362L50.6602 77.8151L50.3642 77.5908L50.2983 76.4232L50.7259 74.7582L51.0023 74.5345L50.8706 74.2089L51.022 74.1852L50.7391 73.6319L50.3773 73.5102L50.5417 73.2879L50.1931 73.1011L50.5549 72.9879L50.7786 72.2794L50.3444 71.6275L50.5878 71.3137L50.7391 71.3243L50.5286 71.4854L50.8706 71.4802L50.4825 71.4953L50.3049 71.1828L50.4497 70.9552L50.2391 71.4749L49.8642 71.6499L49.9892 71.8367L49.7853 73.2037L48.9037 74.7713L44.9435 78.5361L43.7134 79.5031L42.7398 79.9636L42.6411 79.713L41.3781 79.4683L38.2533 79.2959L36.7864 79.811L35.201 79.9584L34.9115 79.6012L34.7997 78.9368L34.3523 78.475L31.642 77.4645L31.2803 77.2204L30.8395 76.3896L30.6093 74.5325L30.9644 73.5964L30.7342 73.0827L30.9644 72.9439L30.5763 72.5064L30.7474 72.3077L30.2869 71.7137L30.1356 71.7584L30.4382 71.5459L31.1289 69.8033L31.0303 69.6547L32.0762 68.4804L32.0367 68.2317L32.6617 67.7989L32.5433 67.5871L33.7603 66.4878L34.2668 66.3365L35.0299 65.0787L37.4574 63.8196L39.9769 61.954L39.9703 61.7178L40.6611 61.1508L42.7201 60.0423L45.0356 57.878L46.6934 56.7564L48.1669 56.267L50.9101 54.3172L52.4758 52.8226L52.9758 52.6087L52.9494 52.4291L53.7586 52.0897L53.9098 51.4674L54.8966 49.7952L55.8242 49.9156" stroke="black" stroke-width="1.31568" stroke-linecap="round" stroke-linejoin="round"/>
<path d="M71.7836 45.7613L72.4612 46.1244L72.2572 46.3948L72.7572 46.804L75.9083 47.3039L81.4933 49.1399L82.8747 49.8978L86.6705 50.7905L90.9794 51.4424L93.4593 52.1871L94.933 52.2357L97.8011 51.597L98.0248 51.7996L97.788 51.6391L98.9655 51.718L99.8009 51.5233L99.9259 51.295L101.143 50.7313L101.597 50.7214L101.373 50.5405L101.728 50.3333L101.492 50.2221L102.143 48.4111L102.097 47.4138L102.472 46.2198L102.242 46.1218L102.399 45.6889L101.406 44.1226L99.1497 42.7339L98.2418 42.357L97.8208 42.4188L96.8012 41.5511L94.2751 40.3585L93.4265 40.0526L90.8215 40.0045L90.1439 39.5572L88.7098 39.5441L88.644 39.3211L88.2427 39.1921L88.5387 39.0764L89.0782 39.248L88.5256 39.1579L88.8216 39.377L89.5386 39.4112L91.9529 39.1356L95.3539 39.7921L96.821 39.871L99.4523 39.4342L100.321 39.0329L100.676 38.4244L101.196 38.108L103.051 36.1266L103.176 35.3556L102.945 35.2675L103.333 35.1076L104.044 34.0149L104.419 31.9585L104.353 30.6817L103.761 29.7535L103.531 28.249L102.768 27.3688L100.978 25.7235L98.9852 24.6098L95.9592 24.1013L90.2097 24.2881L88.4795 24.5197L87.3152 25.2821L85.0127 26.2544L82.0854 27.1734L79.6053 28.8568L79.579 29.168L75.8491 30.7856L73.5269 32.2276L71.6849 32.8736L71.356 33.2722L70.7179 33.3268L70.8824 33.4275L70.5534 33.6012L70.9087 33.6617L69.6193 33.8288L69.047 34.4188L68.08 34.4195L68.6194 36.1891" stroke="black" stroke-width="1.31568" stroke-linecap="round" stroke-linejoin="round"/>
<path d="M54.0875 50.7372L54.3902 50.8266L54.502 51.2417L54.8901 51.2733L54.2849 51.3851L53.5547 52.4732L50.1471 54.798L47.0026 56.4761L44.4107 57.2892L42.2202 58.5233L41.0952 58.8384L40.8321 59.1529L35.9114 60.4949L31.6355 60.7435L30.0698 60.5988L26.6162 61.0639L24.7875 60.389L24.5177 60.0732L24.6822 59.9818L24.3007 59.8311L23.7546 58.9115L23.4586 58.8227L23.7086 58.3549L23.5836 57.1432L23.1691 55.9946L23.7218 54.973L24.669 54.25L24.8927 53.6593L25.4058 53.2113L27.4517 52.3041L32.4381 51.0049L34.4051 50.2556L35.8193 50.1662L31.8395 50.4405L29.07 50.3609L27.2478 50.0182L25.8005 49.2432L23.4389 48.5314L21.0969 47.2394L20.8273 46.4717L20.4128 46.1843L20.1233 45.3245L19.2221 44.1594L19.2944 43.8476L18.9787 43.6338L19.0774 43.2477L18.7353 43.0345L18.9655 42.451L19.2748 42.2478L19.2353 41.7879L19.5708 41.6958L19.4787 41.2965L19.7286 41.1413L19.755 40.6183L20.3601 39.9184L22.6626 38.602L24.1099 37.5126L24.0112 37.387L25.9453 36.639L31.1093 36.4312L34.063 36.6732L35.872 37.1574L38.9638 37.3955L44.6344 39.3408L45.7462 39.9401L50.2524 41.0998L52.3311 42.2524L52.489 42.2267L52.2851 42.2083L52.4233 42.1175L52.2653 41.9892L52.5942 41.9485L53.1337 40.9268L53.3903 40.0256L53.2718 39.7657L55.1204 38.3869L55.3638 38.0067" stroke="black" stroke-width="1.31568" stroke-linecap="round" stroke-linejoin="round"/>
<path d="M72.0068 29.6536L71.8293 29.4911L71.5924 29.8207L72.441 29.5826L76.6512 27.0769L76.7104 26.8308L78.8615 25.1942L79.0589 24.7514L81.3284 22.8818L83.0717 19.9696L86.2162 16.6561L86.3807 16.3725L86.2688 16.0916L86.7096 15.691L86.5385 15.3917L86.9398 15.124L86.8345 14.9062L87.67 13.707L88.2883 11.5111L88.9199 10.746L89.2685 10.0454L89.2225 9.6685L89.6172 9.52641L89.2817 9.12578L89.4791 8.96791L89.3278 8.87712L89.4725 8.42388L88.9265 7.66801L88.8278 6.3451L88.3804 5.36294L87.8411 4.88866L86.1307 4.03741L84.5913 3.66113L80.7495 4.89129L80.2891 5.31296L79.4734 5.59648L79.5589 5.73792L78.7629 5.87475L78.822 6.07276L78.1774 6.33523L77.3682 7.07662L76.1776 8.59359L75.9868 9.34418L74.9803 11.0171L73.9278 12.0137L74.0265 12.3801L73.6514 12.9287L73.7041 13.3458L72.9081 13.9319L72.4081 14.7128L72.5595 14.6266L72.441 14.424L72.6121 14.424L72.3555 14.5549L72.4805 14.0596L72.1055 13.8517L72.7436 12.7906L72.8555 12.1472L73.2042 11.9841L72.987 11.3749L73.6054 9.07908L73.5199 7.53448L73.0725 6.81479L73.1515 6.46351L72.6976 5.22743L72.6713 4.57289L72.0792 3.49732L71.474 2.49412L69.4348 1.44749L66.9679 1.1416L65.1522 1.33896L64.7904 1.5442L61.8564 3.78414L61.5144 4.51894L61.1525 4.61894L61.1723 5.20639L59.1264 7.768L59.2777 8.21402L59.1066 8.43901L59.3238 8.61465L59.1001 8.8495L59.4487 9.0087L59.1198 9.31852L59.2448 9.53759L58.8304 10.8335L58.462 11.1532L58.5277 12.2531L57.9292 14.5714L57.6989 14.672L57.8371 14.9154L57.5542 14.9825L57.745 15.2062L57.5278 15.268L57.8436 15.4272L57.6068 15.5687L57.9884 16.1693L57.8765 16.7284L58.212 17.1488L57.8371 17.9415L57.8962 18.4618L57.1924 21.5004L57.4884 21.9813L57.7844 22.0142L57.4226 22.0872L57.3963 22.4542L57.6858 22.7016L57.3239 23.5009L57.4884 26.5348L57.0542 29.2458L57.2647 29.2339L57.0542 29.38L56.824 29.1629L56.5806 29.3037L55.482 29.0833L54.8439 29.178L55.5872 29.1491L56.5476 28.0465L56.495 27.6275L55.6332 27.242L56.0346 26.6914L56.7253 26.3079L56.5872 26.1697L56.1925 26.3901L57.291 26.3072L58.4094 25.7974L58.5343 25.2928L58.3501 25.2112L58.7777 24.9626L58.5738 24.8948L58.8896 24.6258L58.5541 24.5291L57.9554 23.2752L58.1792 22.699L58.5409 22.4135L58.6988 21.4116" stroke="black" stroke-width="1.31568" stroke-linecap="round" stroke-linejoin="round"/>
<path d="M58.087 12.0437L58.4093 14.1021L59.5605 15.0915L60.0078 15.8658L59.7118 16.4986L59.6395 17.5334L59.7973 17.2374L59.6 17.1532L59.7512 16.967L59.8763 14.3916L59.2448 12.9831L59.0342 11.1728L58.7382 10.4656L57.337 8.69139L56.3042 7.95265L54.4294 7.13364L52.4558 6.7771L50.5613 7.04154L47.8378 8.24736L47.726 8.7039L47.3708 8.79534L47.1997 9.29266L46.7853 9.40646L46.8642 10.4044L46.5879 10.4077L46.6734 10.7116L46.4959 10.8603L46.6998 11.5293L46.5682 11.9372L46.8379 12.1753L46.5748 12.4424L46.93 12.6141L46.6932 12.8904L46.93 13.1463L46.7393 14.2311L47.4234 15.5L47.5155 16.0506L47.3378 16.6887L47.4695 17.1051L47.0748 17.2801L47.772 17.8952L47.9102 18.2432L47.6602 18.4537L48.1799 19.13L48.1405 19.5885L48.3773 19.9635L48.068 21.6324L48.7851 21.514L48.5877 21.4765L48.6733 21.3272L48.4628 21.5909L48.0878 21.466L48.3444 21.4699L48.3641 21.1778L48.0484 20.9528L48.0023 20.1852L47.7523 20.0207L47.6471 19.4128L46.6077 18.361L46.6537 18.211L45.1539 17.215L44.5552 17.0716L44.2592 16.5723L42.0357 15.9895L40.9042 15.9802L36.5624 16.7236L35.7271 17.4354L35.2271 17.5709L35.2534 17.8097L34.5955 17.9728L32.8852 18.9767L31.5761 20.3062L30.8261 20.3792L29.8855 23.0244L29.5434 23.3888L29.1815 24.3651L29.4315 24.5479L29.2539 24.6644L29.6815 24.8321L29.2736 24.9446L29.4381 25.0564L29.2342 25.1841L29.8262 27.8207L29.6486 28.1049L29.2934 28.1318L29.7473 28.3055L29.4447 28.4279L32.3984 30.3244L34.168 30.831L34.168 31.0875L35.2337 31.5611L37.2203 31.7572L41.9765 31.746L44.3316 33.5472L44.5486 34.2859" stroke="black" stroke-width="1.31568" stroke-linecap="round" stroke-linejoin="round"/>
</svg>
