<svg width="147" height="150" viewBox="0 0 147 150" fill="none" xmlns="http://www.w3.org/2000/svg">
<rect x="64" y="24" width="27" height="104" fill="#FFFDCC"/>
<path d="M71.0953 82.2402L70.2298 81.8401L70.4146 82.0383L70.462 83.7992L71.4637 86.8558L71.6425 91.8967L71.9474 92.7659L71.7612 92.8782L73.1556 95.2982L73.541 96.5243L73.4943 97.1259L73.8042 97.6903L73.5896 97.7951L73.4892 99.3651L74.1825 105.106L73.9563 105.952L75.2304 110.144L75.904 111.68L75.871 115.248L76.5176 120.673L76.902 121.611L76.8001 121.807L77.4866 122.78L77.4143 122.952L79.1658 125.474L79.1144 126.061L79.5159 126.68L79.3247 126.629L79.2844 126.984L79.4993 127.407L79.4817 128.334L81.1841 131.5L81.1385 131.732L81.5761 132.39L81.4111 132.518L81.9131 133.063L82.3697 134.029L83.1626 134.81L83.3065 135.275L84.5863 136.419L86.3391 138.99L90.563 141.776L92.7779 142.534L93.916 142.753L94.2398 142.564L95.0238 142.907L94.9154 142.732L96.2999 143.478L98.7883 143.186L99.7689 143.485L100.867 143.053L102.203 142.966L103.996 142.4L104.33 141.511L104.722 141.504L104.798 140.948L105.101 140.921L105.047 140.305L105.227 140.349L105.017 139.771L105.375 139.692L105.267 139.407L106.208 139.262L106.353 138.579L105.834 137.794L106.016 137.815L105.939 137.444L106.347 137.529L105.984 136.915L106.139 136.808L105.957 136.397L106.235 135.004L106.101 134.449L105.736 134.037L105.922 134.144L105.608 133.465L105.305 133.251L105.237 132.452L105.464 132.442L105.041 132.276L104.97 132.117L105.198 132.287L104.876 131.856L104.366 132.885" stroke="black" stroke-width="1.31568" stroke-linecap="round" stroke-linejoin="round"/>
<path d="M107.321 130.726L106.858 130.645L107.231 131.048L107.141 131.201L109.479 131.508L109.559 131.816L110.005 132.126L111.417 132.761L111.413 132.597L112.616 132.572L112.744 132.347L114.604 132.741L116.323 132.817L117.438 132.684L117.718 132.284L118.783 131.929L119.598 131.38L120.666 131.111L120.603 130.883L120.967 130.797L121.983 129.67L122.4 129.694L122.605 128.942L122.93 128.822L123.647 127.097L124.143 126.433L123.734 124.675L123.41 124.366L123.504 123.999L123.031 122.136L122.69 121.547L122.262 118.445L121.21 116.991L118.691 114.814L116.589 111.914L115.445 110.825L113.579 109.47L108.689 106.514L107.44 105.126L104.751 103.343L102.155 100.806L95.4807 95.5552L93.1008 92.9116L91.3901 91.5996L90.9469 91.6158L90.6198 91.3802L88.4061 89.3149L85.1579 88.1788L83.8846 87.1563L82.8493 87.0194L82.4035 87.3178L81.2774 87.1546L80.5485 87.2868" stroke="black" stroke-width="1.31568" stroke-linecap="round" stroke-linejoin="round"/>
<path d="M81.7841 87.1465L80.2066 86.2412L77.6616 83.3072L75.5061 82.4818L75.2434 81.8039" stroke="black" stroke-width="1.31568" stroke-linecap="round" stroke-linejoin="round"/>
<path d="M74.6536 127.045L74.1909 126.315L74.5101 126.321L74.3311 126.126L74.1459 126.217L74.4899 126.454L74.4943 127.735L74.9918 128.943L74.6762 130.04L74.8204 131.391L74.4716 132.616L74.2635 132.714L74.3149 133.124L74.0955 133.184L74.1085 133.658L73.8994 133.746L73.9917 134.22L73.7129 134.936L74.3863 136.791L74.399 137.505L74.078 138.06L73.6134 139.935L73.8205 141.284L73.6986 142.709L73.1122 144.504L73.3115 145.124L72.7879 145.123L72.7168 145.722L72.4257 146.014L71.5322 146.064L71.8348 146.567L69.7223 146.869L68.6232 146.526L68.5499 146.769L67.7527 147.039L67.4228 146.776L66.1466 146.914L65.2083 146.577L65.032 146.03L64.9385 146.206L65.0222 146.001L64.7517 145.95L64.4943 145.266L64.034 144.883L64.1503 144.671L63.9194 144.016L62.8169 142.45L63.3448 141.241L63.1141 140.596L62.6161 140.027L62.7351 139.712L63.0023 139.757L62.9211 139.57L63.2252 139.443L63.3064 139.171L63.9453 138.832L63.8314 139.002L64.0391 139.114L63.7273 138.941L63.5094 138.421L63.7395 137.91L63.2879 137.746" stroke="black" stroke-width="1.31568" stroke-linecap="round" stroke-linejoin="round"/>
<path d="M61.8836 139.106L61.4216 139.034L61.4085 139.298L60.1814 140.715L59.9321 140.71L60.1129 140.953L59.862 140.67L59.4876 140.648L55.982 141.879L55.5338 142.011L54.9357 141.874L54.1402 142.302L53.4545 142.265L52.9807 142.535L52.5712 142.553L52.3947 142.325L52.6193 142.518L51.8891 142.343L51.1757 142.577L50.4733 142.52L49.7706 142.243L47.8647 142.161L46.9687 141.835L47.2138 141.705L46.6644 141.314L45.2466 141.144L45.4093 141.368L44.6799 140.753L44.3827 140.174L42.5857 138.761L42.5418 137.983L42.7291 137.989L42.4108 137.474L42.686 136.852L42.7766 135.722L42.622 135.559L42.7943 135.542L42.8826 134.784L43.3015 134.137L43.2033 133.83L43.8376 133.377L44.3896 132.409L44.7641 132.441L44.7684 131.818L45.0468 131.79L44.906 131.611L45.1291 131.178L45.0713 130.346L45.4562 129.719L45.8625 127.621L45.7855 127.11L46.1871 126.483L46.162 126.083L47.0798 123.951L47.9425 119.838L48.6128 118.466L48.7557 117.186L49.2269 116.49L49.2587 116.045L51.1058 113.632L51.8706 111.894L52.1718 110.444L52.4886 110.083L52.4982 109.384L52.825 109.341L52.678 108.621L53.0223 108.598L52.9666 107.216L53.2916 106.227L53.8157 105.85L53.7795 105.343L54.6776 104.838L55.1507 104.12L55.4078 102.302L55.6755 101.837L55.5859 101.361L56.246 100.639L56.6566 98.915L56.9059 98.8205L57.2396 97.6927L58.2647 95.6776L59.2277 94.2916L59.6339 92.9815L59.9258 92.7388L59.7376 92.5044L59.8141 92.2179L60.4361 91.998L60.706 91.5311L60.8498 91.6066L61.4684 90.2939L63.4307 87.9093L63.2816 87.6304L63.6447 87.4661L63.5664 87.2862L63.8941 87.3515L63.7467 87.1206L64.0488 87.1354L64.2809 86.8612L64.2568 86.3402L64.6529 86.2581L64.6856 86.0015L65.3208 85.9061L65.5021 85.4902L65.7599 85.7051L65.625 85.0413L65.8955 85.0521L66.2995 84.6119L66.3877 83.8734L66.778 83.4887L66.6478 82.9191L67.3712 82.7332" stroke="black" stroke-width="1.31568" stroke-linecap="round" stroke-linejoin="round"/>
<path d="M114.17 106.165L113.989 106.96L114.914 107.581L117.352 108.414L117.394 108.226L117.884 108.326L119.203 108.978L121.312 109.646L122.082 109.637L122.157 109.431L123.962 109.53L126.459 109.188L127.739 109.166L127.965 109.367L128.104 109.159L128.615 109.215L129.37 108.864L129.508 108.597L130.783 108.451L130.692 108.236L130.988 107.948L131.33 108.087L131.393 107.727L131.982 107.265L131.89 106.991L132.239 107.012L132.229 106.853L132.568 106.827L132.553 106.575L132.931 106.533L132.991 105.687L132.749 105.543L132.985 105.624L133.006 105.361L133.282 105.535L133.194 105.286L133.373 105.311L133.195 105.076L133.421 104.549L133.338 103.996L132.683 102.678L132.792 102.135L131 99.2903L129.381 98.1929L128.156 96.8255L126.774 96.1471L126.386 96.0707L126.513 96.275L126.953 95.7141" stroke="black" stroke-width="1.31568" stroke-linecap="round" stroke-linejoin="round"/>
<path d="M128.628 94.9123L128.61 94.6235L128.955 94.9988L128.679 94.6848L128.56 94.7802L129.168 95.1649L131.046 95.2489L131.254 94.992L132.49 95.2698L132.629 95.1121L133.249 95.2433L133.749 95.6102L134.366 95.3562L136.452 95.4533L137.401 95.0412L137.792 94.6549L139.75 94.0006L139.908 93.7208L140.488 93.5489L140.546 93.3233L141.379 92.8832L142.301 90.9653L142.766 90.785L143.274 88.9694L143.315 88.4539L141.713 85.0442L141.496 83.8063L140.651 82.4553L139.849 81.7429L137.183 80.074L134.688 79.2069L133.561 79.0143L130.317 77.1759L127.483 76.4948L127.027 76.6149L125.881 76.3747L119.161 74.6866L118.339 74.9343L116.145 74.9017L110.527 73.603L107.138 73.1649L106.466 73.2725L106.018 73.1048L106.06 73.2657L105.825 73.1351L105.861 73.2931L104.564 72.8665L104.023 73.0335L103.4 72.846L102.924 72.9898L99.3352 72.8393L98.6851 73.0214L98.1104 72.8783L98.1773 73.0613L90.9292 72.6522L89.1497 73.0139L88.1811 72.9006L84.8253 73.2431L83.571 73.0365L82.177 73.7368L80.8737 74.0447L80.3318 73.8841L79.2808 74.1738L78.1217 74.148L77.3084 73.848L77.2664 73.6465L77.1419 74.1772L74.4586 75.3789L73.5664 75.1785L73.4533 75.4172L73.676 75.6818" stroke="black" stroke-width="1.31568" stroke-linecap="round" stroke-linejoin="round"/>
<path d="M68.9282 81.9675L68.3091 82.1243L68.3599 82.3755L67.9129 82.426L66.1061 83.8957L64.4815 85.4667L63.4611 86.9081L62.5735 87.5103L61.5374 89.0692L59.1873 90.9382L58.7968 91.722L55.9299 95.416L55.37 95.7148L54.2056 97.7188L54.0925 98.2865L53.1107 99.0458L53.0119 99.6069L52.67 99.6175L52.119 100.076L49.2938 103.084L47.0055 106.628L46.4858 107.289L46.0262 107.434L45.7234 108.377L45.2819 108.541L44.9741 109.499L44.6491 109.62L43.8926 110.941L42.3085 112.316L42.1703 112.743L41.0132 113.323L39.2755 114.644L38.3959 116.423L38.4301 116.843L38.0348 117.194L38.0025 117.679L36.9817 118.563L36.6122 118.615L36.4254 119.027L35.9835 118.992L35.9236 119.748L34.5902 121.237L33.6814 121.683L33.2815 122.129L32.8174 122.139L32.1879 123.514L32.4745 123.736L32.2577 123.634L32.1967 123.893L31.4942 123.965L30.608 124.725L28.2662 125.917L27.9391 125.811L27.9607 126.065L27.4997 126.202L27.6244 126.528L27.412 126.581L27.5537 126.659L26.5501 127.054L26.7405 127.365L26.0265 127.491L25.6756 127.112L26.2158 127.355L26.1253 127.468L25.247 127.122L25.1391 127.305L24.6197 127.139L24.9141 127.222L24.756 127.063L24.9328 127.101L24.8635 126.831L23.6752 124.984L23.8285 125.049L23.6556 124.747L23.9183 124.687L23.3935 124.387L23.0235 123.742L23.3828 123.662L23.3026 123.504L23.5563 123.614L23.6112 122.694L23.8897 122.038L23.6209 121.516L23.8767 121.544L23.6723 121.288L23.8618 120.963L23.6853 120.555L24.3782 119.547L25.0018 119.395L25.4457 118.88L25.5345 118.439L25.7535 118.409L26.1557 116.894L26.4126 116.751L26.1973 115.89L26.9563 115.255L27.0252 114.678L27.4491 114.115L27.3828 113.762L27.6616 113.963" stroke="black" stroke-width="1.31568" stroke-linecap="round" stroke-linejoin="round"/>
<path d="M25.8186 113.24L25.4166 113.767L24.5051 113.37L24.1989 113.708L22.4911 113.61L19.9486 114.123L19.3085 113.914L17.4538 114.202L17.2673 114.066L16.3757 114.254L16.3499 114.502L15.0797 113.965L11.6453 113.429L10.1529 112.786L9.33073 112.077L9.25944 111.87L9.4422 111.791L9.24625 111.157L9.45103 111.253L9.3944 111.128L8.24975 109.839L7.64913 108.658L7.59211 106.999L7.74998 106.709L7.46991 106.151L7.63341 106.214L7.77952 105.987L7.69164 105.639L7.90627 105.305L7.73599 104.851L7.82772 103.988L7.25613 102.236L8.04987 101.223L8.40256 101.17L8.64482 100.515L9.12412 100.488L9.0745 100.026L9.62863 99.2052L9.78955 98.2242L10.662 97.2105L10.6217 96.9475L11.2834 96.6723L12.525 95.1686L12.5228 94.8918L12.8798 94.7045L12.8433 94.3074L14.7381 93.4954L17.5985 90.8856L22.885 87.2973L23.1254 86.8939L23.9107 86.827L24.7836 86.451L25.4731 85.8851L28.5265 84.5311L30.1617 84.1942L32.7442 83.2768L33.7915 82.8219L36.2207 81.1818L37.2028 80.9804L37.5787 80.6022L42.4554 79.2454L42.5849 78.9284L43.1692 78.9809L44.4821 78.6122L44.9554 78.7013L46.5153 78.1011L47.2286 78.4753L47.1707 78.3019L47.9855 78.2811L50.6641 77.2643L51.5974 77.2284L52.0571 76.8941L53.0919 76.6926L53.1227 76.4483L53.6804 76.5011L53.9277 76.2692L55.2374 75.9939L56.6945 76.1291L57.5943 75.5928L58.6145 75.6472L58.5309 75.4732L59.001 75.2968L59.0919 75.0737L61.7574 74.2213L62.6606 73.731L63.0567 73.9877L62.9322 73.8504L63.1352 73.7188L64.6315 73.2011L65.1126 73.2515L65.942 72.566L67.0635 72.0764L67.5766 72.2398L67.4918 72.4261" stroke="black" stroke-width="1.31568" stroke-linecap="round" stroke-linejoin="round"/>
<path d="M76.5924 71.0037L77.2818 70.5874L77.7878 70.699L77.8208 70.3822L78.7892 70.3561L79.674 69.9565L80.4931 70.1005L83.5003 69.5569L84.1471 69.6477L84.3298 69.4098L85.1282 69.4577L85.3352 69.2718L88.3815 68.8133L90.2223 68.8503L90.7096 68.4649L92.947 67.9405L95.61 67.6296L96.4795 67.2375L98.1003 67.2459L98.1794 67.0063L101.945 66.8456L103.778 66.5028L107.927 66.2043L108.114 66.0411L109.041 66.3104L109.168 66.1763L109.929 66.3469L110.169 66.2022L113.366 66.38L113.532 66.2313L115.929 66.5817L116.004 66.3271L116.304 66.4334L116.297 66.1723L116.658 66.0608L118.482 66.0467L119.814 65.7765L119.766 65.5918L120.65 65.8117L122.2 65.5614L122.58 65.8169L122.654 65.5827L123.426 65.3121L124.158 65.4346L124.342 65.226L124.751 65.2777L125.973 64.8837L126.103 64.5955L127.149 64.5807L127.426 64.325L128.063 64.3079L128.109 64.056L128.999 64.179L129.233 63.892L129.824 63.9571L130.535 63.387L130.863 63.452L131.586 62.7976L132.485 62.5518L133.055 61.8719L133.362 61.8814L133.382 61.639L133.527 61.7933L134.108 61.5211L134.205 61.2705L134.615 61.2816L134.689 60.999L134.958 61.1605L134.896 60.8728L135.192 60.5058L136.29 60.102L136.631 59.7737L137.158 59.7217L138.277 58.8659L138.231 58.6488L138.566 58.6369L138.403 58.2443L138.968 58.1488L139.268 57.0796L139.121 56.8276L139.663 56.4899L139.506 56.061L139.674 56.1279L139.29 55.5184L139.524 55.561L138.706 54.4293L137.206 53.1568L135.299 52.2877L131.944 51.7916L128.912 52.353L128.344 52.2123L127.166 52.7163L126.219 52.7387L126.175 52.9084L124.972 52.7628L123.414 53.4109L121.829 53.7399L119.869 53.918L119.075 53.5962L118.043 53.8647L117.132 53.8646L117.066 53.7114L117.563 53.8129L117.381 53.7711L117.386 53.9451L117.312 53.5802L117.652 53.801L117.499 53.7559L117.505 54.0287L117.701 54.6028L116.905 54.5926" stroke="black" stroke-width="1.31568" stroke-linecap="round" stroke-linejoin="round"/>
<path d="M117.848 51.6055L118.882 50.6574L119.348 50.6355L119.836 49.85L120.244 49.8338L120.337 49.3984L120.671 49.2275L121.668 47.3541L122.027 47.1551L123.179 45.3742L124.018 42.9834L123.815 42.4568L123.97 42.4695L124.151 41.8243L123.542 39.976L123.358 38.6193L122.058 36.7805L120.086 35.2375L120.12 35.4874L119.738 35.5239L117.785 35.2164L116.324 35.3043L115.307 35.7348L115.215 36.0798L114.655 36.1688L113.708 36.8088L112.562 36.8874L111.427 37.4725L110.444 37.6245L110.047 37.9673L109.775 37.8977L107.287 39.6154L106.545 39.5428L106.521 39.8893L106.182 39.7668L105.18 40.0203L102.387 40.1108L101.113 40.6448L99.9953 40.771L99.6443 41.2008L98.5318 41.2115L97.0411 41.6631L95.9429 42.2957L95.7848 42.725L95.494 42.7472L95.4788 43.3826L95.0891 43.7468L93.4128 44.8882L91.0926 46.0253L90.7651 46.6176L88.0042 48.0173L85.7844 50.047L85.2342 51.4514L82.7459 54.485L82.2759 54.7411L81.7378 55.7429L80.783 56.581L80.721 57.1701L80.2133 57.7284L79.3746 60.1592L78.2534 61.0674L77.9918 61.0164L77.9544 61.2584L77.6764 61.0765L77.9198 61.6167L77.3139 61.9978L77.046 62.4226L76.6796 62.3513L76.5479 63.638L75.7217 64.569L76.0905 66.0632L75.853 66.4535" stroke="black" stroke-width="1.31568" stroke-linecap="round" stroke-linejoin="round"/>
<path d="M63.1792 70.9467L63.4033 71.4892L63.0147 71.3634L63.2283 71.6586L62.7811 71.9785L56.4838 71.7327L52.9341 72.2262L50.5363 71.6468L49.3253 71.9693L48.0958 71.9938L46.2074 72.5891L44.1459 72.6139L38.349 72.4363L36.3507 71.9704L36.1112 71.9938L36.1749 72.2205L35.4365 72.1044L33.5691 72.2769L28.2643 72.9646L26.7687 72.8236L26.6238 73.198L25.9054 73.2983L25.2639 73.8196L23.267 74.2593L22.958 74.5115L19.8286 74.0776L18.3023 74.2108L18.0327 74.4381L17.6812 74.3299L17.8398 74.6478L16.8047 74.4708L16.9984 74.4098L16.4411 73.9476L16.2395 73.9379L16.338 74.1249" stroke="black" stroke-width="1.31568" stroke-linecap="round" stroke-linejoin="round"/>
<path d="M18.4252 74.3896L17.0303 74.3231L16.9274 74.5899L13.9766 74.122L11.5934 73.6158L7.94119 72.4812L7.6842 72.1856L8.09935 72.2612L5.29994 70.7435L5.29779 70.4667L5.53671 70.6931L4.34195 68.9631L4.59759 68.9809L4.62103 68.2863L4.18603 67.675L4.12092 66.9814L3.87788 66.67L3.96153 66.3652L4.12045 66.4435L4.02163 66.0775L4.28937 66.2311L4.09886 65.81L4.37239 65.8873L4.31256 65.2675L4.94613 63.9776L4.83914 62.5241L5.1676 61.7611L5.11619 61.3711L5.38011 61.1003L5.28183 60.8433L5.90715 60.1212L7.75791 58.9405L10.0854 58.1241L10.4752 58.2186L10.7882 57.9121L11.1462 57.9629L11.6396 57.5006L12.0101 57.5274L12.1669 57.2291L13.0147 57.3204L14.3914 57.1083L14.5224 56.9292L16.2089 57.152L16.9402 57.6154L17.841 57.5266L18.1515 57.7413L18.2534 57.4956L18.4575 57.5522L18.1669 57.5343L18.4209 57.5341L18.4271 57.3277L18.2514 57.3783" stroke="black" stroke-width="1.31568" stroke-linecap="round" stroke-linejoin="round"/>
<path d="M18.7001 54.5741L18.8876 54.0813L19.1619 54.0981L19.0375 54.0203L19.429 54.3422L19.1487 54.1828L18.9086 53.4292L18.2389 52.4771L16.7695 51.0399L15.9976 47.6816L15.3076 46.0446L15.2605 45.2407L16.1901 43.3344L16.5201 41.9915L16.8961 41.8724L16.8028 41.4702L18.166 41.2436L19.5674 40.4352L20.3254 40.2297L20.5111 39.9585L22.191 39.6205L22.4992 39.2495L22.9079 39.3325L23.0971 39.0373L25.1032 39.3945L27.434 39.4817L29.0837 39.2879L30.1287 38.8555L31.7422 39.999L33.2616 40.6713L38.8733 42.6849L41.4419 45.7219L43.4478 46.8572L45.9763 47.5767L48.7964 48.9611L50.8484 51.1208L52.3051 52.2833L55.428 54.0009L59.8081 58.913L63.2805 61.8278L64.6638 63.5325L65.1178 63.504L65.0513 62.9019L64.7326 62.8759L63.6054 63.6712" stroke="black" stroke-width="1.31568" stroke-linecap="round" stroke-linejoin="round"/>
<path d="M63.6578 58.2373L63.8754 58.508L63.9344 59.2584L64.238 59.3114L63.7726 58.9142L64.057 59.029L63.2742 55.9124L62.6819 54.2938" stroke="black" stroke-width="1.31568" stroke-linecap="round" stroke-linejoin="round"/>
<path d="M61.5637 57.1228L61.5377 56.6439L62.1119 56.6779L62.0358 56.5551L62.3246 56.9242L61.7171 56.1903L60.4777 55.1293L57.7896 53.4248L55.6499 51.3851L54.6071 49.6913L54.545 49.1938L53.9634 48.53L53.8718 47.9663L53.0576 46.8697L50.5442 44.3382L49.2696 42.4698L46.8982 40.2651L46.5098 40.1491L43.3426 37.5049L41.5566 35.3415L40.3394 34.3349L39.7997 33.3543L38.3836 32.1354L37.3019 29.4988L34.695 26.366L34.8802 26.1951L34.8137 25.9318L35.0647 26.0148L34.8118 25.2159L35.1908 25.2729L35.3239 24.6527L35.7398 24.8471L35.6251 24.4592L35.8447 24.6179L35.803 24.2565L36.5018 23.381L38.7631 23.5473L38.6423 23.1865L41.9099 24.4998L41.9167 24.3027L42.1085 24.3634L42.6801 24.839L42.4938 24.6325L43.4033 24.5837L44.8288 25.373L45.8791 25.5826L47.7058 26.9519L48.4836 28.3692L49.44 28.955L49.2531 28.7191L49.4708 28.8202L50.232 29.5585L50.3974 29.6792L50.6071 29.5202L50.6289 29.6847L50.53 29.4884L50.6824 29.4742L50.4624 29.3161L50.5463 29.5395L50.3017 29.1899L50.8047 29.4845L51.2399 28.9789L50.9562 28.0356L51.0641 27.3844L50.7556 26.8782L51.0724 26.3877L50.5062 24.0216L50.6201 22.9546L50.4761 22.5603L51.0798 21.7431L51.3776 20.4069L51.5385 20.5027L51.6536 18.9658L52.5151 17.3963L52.6044 16.5467L52.986 16.2418L52.9428 15.8922L53.364 15.6816L53.1537 15.0339L53.6407 14.9678L53.5265 14.4298L53.8982 14.4252L54.445 13.7525L54.4878 13.2551L54.8573 12.7943L54.7395 12.4799L55.252 12.3049L55.3418 11.9933L56.3989 12.0057L57.2949 11.7629L57.7289 11.3683L58.4219 11.6757L58.2639 11.417L58.4486 11.1966L59.0617 11.5852L58.9097 11.1401L59.0596 10.8497L59.381 10.8825L59.674 10.4989L60.2751 10.582L60.5195 10.4332L64.0339 11.1666L64.745 11.4933L64.9321 11.3599L65.834 11.7885L65.6791 11.5361L71.1186 14.5935L72.8596 16.3296L75.0454 17.8582L76.0919 18.082L76.8163 18.5333L77.9287 20.058L77.6769 20.0557L79.0635 22.2852L81.3333 25.0642L82.1061 26.8361L81.9589 27.2531L82.3789 27.8416L82.2077 27.7674L82.1515 28.1006L82.4414 28.4086L82.4683 30.1725L83.1357 32.3439L83.1594 33.8722L82.8044 33.9176L83.0391 34.747L82.8485 34.8344L84.1666 38.5777L84.6963 43.7874L84.5265 45.3367L84.8268 46.909L84.6033 46.9142L84.726 46.9939L84.7137 46.7188L84.7071 46.9257L84.9152 46.928L84.721 47.239L83.6219 46.3371L82.1931 45.7908L79.583 46.5202L78.0027 47.8018L77.6679 48.6117" stroke="black" stroke-width="1.31568" stroke-linecap="round" stroke-linejoin="round"/>
</svg>
