<svg width="1044" height="78" viewBox="0 0 1044 78" fill="none" xmlns="http://www.w3.org/2000/svg">
<g clip-path="url(#clip0_853_1444)">
<path d="M142.668 72.1002L148.666 67.5218L160.127 56.0617L162.359 52.3298L162.532 48.0105L161.888 46.1163L159.373 46.9813L155.891 54.6275L141.543 70.618L142.025 72.5023M12.1949 69.2716L6.15269 63.0822L2.39117 63.0156L0 66.3708L3.2505 69.7388L10.3601 69.9271M1307.8 67.8531L1311.9 63.6187L1311.96 61.2672L1308.65 58.8195L1304.33 58.6453L1299.99 59.8458L1290.63 56.2117L1289.67 55.1174L1289.5 53.6719L1289.91 51.8216L1294.71 45.6166L1299.1 41.2321L1305.06 36.641L1307.67 32.5099V26.6942L1305.04 22.5561L1301.5 21.8383L1298.66 23.2328L1296.18 25.7442L1293.02 33.0436L1290.59 36.9411L1287 21.524L1284.54 19.1938H1280.22L1274.1 25.3181L1274.08 29.6785L1276.52 33.7727L1276.7 39.5035L1276.28 41.3553L1273.21 45.6576L1271.08 45.1777L1269.24 43.3203L1266.84 39.5517L1262.77 35.3017L1262.58 33.8435L1262.77 26.7338L1265.43 23.9392H1266.77L1268.54 25.706L1270.9 31.5345L1272.27 29.6743L1272.28 26.6942L1270.04 22.9624L1267.55 20.6109H1264.65L1261.15 23.2682L1258.5 29.5157L1258.51 33.9256L1260.74 37.6574L1264.38 41.3751L1267.98 47.222L1271.73 51.3204L1273.86 50.8405L1275.71 48.9831L1280.77 41.0042V30.9413L1278.38 26.8103L1282.41 22.5235H1283.76L1285.5 24.2408L1288.01 39.4611L1288.72 39.9948L1290.85 39.5149L1294.06 36.2899L1299.36 25.3875L1301.49 24.691L1303.59 25.3521L1306.22 28.1453L1306 30.0296L1304.02 33.4103L1301.05 36.3762L1293.44 41.2321L1288.31 46.2862L1284.78 48.4791L1281.17 53.6309L1280.99 57.9106L1281.67 60.0143L1284.96 63.286L1295.75 68.3387L1302.9 68.5128L1305.74 67.4029L1307.16 68.2537M163.902 67.8531L165.104 66.4105L164.682 65.9872L162.84 67.8304M1168.42 65.5285L1177.88 60.4475L1181.6 56.8049L1192.93 48.3064L1213.27 37.7962L1217.46 34.4424L1221.3 28.2642L1221.28 26.7296L1217.23 22.5193L1215.14 21.8581L1206.03 25.3309L1201.02 28.6705L1199.52 28.6606L1199.05 26.6857L1201.49 21.1927L1201.49 19.6072L1199.28 15.0585L1191.4 17.2599L1187.26 19.9965L1184.78 23.3092L1181.22 38.6569L1178.02 34.2881L1173.63 29.9022L1164.62 25.052L1163.67 23.9732L1163.61 20.2117L1166.92 17.7724H1168.49L1175.02 21.3782L1178.59 27.075L1178.84 23.8628L1176.64 20.1649L1169.91 16.3482L1164.13 16.3623L1162.25 18.2396V25.3917L1164.56 27.8324L1172.21 31.3108L1181.12 41.4119L1183.59 40.5865L1185.93 32.5198L1186.26 25.8575L1189.02 22.9893L1198.11 17.8191L1198.83 19.6978L1198.66 22.6056L1193.39 33.7727L1193.86 37.1549L1196 36.6834L1200.38 31.5203L1203.09 29.653L1212.22 24.8368L1216.59 24.8566L1218.46 26.7338L1218.63 28.1863L1217.97 30.2844L1214.69 33.549L1204.19 38.4545L1194.34 44.0607L1177.87 54.7903L1164.61 61.0478L1162.26 63.5423L1162.27 66.4501L1165.62 66.9088M277.169 62.1959L278.429 60.7958L278.579 58.6892L269.497 55.8422L266.337 51.3105L262.801 49.1176L252.03 38.0935L253.167 36.0464L261.968 33.5023L267.032 25.3549L265.232 23.455H263.738L260.986 25.849L258.634 25.9155L256.243 22.5632L257.386 19.6864V15.4492L256.702 13.3483L255.32 12.1152L248.634 12.0869L244.605 25.7046L242.541 27.2718L241.878 25.3549L243.026 21.0696L242.044 19.7317L241.683 17.3647L234.085 12.1152L231.221 11.9283L229.067 12.6588L226.47 19.6949L228.943 28.2968L234.305 38.4035L234.56 33.7727L230.718 28.2232L230.731 21.0682L232.67 20.6222L234.048 21.5311L235.887 19.6921L234.978 18.3146L234.996 16.8253L236.876 17.5685L240.168 22.4839L237.829 25.4031L240.07 30.627L241.177 31.4821L246.532 29.1108L251.492 18.316L250.551 16.8989L250.562 15.4039L252.452 14.7824L254.353 15.4053L254.554 19.6864L253.369 22.4867L253.32 26.2808L259.801 29.9602L259.521 30.3042L248.523 32.844L246.826 34.3461L245.368 34.5358L239.674 34.3461L236.872 32.0073L236.382 35.3017L238.776 37.8217L240.852 38.8721L251.93 41.746L263.478 54.1165L267.082 60.4744L270.78 62.6758L275.098 62.85M690.327 61.0166L694.112 58.6581L698.021 54.721L702.884 38.5196L705.779 32.8794L708.749 29.9064L716.285 24.5423L720.133 19.7289V15.4067L716.284 10.6344L712.521 10.6995L709.729 13.3186L705.834 18.6671L702.34 27.7446L698.478 30.106L696.942 30.0749L696.5 28.1467L703.144 19.7289V12.5767L699.475 8.76139L691.408 6.42829L684.205 6.4524L682.331 8.32961L682.309 11.2814L684.753 16.7757L683.557 21.1135L683.68 29.0811L687.035 31.4736L688.449 30.5208L690.802 30.4571L693.21 33.576L696.944 35.7222L698.361 34.7793L700.241 35.2578L697.976 38.0949L698.824 39.512L697.364 41.2873L695.048 47.9199L694.715 51.7338L689.866 55.5421L685.659 53.1906L682.309 55.6072L683.599 58.685L688.404 61.2573M642.228 60.8114L640.923 56.9507L639.026 55.712L626.281 51.7352L621.04 51.3927L617.266 45.4849L612.124 43.241L609.134 43.2467L605.003 45.6321L598.406 41.528L595.764 38.1303L594.575 38.0623L595.049 41.6101L596.917 43.4604L603.099 46.8893L607.491 51.2766L611.043 56.1636L636.02 61.27L640.351 61.4329M497.79 61.0181L502.359 57.8738L505.577 53.2033L510.074 41.7687L512.992 37.3474L517.626 35.4645L538.507 30.4628L540.782 29.3217L543.784 26.3318L546.008 22.6028L545.761 20.676L543.567 17.7129L535.517 17.7639L527.394 21.4801L525.014 16.9074L522.804 14.9792L517.275 17.3774L514.862 17.7186L511.02 23.0317L510.114 23.0289L509.614 19.6553L512.024 16.8975L512.212 14.0377L511.786 12.1818L509.59 9.21866L501.539 9.26964L497.843 11.4711L494.954 16.9343L492.628 23.9336L495.187 28.7286L496.376 28.1892L495.454 26.8074L495.441 22.4471L499.084 15.8923L501.58 13.5309L505.858 13.344L507.764 13.9896L507.777 16.8975L506.218 18.6657L503.93 23.8557L503.951 26.8074L505.826 28.6833H510.148L514.054 24.9161L516.247 21.3796L519.945 19.1796L522.891 19.2079L523.334 21.1432L513.214 28.6592L508.994 34.2965L502.768 47.6085L500.198 51.5484L495.954 55.5081L494.575 54.5851L491.712 54.3996L488.875 55.8295V57.173L490.329 58.6566L494.462 61.2601M16.5157 60.8099L17.8677 57.9162L16.9588 56.5387L16.9772 55.0494L18.8601 55.5081L19.5325 55.0834L21.6901 52.9259L21.7255 51.7749L18.8218 51.7565L10.404 56.9847L8.27339 56.5062L7.23287 55.3708L8.9841 53.0207L7.49624 51.7975L4.14664 54.1915L4.16218 56.0121L11.3908 59.6859L13.1605 61.2446M1473.47 59.3758L1475.11 58.5236L1477.55 55.1599L1477.53 52.2166L1476.23 49.9401L1471.42 46.0937L1468.51 46.1135L1469.05 49.5055L1466.66 55.0367L1467.95 57.3967L1471.3 59.8359M441.097 59.6632L447.775 57.2339L448.484 55.0848L447.823 52.9896L446.404 51.8301L444.988 52.6767L443.573 51.8301L442.194 52.7517L436.456 52.7503L423.751 40.1972L422.93 38.5989L416.676 34.533L417.689 32.5099L415.334 30.5152L413.8 30.5435L413.33 33.9256L419.804 44.7275L424.428 50.798L428.439 54.7804L435.042 59.8289M323.887 59.3645L327.088 56.1608L330.061 46.3244L336.271 32.8907L337.785 31.3731L340.993 29.9078L334.651 27.6696L333.105 27.7022L328.461 32.1291L324.691 34.5245L320.71 38.5352L318.741 41.9258L319.504 44.6907L317.544 47.2673L317.056 52.3355L319.659 57.8681L321.782 59.8161M78.6227 59.6023L74.5746 57.1008L69.3212 51.7338L67.7258 52.2534L65.0814 55.048L65.0813 57.953L66.9569 59.8289M169.374 56.5572L168.929 54.653L168.458 56.5345M772.668 55.1174L775.909 51.8641L778.171 46.5906L774.556 38.5536L772.935 36.7174L772.933 32.3967L773.899 30.9696L771.709 25.7924L768.209 23.6348L762.066 17.8191L757.117 21.1489L754.543 25.3648L757.113 30.9696L759.722 33.549L765.448 37.186L764.939 38.7801L758.792 45.1366V46.6288L760.653 48.5032L765.015 48.5188L770.12 45.7666L772.278 43.4519L772.514 48.0402L767.803 51.5342L767.286 53.7073L769.149 55.5817M1457.68 52.3228L1457.71 49.3908L1454.43 46.1064L1452.29 46.5877L1449.71 49.422L1452.94 52.7503L1455.8 52.9372M1350.04 52.2845L1348.88 50.8434L1347.74 50.8023L1348.17 52.7262M1440.7 50.9071L1440.24 47.5816L1438.33 49.3823L1438.35 50.8787M169.374 50.8957L168.929 48.9902L168.458 50.8717M1368.74 50.798L1370.89 51.3134L1374.21 47.5009L1373.95 46.163L1371.75 43.2424L1369.75 44.198L1367.53 47.9284M870.115 49.4531L868.958 48.0119L867.818 47.9709L868.244 49.8948M29.1834 49.4531L28.3411 48.0119L29.1947 46.5821L28.804 46.1135L25.9018 46.0937L24.0982 48.0063L25.9018 49.9189M1333.05 48.0388L1328.43 44.7176L1326.55 46.5906L1328.35 48.5032L1331.22 48.6901M1321.25 48.4621L1324.15 47.2687L1324.18 44.6907L1320.83 45.1352M1051.28 48.2922L1055.84 45.2612L1055.72 42.863L1052.4 40.4152L1049.46 40.4308L1047.58 42.3066V45.2117L1050.24 48.002M1423.23 47.062L1422.82 45.1763L1423.54 44.0649L1420.49 41.8394L1418.31 42.3392L1417.07 43.7719L1420.34 47.1016M1027.26 46.8355L1032.88 42.0773L1030.79 38.5352L1028.3 36.1964L1026.42 36.4159L1021.7 38.9132L1019.31 42.3038L1020.58 44.6553L1023.59 46.8326L1025.43 46.1673M959.369 46.6458L962.145 42.3434L961.235 40.966L962.147 38.0878L961.758 37.6291L959.822 38.0538L959.457 40.428L956.913 42.8432L956.98 45.2145L958.902 47.0195M66.0251 46.6472L63.4153 37.4607L58.4668 37.5994L55.3167 42.6252L53.7555 40.9645L53.7545 38.0595L54.7375 36.7188L54.2561 34.5854L52.8757 33.365L50.0443 34.3348L47.1659 33.4245L46.6962 33.8152L46.639 41.8862L56.0081 45.0276L65.5353 47.0691M1457.85 45.2018L1459.06 43.7648L1457.22 41.9173L1456.55 43.7591L1456.74 45.2074M1350.09 45.2471L1350.47 42.8389L1352.97 40.4251L1352.46 39.0887L1346.2 42.9862L1346.76 45.659M98.7887 45.2074L99.9844 43.7577L99.589 43.2806L96.7293 43.0754L94.8341 43.7181L95.2691 45.659M1381.42 43.7917L1382.68 42.3873L1382.23 39.0378L1380.09 39.5078L1378.86 40.8909L1378.87 43.7974L1380.82 44.2447M975.112 43.7917L976.376 42.3873L976.375 39.4752L974.502 37.6121H973.008L971.135 39.4752V42.3802L973.008 44.2433M843.685 44.2815L847.051 40.1816L847.084 39.0335L842.766 39.0123L841.387 39.9353L840.009 39.0264L838.52 39.0448L838.56 40.0358L842.081 43.7238M836.19 43.8299L836.224 40.8966L834.345 39.0151H831.44L829.577 40.8881L830.057 43.023L831.439 44.2561L834.301 44.4429M182.013 44.0706L188.693 41.6795L190.644 39.5502L190.168 37.6702L185.951 41.4246L180.257 41.6129L178.361 40.9688L178.827 39.0873L180.211 39.9976L182.139 39.5531L181.674 37.6702L180.247 38.5196L179.736 37.203L184.887 32.7874L189.772 30.6624L193.522 26.7423L188.827 23.4225L184.414 23.4211L179.223 25.6168L176.042 27.4473L170.379 32.9176L168.884 32.9077L168.24 29.6063L169.349 26.7706L168.113 24.4588L164.753 22.011L158.978 22.0252L155.073 25.7938L152.84 29.5242L152.854 33.886L154.414 35.6542L158.088 42.8474L159.004 42.8573L160.854 40.9235L159.533 40.1179L157.087 36.7556L157.101 29.5652L161.808 24.8708L164.269 25.682L166.771 35.2153L168.925 35.9289L171.023 35.2677L176.451 29.9008L183.006 26.2582L190.229 26.2695L186.883 29.3005L181.035 32.8978L174.105 39.4738L174.335 41.3652L176.308 44.0536L178.835 43.0952M114.199 43.8214L115.551 40.9263L112.335 37.6121H110.842L108.968 39.4752L108.98 43.7988L110.886 44.4429M1454.8 42.3746L1453.01 40.4436L1451.09 40.8867L1451.51 42.8276M1439.75 43.7407L1441.67 44.2377L1442.13 43.7974L1442.17 40.8456L1439.58 36.137L1438.84 36.1667L1439.31 39.5502L1438.39 40.9277M1433.79 42.3703L1434.99 40.9263L1434.61 40.4605L1432.68 40.8867L1433.15 42.7724M1117.9 42.4001L1117.75 40.5356L1115.39 36.0832L1108.92 36.1809L1107.54 37.1039L1106.73 35.7845L1103.29 33.3707L1099.38 35.6146L1096.95 28.2331L1096.25 27.6894H1093.35L1090.05 30.981L1090.05 36.7146L1094.76 39.9693L1097.33 37.8004L1100.43 41.4232L1103.33 41.4246L1106.13 39.0916L1106.83 40.125L1117.41 42.8234M898.464 42.4001L898.02 40.4959L897.548 42.3774M876.807 43.1178L875.409 41.8578L873.474 42.3024L873.909 44.2433L876.812 44.2362M1410.95 40.9858L1410.55 39.0363L1408.66 39.5049L1409.83 40.9263M1008.41 41.334L1008.93 39.4851L1008.16 38.4729L1013.3 35.9784L1013.24 34.373L1010.28 32.1914L1007.52 33.2461L1004.67 35.8255L1001.39 31.9366L998.494 31.9351L997.113 32.8568L994.322 30.5336L992.385 30.9753L992.275 33.2178L996.493 37.3771L1004.15 41.4119L1007.02 40.5044M969.214 40.9589L968.057 39.5177L966.918 39.4766L967.344 41.4006M943.618 41.1783L945.025 39.815L941.979 37.5923L940.45 37.6305L940.487 38.6173M922.051 41.3411L923.491 40.1845L923.533 39.0448L921.609 39.471M590.05 40.9447L593.932 32.8893L596.945 29.04L599.793 32.1758L610.575 35.9402L611.19 37.3941L606.301 40.0245L614.913 39.9962L615.358 38.0581L614.375 36.7174L614.355 33.7657L616.643 28.5757L623.865 21.1446L624.053 16.8663L623.371 14.7626L620.573 12.1152L612.046 11.9269L609.944 12.6093L604.465 18.2396L604.464 22.5603L605.387 23.9392L604.54 25.3549L606.863 28.1467L606.419 30.0763L604.93 30.0848L603.929 29.2354L600.321 15.7862L599.296 14.7329L597.49 12.9661L588.37 9.42959L586.596 7.86811L582.832 7.80296L578.46 12.9548L576.157 21.0894L578.738 25.3125L583.289 28.4907L587.031 32.4844L584.672 39.4596L585.146 40.1873L586.523 41.4246M1429.36 39.5701L1428.9 37.6645L1428.44 39.546M1420.31 40.0089L1422.31 39.5573V38.0581L1420.93 37.2851L1418.3 33.8817L1416.16 33.164L1413.3 33.3707L1414.13 37.3885M1360.99 40.2595L1360.46 38.0637L1361.38 36.6721L1359.5 36.1964L1357.7 38.0963L1360.28 40.9263L1361.38 40.9249M813.039 40.1604L814.486 41.3553L821.992 33.8421L820.146 33.164L815.866 33.3509L812.576 36.6438M121.204 39.5432L120.301 38.143L121.216 35.2564L120.825 34.7864L117.965 34.5811L116.061 35.2224L115.984 37.5767L119.298 40.0146M1447.27 38.5932L1445.59 36.3946L1446.32 35.2536L1444.43 34.792L1443.99 36.7188L1445.86 38.5904M1386.88 38.1529L1386.44 36.2488L1385.97 38.1303M1331.68 38.16L1331.27 36.2049L1329.33 36.6395L1329.77 38.5692M1324.96 38.5663L1327.04 36.1794L1323.66 36.641L1323.67 39.5446L1324.66 39.512M929.567 38.1275L927.71 37.6192L927.278 39.5474L928.415 39.512M186.323 38.1345L184.47 37.6263L184.07 38.0963L185.956 38.5663M1463.19 36.951L1460.08 34.809L1459.58 35.2323L1460.01 37.1648M1401.05 36.7443L1400.6 34.8359L1398.75 36.6877M1079.21 37.1393L1079.27 36.2106L1077.38 36.6792M866.926 37.6461L865.022 38.0921L866.904 38.5621M1342.96 35.3031L1341.14 34.6052L1339.29 35.2649L1341.13 35.926M1024.48 35.3343L1024.51 32.4009L1022.64 30.5336L1019.77 31.4411L1018.35 30.5945L1016.51 32.4335L1019.73 35.7618L1022.59 35.9487M955.054 35.2932L951.328 31.056L951.843 28.8843L955.159 26.2482L954.68 24.8821L953.193 24.8722L948.556 31.0178L953.731 35.7802M893.746 35.7335L894.245 33.8166L892.311 33.3749L891.88 35.3045M1454.37 34.3079L1454.4 33.1852L1452.97 32.0073L1452.5 33.8888M1409.53 33.9072L1409.09 31.7568L1406.29 29.1179L1404.16 29.5978L1402.97 31.0574L1405.36 34.3659L1407.67 33.4245L1409.1 34.2781M903.266 35.4617L904.148 35.3074L904.161 33.8095L902.262 32.0102L900.551 33.5462M610.176 33.9058L610.621 32.0017L611.092 33.8832M1045.61 32.7577L1050.96 30.3552L1050.1 28.7045L1046.74 26.2666L1044.57 26.7664L1041.93 29.5624L1043.15 32.4377M976.532 32.4731L975.926 30.5407L973.784 31.0135L972.623 32.4335L974.424 34.3334L976.366 33.8832M767.8 32.8469L766.36 31.6902L766.319 30.5506L768.243 30.9767M322.334 32.4788L325.806 29.1151L327.1 26.5073L330.732 8.67645L333.108 6.46657L335.241 6.94787L336.445 8.41317L332.461 18.2849L332.635 21.1842L335.083 24.4998L337.472 24.4503L341.203 22.2191L349.11 14.3846L354.335 12.1478L356.222 14.0293L354.986 16.3425L351.823 18.7492L349.632 22.4456L349.662 23.9817L354.377 24.6258L357.215 23.5159L358.629 24.6726L359.177 26.1222L354.465 28.7031L351.556 28.8715L348.757 27.688L345.849 27.7008L345.226 29.6021L345.849 31.5034L357.291 31.5303L361.023 29.2977L363.362 26.8089L362.88 24.674L361.096 22.8987L355.523 20.7312L358.249 17.9168L360.437 11.4498L354.368 7.87657L344.94 11.4839L342.049 14.2982L339.408 3.22601L336.054 0.775391H331.655L326.072 4.8243L322.725 9.70565L322.551 16.855L323.661 19.6921L322.814 21.1078L323.736 22.4867L323.923 26.765L323.236 28.7172L319.949 32.4037L321.871 32.912M1367.25 31.0461L1368.46 29.6006L1368.06 29.1349L1366.14 29.561L1366.61 31.4467M1130.84 31.0503L1132.09 29.6474L1132.09 28.1467L1130.18 26.2539H1129.3L1126.9 29.5624L1128.74 31.5019M1115.08 31.0815L1115.53 28.1538L1118.22 25.321L1120.76 27.2845H1121.69L1123.6 25.3946L1123.59 23.8982L1120.28 23.2342L1116.73 23.9718L1112.78 29.6021L1113.95 31.0163M929.617 31.0815L929.206 29.1264L927.271 29.561L927.704 31.4906M925.323 31.056L923.468 30.5478L923.071 31.0178L924.958 31.4878M838.139 32.6741L840 32.9261L842.283 31.6209L844.697 28.1849L842.328 24.211L838.633 22.0195L837.099 22.0393L833.81 25.3181L833.623 28.1807L834.341 30.3212M806.408 31.0489L805.565 29.6077L809.323 25.3917L809.509 22.5278L808.089 19.6878L805.994 19.0281L803.896 19.6893L802.101 21.4971L799.82 26.6871L799.849 28.2246L804.501 31.5218M520.078 31.4665L518.174 31.022L520.055 30.5506M1450.55 29.629L1449.83 28.478L1451.85 26.4832L1450.42 25.0534L1448.06 26.799L1445.86 26.2992L1445.38 26.789L1449.77 29.888M1347.48 29.6573L1346.83 26.2964L1344.7 26.7664L1343.48 28.1467L1343.96 30.2816L1345.34 31.5019L1347.28 31.0503M1325.09 30.9951L1327.01 31.4963L1327.45 29.561L1325.52 29.1292M966.489 30.1358L963.169 27.7291L962.661 28.1552L963.098 31.5019L966.005 31.5005M908.374 29.6601L907.932 27.5125L906.548 26.2865L905.058 26.3035L905.805 28.1863L907.937 30.031M891.585 29.6346L892.838 28.2316L891.616 25.3507L889.515 24.6697L886.204 25.3153L886.193 28.2232L887.424 29.6049L889.521 30.266M872.51 30.0707L873.213 28.1948L872.54 24.9288L870.62 26.7338L870.453 28.1863L871.083 30.0806M524.381 30.1089L521.012 29.6077L524.657 25.7103L536.926 20.5897L541.251 20.4226L543.13 21.1389L540.983 24.8807L537.528 26.8358M995.903 27.7645L995.388 27.109L999.071 24.7235L996.591 20.5897L994.322 21.5934L991.489 20.6095H987.167L983.889 23.8982L984.107 25.7825L987.171 30.0976L990.121 30.1216M612.344 28.4766L608.739 19.7431L611.065 17.1651L614.882 14.9594L619.714 17.5034L619.615 19.7331L615.178 24.3781M590.496 28.4327L581.815 21.1418L581.814 16.8239L585.141 13.6074L592.719 22.4867L592.733 25.43M432.733 28.2486L435.563 23.9774L435.561 22.4881L434.684 21.4631L426.302 17.9239L427.083 16.8932L427.271 12.6178L425.752 8.85204L415.335 3.60681L410.972 3.63368L410.515 6.98752L415.54 12.261L411.058 14.6989L409.097 16.8239L409.048 20.676L410.649 22.549L409.565 24.589L412.39 27.2675L413.849 27.4558L416.751 27.2831L420.427 25.1128L422.619 15.2043L424.214 20.8289L431.335 24.4276L430.357 28.2274L432.292 28.6634M1375.6 26.8258L1374.44 26.7636L1371.86 29.6035L1372.7 29.8427M1355.28 27.2307L1355.29 26.1053L1353.91 24.8708L1352.03 25.3479L1353.84 27.2576M969.21 26.8074L967.355 26.3006L966.958 26.7706L968.843 27.2407M914.237 26.8032L915.433 25.3535L915.036 24.8778L911.698 25.3139L912.131 27.2435M759.299 27.2392L758.787 25.3252L762.068 22.0393L764.2 22.5178L765.233 23.6363L760.721 27.2591M597.922 27.1798L597.415 25.3266L597.885 24.9274L598.355 26.8131M1082.47 25.3861L1081.57 23.9859L1082.02 22.0492L1086.34 23.0077L1088.2 21.146L1087.72 19.0126L1086.34 17.7795H1083.44L1080.13 22.4471L1080.16 25.3932M864.995 26.7565L865.887 27.0042L868.588 25.0874L865.416 24.8708M405.834 25.4172L407.263 22.5603V18.2396L406.341 16.8607L407.188 15.4436L401.784 8.36219L398.194 7.85394L391.224 11.8958L390.678 14.1156L393.315 20.3122L396.888 20.1904L397.964 19.3976L401.525 23.9378L400.675 25.3634L401.068 25.8334L403.927 26.0387M854.502 24.2252L858.906 21.1375L855.504 17.8205L852.152 20.2117L852.217 22.5632M828.14 25.2856L831.517 25.8391L831.953 22.4924L831.057 22.2814M709.757 24.3455L709.229 21.0696L713.976 15.0231L715.886 16.8239L715.884 19.7261M416.745 24.4163L412.135 24.2478L416.591 22.0139L418.127 22.0563L418.09 23.1931M940 23.9378L941.909 25.7796L942.386 22.4839L940.446 22.0507M936.483 23.5258L933.414 20.5996L932.925 21.0724L933.368 24.4234L936.271 24.4163M882.92 22.5773L884.281 19.6907L882.43 17.7596H881.549L879.246 20.836L882.417 22.9822M1093.41 22.1158L1092.91 23.9732L1094.83 24.4064L1094.8 23.2696M695.926 21.3824L693.689 16.906L696.945 13.5451L698.441 13.555L698.913 16.9371M938.103 16.9159L937.662 14.7711L936.239 13.6046L934.528 15.142L937.631 17.3194M865.867 12.6447L864.711 11.2035L863.571 11.1624L863.997 13.0864" fill="black"/>
</g>
<defs>
<clipPath id="clip0_853_1444">
<rect width="1478" height="76.4483" fill="white" transform="translate(0 0.775391)"/>
</clipPath>
</defs>
</svg>
