<svg width="515" height="61" viewBox="0 0 515 61" fill="none" xmlns="http://www.w3.org/2000/svg">
<path d="M175.484 48.1787L174.863 47.9299L174.921 47.8884L174.708 47.6999L173.105 46.8167L171.446 45.297L171.109 44.9438L171.169 44.8966L170.958 44.61L170.028 43.9059L169.681 43.4365L169.611 43.1512L168.215 41.5961L168.142 41.2854L167.913 41.1675L167.839 40.9L166.9 39.4018L165.527 37.9015L165.41 37.6862L165.478 37.5205L165.158 37.2949L164.378 36.2111L164.123 36.0665L163.981 35.7012L163.531 35.1572L163.338 34.6332L162.819 33.977L161.817 33.1527L161.054 32.8038L160.517 32.2166L160.152 32.0053L159.972 31.6806L159.216 31.1024L158.02 29.8632L157.894 29.6185L157.273 29.1568L155.869 28.1742L155.406 28.0536L154.367 27.4001L153.345 26.5437L151.61 25.7261L150.834 25.6869L150.031 25.931L149.523 26.2042L149.458 26.7787L149.616 26.7961L149.432 26.9059L149.308 27.2073L149.493 27.6087L149.4 27.7028L149.607 28.3014L149.737 28.3067L149.69 28.4852L150.016 28.6653L150.057 28.8002L150.918 29.4501L151.027 29.6741L152.098 30.5767L152.55 31.3819L152.887 31.6919L153.169 31.7924L154.092 32.92L154.122 33.0854L155.085 34.0714L155.488 34.7196L155.458 34.8669L155.747 35.1367L155.692 35.3319L156.068 35.5482L156.908 36.4528L157.16 36.5717L158.034 37.6481L158.399 38.2504L158.405 38.4784L158.606 38.6558L158.714 38.9367L158.888 39.0208L158.897 39.5749L158.897 39.5002L158.341 39.4426L158.154 39.2511L157.624 39.0482L157.054 38.615L156.693 38.4807L155.055 37.1402L154.196 36.6132L154.117 36.4652L153.701 36.3383L153.498 35.9965L153.079 35.8053L152.844 35.4464L152.341 35.0527L151.727 34.0952L151.232 33.6402L150.668 33.456L150.705 33.3904L150.424 33.1932L149.88 33.0094L148.615 32.1165L145.814 30.7642L144.296 29.8301L142.249 28.9054L140.153 28.2163L138.152 27.7095L137.392 27.9535L136.977 28.2163L136.919 28.3623L137.014 28.4487L136.944 28.6405L137.054 28.6985L136.958 28.7818L137.073 28.8036L137.019 28.9539L137.757 29.8445L139.344 30.9597L139.663 31.3304L139.951 31.489L139.918 31.6062L140.385 31.8041L141.042 32.3127L142.353 32.9719L142.661 33.2267L143.004 33.3432L143.314 33.6281L144.499 34.288L145.014 34.813L146.841 35.954L149.103 37.0434L149.059 37.1144L151.217 38.7121L151.495 39.1078L152.194 39.6659L152.179 39.8779L152.345 39.9438L152.205 40.5307L152.026 40.7219L151.664 40.7641L150.131 40.3426L144.222 37.7355L142.209 37.0926L139.637 36.1036L138.312 35.7347L135.458 35.3045L133.483 35.1839L132.878 35.0001L132.146 34.9342L131.773 34.9837L130.869 35.4598L130.885 35.6814L130.783 35.7628L131.608 37.0297L133.674 38.0917L134.075 38.4724L136.831 39.6288L140.64 40.815L142.864 41.8144L146.362 43.012L147.816 43.7844L147.945 43.9427L148.219 43.9936L148.816 44.548L148.739 44.5916L149.14 44.8112L148.917 45.1159L148.386 45.3646L147.114 45.3991L145.649 45.157L141.096 43.9695L135.204 43.3843L133.647 43.4137L131.958 43.2497L130.358 43.4633L129.788 43.7813L129.518 43.8249L129.467 43.9397L128.457 44.2477L128.087 44.5136L128.126 44.6294L128 44.6461L128.322 44.6833L128.512 44.9813L128.828 45.2093L132.242 46.896L133.891 47.2516L136.24 48.1278L137.422 48.324L139.266 49.083L141.049 49.3066L143.404 49.8641L144.589 50.0291L145.068 50.149L145.672 50.5551L145.668 50.9522L145.419 51.2783L144.559 51.5598L141.732 51.6439L139.739 51.3737L139.013 51.4614L138.505 51.6264L138.564 51.6817L137.952 51.741L137.435 51.9656L137.231 52.1159L137.261 52.6861L137.129 52.7835L137.286 52.9175L137.15 53.0008L137.834 53.5563L137.954 53.9198L138.11 53.9654L138.388 54.3092L139.549 54.6819L140.31 54.8057L140.433 54.9202L142.048 55.2236L147.446 55.7033L150.226 56.1262L150.497 56.2611L152.347 56.5363L152.52 56.6867L152.98 56.7499L156.099 56.4824L157.45 56.4757L157.856 56.302L159.969 56.0452L160.756 56.089L160.884 56.2106L162.03 56.4098L163.012 56.3756L165.149 57.0824L165.748 57.4236L166.989 57.7554L167.219 57.8561L167.209 57.9793L167.497 58.2107L168.824 58.6379L169.252 58.8769" stroke="black" stroke-width="1.5" stroke-linecap="round" stroke-linejoin="round"/>
<path d="M176.185 49.6792L176.088 49.4775L176.251 49.5806L176.191 49.8052L176.535 50.2807L176.844 51.1238L176.768 51.13L176.785 51.6778L176.502 52.9299L176.49 53.3717L176.217 53.781L176.126 54.279L175.812 55.0397L174.922 56.4407L174.961 56.5957L174.772 56.7612L174.654 57.1L173.659 57.9861L173.649 58.0904L173.118 58.3118L172.901 58.2723L172.957 58.3078L172.883 58.3955L172.045 58.9594L171.731 59.0521L171.075 59.0089L170.758 59.1667L170.646 59.09L170.751 58.9809L170.713 59.0484L170.537 58.9321" stroke="black" stroke-width="1.5" stroke-linecap="round" stroke-linejoin="round"/>
<path d="M140.076 11.9402L140.214 12.1365L140.202 12.3002L140.314 12.3885L140.223 12.9294L140.319 13.4224L140.435 13.5403L140.463 14.1461L140.561 14.3498L140.522 14.9557L140.622 15.629L140.567 15.7625L140.676 16.1631L140.791 17.429L140.739 18.846L140.953 19.5069L140.992 20.8541L140.929 21.1275L140.989 21.5089L140.753 22.4469L140.812 23.225L140.767 23.4258L140.679 23.4711L140.763 23.5695L140.686 23.6152L140.765 23.6667L140.822 23.94L140.68 24.2072L140.75 24.2856L140.651 24.4191L140.593 24.8122L140.604 25.0267L140.687 25.07L140.593 25.3102L140.667 25.3268L140.528 25.4094L140.587 25.7372L140.521 26.0235L140.456 26.0448L140.588 26.2428L140.481 26.3624L140.515 26.5315L140.455 26.5691L140.511 26.5918L140.423 26.6703L140.501 26.7216L140.367 26.7878L140.372 26.917L140.236 26.9803L140.292 27.0281L140.192 27.09" stroke="black" stroke-width="1.5" stroke-linecap="round" stroke-linejoin="round"/>
<path d="M139.888 33.2003L139.578 33.2654L139.778 33.3313L139.832 33.653L139.603 34.5052L139.402 35.0105L139.36 34.9412L139.43 34.9485" stroke="black" stroke-width="1.5" stroke-linecap="round" stroke-linejoin="round"/>
<path d="M137.686 40.715L137.598 40.7137L137.67 40.7885L137.666 41.0297L137.483 41.9363L137.213 42.5679" stroke="black" stroke-width="1.5" stroke-linecap="round" stroke-linejoin="round"/>
<path d="M134.628 49.3005L134.452 49.4612L134.216 50.2345L133.956 50.44L133.374 51.2695L132.024 54.0028L132.018 54.157L131.144 55.3446L130.413 57.1439L129.936 57.9841L129.752 58.162L129.799 58.2433L129.7 58.1961L129.772 58.2631L129.864 58.2136L129.755 58.1651L129.967 57.8622" stroke="black" stroke-width="1.5" stroke-linecap="round" stroke-linejoin="round"/>
<path d="M138.767 8.94624L138.694 9.05355L138.434 8.12059L138.141 7.67365L137.769 7.44549L137.34 7.39757L136.508 7.07616L134.286 6.84982L133.062 7.14414L132.67 7.27749L132.537 7.42387L131.913 7.59056L131.884 7.68016L131.667 7.74163L130.974 8.21227L130.523 8.68709L129.83 9.67422L129.765 9.94301L129.534 10.1055L129.515 10.3163L129.33 10.3433L129.331 10.5184L129.073 10.7494L128.878 11.112L128.704 12.1553L128.715 12.57L128.626 12.7375L128.757 13.3331L128.702 13.3594L128.944 13.5912L128.931 14.0582L129.105 14.5393L129.255 14.7003L129.621 14.805L129.848 14.7794L130.344 14.4114L130.84 14.1926L132.088 14.2203L132.523 14.0064L133.099 13.4975L133.642 13.1677L133.989 13.1146L134.48 13.2277L134.854 13.1318L136.148 12.4546L136.568 12.353L136.97 12.5518L137.362 12.8864L137.984 13.7163L138.13 13.7783L138.786 13.6342L139.495 13.7928L139.911 13.6311L140.481 12.87L141.036 12.557" stroke="black" stroke-width="1.5" stroke-linecap="round" stroke-linejoin="round"/>
<path d="M140.604 8.07583L140.648 8.60534L140.602 8.18756L140.829 7.53225L140.867 7.12151L141.072 6.89205L141.045 6.80766L141.59 6.2159L142.249 5.93174L142.997 5.739L143.054 5.64446L142.991 5.56007L143.189 5.47959L143.445 5.15297L143.635 5.08968L143.862 4.86595L144.569 3.73088L144.806 3.54726L144.872 3.33915L145.142 3.01384L145.334 2.96383L145.403 2.8547L146.31 2.57367L147.172 2.07333L147.973 2.16293L148.135 2.07932L148.476 2.08062L149.129 2.26972L149.545 2.54684L149.784 2.8284L150.032 3.65925L150.232 4.04291L150.277 4.37343L150.169 5.07588L149.989 5.23372L150.024 5.39155L149.785 5.75698L148.704 7.13974L148.401 7.41479L147.598 7.90106L147.499 8.0503L146.734 8.4014L145.994 9.06947L145.345 10.0944L145.363 9.85605L145.429 9.92455L145.33 10.0761L145.259 10.8773L145.288 11.0747L145.462 11.1615L146.535 10.7885L147.491 10.1835L147.836 9.90111L147.946 9.69431L149.186 9.06062L149.686 8.98717L150.212 9.10359L150.618 9.49975L150.978 10.0738L151.112 10.16L151.122 10.3645L151.516 11.0758L151.819 12.0119L151.936 13.2165L151.516 13.8877L150.925 14.1419L150.33 14.2726L149.352 14.2797L148.689 14.4404L148.445 14.587L148.025 14.6258L147.333 14.9769L146.906 15.0415L146.284 14.9688L146.236 14.8472L145.975 14.8311L145.831 14.711L145.261 14.6555L144.932 14.6704L144.838 14.754L144.392 14.4292L144.045 14.288L143.919 14.3156L143.751 14.1487L143.572 14.213L143.422 14.0945L143.392 14.1713L143.232 13.9562L142.941 14.158L142.784 14.1768L142.339 14.051L142.281 14.2653" stroke="black" stroke-width="1.5" stroke-linecap="round" stroke-linejoin="round"/>
<path d="M139.627 13.8405L139.704 14.2169L139.726 14.1585L139.652 14.1872L139.576 14.071L139.373 14.1101L139.2 14.2539L139.077 14.2372L138.301 14.8461L137.999 14.9503L136.724 15.7695L136.754 15.8536L136.454 16.0281L136.511 16.1109L136.023 16.5563L135.667 17.0629L135.653 17.2535L135.476 17.3616L135.424 17.6132L135.221 17.8096L135.227 17.9729L134.854 18.4493L134.884 18.604L134.741 19.0663L134.629 19.1614L134.547 19.5422L134.321 19.9545L134.309 20.2439L134.188 20.4212L134.202 20.7192L134.133 20.8494L134.251 21.6644L134.502 22.0415L134.732 22.0751L135.446 21.9715L136.657 21.4354L137.372 21.3096L138.053 21.0218L138.787 20.4501L138.814 20.2931L138.971 20.217L139.118 19.961L139.548 19.7206L140.016 19.3234L140.301 19.3033L140.371 19.2265L140.681 19.2921L141.293 19.182L141.64 19.289L141.7 19.4044L141.645 19.4325L141.943 19.5211L142.009 19.6336L142.203 19.6404L142.317 19.7828L142.396 19.7477L142.797 20.2303L142.994 20.2853L143.163 20.2155L144.046 19.3362L144.658 19.0353L144.854 19.0645L145.407 19.5797L146.142 19.7539L146.545 19.5779L147.724 18.7793L148.253 18.6483L148.865 18.7246L148.548 17.9349L148.094 17.4458L147.697 17.2239L147.327 16.7639L146.512 16.1328L146.021 15.8348L145.521 15.6293L145.254 15.627L144.969 15.404L144.844 15.4395L144.573 15.2358L144.33 15.1668L144.288 15.0561L143.99 15.0014L143.988 14.9146L143.723 14.6571L143.862 14.4166L143.883 14.0486L143.943 14.0564L143.733 13.8629" stroke="black" stroke-width="1.5" stroke-linecap="round" stroke-linejoin="round"/>
<path d="M138.802 7.04105L138.965 7.42053L138.891 7.4359L138.992 7.43746L139.041 7.53305L138.945 7.45179L139.081 7.41194L139.169 7.13689L138.769 6.79387L137.811 6.40787L137.008 5.89503L136.598 5.45382L136.4 5.02667L136.165 4.89201L136.14 4.60447L136.417 3.34802L136.61 3.00552L137.502 2.44554L138.035 1.90613L138.53 1.22712L138.726 1.09194L138.946 1L139.026 1.08257L138.961 1.15132L139.601 2.38172L139.706 2.78491L140.156 3.32041L140.472 4.00984L140.706 4.34818L140.876 4.45418L140.948 4.67271L141.183 4.91129L141.21 5.10194L141.387 5.13658L141.722 5.02615L141.569 5.08944L141.601 5.1707" stroke="black" stroke-width="1.5" stroke-linecap="round" stroke-linejoin="round"/>
<path d="M141.488 11.031L141.55 11.2648L141.484 11.4326L141.374 11.425L141.448 11.437L141.458 11.2904L141.347 11.207L141.201 10.7773L141.059 10.8296L141.023 10.9609L141.172 12.0553L141.265 12.3491L141.387 12.3694L142.102 11.7592L142.993 10.5483L143.065 10.3397L142.791 10.4905L142.208 10.4676L141.616 10.3387L141.461 10.2014" stroke="black" stroke-width="1.5" stroke-linecap="round" stroke-linejoin="round"/>
<path d="M321.484 48.1787L320.863 47.9299L320.921 47.8884L320.708 47.6999L319.105 46.8167L317.446 45.297L317.109 44.9438L317.169 44.8966L316.958 44.61L316.028 43.9059L315.681 43.4365L315.611 43.1512L314.215 41.5961L314.142 41.2854L313.913 41.1675L313.839 40.9L312.9 39.4018L311.527 37.9015L311.41 37.6862L311.478 37.5205L311.158 37.2949L310.378 36.2111L310.123 36.0665L309.981 35.7012L309.531 35.1572L309.338 34.6332L308.819 33.977L307.817 33.1527L307.054 32.8038L306.517 32.2166L306.152 32.0053L305.972 31.6806L305.216 31.1024L304.02 29.8632L303.894 29.6185L303.273 29.1568L301.869 28.1742L301.406 28.0536L300.367 27.4001L299.345 26.5437L297.61 25.7261L296.834 25.6869L296.031 25.931L295.523 26.2042L295.458 26.7787L295.616 26.7961L295.432 26.9059L295.308 27.2073L295.493 27.6087L295.4 27.7028L295.607 28.3014L295.737 28.3067L295.69 28.4852L296.016 28.6653L296.057 28.8002L296.918 29.4501L297.027 29.6741L298.098 30.5767L298.55 31.3819L298.887 31.6919L299.169 31.7924L300.092 32.92L300.122 33.0854L301.085 34.0714L301.488 34.7196L301.458 34.8669L301.747 35.1367L301.692 35.3319L302.068 35.5482L302.908 36.4528L303.16 36.5717L304.034 37.6481L304.399 38.2504L304.405 38.4784L304.606 38.6558L304.714 38.9367L304.888 39.0208L304.897 39.5749L304.897 39.5002L304.341 39.4426L304.154 39.2511L303.624 39.0482L303.054 38.615L302.693 38.4807L301.055 37.1402L300.196 36.6132L300.117 36.4652L299.701 36.3383L299.498 35.9965L299.079 35.8053L298.844 35.4464L298.341 35.0527L297.727 34.0952L297.232 33.6402L296.668 33.456L296.705 33.3904L296.424 33.1932L295.88 33.0094L294.615 32.1165L291.814 30.7642L290.296 29.8301L288.249 28.9054L286.153 28.2163L284.152 27.7095L283.392 27.9535L282.977 28.2163L282.919 28.3623L283.014 28.4487L282.944 28.6405L283.054 28.6985L282.958 28.7818L283.073 28.8036L283.019 28.9539L283.757 29.8445L285.344 30.9597L285.663 31.3304L285.951 31.489L285.918 31.6062L286.385 31.8041L287.042 32.3127L288.353 32.9719L288.661 33.2267L289.004 33.3432L289.314 33.6281L290.499 34.288L291.014 34.813L292.841 35.954L295.103 37.0434L295.059 37.1144L297.217 38.7121L297.495 39.1078L298.194 39.6659L298.179 39.8779L298.345 39.9438L298.205 40.5307L298.026 40.7219L297.664 40.7641L296.131 40.3426L290.222 37.7355L288.209 37.0926L285.637 36.1036L284.312 35.7347L281.458 35.3045L279.483 35.1839L278.878 35.0001L278.146 34.9342L277.773 34.9837L276.869 35.4598L276.885 35.6814L276.783 35.7628L277.608 37.0297L279.674 38.0917L280.075 38.4724L282.831 39.6288L286.64 40.815L288.864 41.8144L292.362 43.012L293.816 43.7844L293.945 43.9427L294.219 43.9936L294.816 44.548L294.739 44.5916L295.14 44.8112L294.917 45.1159L294.386 45.3646L293.114 45.3991L291.649 45.157L287.096 43.9695L281.204 43.3843L279.647 43.4137L277.958 43.2497L276.358 43.4633L275.788 43.7813L275.518 43.8249L275.467 43.9397L274.457 44.2477L274.087 44.5136L274.126 44.6294L274 44.6461L274.322 44.6833L274.512 44.9813L274.828 45.2093L278.242 46.896L279.891 47.2516L282.24 48.1278L283.422 48.324L285.266 49.083L287.049 49.3066L289.404 49.8641L290.589 50.0291L291.068 50.149L291.672 50.5551L291.668 50.9522L291.419 51.2783L290.559 51.5598L287.732 51.6439L285.739 51.3737L285.013 51.4614L284.505 51.6264L284.564 51.6817L283.952 51.741L283.435 51.9656L283.231 52.1159L283.261 52.6861L283.129 52.7835L283.286 52.9175L283.15 53.0008L283.834 53.5563L283.954 53.9198L284.11 53.9654L284.388 54.3092L285.549 54.6819L286.31 54.8057L286.433 54.9202L288.048 55.2236L293.446 55.7033L296.226 56.1262L296.497 56.2611L298.347 56.5363L298.52 56.6867L298.98 56.7499L302.099 56.4824L303.45 56.4757L303.856 56.302L305.969 56.0452L306.756 56.089L306.884 56.2106L308.03 56.4098L309.012 56.3756L311.149 57.0824L311.748 57.4236L312.989 57.7554L313.219 57.8561L313.209 57.9793L313.497 58.2107L314.824 58.6379L315.252 58.8769" stroke="black" stroke-width="1.5" stroke-linecap="round" stroke-linejoin="round"/>
<path d="M322.185 49.6792L322.088 49.4775L322.251 49.5806L322.191 49.8052L322.535 50.2807L322.844 51.1238L322.768 51.13L322.785 51.6778L322.502 52.9299L322.49 53.3717L322.217 53.781L322.126 54.279L321.812 55.0397L320.922 56.4407L320.961 56.5957L320.772 56.7612L320.654 57.1L319.659 57.9861L319.649 58.0904L319.118 58.3118L318.901 58.2723L318.957 58.3078L318.883 58.3955L318.045 58.9594L317.731 59.0521L317.075 59.0089L316.758 59.1667L316.646 59.09L316.751 58.9809L316.713 59.0484L316.537 58.9321" stroke="black" stroke-width="1.5" stroke-linecap="round" stroke-linejoin="round"/>
<path d="M286.076 11.9402L286.214 12.1365L286.202 12.3002L286.314 12.3885L286.223 12.9294L286.319 13.4224L286.435 13.5403L286.463 14.1461L286.561 14.3498L286.522 14.9557L286.622 15.629L286.567 15.7625L286.677 16.1631L286.791 17.429L286.74 18.846L286.953 19.5069L286.992 20.8541L286.929 21.1275L286.989 21.5089L286.753 22.4469L286.812 23.225L286.767 23.4258L286.679 23.4711L286.763 23.5695L286.686 23.6152L286.765 23.6667L286.822 23.94L286.68 24.2072L286.75 24.2856L286.651 24.4191L286.593 24.8122L286.604 25.0267L286.687 25.07L286.593 25.3102L286.667 25.3268L286.528 25.4094L286.587 25.7372L286.521 26.0235L286.456 26.0448L286.588 26.2428L286.481 26.3624L286.516 26.5315L286.455 26.5691L286.511 26.5918L286.423 26.6703L286.501 26.7216L286.367 26.7878L286.372 26.917L286.236 26.9803L286.292 27.0281L286.193 27.09" stroke="black" stroke-width="1.5" stroke-linecap="round" stroke-linejoin="round"/>
<path d="M285.887 33.2003L285.578 33.2654L285.778 33.3313L285.832 33.653L285.603 34.5052L285.402 35.0105L285.36 34.9412L285.43 34.9485" stroke="black" stroke-width="1.5" stroke-linecap="round" stroke-linejoin="round"/>
<path d="M283.686 40.715L283.598 40.7137L283.67 40.7885L283.666 41.0297L283.483 41.9363L283.213 42.5679" stroke="black" stroke-width="1.5" stroke-linecap="round" stroke-linejoin="round"/>
<path d="M280.628 49.3005L280.452 49.4612L280.216 50.2345L279.956 50.44L279.374 51.2695L278.024 54.0028L278.018 54.157L277.143 55.3446L276.413 57.1439L275.935 57.9841L275.752 58.162L275.798 58.2433L275.699 58.1961L275.772 58.2631L275.864 58.2136L275.755 58.1651L275.966 57.8622" stroke="black" stroke-width="1.5" stroke-linecap="round" stroke-linejoin="round"/>
<path d="M284.767 8.94624L284.694 9.05355L284.434 8.12059L284.141 7.67365L283.769 7.44549L283.34 7.39757L282.508 7.07616L280.286 6.84982L279.062 7.14414L278.67 7.27749L278.537 7.42387L277.913 7.59056L277.884 7.68016L277.667 7.74163L276.974 8.21227L276.523 8.68709L275.83 9.67422L275.765 9.94301L275.534 10.1055L275.515 10.3163L275.33 10.3433L275.331 10.5184L275.073 10.7494L274.878 11.112L274.704 12.1553L274.715 12.57L274.626 12.7375L274.757 13.3331L274.702 13.3594L274.944 13.5912L274.931 14.0582L275.105 14.5393L275.255 14.7003L275.621 14.805L275.848 14.7794L276.344 14.4114L276.84 14.1926L278.088 14.2203L278.523 14.0064L279.099 13.4975L279.642 13.1677L279.989 13.1146L280.48 13.2277L280.854 13.1318L282.148 12.4546L282.568 12.353L282.97 12.5518L283.362 12.8864L283.984 13.7163L284.13 13.7783L284.786 13.6342L285.495 13.7928L285.911 13.6311L286.481 12.87L287.036 12.557" stroke="black" stroke-width="1.5" stroke-linecap="round" stroke-linejoin="round"/>
<path d="M286.604 8.07583L286.648 8.60534L286.602 8.18756L286.829 7.53225L286.867 7.12151L287.072 6.89205L287.045 6.80766L287.59 6.2159L288.249 5.93174L288.997 5.739L289.054 5.64446L288.991 5.56007L289.189 5.47959L289.445 5.15297L289.635 5.08968L289.862 4.86595L290.569 3.73088L290.806 3.54726L290.872 3.33915L291.142 3.01384L291.334 2.96383L291.403 2.8547L292.31 2.57367L293.172 2.07333L293.973 2.16293L294.135 2.07932L294.476 2.08062L295.129 2.26972L295.545 2.54684L295.784 2.8284L296.032 3.65925L296.232 4.04291L296.277 4.37343L296.169 5.07588L295.989 5.23372L296.024 5.39155L295.785 5.75698L294.703 7.13974L294.401 7.41479L293.598 7.90106L293.499 8.0503L292.734 8.4014L291.994 9.06947L291.345 10.0944L291.363 9.85605L291.429 9.92455L291.33 10.0761L291.259 10.8773L291.288 11.0747L291.462 11.1615L292.535 10.7885L293.491 10.1835L293.836 9.90111L293.946 9.69431L295.186 9.06062L295.686 8.98717L296.211 9.10359L296.618 9.49975L296.978 10.0738L297.112 10.16L297.122 10.3645L297.516 11.0758L297.819 12.0119L297.936 13.2165L297.516 13.8877L296.925 14.1419L296.329 14.2726L295.352 14.2797L294.689 14.4404L294.445 14.587L294.025 14.6258L293.333 14.9769L292.906 15.0415L292.284 14.9688L292.236 14.8472L291.975 14.8311L291.831 14.711L291.261 14.6555L290.932 14.6704L290.838 14.754L290.392 14.4292L290.045 14.288L289.919 14.3156L289.751 14.1487L289.571 14.213L289.422 14.0945L289.392 14.1713L289.232 13.9562L288.941 14.158L288.784 14.1768L288.339 14.051L288.281 14.2653" stroke="black" stroke-width="1.5" stroke-linecap="round" stroke-linejoin="round"/>
<path d="M285.627 13.8405L285.704 14.2169L285.726 14.1585L285.652 14.1872L285.576 14.071L285.373 14.1101L285.2 14.2539L285.077 14.2372L284.301 14.8461L283.999 14.9503L282.724 15.7695L282.754 15.8536L282.454 16.0281L282.511 16.1109L282.023 16.5563L281.667 17.0629L281.653 17.2535L281.476 17.3616L281.424 17.6132L281.221 17.8096L281.227 17.9729L280.854 18.4493L280.884 18.604L280.741 19.0663L280.629 19.1614L280.547 19.5422L280.321 19.9545L280.309 20.2439L280.188 20.4212L280.202 20.7192L280.133 20.8494L280.251 21.6644L280.502 22.0415L280.732 22.0751L281.446 21.9715L282.657 21.4354L283.372 21.3096L284.053 21.0218L284.787 20.4501L284.814 20.2931L284.971 20.217L285.118 19.961L285.548 19.7206L286.016 19.3234L286.301 19.3033L286.371 19.2265L286.681 19.2921L287.293 19.182L287.64 19.289L287.7 19.4044L287.645 19.4325L287.943 19.5211L288.009 19.6336L288.203 19.6404L288.317 19.7828L288.396 19.7477L288.797 20.2303L288.994 20.2853L289.163 20.2155L290.046 19.3362L290.658 19.0353L290.854 19.0645L291.407 19.5797L292.142 19.7539L292.545 19.5779L293.724 18.7793L294.253 18.6483L294.865 18.7246L294.548 17.9349L294.094 17.4458L293.697 17.2239L293.327 16.7639L292.512 16.1328L292.021 15.8348L291.521 15.6293L291.254 15.627L290.969 15.404L290.844 15.4395L290.573 15.2358L290.33 15.1668L290.288 15.0561L289.99 15.0014L289.988 14.9146L289.723 14.6571L289.862 14.4166L289.883 14.0486L289.943 14.0564L289.733 13.8629" stroke="black" stroke-width="1.5" stroke-linecap="round" stroke-linejoin="round"/>
<path d="M284.802 7.04105L284.965 7.42053L284.89 7.4359L284.992 7.43746L285.04 7.53305L284.945 7.45179L285.081 7.41194L285.169 7.13689L284.769 6.79387L283.811 6.40787L283.008 5.89503L282.597 5.45382L282.4 5.02667L282.165 4.89201L282.14 4.60447L282.417 3.34802L282.61 3.00552L283.501 2.44554L284.035 1.90613L284.53 1.22712L284.726 1.09194L284.946 1L285.026 1.08257L284.961 1.15132L285.601 2.38172L285.706 2.78491L286.156 3.32041L286.472 4.00984L286.706 4.34818L286.875 4.45418L286.948 4.67271L287.183 4.91129L287.21 5.10194L287.387 5.13658L287.722 5.02615L287.569 5.08944L287.601 5.1707" stroke="black" stroke-width="1.5" stroke-linecap="round" stroke-linejoin="round"/>
<path d="M287.488 11.031L287.55 11.2648L287.484 11.4326L287.374 11.425L287.448 11.437L287.458 11.2904L287.347 11.207L287.201 10.7773L287.059 10.8296L287.023 10.9609L287.172 12.0553L287.265 12.3491L287.387 12.3694L288.102 11.7592L288.993 10.5483L289.065 10.3397L288.791 10.4905L288.208 10.4676L287.616 10.3387L287.461 10.2014" stroke="black" stroke-width="1.5" stroke-linecap="round" stroke-linejoin="round"/>
<path d="M467.484 48.1787L466.863 47.9299L466.921 47.8884L466.708 47.6999L465.105 46.8167L463.446 45.297L463.109 44.9438L463.169 44.8966L462.958 44.61L462.028 43.9059L461.681 43.4365L461.611 43.1512L460.215 41.5961L460.142 41.2854L459.913 41.1675L459.839 40.9L458.9 39.4018L457.527 37.9015L457.41 37.6862L457.478 37.5205L457.158 37.2949L456.378 36.2111L456.123 36.0665L455.981 35.7012L455.531 35.1572L455.338 34.6332L454.819 33.977L453.817 33.1527L453.054 32.8038L452.517 32.2166L452.152 32.0053L451.972 31.6806L451.216 31.1024L450.02 29.8632L449.894 29.6185L449.273 29.1568L447.869 28.1742L447.406 28.0536L446.367 27.4001L445.345 26.5437L443.61 25.7261L442.834 25.6869L442.031 25.931L441.523 26.2042L441.458 26.7787L441.616 26.7961L441.432 26.9059L441.308 27.2073L441.493 27.6087L441.4 27.7028L441.607 28.3014L441.737 28.3067L441.69 28.4852L442.016 28.6653L442.057 28.8002L442.918 29.4501L443.027 29.6741L444.098 30.5767L444.55 31.3819L444.887 31.6919L445.169 31.7924L446.092 32.92L446.122 33.0854L447.085 34.0714L447.488 34.7196L447.458 34.8669L447.747 35.1367L447.692 35.3319L448.068 35.5482L448.908 36.4528L449.16 36.5717L450.034 37.6481L450.399 38.2504L450.405 38.4784L450.606 38.6558L450.714 38.9367L450.888 39.0208L450.897 39.5749L450.897 39.5002L450.341 39.4426L450.154 39.2511L449.624 39.0482L449.054 38.615L448.693 38.4807L447.055 37.1402L446.196 36.6132L446.117 36.4652L445.701 36.3383L445.498 35.9965L445.079 35.8053L444.844 35.4464L444.341 35.0527L443.727 34.0952L443.232 33.6402L442.668 33.456L442.705 33.3904L442.424 33.1932L441.88 33.0094L440.615 32.1165L437.814 30.7642L436.296 29.8301L434.249 28.9054L432.153 28.2163L430.152 27.7095L429.392 27.9535L428.977 28.2163L428.919 28.3623L429.014 28.4487L428.944 28.6405L429.054 28.6985L428.958 28.7818L429.073 28.8036L429.019 28.9539L429.757 29.8445L431.344 30.9597L431.663 31.3304L431.951 31.489L431.918 31.6062L432.385 31.8041L433.042 32.3127L434.353 32.9719L434.661 33.2267L435.004 33.3432L435.314 33.6281L436.499 34.288L437.014 34.813L438.841 35.954L441.103 37.0434L441.059 37.1144L443.217 38.7121L443.495 39.1078L444.194 39.6659L444.179 39.8779L444.345 39.9438L444.205 40.5307L444.026 40.7219L443.664 40.7641L442.131 40.3426L436.222 37.7355L434.209 37.0926L431.637 36.1036L430.312 35.7347L427.458 35.3045L425.483 35.1839L424.878 35.0001L424.146 34.9342L423.773 34.9837L422.869 35.4598L422.885 35.6814L422.783 35.7628L423.608 37.0297L425.674 38.0917L426.075 38.4724L428.831 39.6288L432.64 40.815L434.864 41.8144L438.362 43.012L439.816 43.7844L439.945 43.9427L440.219 43.9936L440.816 44.548L440.739 44.5916L441.14 44.8112L440.917 45.1159L440.386 45.3646L439.114 45.3991L437.649 45.157L433.096 43.9695L427.204 43.3843L425.647 43.4137L423.958 43.2497L422.358 43.4633L421.788 43.7813L421.518 43.8249L421.467 43.9397L420.457 44.2477L420.087 44.5136L420.126 44.6294L420 44.6461L420.322 44.6833L420.512 44.9813L420.828 45.2093L424.242 46.896L425.891 47.2516L428.24 48.1278L429.422 48.324L431.266 49.083L433.049 49.3066L435.404 49.8641L436.589 50.0291L437.068 50.149L437.672 50.5551L437.668 50.9522L437.419 51.2783L436.559 51.5598L433.732 51.6439L431.739 51.3737L431.013 51.4614L430.505 51.6264L430.564 51.6817L429.952 51.741L429.435 51.9656L429.231 52.1159L429.261 52.6861L429.129 52.7835L429.286 52.9175L429.15 53.0008L429.834 53.5563L429.954 53.9198L430.11 53.9654L430.388 54.3092L431.549 54.6819L432.31 54.8057L432.433 54.9202L434.048 55.2236L439.446 55.7033L442.226 56.1262L442.497 56.2611L444.347 56.5363L444.52 56.6867L444.98 56.7499L448.099 56.4824L449.45 56.4757L449.856 56.302L451.969 56.0452L452.756 56.089L452.884 56.2106L454.03 56.4098L455.012 56.3756L457.149 57.0824L457.748 57.4236L458.989 57.7554L459.219 57.8561L459.209 57.9793L459.497 58.2107L460.824 58.6379L461.252 58.8769" stroke="black" stroke-width="1.5" stroke-linecap="round" stroke-linejoin="round"/>
<path d="M468.185 49.6792L468.088 49.4775L468.251 49.5806L468.191 49.8052L468.535 50.2807L468.844 51.1238L468.768 51.13L468.785 51.6778L468.502 52.9299L468.49 53.3717L468.217 53.781L468.126 54.279L467.812 55.0397L466.922 56.4407L466.961 56.5957L466.772 56.7612L466.654 57.1L465.659 57.9861L465.649 58.0904L465.118 58.3118L464.901 58.2723L464.957 58.3078L464.883 58.3955L464.045 58.9594L463.731 59.0521L463.075 59.0089L462.758 59.1667L462.646 59.09L462.751 58.9809L462.713 59.0484L462.537 58.9321" stroke="black" stroke-width="1.5" stroke-linecap="round" stroke-linejoin="round"/>
<path d="M432.076 11.9402L432.214 12.1365L432.202 12.3002L432.314 12.3885L432.223 12.9294L432.319 13.4224L432.435 13.5403L432.463 14.1461L432.561 14.3498L432.522 14.9557L432.622 15.629L432.567 15.7625L432.677 16.1631L432.791 17.429L432.74 18.846L432.953 19.5069L432.992 20.8541L432.929 21.1275L432.989 21.5089L432.753 22.4469L432.812 23.225L432.767 23.4258L432.679 23.4711L432.763 23.5695L432.686 23.6152L432.765 23.6667L432.822 23.94L432.68 24.2072L432.75 24.2856L432.651 24.4191L432.593 24.8122L432.604 25.0267L432.687 25.07L432.593 25.3102L432.667 25.3268L432.528 25.4094L432.587 25.7372L432.521 26.0235L432.456 26.0448L432.588 26.2428L432.481 26.3624L432.516 26.5315L432.455 26.5691L432.511 26.5918L432.423 26.6703L432.501 26.7216L432.367 26.7878L432.372 26.917L432.236 26.9803L432.292 27.0281L432.193 27.09" stroke="black" stroke-width="1.5" stroke-linecap="round" stroke-linejoin="round"/>
<path d="M431.887 33.2003L431.578 33.2654L431.778 33.3313L431.832 33.653L431.603 34.5052L431.402 35.0105L431.36 34.9412L431.43 34.9485" stroke="black" stroke-width="1.5" stroke-linecap="round" stroke-linejoin="round"/>
<path d="M429.686 40.715L429.598 40.7137L429.67 40.7885L429.666 41.0297L429.483 41.9363L429.213 42.5679" stroke="black" stroke-width="1.5" stroke-linecap="round" stroke-linejoin="round"/>
<path d="M426.628 49.3005L426.452 49.4612L426.216 50.2345L425.956 50.44L425.374 51.2695L424.024 54.0028L424.018 54.157L423.143 55.3446L422.413 57.1439L421.935 57.9841L421.752 58.162L421.798 58.2433L421.699 58.1961L421.772 58.2631L421.864 58.2136L421.755 58.1651L421.966 57.8622" stroke="black" stroke-width="1.5" stroke-linecap="round" stroke-linejoin="round"/>
<path d="M430.767 8.94624L430.694 9.05355L430.434 8.12059L430.141 7.67365L429.769 7.44549L429.34 7.39757L428.508 7.07616L426.286 6.84982L425.062 7.14414L424.67 7.27749L424.537 7.42387L423.913 7.59056L423.884 7.68016L423.667 7.74163L422.974 8.21227L422.523 8.68709L421.83 9.67422L421.765 9.94301L421.534 10.1055L421.515 10.3163L421.33 10.3433L421.331 10.5184L421.073 10.7494L420.878 11.112L420.704 12.1553L420.715 12.57L420.626 12.7375L420.757 13.3331L420.702 13.3594L420.944 13.5912L420.931 14.0582L421.105 14.5393L421.255 14.7003L421.621 14.805L421.848 14.7794L422.344 14.4114L422.84 14.1926L424.088 14.2203L424.523 14.0064L425.099 13.4975L425.642 13.1677L425.989 13.1146L426.48 13.2277L426.854 13.1318L428.148 12.4546L428.568 12.353L428.97 12.5518L429.362 12.8864L429.984 13.7163L430.13 13.7783L430.786 13.6342L431.495 13.7928L431.911 13.6311L432.481 12.87L433.036 12.557" stroke="black" stroke-width="1.5" stroke-linecap="round" stroke-linejoin="round"/>
<path d="M432.604 8.07583L432.648 8.60534L432.602 8.18756L432.829 7.53225L432.867 7.12151L433.072 6.89205L433.045 6.80766L433.59 6.2159L434.249 5.93174L434.997 5.739L435.054 5.64446L434.991 5.56007L435.189 5.47959L435.445 5.15297L435.635 5.08968L435.862 4.86595L436.569 3.73088L436.806 3.54726L436.872 3.33915L437.142 3.01384L437.334 2.96383L437.403 2.8547L438.31 2.57367L439.172 2.07333L439.973 2.16293L440.135 2.07932L440.476 2.08062L441.129 2.26972L441.545 2.54684L441.784 2.8284L442.032 3.65925L442.232 4.04291L442.277 4.37343L442.169 5.07588L441.989 5.23372L442.024 5.39155L441.785 5.75698L440.703 7.13974L440.401 7.41479L439.598 7.90106L439.499 8.0503L438.734 8.4014L437.994 9.06947L437.345 10.0944L437.363 9.85605L437.429 9.92455L437.33 10.0761L437.259 10.8773L437.288 11.0747L437.462 11.1615L438.535 10.7885L439.491 10.1835L439.836 9.90111L439.946 9.69431L441.186 9.06062L441.686 8.98717L442.211 9.10359L442.618 9.49975L442.978 10.0738L443.112 10.16L443.122 10.3645L443.516 11.0758L443.819 12.0119L443.936 13.2165L443.516 13.8877L442.925 14.1419L442.329 14.2726L441.352 14.2797L440.689 14.4404L440.445 14.587L440.025 14.6258L439.333 14.9769L438.906 15.0415L438.284 14.9688L438.236 14.8472L437.975 14.8311L437.831 14.711L437.261 14.6555L436.932 14.6704L436.838 14.754L436.392 14.4292L436.045 14.288L435.919 14.3156L435.751 14.1487L435.571 14.213L435.422 14.0945L435.392 14.1713L435.232 13.9562L434.941 14.158L434.784 14.1768L434.339 14.051L434.281 14.2653" stroke="black" stroke-width="1.5" stroke-linecap="round" stroke-linejoin="round"/>
<path d="M431.627 13.8405L431.704 14.2169L431.726 14.1585L431.652 14.1872L431.576 14.071L431.373 14.1101L431.2 14.2539L431.077 14.2372L430.301 14.8461L429.999 14.9503L428.724 15.7695L428.754 15.8536L428.454 16.0281L428.511 16.1109L428.023 16.5563L427.667 17.0629L427.653 17.2535L427.476 17.3616L427.424 17.6132L427.221 17.8096L427.227 17.9729L426.854 18.4493L426.884 18.604L426.741 19.0663L426.629 19.1614L426.547 19.5422L426.321 19.9545L426.309 20.2439L426.188 20.4212L426.202 20.7192L426.133 20.8494L426.251 21.6644L426.502 22.0415L426.732 22.0751L427.446 21.9715L428.657 21.4354L429.372 21.3096L430.053 21.0218L430.787 20.4501L430.814 20.2931L430.971 20.217L431.118 19.961L431.548 19.7206L432.016 19.3234L432.301 19.3033L432.371 19.2265L432.681 19.2921L433.293 19.182L433.64 19.289L433.7 19.4044L433.645 19.4325L433.943 19.5211L434.009 19.6336L434.203 19.6404L434.317 19.7828L434.396 19.7477L434.797 20.2303L434.994 20.2853L435.163 20.2155L436.046 19.3362L436.658 19.0353L436.854 19.0645L437.407 19.5797L438.142 19.7539L438.545 19.5779L439.724 18.7793L440.253 18.6483L440.865 18.7246L440.548 17.9349L440.094 17.4458L439.697 17.2239L439.327 16.7639L438.512 16.1328L438.021 15.8348L437.521 15.6293L437.254 15.627L436.969 15.404L436.844 15.4395L436.573 15.2358L436.33 15.1668L436.288 15.0561L435.99 15.0014L435.988 14.9146L435.723 14.6571L435.862 14.4166L435.883 14.0486L435.943 14.0564L435.733 13.8629" stroke="black" stroke-width="1.5" stroke-linecap="round" stroke-linejoin="round"/>
<path d="M430.802 7.04105L430.965 7.42053L430.89 7.4359L430.992 7.43746L431.04 7.53305L430.945 7.45179L431.081 7.41194L431.169 7.13689L430.769 6.79387L429.811 6.40787L429.008 5.89503L428.597 5.45382L428.4 5.02667L428.165 4.89201L428.14 4.60447L428.417 3.34802L428.61 3.00552L429.501 2.44554L430.035 1.90613L430.53 1.22712L430.726 1.09194L430.946 1L431.026 1.08257L430.961 1.15132L431.601 2.38172L431.706 2.78491L432.156 3.32041L432.472 4.00984L432.706 4.34818L432.875 4.45418L432.948 4.67271L433.183 4.91129L433.21 5.10194L433.387 5.13658L433.722 5.02615L433.569 5.08944L433.601 5.1707" stroke="black" stroke-width="1.5" stroke-linecap="round" stroke-linejoin="round"/>
<path d="M433.488 11.031L433.55 11.2648L433.484 11.4326L433.374 11.425L433.448 11.437L433.458 11.2904L433.347 11.207L433.201 10.7773L433.059 10.8296L433.023 10.9609L433.172 12.0553L433.265 12.3491L433.387 12.3694L434.102 11.7592L434.993 10.5483L435.065 10.3397L434.791 10.4905L434.208 10.4676L433.616 10.3387L433.461 10.2014" stroke="black" stroke-width="1.5" stroke-linecap="round" stroke-linejoin="round"/>
<path d="M343.094 47.9288L343.781 47.6531L343.717 47.6075L343.953 47.3986L345.73 46.4196L347.569 44.7349L347.943 44.3438L347.876 44.2911L348.11 43.9735L349.14 43.1935L349.526 42.6732L349.602 42.3571L351.15 40.6334L351.231 40.2886L351.485 40.1584L351.568 39.8619L352.608 38.2009L354.129 36.5381L354.259 36.2995L354.183 36.1162L354.539 35.8657L355.403 34.6645L355.686 34.5046L355.843 34.0994L356.342 33.4968L356.556 32.9156L357.131 32.1883L358.242 31.2747L359.087 30.8884L359.682 30.2376L360.087 30.0034L360.287 29.6431L361.124 29.0026L362.45 27.6292L362.59 27.3576L363.278 26.8459L364.834 25.7568L365.348 25.6232L366.498 24.8992L367.632 23.95L369.554 23.0434L370.415 23L371.304 23.2705L371.868 23.5737L371.94 24.2105L371.765 24.2298L371.968 24.3515L372.105 24.6854L371.901 25.13L372.005 25.2343L371.775 25.8978L371.63 25.9041L371.683 26.1015L371.321 26.3015L371.276 26.451L370.321 27.1709L370.201 27.4192L369.014 28.4196L368.513 29.3121L368.14 29.6557L367.826 29.767L366.803 31.0168L366.77 31.2001L365.703 32.293L365.256 33.0114L365.289 33.175L364.969 33.4741L365.03 33.6901L364.613 33.9302L363.682 34.9328L363.403 35.0642L362.434 36.2576L362.03 36.9248L362.024 37.1775L361.8 37.3746L361.68 37.6855L361.488 37.779L361.478 38.3932L361.477 38.31L362.094 38.2462L362.301 38.0343L362.889 37.8091L363.521 37.3289L363.921 37.1801L365.736 35.6947L366.688 35.1102L366.776 34.9462L367.238 34.8059L367.462 34.4271L367.926 34.2152L368.187 33.8174L368.744 33.381L369.426 32.3197L369.973 31.815L370.599 31.6109L370.557 31.5382L370.869 31.3196L371.472 31.1163L372.873 30.1266L375.978 28.6278L377.661 27.5921L379.93 26.5672L382.253 25.8035L384.471 25.2421L385.313 25.5122L385.773 25.8035L385.838 25.9653L385.732 26.0614L385.809 26.2737L385.687 26.3382L385.794 26.4303L385.667 26.4544L385.726 26.6214L384.908 27.6085L383.149 28.8441L382.796 29.2549L382.477 29.4308L382.514 29.5611L381.996 29.7804L381.268 30.3437L379.815 31.0743L379.474 31.3567L379.093 31.4859L378.75 31.802L377.436 32.5334L376.865 33.1149L374.84 34.3799L372.334 35.587L372.382 35.6661L369.991 37.4369L369.682 37.8755L368.908 38.4937L368.924 38.7286L368.741 38.8017L368.895 39.4526L369.094 39.6641L369.495 39.7112L371.194 39.2441L377.743 36.3545L379.974 35.642L382.825 34.5458L384.294 34.1369L387.457 33.66L389.645 33.5261L390.316 33.3227L391.128 33.2492L391.541 33.3045L392.543 33.8318L392.526 34.0775L392.638 34.1677L391.725 35.5722L389.434 36.7493L388.989 37.1712L385.935 38.4525L381.713 39.7677L379.249 40.8753L375.371 42.2027L373.76 43.0588L373.617 43.2343L373.313 43.2903L372.652 43.9048L372.737 43.9531L372.292 44.1969L372.539 44.5345L373.128 44.8099L374.538 44.8485L376.162 44.5802L381.207 43.264L387.739 42.6153L389.464 42.648L391.336 42.4658L393.109 42.7029L393.741 43.0554L394.04 43.1037L394.097 43.2309L395.217 43.5723L395.626 43.867L395.583 43.9954L395.723 44.0139L395.365 44.0551L395.156 44.3854L394.805 44.6377L391.021 46.5076L389.193 46.9013L386.59 47.8728L385.279 48.0902L383.236 48.9311L381.259 49.179L378.649 49.7972L377.337 49.9798L376.806 50.1126L376.135 50.5631L376.141 51.0029L376.417 51.3643L377.369 51.6764L380.503 51.7695L382.712 51.47L383.516 51.5676L384.08 51.7506L384.014 51.8114L384.692 51.8771L385.265 52.1265L385.491 52.2931L385.458 52.9247L385.605 53.0327L385.43 53.1815L385.581 53.2735L384.822 53.8895L384.69 54.2925L384.517 54.343L384.209 54.7241L382.922 55.1371L382.079 55.2744L381.942 55.4009L380.153 55.7371L374.17 56.2692L371.088 56.7379L370.789 56.8871L368.737 57.1921L368.546 57.3587L368.037 57.4292L364.579 57.1324L363.081 57.1253L362.632 56.9324L360.29 56.6481L359.418 56.6964L359.275 56.8314L358.005 57.0518L356.918 57.0144L354.549 57.7977L353.885 58.1758L352.509 58.5432L352.254 58.6553L352.265 58.7918L351.946 59.0483L350.475 59.5218L350 59.7867" stroke="black" stroke-width="1.5" stroke-linecap="round" stroke-linejoin="round"/>
<path d="M342.32 51L342.163 51.9923L342 52.2262L342.072 52.5718L342.29 52.7975L342.226 52.9992L342.397 53.1241L342.311 53.3004L342.554 53.4178L342.381 53.5544L342.349 53.8806L342.568 55.2246L342.751 55.5179L342.616 55.5873L342.768 55.7522L342.557 55.8398L343.392 56.5002L343.688 57.2893L344.254 57.5411L344.195 57.6244L344.72 58.2061L345.31 58.4361L345.639 58.7891L345.549 58.8278L345.856 58.9333L345.779 58.9737L346.368 59.2606L347.095 59.3497L347.594 59.7696L348.183 59.8111L348.543 60L348.64 59.878L349 59.8076L348.834 59.692" stroke="black" stroke-width="1.5" stroke-linecap="round" stroke-linejoin="round"/>
<path d="M363.763 17.3762L364.385 19.7595L364.808 20.7667L365.6 23.5475L365.785 23.7587L365.859 24.4138L366.122 25.2224L366.997 27.1523L367.825 28.5848L367.788 28.7293L368.639 29.9854L368.948 30.1394L368.806 30.1974L368.827 30.2875L369.074 30.5256L369.183 30.7907L369.109 30.826L369.247 30.8689L369.529 31.4247L369.511 31.5542L369.614 31.5949L369.628 32.0013L369.832 32.1493" stroke="black" stroke-width="1.5" stroke-linecap="round" stroke-linejoin="round"/>
<path d="M360.382 19.2863L360.027 18.9168L360.191 18.8492L359.193 18.4008L358.429 17.4546L358.728 15.6573L357.404 15.1625L355.667 14.8389L354.135 14.1359L353.459 13.1236L352.625 12.3012V10.8188L350.356 11.0319L349.612 10.1138L349.594 9.55484L349.185 8.82421L349.464 8.54844L346.364 7.49172L347.132 6.15233L347.237 5.62496L348.681 5.1489L350.425 5.21451L351.153 5.58499L352.211 6.64862L352.625 7.35951L354.275 8.24158L355.117 9.47342L355.62 9.87106L356.464 10.1952L357.379 10.1602L357.491 10.0398L357.799 10.8188L358.89 11.6066L359.49 11.5351L359.42 11.0886L359.681 11.0304L359.213 10.7201" stroke="black" stroke-width="1.5" stroke-linecap="round" stroke-linejoin="round"/>
<path d="M360.157 10.6679L360.345 10.5028L360.055 10.1281L360.15 9.48497L360.547 8.65494L360.556 8.00695L360.805 7.57257L361.02 6.11146L361.689 4.33924L362.341 3.18833L363.172 2.35163L363.021 2.24482L363.437 2.02407L363.993 1.35115L364.231 1.30664L364.239 1.11037L364.524 1L365.626 1.23454L365.713 1.94174L365.249 6.2561L364.743 7.70876L364.611 9.22907L364.166 10.3653L363.693 11.0863L363.467 11.9083L363.559 12.1713L363.226 12.6079L363.406 12.7134L363.361 12.8594L364.127 12.5323L364.621 11.9657L364.796 11.4926L364.713 11.3017L365.843 9.53704L367.191 8.38613L369.022 6.40786L369.992 5.71001L370.938 5.31036L371.555 5.25339L372.077 5.79191L372.022 6.07763L372.215 6.14039L371.891 6.31574L371.944 6.57431L371.695 6.68424L371.821 6.84446L371.685 7.20718L371.141 8.16538L370.92 8.31492L370.917 8.54947L369.635 9.88641L369.601 10.1405L368.32 10.9301L367.293 11.8309L366.812 12.4477L367.157 12.6742L367.991 12.7192L368.922 12.2648L371.123 10.7676L373.022 9.69236L374.613 8.11153L375.134 7.78931L376.39 7.49914L377.047 7.53162L377.716 7.69451L378.636 8.36209L378.686 8.23837L378.589 8.35498L378.746 8.93221L378.45 9.88597L377.86 10.4868L377.645 10.5237L377.251 11.0133L375.702 12.069L374.225 12.8438L373.404 13.0316L373.286 13.2982L373.015 13.3365L372.288 13.8541L372.239 14.1919L371.951 14.2466L372.11 14.5039L372.167 14.3641L373.102 14.9783L374.333 15.3619L373.266 16.6495L372.868 16.7425L372.402 17.1947L371.326 17.6829L370.676 17.6962L369.744 18.1052L367.617 19.4377L365.985 19.4235" stroke="black" stroke-width="1.5" stroke-linecap="round" stroke-linejoin="round"/>
<path d="M373.364 35.216C373.457 35.6554 374.051 35.6178 374.213 35.9863C374.253 36.0778 374.307 36.1867 374.371 36.2577C374.544 36.4505 374.675 36.656 374.782 36.8705" stroke="black" stroke-width="1.5" stroke-linecap="round"/>
<path d="M378.643 41.5189C378.688 42.0138 379.043 42.4041 379.194 42.8582" stroke="black" stroke-width="1.5" stroke-linecap="round"/>
<path d="M381.243 49.7914C381.243 50.0694 381.069 50.8629 381.4 50.9732" stroke="black" stroke-width="1.5" stroke-linecap="round"/>
<path d="M381.558 55.9367C381.558 56.4965 381.551 57.415 382.031 57.8101C382.261 57.9997 382.636 57.9879 382.814 58.2259C383.081 58.5824 383.174 59.1688 383.37 59.5609" stroke="black" stroke-width="1.5" stroke-linecap="round"/>
<path d="M51.0937 47.9288L51.7813 47.6531L51.7175 47.6075L51.9531 47.3986L53.7302 46.4196L55.5693 44.7349L55.9426 44.3438L55.8762 44.2911L56.1104 43.9735L57.1401 43.1935L57.5256 42.6732L57.6025 42.3571L59.1499 40.6334L59.2311 40.2886L59.485 40.1584L59.5677 39.8619L60.6078 38.2009L62.1293 36.5381L62.2595 36.2995L62.1834 36.1162L62.5386 35.8657L63.4032 34.6645L63.6856 34.5046L63.8433 34.0994L64.3416 33.4968L64.5561 32.9156L65.1309 32.1883L66.242 31.2747L67.0869 30.8884L67.6821 30.2376L68.0874 30.0034L68.2866 29.6431L69.1241 29.0026L70.45 27.6292L70.5903 27.3576L71.2783 26.8459L72.8338 25.7568L73.3478 25.6232L74.4981 24.8992L75.6318 23.95L77.5543 23.0434L78.4149 23L79.3044 23.2705L79.868 23.5737L79.94 24.2105L79.7652 24.2298L79.9679 24.3515L80.1055 24.6854L79.9014 25.13L80.0046 25.2343L79.7753 25.8978L79.6302 25.9041L79.6832 26.1015L79.3214 26.3015L79.2758 26.451L78.3214 27.1709L78.2008 27.4192L77.0137 28.4196L76.5127 29.3121L76.1398 29.6557L75.8262 29.767L74.8032 31.0168L74.7701 31.2001L73.7033 32.293L73.2561 33.0114L73.2891 33.175L72.9693 33.4741L73.0298 33.6901L72.613 33.9302L71.6824 34.9328L71.4033 35.0642L70.4341 36.2576L70.0296 36.9248L70.0236 37.1775L69.8002 37.3746L69.6804 37.6855L69.4878 37.779L69.4782 38.3932L69.4774 38.31L70.0941 38.2462L70.3012 38.0343L70.8894 37.8091L71.5213 37.3289L71.921 37.1801L73.7359 35.6947L74.6881 35.1102L74.7765 34.9462L75.2377 34.8059L75.4622 34.4271L75.9264 34.2152L76.1873 33.8174L76.7439 33.381L77.4256 32.3197L77.9733 31.815L78.5986 31.6109L78.557 31.5382L78.8691 31.3196L79.4717 31.1163L80.8733 30.1266L83.9785 28.6278L85.6613 27.5921L87.9298 26.5672L90.2535 25.8035L92.471 25.2421L93.313 25.5122L93.7728 25.8035L93.8377 25.9653L93.7324 26.0614L93.8092 26.2737L93.6871 26.3382L93.7943 26.4303L93.6667 26.4544L93.726 26.6214L92.9082 27.6085L91.1493 28.8441L90.7956 29.2549L90.4769 29.4308L90.514 29.5611L89.9959 29.7804L89.2683 30.3437L87.8147 31.0743L87.4737 31.3567L87.0926 31.4859L86.7497 31.802L85.4361 32.5334L84.865 33.1149L82.8397 34.3799L80.3337 35.587L80.3824 35.6661L77.9907 37.4369L77.682 37.8755L76.9076 38.4937L76.9239 38.7286L76.7406 38.8017L76.8949 39.4526L77.0938 39.6641L77.4946 39.7112L79.1945 39.2441L85.7434 36.3545L87.9739 35.642L90.8249 34.5458L92.294 34.1369L95.4568 33.66L97.6454 33.5261L98.3159 33.3227L99.1282 33.2492L99.5412 33.3045L100.543 33.8318L100.526 34.0775L100.639 34.1677L99.7246 35.5722L97.4339 36.7493L96.9893 37.1712L93.9346 38.4525L89.7128 39.7677L87.2488 40.8753L83.371 42.2027L81.7598 43.0588L81.6166 43.2343L81.313 43.2903L80.6518 43.9048L80.7371 43.9531L80.2922 44.1969L80.5393 44.5345L81.1279 44.8099L82.538 44.8485L84.1618 44.5802L89.2074 43.264L95.7388 42.6153L97.4643 42.648L99.3357 42.4658L101.109 42.7029L101.741 43.0554L102.041 43.1037L102.097 43.2309L103.217 43.5723L103.626 43.867L103.583 43.9954L103.723 44.0139L103.365 44.0551L103.156 44.3854L102.805 44.6377L99.0214 46.5076L97.193 46.9013L94.5903 47.8728L93.2793 48.0902L91.2361 48.9311L89.2594 49.179L86.6492 49.7972L85.3366 49.9798L84.806 50.1126L84.1355 50.5631L84.141 51.0029L84.4168 51.3643L85.3693 51.6764L88.5034 51.7695L90.7125 51.47L91.5163 51.5676L92.0799 51.7506L92.0139 51.8114L92.6918 51.8771L93.2655 52.1265L93.4915 52.2931L93.4581 52.9247L93.6051 53.0327L93.4299 53.1815L93.581 53.2735L92.8225 53.8895L92.6904 54.2925L92.5171 54.343L92.2091 54.7241L90.9222 55.1371L90.0787 55.2744L89.9421 55.4009L88.1528 55.7371L82.1702 56.2692L79.0884 56.7379L78.7886 56.8871L76.7372 57.1921L76.5457 57.3587L76.0366 57.4292L72.5793 57.1324L71.0812 57.1253L70.6318 56.9324L68.2896 56.6481L67.4179 56.6964L67.275 56.8314L66.0048 57.0518L64.9176 57.0144L62.5486 57.7977L61.8851 58.1758L60.5091 58.5432L60.2542 58.6553L60.2653 58.7918L59.9458 59.0483L58.4752 59.5218L58.0002 59.7867" stroke="black" stroke-width="1.5" stroke-linecap="round" stroke-linejoin="round"/>
<path d="M50.3197 51L50.1631 51.9923L50 52.2262L50.0719 52.5718L50.2898 52.7975L50.226 52.9992L50.3972 53.1241L50.3112 53.3004L50.5543 53.4178L50.3809 53.5544L50.3493 53.8806L50.568 55.2246L50.7508 55.5179L50.6159 55.5873L50.7679 55.7522L50.5568 55.8398L51.3915 56.5002L51.6877 57.2893L52.2544 57.5411L52.1949 57.6244L52.7201 58.2061L53.3095 58.4361L53.6391 58.7891L53.5492 58.8278L53.8557 58.9333L53.7791 58.9737L54.3685 59.2606L55.0953 59.3497L55.5939 59.7696L56.1829 59.8111L56.5433 60L56.64 59.878L57 59.8076L56.8339 59.692" stroke="black" stroke-width="1.5" stroke-linecap="round" stroke-linejoin="round"/>
<path d="M71.763 17.3762L72.3854 19.7595L72.808 20.7667L73.6004 23.5475L73.7845 23.7587L73.8593 24.4138L74.1224 25.2224L74.997 27.1523L75.8252 28.5848L75.7883 28.7293L76.6385 29.9854L76.9475 30.1394L76.8062 30.1974L76.8274 30.2875L77.0742 30.5256L77.1827 30.7907L77.1089 30.826L77.2471 30.8689L77.5292 31.4247L77.5111 31.5542L77.6139 31.5949L77.6284 32.0013L77.8321 32.1493" stroke="black" stroke-width="1.5" stroke-linecap="round" stroke-linejoin="round"/>
<path d="M68.3822 19.2863L68.0274 18.9168L68.1908 18.8492L67.1928 18.4008L66.4285 17.4546L66.7277 15.6573L65.4037 15.1625L63.6671 14.8389L62.1348 14.1359L61.4585 13.1236L60.6251 12.3012V10.8188L58.356 11.0319L57.6117 10.1138L57.5943 9.55484L57.1854 8.82421L57.464 8.54844L54.3641 7.49172L55.1321 6.15233L55.2368 5.62496L56.6811 5.1489L58.4246 5.21451L59.1527 5.58499L60.2111 6.64862L60.6251 7.35951L62.2745 8.24158L63.1166 9.47342L63.6197 9.87106L64.4644 10.1952L65.3794 10.1602L65.491 10.0398L65.799 10.8188L66.8898 11.6066L67.4901 11.5351L67.4197 11.0886L67.6809 11.0304L67.2134 10.7201" stroke="black" stroke-width="1.5" stroke-linecap="round" stroke-linejoin="round"/>
<path d="M68.1572 10.6679L68.3447 10.5028L68.0546 10.1281L68.1503 9.48497L68.5469 8.65494L68.5563 8.00695L68.8054 7.57257L69.0205 6.11146L69.6895 4.33924L70.3412 3.18833L71.1724 2.35163L71.021 2.24482L71.4369 2.02407L71.9933 1.35115L72.2311 1.30664L72.239 1.11037L72.5242 1L73.6263 1.23454L73.7126 1.94174L73.2493 6.2561L72.7432 7.70876L72.611 9.22907L72.1665 10.3653L71.6929 11.0863L71.4674 11.9083L71.5587 12.1713L71.2257 12.6079L71.4063 12.7134L71.3609 12.8594L72.1266 12.5323L72.6214 11.9657L72.7965 11.4926L72.7131 11.3017L73.8428 9.53704L75.1906 8.38613L77.0219 6.40786L77.9922 5.71001L78.9385 5.31036L79.5546 5.25339L80.0766 5.79191L80.0218 6.07763L80.2152 6.14039L79.8906 6.31574L79.9444 6.57431L79.6947 6.68424L79.8215 6.84446L79.6854 7.20718L79.1412 8.16538L78.9202 8.31492L78.9172 8.54947L77.6351 9.88641L77.6015 10.1405L76.3199 10.9301L75.2927 11.8309L74.8122 12.4477L75.1566 12.6742L75.9908 12.7192L76.9217 12.2648L79.1235 10.7676L81.0218 9.69236L82.6133 8.11153L83.1342 7.78931L84.3903 7.49914L85.0469 7.53162L85.7158 7.69451L86.6364 8.36209L86.6862 8.23837L86.5891 8.35498L86.7459 8.93221L86.4499 9.88597L85.8604 10.4868L85.6453 10.5237L85.2511 11.0133L83.7021 12.069L82.2255 12.8438L81.4036 13.0316L81.2862 13.2982L81.0149 13.3365L80.2877 13.8541L80.2394 14.1919L79.9508 14.2466L80.1101 14.5039L80.1673 14.3641L81.1022 14.9783L82.3331 15.3619L81.266 16.6495L80.8679 16.7425L80.4022 17.1947L79.3262 17.6829L78.6765 17.6962L77.7436 18.1052L75.6174 19.4377L73.9854 19.4235" stroke="black" stroke-width="1.5" stroke-linecap="round" stroke-linejoin="round"/>
<path d="M81.3642 35.216C81.4567 35.6554 82.0511 35.6178 82.2133 35.9863C82.2535 36.0778 82.307 36.1867 82.3709 36.2577C82.5444 36.4505 82.6751 36.656 82.7823 36.8705" stroke="black" stroke-width="1.5" stroke-linecap="round"/>
<path d="M86.6428 41.5189C86.6878 42.0138 87.0429 42.4041 87.1943 42.8582" stroke="black" stroke-width="1.5" stroke-linecap="round"/>
<path d="M89.2428 49.7914C89.2428 50.0694 89.0693 50.8629 89.4003 50.9732" stroke="black" stroke-width="1.5" stroke-linecap="round"/>
<path d="M89.5579 55.9367C89.5579 56.4965 89.5509 57.415 90.0306 57.8101C90.2608 57.9997 90.6356 57.9879 90.8141 58.2259C91.0814 58.5824 91.1739 59.1688 91.37 59.5609" stroke="black" stroke-width="1.5" stroke-linecap="round"/>
<path d="M499.076 11.411L497.972 11L498.244 11.763L499.566 13.594L500.508 14.278L501.526 16.144L502.813 17.402L512.022 23.14L513.335 24.598L513.77 28.089L513.23 28.606L513.434 29.323L512.75 30.034L512.077 31.771L509.197 34.935L502.921 40.013L501.2 41.795L495 45.888" stroke="black" stroke-width="2" stroke-linecap="round" stroke-linejoin="round"/>
<path d="M197.094 47.9288L197.781 47.6531L197.717 47.6075L197.953 47.3986L199.73 46.4196L201.569 44.7349L201.943 44.3438L201.876 44.2911L202.11 43.9735L203.14 43.1935L203.526 42.6732L203.603 42.3571L205.15 40.6334L205.231 40.2886L205.485 40.1584L205.568 39.8619L206.608 38.2009L208.129 36.5381L208.26 36.2995L208.183 36.1162L208.539 35.8657L209.403 34.6645L209.686 34.5046L209.843 34.0994L210.342 33.4968L210.556 32.9156L211.131 32.1883L212.242 31.2747L213.087 30.8884L213.682 30.2376L214.087 30.0034L214.287 29.6431L215.124 29.0026L216.45 27.6292L216.59 27.3576L217.278 26.8459L218.834 25.7568L219.348 25.6232L220.498 24.8992L221.632 23.95L223.554 23.0434L224.415 23L225.304 23.2705L225.868 23.5737L225.94 24.2105L225.765 24.2298L225.968 24.3515L226.106 24.6854L225.901 25.13L226.005 25.2343L225.775 25.8978L225.63 25.9041L225.683 26.1015L225.321 26.3015L225.276 26.451L224.321 27.1709L224.201 27.4192L223.014 28.4196L222.513 29.3121L222.14 29.6557L221.826 29.767L220.803 31.0168L220.77 31.2001L219.703 32.293L219.256 33.0114L219.289 33.175L218.969 33.4741L219.03 33.6901L218.613 33.9302L217.682 34.9328L217.403 35.0642L216.434 36.2576L216.03 36.9248L216.024 37.1775L215.8 37.3746L215.68 37.6855L215.488 37.779L215.478 38.3932L215.477 38.31L216.094 38.2462L216.301 38.0343L216.889 37.8091L217.521 37.3289L217.921 37.1801L219.736 35.6947L220.688 35.1102L220.777 34.9462L221.238 34.8059L221.462 34.4271L221.926 34.2152L222.187 33.8174L222.744 33.381L223.426 32.3197L223.973 31.815L224.599 31.6109L224.557 31.5382L224.869 31.3196L225.472 31.1163L226.873 30.1266L229.979 28.6278L231.661 27.5921L233.93 26.5672L236.254 25.8035L238.471 25.2421L239.313 25.5122L239.773 25.8035L239.838 25.9653L239.732 26.0614L239.809 26.2737L239.687 26.3382L239.794 26.4303L239.667 26.4544L239.726 26.6214L238.908 27.6085L237.149 28.8441L236.796 29.2549L236.477 29.4308L236.514 29.5611L235.996 29.7804L235.268 30.3437L233.815 31.0743L233.474 31.3567L233.093 31.4859L232.75 31.802L231.436 32.5334L230.865 33.1149L228.84 34.3799L226.334 35.587L226.382 35.6661L223.991 37.4369L223.682 37.8755L222.908 38.4937L222.924 38.7286L222.741 38.8017L222.895 39.4526L223.094 39.6641L223.495 39.7112L225.195 39.2441L231.743 36.3545L233.974 35.642L236.825 34.5458L238.294 34.1369L241.457 33.66L243.645 33.5261L244.316 33.3227L245.128 33.2492L245.541 33.3045L246.543 33.8318L246.526 34.0775L246.639 34.1677L245.725 35.5722L243.434 36.7493L242.989 37.1712L239.935 38.4525L235.713 39.7677L233.249 40.8753L229.371 42.2027L227.76 43.0588L227.617 43.2343L227.313 43.2903L226.652 43.9048L226.737 43.9531L226.292 44.1969L226.539 44.5345L227.128 44.8099L228.538 44.8485L230.162 44.5802L235.207 43.264L241.739 42.6153L243.464 42.648L245.336 42.4658L247.109 42.7029L247.741 43.0554L248.041 43.1037L248.097 43.2309L249.217 43.5723L249.626 43.867L249.583 43.9954L249.723 44.0139L249.365 44.0551L249.156 44.3854L248.805 44.6377L245.021 46.5076L243.193 46.9013L240.59 47.8728L239.279 48.0902L237.236 48.9311L235.259 49.179L232.649 49.7972L231.337 49.9798L230.806 50.1126L230.136 50.5631L230.141 51.0029L230.417 51.3643L231.369 51.6764L234.503 51.7695L236.713 51.47L237.516 51.5676L238.08 51.7506L238.014 51.8114L238.692 51.8771L239.266 52.1265L239.492 52.2931L239.458 52.9247L239.605 53.0327L239.43 53.1815L239.581 53.2735L238.823 53.8895L238.69 54.2925L238.517 54.343L238.209 54.7241L236.922 55.1371L236.079 55.2744L235.942 55.4009L234.153 55.7371L228.17 56.2692L225.088 56.7379L224.789 56.8871L222.737 57.1921L222.546 57.3587L222.037 57.4292L218.579 57.1324L217.081 57.1253L216.632 56.9324L214.29 56.6481L213.418 56.6964L213.275 56.8314L212.005 57.0518L210.918 57.0144L208.549 57.7977L207.885 58.1758L206.509 58.5432L206.254 58.6553L206.265 58.7918L205.946 59.0483L204.475 59.5218L204 59.7867" stroke="black" stroke-width="1.5" stroke-linecap="round" stroke-linejoin="round"/>
<path d="M196.32 51L196.163 51.9923L196 52.2262L196.072 52.5718L196.29 52.7975L196.226 52.9992L196.397 53.1241L196.311 53.3004L196.554 53.4178L196.381 53.5544L196.349 53.8806L196.568 55.2246L196.751 55.5179L196.616 55.5873L196.768 55.7522L196.557 55.8398L197.392 56.5002L197.688 57.2893L198.254 57.5411L198.195 57.6244L198.72 58.2061L199.31 58.4361L199.639 58.7891L199.549 58.8278L199.856 58.9333L199.779 58.9737L200.368 59.2606L201.095 59.3497L201.594 59.7696L202.183 59.8111L202.543 60L202.64 59.878L203 59.8076L202.834 59.692" stroke="black" stroke-width="1.5" stroke-linecap="round" stroke-linejoin="round"/>
<path d="M217.763 17.3762L218.385 19.7595L218.808 20.7667L219.6 23.5475L219.785 23.7587L219.859 24.4138L220.122 25.2224L220.997 27.1523L221.825 28.5848L221.788 28.7293L222.639 29.9854L222.948 30.1394L222.806 30.1974L222.827 30.2875L223.074 30.5256L223.183 30.7907L223.109 30.826L223.247 30.8689L223.529 31.4247L223.511 31.5542L223.614 31.5949L223.628 32.0013L223.832 32.1493" stroke="black" stroke-width="1.5" stroke-linecap="round" stroke-linejoin="round"/>
<path d="M214.382 19.2863L214.027 18.9168L214.191 18.8492L213.193 18.4008L212.429 17.4546L212.728 15.6573L211.404 15.1625L209.667 14.8389L208.135 14.1359L207.459 13.1236L206.625 12.3012V10.8188L204.356 11.0319L203.612 10.1138L203.594 9.55484L203.185 8.82421L203.464 8.54844L200.364 7.49172L201.132 6.15233L201.237 5.62496L202.681 5.1489L204.425 5.21451L205.153 5.58499L206.211 6.64862L206.625 7.35951L208.275 8.24158L209.117 9.47342L209.62 9.87106L210.464 10.1952L211.379 10.1602L211.491 10.0398L211.799 10.8188L212.89 11.6066L213.49 11.5351L213.42 11.0886L213.681 11.0304L213.213 10.7201" stroke="black" stroke-width="1.5" stroke-linecap="round" stroke-linejoin="round"/>
<path d="M214.157 10.6679L214.345 10.5028L214.055 10.1281L214.15 9.48497L214.547 8.65494L214.556 8.00695L214.805 7.57257L215.02 6.11146L215.689 4.33924L216.341 3.18833L217.172 2.35163L217.021 2.24482L217.437 2.02407L217.993 1.35115L218.231 1.30664L218.239 1.11037L218.524 1L219.626 1.23454L219.713 1.94174L219.249 6.2561L218.743 7.70876L218.611 9.22907L218.166 10.3653L217.693 11.0863L217.467 11.9083L217.559 12.1713L217.226 12.6079L217.406 12.7134L217.361 12.8594L218.127 12.5323L218.621 11.9657L218.796 11.4926L218.713 11.3017L219.843 9.53704L221.191 8.38613L223.022 6.40786L223.992 5.71001L224.938 5.31036L225.555 5.25339L226.077 5.79191L226.022 6.07763L226.215 6.14039L225.891 6.31574L225.944 6.57431L225.695 6.68424L225.821 6.84446L225.685 7.20718L225.141 8.16538L224.92 8.31492L224.917 8.54947L223.635 9.88641L223.601 10.1405L222.32 10.9301L221.293 11.8309L220.812 12.4477L221.157 12.6742L221.991 12.7192L222.922 12.2648L225.123 10.7676L227.022 9.69236L228.613 8.11153L229.134 7.78931L230.39 7.49914L231.047 7.53162L231.716 7.69451L232.636 8.36209L232.686 8.23837L232.589 8.35498L232.746 8.93221L232.45 9.88597L231.86 10.4868L231.645 10.5237L231.251 11.0133L229.702 12.069L228.225 12.8438L227.404 13.0316L227.286 13.2982L227.015 13.3365L226.288 13.8541L226.239 14.1919L225.951 14.2466L226.11 14.5039L226.167 14.3641L227.102 14.9783L228.333 15.3619L227.266 16.6495L226.868 16.7425L226.402 17.1947L225.326 17.6829L224.676 17.6962L223.744 18.1052L221.617 19.4377L219.985 19.4235" stroke="black" stroke-width="1.5" stroke-linecap="round" stroke-linejoin="round"/>
<path d="M227.364 35.216C227.457 35.6554 228.051 35.6178 228.213 35.9863C228.253 36.0778 228.307 36.1867 228.371 36.2577C228.544 36.4505 228.675 36.656 228.782 36.8705" stroke="black" stroke-width="1.5" stroke-linecap="round"/>
<path d="M232.643 41.5189C232.688 42.0138 233.043 42.4041 233.194 42.8582" stroke="black" stroke-width="1.5" stroke-linecap="round"/>
<path d="M235.243 49.7914C235.243 50.0694 235.069 50.8629 235.4 50.9732" stroke="black" stroke-width="1.5" stroke-linecap="round"/>
<path d="M235.558 55.9367C235.558 56.4965 235.551 57.415 236.031 57.8101C236.261 57.9997 236.636 57.9879 236.814 58.2259C237.081 58.5824 237.174 59.1688 237.37 59.5609" stroke="black" stroke-width="1.5" stroke-linecap="round"/>
<path d="M20.5554 15.8893L21.5504 15.8195L23 15.22L22.8454 15L22.2277 15.2185L21.913 15.7283L15.4273 20.6814L10.6617 23.4176L8.93766 24.7454L6.66777 26.5515L6.5031 27.1503L5.24444 27.8372L2.36224 30.2697L1.5265 31.8459L1.02707 32.0252L1 32.5151L1.34945 34.0935L2.47358 35.8354L4.04069 36.809L12.1964 38.872L16.7524 40.6529L19.3354 42.5357L22.1867 46" stroke="black" stroke-width="2" stroke-linecap="round" stroke-linejoin="round"/>
</svg>
