<svg width="1191" height="169" viewBox="0 0 1191 169" fill="none" xmlns="http://www.w3.org/2000/svg">
<g clip-path="url(#clip0_1076_2329)">
<mask id="mask0_1076_2329" style="mask-type:luminance" maskUnits="userSpaceOnUse" x="0" y="-35" width="1191" height="242">
<path d="M1191 -35.0001L0 -35L1.05782e-05 207L1191 207L1191 -35.0001Z" fill="white"/>
</mask>
<g mask="url(#mask0_1076_2329)">
<path d="M27.3427 84.893L27.3206 85.5091L27.5132 85.5616L27.5457 85.3549L27.6624 85.5658L27.5125 85.545L27.5643 85.8313L27.1376 85.8472L27.3288 85.9053L27.3448 86.3118L26.8615 86.9632L25.7181 87.7521L25.3639 88.4746L23.6799 89.5235L19.0271 95.1635L16.5008 97.8483L16.3641 98.3952L15.5715 98.696L15.6433 99.0556L15.0178 99.4386L15.0826 99.7193L14.6677 100.06L14.7581 100.266L14.4164 100.694L16.1245 101.986L19.3986 102.954L19.683 103.292L23.2829 105.278L23.7483 105.813L24.4443 105.921L25.8334 106.713L26.644 108.004L26.5439 109.105" stroke="black" stroke-width="4.18551" stroke-linecap="round" stroke-linejoin="round"/>
<path d="M41.8285 93.3677L42.0453 92.4944L42.465 92.6472L42.2862 92.7696L42.3049 91.8327L42.9173 91.3065L43.2238 90.678L43.2121 90.0018L43.4758 89.9001L43.2597 89.8642L43.3895 89.6879L43.0892 89.4224L41.6552 89.3484L39.7579 90.3758L38.8603 91.1254L37.3393 92.9051L35.9598 95.3742L35.0028 97.548L34.7626 100.646L34.4733 100.868L34.949 101.311L36.5701 101.477L39.6108 99.1155L41.756 96.7342L43.3157 94.3377L43.5994 93.5163L44.2008 93.0537L44.0137 92.9466L43.7555 91.7456L42.967 95.8699L42.4947 97.2867L42.6556 98.9468L44.1138 101.242L46.0581 102.362L46.8024 102.228L47.3734 102.41L49.0863 101.754" stroke="black" stroke-width="4.18551" stroke-linecap="round" stroke-linejoin="round"/>
<path d="M54.034 82.8222L53.4886 82.3285L53.7081 82.4944L53.4313 82.5428L53.8676 83.2702L53.8511 84.1684L54.2619 85.032L55.2623 86.139L56.2096 86.9044L59.6583 88.3902L61.1172 89.361L63.8106 91.642L64.5839 91.9635L65.228 92.7117L65.1335 92.8278L67.7177 94.2798L68.1286 94.6677L68.0181 95.066L68.3688 95.476L67.8841 95.8155L67.8379 96.2566L67.2241 97.2488L65.6499 99.1489L63.3763 101.169L61.6426 103.318L61.5598 103.985L60.6581 104.798L60.6442 105.554L59.3628 106.697L59.3131 107.203L58.8208 107.668" stroke="black" stroke-width="4.18551" stroke-linecap="round" stroke-linejoin="round"/>
<path d="M96.199 85.5573L96.1852 85.9363L96.0796 85.5573L95.8966 86.2986L95.4078 86.6657L95.095 87.5494L94.1512 88.3203L93.5347 89.2599L91.4627 91.3246L90.8005 92.5601L88.7203 94.7741L86.5861 96.4978L86.2098 97.1685L85.6492 97.3939L84.6964 98.2762L84.4492 98.615L84.6274 98.8376L84.3892 98.9821L84.6025 99.0278L84.4188 99.0817L84.5763 99.1529L84.4879 99.4972L85.2909 100.526L86.0227 100.917L86.689 100.965L89.2429 102.045L91.3267 102.526L97.2105 104.89L100.016 107.44L100.826 108.695" stroke="black" stroke-width="4.18551" stroke-linecap="round" stroke-linejoin="round"/>
<path d="M115.593 94.1611L115.371 93.6301L115.566 93.5181L115.159 93.2222L115.121 92.8606L115.375 92.8364L115.097 92.2957L114.31 92.3897L114.39 92.7389L114.09 93.1676L113.845 93.1434L113.802 93.4974L110.547 95.9167L109.241 97.3099L108.238 98.8165L108.036 99.4941L107.332 99.9774L107.531 100.884L107.361 101.111L107.807 101.992L108.623 102.81L110.892 104.098L112.35 104.051L113.656 103.686L114.201 103.783L117.722 102.55" stroke="black" stroke-width="4.18551" stroke-linecap="round" stroke-linejoin="round"/>
<path d="M127.788 93.8449L127.478 94.0627L127.736 94.9782L127.644 96.3686L127.842 97.0552L127.675 98.3703L128.055 98.9739L127.846 99.1703L127.798 99.7725L128.052 100.13L127.989 101.305L127.715 101.861" stroke="black" stroke-width="4.18551" stroke-linecap="round" stroke-linejoin="round"/>
<path d="M139.141 84.5528L139.403 84.4117L139.263 84.6088L139.443 84.5853L139.502 84.1213L139.349 84.393L140.026 85.1778L140.149 87.1954L139.116 95.4801L139.145 97.3034L137.715 101.004L137.593 101.825L137.276 102.15L137.665 102.787L138.093 102.209" stroke="black" stroke-width="4.18551" stroke-linecap="round" stroke-linejoin="round"/>
<path d="M136.761 93.7511L136.726 93.9198L137.15 93.9246L137.124 94.3008L137.156 94.103L137.687 93.9793L137.765 94.2054L140.055 94.0712L141.534 93.888L141.975 93.6183L143.531 94.112L143.693 93.9039L144.145 94.0339" stroke="black" stroke-width="4.18551" stroke-linecap="round" stroke-linejoin="round"/>
<path d="M150.432 95.3485L149.971 95.4473L150.134 95.5863L149.898 95.941L150.477 96.0385L150.775 96.239L150.629 96.3974L151.488 96.2957L151.517 96.5522L151.976 96.6767L152.474 96.4326L152.63 96.6532L153.246 96.6705L154.524 96.3185L155.974 95.6015L156.218 95.1991L156.825 94.8548L156.541 94.5146L157.055 93.92L156.709 93.7755L157.289 93.2935L157.024 93.0909L157.414 92.0967L156.349 90.906L156.06 90.8853L155.988 90.5043L155.313 90.561L154.917 90.3681L154.579 90.7816L154.232 90.7138L153.553 91.0132L152.243 92.356L151.107 94.6826L151.154 95.2973L150.464 96.407L150.7 96.9035L150.296 97.3211L150.039 98.0838L150.217 99.3539L150.629 100.004L152.405 100.439L153.011 100.212L154.933 100.218L159.542 98.6556L160.157 98.7012L160.878 99.2509" stroke="black" stroke-width="4.18551" stroke-linecap="round" stroke-linejoin="round"/>
<path d="M167.83 82.1437L167.772 81.3714L167.581 81.518L167.535 81.3278L167.91 81.2165L167.595 81.379L167.818 81.146L167.662 81.0402L167.513 81.3735L167.32 80.9171L167.049 81.0955L167.682 81.4101L167.689 81.8948L168.113 82.105L168.044 82.5039L168.396 82.8981L168.257 83.2569L169.063 84.1917L168.969 84.5651L169.857 85.2123L169.824 85.6555L170.414 86.1333L170.926 86.109L171.144 86.4402L171.116 86.9436L172.154 87.4739L173.847 89.3111L174.545 89.6948L174.948 90.537L175.814 91.5084L176.283 91.8272L176.463 91.693L176.545 92.0049L176.34 92.3284L176.84 92.4488L177.275 93.573L177.49 93.6774L177.235 94.0017L177.76 93.7556L177.337 93.7369L177.198 93.927L177.391 93.7438L177.141 93.609L175.579 94.5154L170.837 99.7025L168.982 100.948L167.161 102.534L167.223 102.711" stroke="black" stroke-width="4.18551" stroke-linecap="round" stroke-linejoin="round"/>
<path d="M200.686 87.0377L201.439 86.0683L201.921 85.9867L203.118 85.1065L203.308 85.3008L203.691 85.1529L203.011 85.3382L203.12 85.8768L202.797 86.6913L202.224 87.0073L200.741 88.8126L198.308 91.0217L196.225 93.7985L196.182 94.3751L195.538 94.911L194.082 97.0392L194.147 97.4133L193.709 97.7355L193.327 100.097L193.685 100.559L194.177 100.7L194.25 101.108L194.973 101.106L195.176 101.394L197.942 102.004L199.647 102.765L199.677 102.979L200.333 103.342L203.689 104.248" stroke="black" stroke-width="4.18551" stroke-linecap="round" stroke-linejoin="round"/>
<path d="M216.775 84.2513L216.295 83.5308L216.032 83.6463L217.88 89.6064L218.306 91.9953L218.156 92.769L218.699 97.9187L218.506 100.597L218.818 102.135L218.99 102.231L218.956 101.938L219.284 101.843L219.025 101.612L218.943 101.733L218.943 101.447L218.385 100.85L218.502 100.22L218.126 99.0527L218.401 97.5931L219.605 96.2462L222.406 94.8626L222.958 94.967L224.106 94.595L226.056 94.7077L226.831 95.3957L226.975 95.9329L226.598 96.4612L226.673 96.8145L226.129 98.2817L225.339 98.8003L224.36 100.27L223.726 100.698L220.117 102.347L217.642 103.093L214.602 103.334L214.203 103.185" stroke="black" stroke-width="4.18551" stroke-linecap="round" stroke-linejoin="round"/>
<path d="M234.159 92.5986L233.793 91.9348L233.564 91.9272L233.732 92.3483L235.694 95.4286L236.055 96.391L235.888 97.0935L236.675 98.9355L236.558 99.3697L237.006 99.9671L236.942 100.349L237.183 100.469L237.032 100.559L237.222 100.586L237.006 100.363L237.175 100.387L236.511 97.4206L236.589 96.6738L236.871 95.6996L237.606 94.8948L237.737 93.9019L238.739 92.9685L239.11 91.7391L240.961 89.7443L241.827 89.2237L243.75 88.8579L244.187 89.1151L244.64 88.9485L246.141 89.1027L246.641 89.3889" stroke="black" stroke-width="4.18551" stroke-linecap="round" stroke-linejoin="round"/>
<path d="M254.838 80.8452L255.138 80.6011L255.091 80.3294L255.417 80.357L255.074 80.2816L255.443 80.4248L255.248 80.4877L255.209 80.2222L255.101 80.6377L255.373 81.0526L258.091 82.8379L258.368 83.4387L259.135 83.9116L260.689 85.6029L261.194 86.6469L264.409 88.9791L264.455 89.2412L264.982 89.3746L265.332 89.8351L265.786 90.0702L266.91 90.138L267.693 90.5715L268.347 91.7317L267.327 93.4955L267.118 94.4822L266.308 94.9904L265.724 95.9238L265.118 96.2682L264.854 96.7646L261.213 99.1321L260.641 100.032L259.416 100.614L258.921 101.759L257.5 102.743L256.438 104.283" stroke="black" stroke-width="4.18551" stroke-linecap="round" stroke-linejoin="round"/>
<path d="M292.166 84.2626L292.004 84.107L292.446 83.6548L293.936 83.0871L293.514 83.0837L293.645 83.2994L293.369 83.2019L291.734 84.3054L289.548 86.639L288.618 87.2205L287.469 88.6939L285.457 90.3126L284.523 91.6539L283.68 92.0916L283.304 92.9096L282.331 93.2995L282.072 94.0974L281.54 94.4017L279.751 96.3577L279.933 96.5603L280.111 96.4137L280.18 96.579L280.249 96.4338L282.016 96.8224L283.278 97.4536L285.48 98.0109L287.384 99.42L290.146 100.803L290.939 101.442L291.354 101.465L292.354 102.305" stroke="black" stroke-width="4.18551" stroke-linecap="round" stroke-linejoin="round"/>
<path d="M304.777 83.8338L304.117 83.3733L304.342 83.4273L304.514 84.1712L305.033 84.5571L305.6 86.0153L306.09 86.511L306.092 87.5136L306.631 88.2313L306.268 89.3127L306.522 90.0339L305.104 95.2742L305.118 95.7637L305.334 95.8965" stroke="black" stroke-width="4.18551" stroke-linecap="round" stroke-linejoin="round"/>
<path d="M315.467 88.2099L314.99 87.4362L315.206 87.5254L315.21 87.9209L315.816 88.8121L316.14 90.9023L316.195 93.3202L315.918 94.0407L316.057 97.0512L316.352 98.2557L316.205 98.3207L316.569 98.5488L316.389 98.3663L316.593 98.2225L316.701 98.3615L316.575 97.9819L316.926 97.231L317.963 96.1468L318.618 94.4348L319.197 93.6307L319.724 91.5564L321.049 88.1733L322.484 86.2649L323.228 86.5754L323.165 86.8374L323.728 87.9188L324.127 91.1699L324.044 92.8356L324.346 94.1375L324.734 94.1023L324.745 93.7199L325.222 93.2504L325.185 92.653L326.371 91.4644L329.01 87.4258L329.98 86.6086L330.477 86.7704L331.554 89.5527L332.201 92.0798" stroke="black" stroke-width="4.18551" stroke-linecap="round" stroke-linejoin="round"/>
<path d="M344.071 84.4461L341.33 85.2468L339.568 86.4872L339.27 89.1271L338.896 89.9346L339.264 90.3758L338.669 90.9317L338.898 91.4682L340.724 91.3853L345.04 88.4481L345.313 87.944L345.819 87.7912L345.677 87.794L345.751 87.4904L345.047 87.7684L345.389 88.0062L345.371 87.7898L345.468 88.0235L345.494 87.7981L345.641 88.1798L345.505 88.3962L346.025 88.9957L345.992 89.3262L346.616 90.3744L346.571 90.8708L347.103 92.7315L346.864 93.7845L347.239 96.2612L347.596 97.205L347.541 99.0297L348.018 100.075L347.763 100.563L347.648 107.912L347.551 110.081L347.212 111.248L347.334 111.479L346.514 112.792L346.467 113.216L345.144 113.744L345.285 113.857L345.052 113.986L343.62 114.322L342.088 114.259L341.398 114.482L339.686 113.608L338.49 112.283" stroke="black" stroke-width="4.18551" stroke-linecap="round" stroke-linejoin="round"/>
<path d="M353.872 80.95L353.817 81.1014L353.541 80.9292L353.903 80.5946L354.137 80.8117L353.882 81.2625L354.784 81.6144L356.514 82.8196L357.527 83.8961L359.282 85.2133L359.698 85.8114L361.526 86.8617L363.194 87.4024L363.861 87.3885L364.461 88.2272L365.015 88.4789L365.832 89.3833L366.189 89.2782L367.206 91.2032L367.041 91.7397L367.142 92.4719L366.966 92.5846L366.94 93.2401L366.591 93.6073L366.478 94.5476L365.75 95.1747L364.968 96.3052L363.681 96.8922L362.418 98.2488L359.132 100.748L357.549 101.111" stroke="black" stroke-width="4.18551" stroke-linecap="round" stroke-linejoin="round"/>
<path d="M391.764 85.6623L395.284 83.2928L396.551 82.7375L395.67 83.0577L393.415 85.4466L386.264 90.6848L380.032 96.638L379.172 97.698L379.909 97.4387L380.907 98.3707L381.669 98.6846L381.906 99.0601L383.657 99.7571L387.489 100.774L389.73 101.965L393.165 103.101L393.91 103.771" stroke="black" stroke-width="4.18551" stroke-linecap="round" stroke-linejoin="round"/>
<path d="M409.906 93.9592L409.918 93.4835L410.527 93.2159L410.936 92.3406L411.524 91.9527L411.405 91.4583L411.158 91.4044L411.324 91.2834L411.063 90.9881L411.113 90.5795L410.119 90.2926L409.701 90.3776L407.914 91.8621L406.328 94.3201L404.647 97.5754L404.085 99.1332L404.475 99.6407L405.137 99.7893L406.813 99.5653L408.933 98.2011L408.903 97.9736L409.855 96.7304L410.398 96.3495L411.326 94.9168L411.864 93.0859L411.76 92.8273L411.919 92.8101L411.465 93.608L411.664 94.1908L411.146 94.6382L411.523 95.0814L411.642 96.1607L412.399 98.5607L413.791 100.329L414.391 100.54L414.735 101.071L415.168 101.055L415.384 101.4L416.276 101.412" stroke="black" stroke-width="4.18551" stroke-linecap="round" stroke-linejoin="round"/>
<path d="M423.036 90.2117L422.402 90.296L422.349 90.108L422.075 90.3714L422.596 90.6514L422.619 91.9852L421.689 95.5516L421.209 96.2216L421.562 97.0257L421.439 97.4412L421.949 97.583L422.371 98.2371L422.664 98.3408L423.138 98.2717L423.948 98.5586L424.162 98.3712L425.393 98.2689L426.48 97.7787L427.879 96.4857L428.003 95.9934L429.042 95.0309L429.899 93.5727L430.159 92.073L430.017 91.3055L430.265 91.0068L429.937 90.863L429.588 90.1854L429.715 89.8964L429.375 89.8791L429.296 89.4145L429.041 89.3467L428.817 88.8599L428.98 88.1173" stroke="black" stroke-width="4.18551" stroke-linecap="round" stroke-linejoin="round"/>
<path d="M440.867 81.7878L440.675 81.6191L440.616 81.9005L440.879 82.6382L440.787 83.7853L440.994 84.3668L440.619 86.0352L440.731 86.7757L440.109 91.8909L440.528 93.4542L441.171 94.6836L441.818 95.3322L441.87 95.6924L442.036 95.6156L442.062 96.0506L441.765 95.6758L441.825 95.3626L441.429 95.4006L441.662 95.2388L441.159 94.5412L439.712 94.2764L437.864 95.4144L436.016 97.1886L435.548 97.4044L434.879 99.0714L435.367 99.4482L435.232 99.6529L437.688 99.8105L440.458 99.4095L440.976 99.135L442.567 99.023L443.809 98.5805L444.998 97.627" stroke="black" stroke-width="4.18551" stroke-linecap="round" stroke-linejoin="round"/>
<path d="M450.468 89.0205L449.839 89.1056L450.362 90.6751L450.319 91.8291L450.541 92.0372L450.722 93.0688L450.379 93.8598L451.245 95.6147L451.069 95.9327L452.104 97.1102L452.778 97.4297" stroke="black" stroke-width="4.18551" stroke-linecap="round" stroke-linejoin="round"/>
<path d="M461.158 88.2134L460.345 88.0247L459.946 88.2853L459.331 88.2383L458.301 89.2727L458.391 92.2354L458.11 92.6026L458.191 92.7962L459.407 93.4766L461.51 93.1419L461.727 93.2733L464.393 92.102L465.778 90.5601L466.029 88.5605L466.296 88.1837L465.609 87.3996L465.8 87.1203L464.908 86.8285L463.563 87.0006L463.21 86.8091L462.314 87.3021" stroke="black" stroke-width="4.18551" stroke-linecap="round" stroke-linejoin="round"/>
<path d="M475.036 81.238L474.421 80.8294L473.937 81.0043L473.396 80.4636L473.257 80.5604L473.743 80.6275L474.033 81.1115L475.023 81.581L475.346 82.3505L475.762 82.504L477.556 84.2948L478.033 84.9537L478.084 85.4343L479.059 86.3L479.834 87.51L480.412 87.7637L481.576 88.9274L482.006 89.7011L483.199 90.2466L483.422 90.7797L484.756 91.1296L485.904 91.7615L486.304 93.5247L486.204 95.1122L485.228 96.401L482.661 98.4207L482.031 98.6101L480.986 99.9868L476.459 103.599L475.823 104.471" stroke="black" stroke-width="4.18551" stroke-linecap="round" stroke-linejoin="round"/>
<path d="M510.573 83.5818L511.418 83.4283L511.71 83.2499L511.483 83.1732L511.743 83.3564L511.861 83.0819L512.705 82.6429L512.596 83.2264L512.406 83.3384L512.347 83.1082L512.313 83.3212L512.467 83.2596L511.987 83.9635L511.726 83.9683L511.44 84.5153L510.382 85.477L506.547 87.832L506.019 88.3679L504.785 89.06L504.247 89.0704L501.488 91.2325L499.677 92.3104L499.292 93.0931L498.79 93.3483L498.888 93.6767L499.18 93.0509L499.046 93.5543L499.216 93.6138L499.463 93.3787L501.145 93.8357L501.59 93.7617L507.505 95.7441L508.736 96.3961L511.15 98.5236L511.885 98.6557L513.084 99.2662L513.829 99.3457L514.057 98.9592L514.456 98.8589L514.667 98.5596L514.485 98.4883" stroke="black" stroke-width="4.18551" stroke-linecap="round" stroke-linejoin="round"/>
<path d="M530.297 81.7939L530.396 80.8646L529.775 80.812L529.519 81.1667L528.533 81.3237L524.412 84.7808L523.328 86.136L523.308 86.963L523.672 86.7687L526.836 88.4758L528.677 88.805L530.649 89.6886L530.975 89.5303L531.747 90.2113L531.865 91.3176L531.666 92.0664L531.207 92.4073L531.213 92.883L528.947 94.5604L528.314 94.7969L527.388 94.781L525.892 93.6616L525.513 93.8247L525.567 94.1462" stroke="black" stroke-width="4.18551" stroke-linecap="round" stroke-linejoin="round"/>
<path d="M538.956 84.973L539.319 85.0283L539.167 85.0539L539.221 84.8866L538.363 87.2527L538.243 88.2041L537.813 88.724L537.83 91.8755L538.244 92.6016L539.658 92.7578L542.346 91.0735L544.254 88.7856L545.62 85.2219L545.405 84.3818L545.799 84.1862L545.589 83.7582L545.722 83.4692" stroke="black" stroke-width="4.18551" stroke-linecap="round" stroke-linejoin="round"/>
<path d="M551.318 87.164L551.747 90.2077L551.728 91.9217L552.048 92.8959L551.663 95.0995L551.841 96.0779L551.336 98.2607L551.394 99.1976L550.649 102.214L549.526 104.685L549.545 105.183L548.789 106.953L548.217 109.236L548.214 110.293L548.541 107.631" stroke="black" stroke-width="4.18551" stroke-linecap="round" stroke-linejoin="round"/>
<path d="M550.645 93.625L551.181 91.1601L552.547 88.2671L554.487 85.8699L560.278 83.2259L561.924 83.0835L562.234 83.2895L562.482 84.429L561.916 87.4056L561.016 89.3215L560.351 90.042L559.563 90.5205L558.917 91.2652L558.04 91.5853L556.802 92.6148L556.178 92.6522L554.898 93.2475L554.574 93.1327L553.227 93.4183L552.491 93.0566L552.28 92.7296" stroke="black" stroke-width="4.18551" stroke-linecap="round" stroke-linejoin="round"/>
<path d="M568.949 74.5435L568.943 75.8904L569.375 76.0066L571.266 77.9246L576.4 80.6171L576.373 80.821L577.607 82.2412L577.644 82.8054L577.229 83.4291L577.365 84.2187L576.903 85.3208L575.582 87.3744L573.029 89.9078L572.016 91.3646L571.026 92.3216L570.136 92.6915L569.674 93.2909L568.996 93.3317L569.113 93.4285L568.877 93.6823L568.24 93.8496" stroke="black" stroke-width="4.18551" stroke-linecap="round" stroke-linejoin="round"/>
<path d="M595.579 76.3264L595.829 77.3172L596.428 76.8823L596.711 76.9666L596.502 77.0669L596.755 77.0545L596.448 77.2529L596.494 77.4603L595.158 78.5659L594.891 79.2988L593.497 80.3671L593.243 80.7833L589.34 83.688L587.887 85.3931L587.878 85.7651L587.321 85.8294L587.745 86.9716L588.461 87.7246L589.776 88.3586L590.795 88.3725L591.977 88.7673L592.489 88.6158L594.895 89.3702L596.753 91.3027" stroke="black" stroke-width="4.18551" stroke-linecap="round" stroke-linejoin="round"/>
<path d="M609.942 74.7122L609.94 73.8306L610.155 73.8714L610.15 73.7041L610.266 73.9793L610.168 74.9169L610.48 77.5865L610.213 78.2447L610.556 80.2471L610.527 82.9997L610.461 84.2629L610.095 84.4109L610.248 85.15L610.097 86.3856L609.625 86.8793L609.623 87.1711L609.428 87.1593L609.719 87.2367L609.459 87.2236L609.367 86.4534L609.979 83.7817L610.46 83.6061L611.72 81.9017L612.647 81.4287L614.331 81.2787L615.891 81.9176L616.968 83.7354L616.799 84.2373L617.285 84.7863L616.979 84.9951L617.409 85.4245L617.376 85.8214L616.771 86.853L615.693 87.9489L613.46 89.2239L611.21 89.5703L608.031 88.7012" stroke="black" stroke-width="4.18551" stroke-linecap="round" stroke-linejoin="round"/>
<path d="M625.742 74.1202L624.875 73.8007L625.24 73.845L626.356 76.6418L628.871 81.0013L629.382 81.3615L629.53 81.8089L630.413 82.3544L630.749 83.0196L632.298 83.6764L632.838 84.3471L633.724 84.6901L634.378 85.2259L635.037 86.3336L634.891 86.7394L634.786 86.5071L633.728 86.9614L630.502 89.6621L629.804 89.8564L627.81 91.399L626.773 91.9217L626.43 92.3532L625.66 92.6283L625.372 92.5322L624.165 93.0729L624.092 93.6523" stroke="black" stroke-width="4.18551" stroke-linecap="round" stroke-linejoin="round"/>
<path d="M656.545 78.2184L657.286 77.5111L656.693 77.9958L656.682 78.6886L655.208 80.5236L652.377 83.2119L650.99 84.1585L650.047 85.4238L649.025 85.9942L647.065 88.1107L646.695 88.5732L646.735 89.1637L645.979 89.7666L645.469 90.958L645.6 91.4876L646.534 92.392L648.193 92.997L650.421 93.2023L650.687 93.3911L653.138 93.2286L653.99 93.564L654.356 93.3863L655.631 94.2125L655.739 94.7954L655.565 95.0547" stroke="black" stroke-width="4.18551" stroke-linecap="round" stroke-linejoin="round"/>
<path d="M665.73 79.1936L665.623 78.9619L665.733 79.1866L665.574 79.2385L665.94 80.5985L665.945 82.0616L664.741 86.9832L664.793 88.5583L664.57 88.6309" stroke="black" stroke-width="4.18551" stroke-linecap="round" stroke-linejoin="round"/>
<path d="M668.081 72.1743L667.494 73.2356L667.032 73.506L667.44 73.7266L669.148 72.0934L668.797 72.2227L668.621 73.0082L668.044 73.571" stroke="black" stroke-width="4.18551" stroke-linecap="round" stroke-linejoin="round"/>
<path d="M679.97 74.9611L679.567 74.5351L679.231 74.4183L679.235 74.6361L679.75 74.9956L681.873 79.5605L683.355 81.2392L686.572 82.9229L687.783 83.2057L688.076 83.0999L688.19 83.3675L688.378 83.1835L688.337 83.6883L686.464 84.7814L686.25 85.1189L685.655 85.2067L683.726 86.4858L683.136 87.1966L681.299 88.5186L678.08 91.4461L677.029 92.7183L677.139 93.0322L676.655 93.3496" stroke="black" stroke-width="4.18551" stroke-linecap="round" stroke-linejoin="round"/>
<path d="M708.082 78.1126L708.006 77.5775L708.124 77.8526L708.379 77.8112L708.441 77.5152L709.118 77.155L708.918 77.3147L708.945 77.9335L708.283 77.9895L707.744 78.4459L707.302 78.5302L706.715 79.3524L705.956 79.2763L705.624 79.9345L703.954 81.177L703.56 81.8615L702.939 82.0939L702.241 82.7493L701.005 83.0978L700.584 83.5915L698.175 84.1972L697.553 84.8243L696.787 85.0801L696.966 85.4266L696.732 85.4404L696.794 85.6056L696.69 85.4611L696.946 85.5289L696.745 85.3947L696.794 85.0995L696.821 85.4162L698.382 86.3731L701.24 87.6163L701.641 87.5852L703.96 89.7991L704.437 89.9139L705.535 90.7754L706.653 92.1431L707.357 92.3381L707.544 92.7446L708.075 93.0668L708.469 92.9009L709.097 93.3953L709.104 93.8392L709.498 93.9256L709.463 94.1524L709.07 94.0798L708.994 94.2824L709.153 94.3301L709.235 93.9636" stroke="black" stroke-width="4.18551" stroke-linecap="round" stroke-linejoin="round"/>
<path d="M723.182 78.5667L723.659 79.671L723.742 78.7873L723.921 78.7666L723.452 78.2335L722.989 78.2404L722.609 77.9873L722.816 77.9624L720.932 78.248L720.269 79.0182L719.654 79.2229L718.37 80.2061L718.094 80.128L716.782 82.8619L716.506 84.6409L716.692 84.8103L716.492 85.1249L716.747 85.8461L716.602 86.021L717.107 86.6461L717.058 86.8729L718.101 87.48L720.427 87.5L721.836 87.1432L722.34 87.229L723.334 86.7401L724.46 86.7588" stroke="black" stroke-width="4.18551" stroke-linecap="round" stroke-linejoin="round"/>
<path d="M735.106 79.7652L734.222 78.3796L734.34 78.2026L733.801 79.1831L732.786 79.6401L731.226 80.9607L729.569 82.885L729.23 83.8357L728.892 84.0811L729.251 85.007L730.245 85.2925L730.86 85.0519L731.15 85.4785L735.886 82.2309L736.418 81.4994L736.494 81.6992L735.955 79.3545L735.527 79.0932L735.562 78.641L735.32 78.4329L735.272 78.6507L734.809 78.5055L734.678 78.2953L734.416 78.4308L734.395 78.0823" stroke="black" stroke-width="4.18551" stroke-linecap="round" stroke-linejoin="round"/>
<path d="M754.949 74.0153L754.7 73.4179L754.065 73.364L754.348 73.7713L753.865 77.4116L753.361 79.0109L753.32 80.0605L752.802 80.734L752.671 82.2219L752.284 83.0233L752.408 83.9567L752.118 84.3854L752.422 85.2338L752.208 85.4288L752.905 85.9826L752.457 85.5892L752.533 85.3873L752.27 85.4073L752.429 85.399L752.277 84.9586L751.414 83.5273L750.945 83.4499L749.978 82.7557L748.97 82.6727L747.437 83.024L745.718 83.7956L744.068 85.2697L743.55 86.0476L743.695 86.3311L743.453 86.7418L743.743 87.0757L743.598 87.4982L744.13 87.6254L744.075 88.0347L744.779 88.3984L747.534 88.0016L750.496 87.0432" stroke="black" stroke-width="4.18551" stroke-linecap="round" stroke-linejoin="round"/>
<path d="M759.92 83.5353L759.575 83.8077L759.789 84.0082L760.003 83.9764L760.051 83.6908L760.348 83.8706L761.75 83.3887L762.205 83.5961L762.779 83.0852L763.234 82.9849L763.676 82.4221L763.966 82.281L764.097 82.5479L763.952 82.5735L764.139 81.9713L764.38 81.7652L764.394 80.9196L764.726 80.661L764.733 79.8513L764.553 80.1888L764.38 79.9599L764.415 80.1196L763.856 80.0346L762.482 80.4861L761.619 81.1678L761.349 81.0102L760.749 82.0342L760.093 82.5424L759.782 83.5622L759.278 83.8927L759.188 86.6322L759.754 87.1597L759.948 86.9924L760.852 88.1291L761.881 88.4375L762.426 88.1423L763.262 88.3359L767.004 87.8311L768.682 87.0076L769.531 86.9827L770.601 86.0721L770.829 86.1205L771.305 85.416L770.995 84.7155" stroke="black" stroke-width="4.18551" stroke-linecap="round" stroke-linejoin="round"/>
<path d="M775.842 76.7124L775.531 75.1359L775.897 74.2149L776.035 74.439L775.849 74.5918L776.139 75.0218L775.655 75.2431L777.278 76.991L779.294 78.0579L780.254 78.779L780.412 79.1662L783.098 80.8271L783.561 81.3878L784.748 81.7349L785.245 82.2403L785.743 82.268L785.963 82.4976L785.639 82.8066L786.074 82.9809L785.604 83.2173L785.722 83.5596L785.466 84.0989L784.645 85.08L781.924 87.2L780.571 87.9868L779.121 89.5301L778.873 90.0887L778.21 90.4386L777.395 91.3935L776.242 91.8657L776.263 92.2833L775.648 93.2285L775.745 93.4532L775.144 93.9497L775.42 94.0645" stroke="black" stroke-width="4.18551" stroke-linecap="round" stroke-linejoin="round"/>
<path d="M804.191 77.9552L805.164 76.8579L805.537 76.8621L806.097 75.7828L806.29 75.8173L805.876 76.0261L806.027 75.9411L805.965 76.2889L803.369 77.4802L801.16 79.0103L800.476 79.8739L799.213 80.5909L799.054 81.1123L797.991 82.0492L795.92 85.1122L795.595 85.1689L795.816 85.5098L795.685 85.6577L796.285 86.4971L797.618 87.2024L799.303 87.6193L802.237 87.6753L803.328 88.6931L803.942 88.9669L804.315 89.4917L804.888 89.5035L805.068 90.0684L805.185 89.91L806.041 89.9785L805.572 89.5311" stroke="black" stroke-width="4.18551" stroke-linecap="round" stroke-linejoin="round"/>
<path d="M821.258 74.7156L820.678 74.9742L821.024 74.9569L821.7 76.263L821.514 78.4182L820.754 82.275L819.733 85.8344L819.864 86.2507L819.083 88.8228L819.415 88.9334L819.173 89.5723L819.311 89.3787L819.401 89.6055L819.518 88.7191" stroke="black" stroke-width="4.18551" stroke-linecap="round" stroke-linejoin="round"/>
<path d="M814.575 84.1602L814.906 83.2606L815.514 83.7591L819.753 84.0848L821.403 83.84L822.059 83.4473L826.278 82.5436L827.459 82.6757L828.722 83.4929" stroke="black" stroke-width="4.18551" stroke-linecap="round" stroke-linejoin="round"/>
<path d="M837.905 82.5271L837.573 82.6951L838.064 81.6628L837.822 81.4961L836.931 81.7084L834.066 83.5469L831.953 86.1598L831.857 86.89L832.057 87.5254L834.535 87.4694L835.951 86.9985L837.677 85.8853L838.188 85.8134L839.134 84.6698L839.741 84.3206L840.549 83.0712L841.205 82.6646L841.005 82.478L841.336 82.552L841.081 83.2489L841.53 84.656L841.723 86.6023L842.061 86.8748L843.504 87.383L845.203 87.4224L846.197 87.3643L846.963 86.8969" stroke="black" stroke-width="4.18551" stroke-linecap="round" stroke-linejoin="round"/>
<path d="M854.917 74.5742L853.923 74.8708L854.178 80.9761L853.799 82.2408L853.875 82.6736L853.412 83.8013L853.674 84.165L853.357 84.5411L852.908 86.5815L852.466 87.3476L852.632 87.5606L852.397 87.5406L852.363 87.2315L853.447 86.1404L853.723 85.3639L853.937 85.4759L854.807 84.8495L854.662 84.7693L856.015 84.4416L857.817 84.7831L859.315 85.4379L860.413 86.641L860.434 87.412L859.391 89.3535L858.48 90.1037L856.657 90.652L854.62 90.8477L853.067 90.7087L852.639 90.3263L851.948 90.1542L851.866 89.666L852.149 88.5404" stroke="black" stroke-width="4.18551" stroke-linecap="round" stroke-linejoin="round"/>
<path d="M870.88 76.9415L870.196 76.8606L869.823 77.0314L870.445 78.9978L870.397 80.5978L869.913 83.564L869.264 85.3334L868.546 88.8216L868.146 89.5787L867.87 91.3993L867.586 91.6309L867.849 92.834" stroke="black" stroke-width="4.18551" stroke-linecap="round" stroke-linejoin="round"/>
<path d="M877.356 85.4971L876.486 84.5056L876.452 84.6853L877.425 85.6727L878.371 86.0661L879.911 85.4902L882.39 82.9077L882.376 82.5288L881.72 81.7834L881.14 81.6935L879.676 82.1526L877.902 83.5127L876.907 84.6563L876.445 85.6575L875.975 85.8629L876.631 88.2725L877.101 88.9328L878.288 89.6208L880.021 89.8047L880.622 89.5246L882.493 89.2737L883.978 88.4737L885.048 87.5361L885.593 87.4103" stroke="black" stroke-width="4.18551" stroke-linecap="round" stroke-linejoin="round"/>
<path d="M890.792 72.9299L890.716 73.8454L890.716 72.4846L890.896 72.1438L890.902 73.0807L891.186 73.1892L891.42 73.7576L893.257 75.8415L895.825 77.8363L896.412 77.8169L897.544 79.0574L898.18 79.3028L899.215 80.5467L899.602 80.602L901.577 83.235L901.432 83.2924L901.577 83.4597L901.452 84.3316L900.983 84.1732L900.859 85.2927L900.251 86.0615L898.49 87.5716L897.759 88.4829L896.861 88.8438L896.322 89.6556L895.045 90.2723L894.313 91.2334L893.699 91.5238L891.703 93.9653L891.469 94.7051" stroke="black" stroke-width="4.18551" stroke-linecap="round" stroke-linejoin="round"/>
<path d="M921.13 79.6338L921.965 78.8732L923.305 78.4507L923.629 77.5733L923.684 77.8533L923.643 77.6521L923.332 77.7081L923.408 77.9363L923.153 78.0352L923.077 78.4113L922.607 78.4556L922.227 78.8884L921.385 79.1982L921.219 79.9843L920.619 80.1081L917.153 83.4788L915.544 84.7884L913.597 85.7736L913.39 86.3925L912.396 86.658L912.285 87.1039L911.415 87.4642L911.201 87.8064L910.463 88.1805L910.366 88.6389L910.207 88.446L910.11 88.6686L910.663 89.86L910.884 89.9098L910.911 89.6934L911.457 90.0965L913.003 90.5175L913.21 90.2984L915.199 90.7983L918.037 91.6453L918.499 92.1624L919.01 92.1369L919.307 92.6748L919.797 92.8055L921.116 94.7968L921.433 94.9454L921.592 95.4336L921.516 95.2573L921.73 95.4045L921.572 95.1591L922.2 94.1565" stroke="black" stroke-width="4.18551" stroke-linecap="round" stroke-linejoin="round"/>
<path d="M931.666 82.7892L930.81 83.5609L931.231 83.2774L931.887 83.2338L931.452 83.7842L931.107 85.2556L931.217 86.0161L930.499 87.6113L929.705 91.3284L929.581 95.7106L929.878 96.6143L929.657 97.5021L929.822 97.8935L929.526 98.8207L929.643 99.3178L928.759 100.917L928.2 102.815L927.599 103.982L927.226 104.127L927.282 104.51" stroke="black" stroke-width="4.18551" stroke-linecap="round" stroke-linejoin="round"/>
<path d="M929.878 86.3748L930.126 84.8571L930.927 83.9935L931.645 84.0232L931.659 83.8434L932.335 83.6885L934.455 83.5883L935.353 83.8573L937.327 83.8455L938.377 84.2998L939.668 85.3418L940.372 87.0268L940.193 87.5363L939.778 87.6421L939.392 88.5147L938.294 89.4523L937.224 89.6417L936.423 90.3892L935.546 90.4977L935.09 90.8559L934.213 91.0917L932.508 91.0944L932.218 91.2832L931.507 90.8836L931.279 90.9658L930.595 90.1596L930.754 89.8969" stroke="black" stroke-width="4.18551" stroke-linecap="round" stroke-linejoin="round"/>
<path d="M945.226 76.3703L944.501 75.82L944.156 75.0241L944.322 74.8997L944.391 75.6049L946.02 77.4255L946.89 78.0263L947.36 78.0422L947.629 78.4204L948.982 79.1699L951.944 81.3846L952.904 82.3464L953.836 83.9885L953.829 84.7968L952.476 86.4486L948.105 89.9624L946.655 91.485L945.551 92.1778L945.323 92.8084L944.867 92.8969L944.902 93.1133L945.378 93.0656" stroke="black" stroke-width="4.18551" stroke-linecap="round" stroke-linejoin="round"/>
<path d="M979.72 77.0406L979.451 76.8331L979.596 77.0316L979.534 76.7177L979.893 76.3809L979.327 77.4029L978.629 77.5598L977.594 78.413L976.855 78.5064L975.522 79.715L974.728 79.5491L973.824 80.4438L972.747 80.8524L971.338 81.9172L968.432 83.4916L965.38 84.9422L964.855 84.6511L964.455 85.1814L964.213 85.01L964.096 85.5126L964.289 85.8501L964.42 85.691L964.386 86.0257L964.613 85.8113L965 86.3278L966.588 87.0282L967.078 87.7093L968.949 88.893L969.391 89.8458L969.743 89.7691L971.697 90.9846L972.243 91.8026L974.411 93.3126L974.542 93.7171L975.004 93.5795L975.129 93.8008L975.633 93.3486L975.35 92.9261L975.122 93.2587L974.839 93.2103" stroke="black" stroke-width="4.18551" stroke-linecap="round" stroke-linejoin="round"/>
<path d="M1003.29 76.4789L1003.47 75.9513L1004.08 75.3263L1004.17 74.2144L1003.82 72.8938L1003.92 72.5453L1002.98 71.7025L1002.12 71.5995L1000.97 71.7986L998.548 72.5882L998.017 72.983L997.844 73.458L997.437 73.4995L996.739 74.2221L995.945 76.1767L994.806 81.3583L994.841 82.3138L994.364 84.0777L994.454 84.8272L994.123 86.1319L994.219 86.7542L993.77 89.9126L993.453 90.0018L993.405 90.2715L991.761 90.08" stroke="black" stroke-width="4.18551" stroke-linecap="round" stroke-linejoin="round"/>
<path d="M988.13 86.3633L988.454 86.2105L988.585 85.7797L989.441 85.8323L997.002 84.4211L997.982 84.4079L998.728 83.9855L1000.18 83.7635" stroke="black" stroke-width="4.18551" stroke-linecap="round" stroke-linejoin="round"/>
<path d="M1009.46 80.8707L1009.54 80.4012L1009.37 80.5236L1009.35 80.3812L1008.37 83.9248L1008.08 84.2726L1007.09 87.4109L1006.9 87.431L1007.07 88.0443L1006.91 88.4031L1007.25 88.5566" stroke="black" stroke-width="4.18551" stroke-linecap="round" stroke-linejoin="round"/>
<path d="M1021.52 81.4733L1020.66 81.0875L1020.57 81.3448L1020.01 81.2521L1017.77 84.0821L1017.27 84.2743L1017.4 84.6975L1017.8 84.1443L1019.2 84.3179L1019.43 84.0987L1020.17 84.5461L1021.06 85.42L1021.89 87.2786L1022.06 89.7491L1021.21 95.7977L1020.57 97.7551L1019.2 100.054L1018.28 100.714L1017.97 101.418L1016.8 102.129L1016.29 102.084L1015.3 102.939L1013.98 103.363L1012.76 103.237L1010.6 102.266L1010.02 102.31L1009.19 101.147L1008.93 100.451L1008.89 99.2763L1009.42 98.0372" stroke="black" stroke-width="4.18551" stroke-linecap="round" stroke-linejoin="round"/>
<path d="M1031.41 82.1626L1031.15 82.0686L1031.1 82.3797L1032.26 83.6609L1032.81 85.0811L1032.55 88.736L1033.26 88.7637L1034.41 88.42L1036.14 87.5046L1038.52 85.7822L1038.63 85.2422L1039.86 83.6658L1040.08 83.1272L1040 82.7524L1040.87 80.685" stroke="black" stroke-width="4.18551" stroke-linecap="round" stroke-linejoin="round"/>
<path d="M1049.16 79.3998L1048.95 80.1175L1049.01 82.597L1048.94 83.4571L1048.68 83.9301L1048.72 85.586L1048.44 85.9103L1048.67 85.9843L1048.61 86.2754L1048.58 85.6351L1048.09 84.7861L1048.76 82.9178L1050.17 80.7868L1051.92 79.9053L1052.25 79.4233L1053.19 79.7172L1053.38 79.4952L1055.62 80.3153" stroke="black" stroke-width="4.18551" stroke-linecap="round" stroke-linejoin="round"/>
<path d="M1062.59 83.4326L1062.68 83.6622L1062.93 83.1913L1064.89 82.4079L1065.84 81.6992L1065.95 81.2747L1067.1 80.5943L1067.52 79.6242L1067.54 78.7033L1067.49 78.4115L1066.94 78.2455L1065.99 78.8097L1065.58 78.7918L1062.45 82.5151L1061.5 84.7788L1061.88 86.1306L1062.25 85.9453L1062.6 86.5945L1064.14 87.212L1064.73 86.9631L1066.67 87.4727L1067.6 87.2161L1068.39 87.3164L1069.88 86.6416L1070.23 86.7819L1071.2 86.2011L1071.62 86.1997L1072.76 85.0167" stroke="black" stroke-width="4.18551" stroke-linecap="round" stroke-linejoin="round"/>
<path d="M1076.96 72.0898L1076.63 71.9066L1077.1 72.5296L1077.78 72.9445L1079.16 73.2992L1082.2 75.1771L1082.73 75.1446L1083.33 76.1831L1084.36 77.008L1084.76 78.0009L1085.11 78.1039L1086.17 79.7868L1086.65 80.9975L1087.41 81.8722L1088.12 83.8427L1088.44 84.1048L1088.04 84.8398L1086.44 86.271L1086.12 86.8297L1085.02 87.4513L1084.04 88.5044L1082.29 90.5538L1081.09 92.6861L1080.31 93.0201L1080.1 93.334" stroke="black" stroke-width="4.18551" stroke-linecap="round" stroke-linejoin="round"/>
<path d="M1110.39 73.1518L1111.22 72.7113L1111.45 72.833L1111.51 73.3108L1110.74 74.6093L1109.4 76.0413L1104.7 79.5606L1102 82.1618L1100.04 83.3503L1099.28 84.5534L1099.43 85.0637L1100.43 85.8464L1102 86.4763L1103.68 87.4809L1104.6 88.4904L1104.52 88.7843L1104.97 89.1113L1107.4 88.5354L1108.4 87.8999" stroke="black" stroke-width="4.18551" stroke-linecap="round" stroke-linejoin="round"/>
<path d="M1124.24 73.7162L1124.19 73.544L1124.35 73.6229L1124.48 74.1954L1124.61 74.0274L1124.52 75.1115L1123.58 80.6893L1120.92 89.5112L1120.6 89.8341L1120.21 91.1582L1119.89 91.3926" stroke="black" stroke-width="4.18551" stroke-linecap="round" stroke-linejoin="round"/>
<path d="M1124.06 81.263L1124.4 80.8136L1124.52 80.9927L1124.68 80.7887L1124.89 80.8973L1125.91 79.7619L1128.16 79.3257L1129.91 80.0309L1132.91 80.6421L1133.3 80.9173L1133.38 82.7053L1133.05 84.7133L1131.86 87.1132L1131.22 89.1702L1131.64 90.3705L1131.99 90.748L1133.54 90.5531" stroke="black" stroke-width="4.18551" stroke-linecap="round" stroke-linejoin="round"/>
<path d="M1144.03 79.6943L1142.77 79.9432L1142.75 80.291L1143.27 79.9819L1143.55 80.9264L1143.24 82.1323L1143.32 83.038L1142.24 85.9676L1141.66 86.9467L1141.43 88.0716L1141.48 90.1805L1141.91 90.6797L1142.37 90.1307L1142.3 89.5361L1142.58 89.0929L1142.9 85.5023L1143.77 83.8857L1146.32 82.1724L1147.21 81.8536L1150.06 81.2922L1150.75 81.678L1152.14 81.7948" stroke="black" stroke-width="4.18551" stroke-linecap="round" stroke-linejoin="round"/>
<path d="M1157.84 74.5161L1158.01 75.1294L1158.91 74.7132L1159.69 74.7139L1159.5 75.379L1159.74 76.0774L1160.51 76.5385L1161.01 77.8135L1164.92 84.1159L1166 86.3658L1166.09 87.5578L1165.5 88.548L1163.85 90.1113L1156.31 94.1748L1152.81 97.1044L1153.1 97.2344" stroke="black" stroke-width="4.18551" stroke-linecap="round" stroke-linejoin="round"/>
<path d="M122.175 150.661L122.795 149.979L122.788 148.555L121.153 148.332L120.229 149.272L120.229 149.702L121.845 150.873M147.048 147.903L148.579 147.46L149.481 146.689L150.888 147.451L158.287 145.617L159.126 144.881L160.53 145.325L160.763 144.407L160.32 143.734L160.526 143.407L161.216 142.836L161.888 143.28L162.805 143.045L160.972 141.386L159.795 141.409L158.048 142.513L158.487 143.286L157.056 143.286L155.693 142.72L154.796 143.039L155.21 143.739L155.02 143.963L152.929 143.399L150.842 143.491L150.188 143.978L148.406 144.135L146.757 146.144L146.028 146.144L145.194 145.957L146.753 144.869L145.319 144.874L144.646 145.324L143.974 144.88L143.247 144.88L142.593 145.361L141.177 145.359L139.102 142.82L136.809 144.409L136.809 146.516L137.241 147.017L140.508 148.219L143.022 148.158L144.614 146.866L145.544 147.187L145.13 147.887L145.32 148.116M142.603 147.411L141.653 147.214L141.881 146.292L142.574 146.864M143.984 146.028L143.055 145.811L143.972 145.581M157.093 145.318L156.845 144.412L157.074 144.217L157.303 145.138M152.963 144.65L151.557 144.759L150.652 144.426L152.238 144.092L153.143 144.429M218.667 143.226L228.85 142.115L229.599 142.587L265.443 139.35L266.855 139.921L269.633 139.829L270.305 139.379L271.689 139.921L273.085 139.829L273.758 139.379L274.429 139.823L275.157 139.823L275.81 139.349L276.538 139.349L277.237 139.818L282.045 138.57L284.116 139.23L290.775 139.311L291.954 140.53L292.629 140.295L292.193 138.894L293.071 137.967L293.987 138.199L293.543 138.876L293.777 139.793L295.833 137.967L296.749 138.199L296.335 138.897L296.539 139.101L297.232 138.688L297.903 139.131L298.768 139.009L298.606 137.9L290.371 136.566L288.946 137.027L287.584 135.886L286.873 135.794L268.234 135.784L266.835 135.885L266.163 136.336L265.443 135.893L237.884 138.439L237.135 137.968L215.759 139.911L214.814 139.589L214.042 138.429L216.017 136.834L214.235 135.293L213.706 135.681L212.314 135.773L206.813 134.513L206.114 134.983L204.714 134.54L204.042 134.983L203.315 134.983L202.661 134.503L200.574 134.411L198.5 135.071L197.119 134.54L195.738 135.071L194.328 134.51L177.14 136.383L175.716 135.922L175.043 136.373L171.827 136.545L170.661 138.187L171.264 138.579L172.572 140.569L176.401 140.613L187.312 139.376L188.143 138.688L189.527 139.23L199.186 139.231L206.161 138.326L197.124 137.176L211.616 137.177L212.54 137.492L212.104 138.892L212.441 139.387L207.217 141.185L207.456 143.28M160.555 142.571L159.625 142.354L160.543 142.124M358.148 141.13L362.106 140.046L362.804 140.514L363.555 140.526L365.334 139.858L371.804 138.559L384.224 138.559L385.608 139.101L386.326 138.661L392.517 139.922L395.292 139.829L395.964 139.379L397.327 140.52L398.039 140.613L399.863 140.553L401.455 139.26L402.386 139.582L401.972 140.28L402.176 140.484L403.075 139.586L402.196 138.652L400.089 138.65L399.391 139.124L391.981 137.311L391.615 136.815L391.804 136.588L392.915 136.415L394.028 135.039L395.245 135.763L396.637 135.194L399.181 135.019L400.251 133.909L400.781 134.298L403.554 134.391L410.435 133.129L411.135 133.601L412.516 133.126L413.939 133.59L415.355 132.772L413.267 131.73L411.824 132.204L409.793 131.066L409.083 131.496L408.41 131.045L405.633 130.954L404.25 131.496L403.532 131.056L397.432 132.368L385.993 133.784L387.132 135.29L385.645 136.379L384.209 136.373L382.843 135.794L372.495 135.793L362.819 137.848L357.302 137.847L355.187 137.261L346.763 139.272L347.617 139.807L348.324 139.379L349.707 139.921L351.795 139.829L352.493 139.356M338.97 140.291L339.586 139.608L339.369 138.664L338.422 138.875L338.426 140.293M344.494 139.6L345.082 138.894L344.889 138.661L343.494 138.561L342.57 138.875L342.797 139.793L343.491 139.379L344.185 139.795M341.642 139.617L341.426 138.685L340.522 139.589M336.722 139.766L329.658 138.568L329.685 137.996L328.302 139.101L327.629 138.65L326.231 138.55L299.858 138.72L304.799 139.82L306.211 139.251L307.607 139.343L308.97 139.91L310.351 139.379L311.022 139.823L312.422 139.379L313.805 139.921L317.943 139.921L319.326 139.379L320.709 139.921M217.454 138.216L218.042 137.511L217.85 137.284L216.911 137.492L217.141 138.413M181.268 138.422L180.338 138.205L181.256 137.976M301.575 137.531L300.67 137.282L300.476 137.512L301.396 137.742M195.079 137.736L192.289 137.847L191.387 137.512L192.289 137.177L194.355 137.177L195.259 137.515M287.597 137.045L286.192 137.154L285.286 136.821L286.873 136.487L287.777 136.823M387.717 134.968L387.447 134.038L387.661 133.818L390.58 133.894M507.266 134.24L529.205 132.386L547.142 128.982L547.887 129.448L551.985 128.64L562.59 127.354L584.424 125.522L585.123 125.994L585.878 126.012L603.756 124.139L604.455 124.611L605.21 124.629L612.042 123.449L613.451 124.008L614.832 123.477L615.523 123.89L616.213 123.477L616.885 123.927L618.28 124.019L636.367 122.019L639.661 121.288L640.378 120.711L641.069 121.124L641.759 120.711L642.453 121.125L642.775 120.193L641.105 118.593L638.289 118.599L637.617 119.05L636.944 118.599L635.518 118.51L634.163 119.346L632.784 118.601L632.991 119.539L632.09 119.869L630.694 119.778L630.04 119.298L628.641 119.742L627.26 119.211L625.879 119.742L625.163 119.305L621.041 120.562L619.647 120.47L618.994 119.989L617.594 120.433L616.519 119.961L615.374 121.783L613.998 120.768L614.347 120.223L613.757 119.964L612.436 121.627L610.001 121.274L608.618 121.816L607.925 121.402L607.928 122.628L607.255 123.235L606.544 123.327L604.722 123.264L602.964 120.775L602.755 121.207L598.043 122.565L599.848 123.689L598.95 124.018L596.151 123.936L594.402 122.831L594.841 122.061L593.429 122.507L592.735 122.094L592.944 122.994L592.736 123.235L591.214 122.155L589.977 123.199L588.593 122.657L583.076 122.656L582.245 122.817L587.171 123.936L588.621 123.454L591.395 124.625L585.836 124.71L584.472 124.138L583.072 124.582L580.998 123.181L579.624 123.934L578.948 123.447L578.219 123.452L578.002 124.393L578.446 125.07L576.862 125.401L576.018 125.193L577.104 123.684L576.876 123.447L574.06 123.435L575.651 124.523L574.654 125.9L574.439 125.453L570.114 124.178L569.258 123.432L567.638 124.629L566.502 124.168L565.811 124.582L565.118 124.168L565.328 125.07L564.428 125.4L563.031 125.309L561.649 124.151L559.617 125.29L558.906 124.86L557.544 126L555.436 126.001L554.764 125.551L554.074 125.964L553.402 125.521L552.674 125.521L551.33 126.692L549.913 126.692L549.217 126.222L545.784 127.476L542.984 126.89L536.855 128.777L535.414 128.766L534.049 127.625L534.183 128.324L525.79 130.825L525.094 130.354L523.004 130.253L521.605 130.354L520.933 130.804L520.214 130.363L513.367 131.524L512.667 131.052L511.267 131.496L510.577 131.082L509.905 131.526L507.812 130.954L505.726 131.045L505.053 131.496L504.363 131.082L503.672 131.496L502.954 131.056L498.308 132.18L497.913 132.655L497.913 133.382L498.821 134.298L500.238 134.298L500.911 133.848L501.601 134.262L502.291 133.848L503.674 134.39M401.687 130.616L400.802 130.275L399.899 130.598L400.797 130.921M396.854 130.616L395.951 130.368L395.756 130.598L396.676 130.827M1037.7 128.541L1038.21 128.019L1034.66 126.889L1033.21 127.374L1015.31 124.831L1014.57 125.303L962.839 121.373L962.142 121.852L960.719 121.852L960.05 121.402L959.38 121.853L957.978 121.944L955.907 121.284L947.981 122.633L947.85 123.538L942.506 125.437L942.789 125.963L943.459 125.514L945.551 125.413L946.952 125.514L947.622 125.964L949.003 125.422L973.161 125.422L984.905 126.774L986.314 126.215L996.829 127.495L1024.92 128.761L1025.64 128.317L1027.02 128.859L1034.62 128.859L1036 128.317L1036.67 128.761M456.377 126.465L458.146 126.701L463.075 125.525L465.213 124.373L463.975 123.319L462.731 120.381L456.85 118.657L454.445 122.301L454.651 122.628L455.324 123.235L457.45 123.242L459.447 122.05L460.176 121.976L461.072 122.297L460.502 123.334L456.719 124.711L453.943 124.618L453.29 124.133L452.143 124.101L451.021 125.626L452.543 126.699L455.339 126.784M445.873 126.587L446.595 124.955L446.383 124.81L444.84 125.904L444.294 125.552L443.623 125.995L442.895 125.994L440.366 124.225L439.891 123.296L448.259 120.731L448.643 120.224L448.232 119.537L448.598 119.043L452.843 117.479L452.596 117.225L449.086 117.206L440.318 119.728L437.839 122.283L437.839 123.701L440.825 126.692M572.743 125.977L571.815 125.76L572.732 125.53M570.675 125.982L569.054 125.758L570.66 125.525M567.914 125.982L566.508 126.091L565.602 125.758L567.19 125.424L568.093 125.76M456.061 125.977L455.131 125.76L456.049 125.53M453.989 125.977L453.06 125.76L453.978 125.53M940.918 125.085L939.337 124.722L937.749 125.066L939.337 125.411M936.775 125.085L935.884 124.734L934.296 125.066L935.194 125.4M933.268 125.198L931.763 124.153L931.051 124.582L929.671 124.039L923.429 124.017L922.062 123.169L921.268 123.835L920.985 123.246L919.349 122.05L917.222 122.056L916.532 122.524L914.502 121.386L913.811 121.846L911.699 121.372L911.05 121.846L910.297 121.864L868.222 120.592L845.431 122.637L842.676 122.646L841.274 122.544L840.604 122.094L839.886 122.532L835.074 121.273L832.989 121.365L832.319 121.816L831.629 121.402L830.918 121.832L828.902 120.667L824.724 120.573L823.323 120.674L822.653 121.124L821.942 120.694L819.926 121.859L819.194 121.945L816.419 121.853L815.749 121.402L815.079 121.846L814.347 121.837L814.575 120.914L813.657 120.681L812.435 121.756L811.406 120.779L808.182 121.839L806.794 120.675L804.681 120.674L804.011 121.124L802.631 120.593L801.27 121.155L799.158 120.681L798.467 121.145L795.747 119.999L795.057 120.47L792.274 120.561L791.376 120.23L791.791 119.532L791.584 119.329L790.914 119.772L789.512 119.328L788.843 119.778L787.406 119.785L785.39 118.62L784.01 119.778L780.778 119.81L779.19 118.517L777.775 119.05L776.732 117.83L772.935 116.522L755.032 118.406L753.948 118.137L753.023 117.093L751.545 118.401L751.746 117.456L750.827 117.224L749.467 118.359L748.777 117.945L747.396 119.05L746.685 118.616L744.344 119.849L744.303 120.186L744.392 121.627L745.304 122.543L746.015 122.636L781.89 121.371L782.587 121.846L783.989 121.402L784.679 121.816L785.37 121.402L786.06 121.816L786.73 121.372L788.131 121.816L789.512 121.274L794.338 121.273L801.098 122.504L801.919 123.235L802.631 123.327L810.916 123.327L812.324 122.755L831.332 124.044L837.132 125.293L837.843 124.86L838.533 125.273L839.224 124.86L840.604 125.402L846.832 125.3L846.818 124.738L845.921 123.68L846.107 123.455L847.164 123.698L848.199 124.834L849.58 123.477L850.478 124.374L850.063 125.069L850.271 125.273L852.321 123.441L853.032 123.359L854.054 123.682L855.083 124.618L859.281 124.625L857.037 123.502L857.845 122.749L859.246 122.647L862.712 122.758L862.698 123.89L863.389 123.477L864.059 123.921L864.79 123.921L865.46 123.477L866.13 123.921L866.862 123.921L868.222 123.359L869.582 123.921L871.695 123.446L873.055 124.019L892.387 124.028L893.789 123.927L894.458 123.477L895.149 123.89L895.867 123.452L899.954 124.606L901.363 124.039L903.455 124.131L904.124 124.582L905.505 124.039L909.648 124.039L911.029 124.582L911.699 124.131L913.791 124.039L915.171 124.582L915.841 124.131L917.236 124.039L920.667 125.294L921.365 124.822L922.766 124.721L926.218 124.731L927.599 125.273L928.29 124.86L929.671 125.401L931.072 125.31L931.742 124.86L932.412 125.303M581.029 125.285L580.1 125.068L581.018 124.839M671.647 124.393L670.743 124.145L670.549 124.375L671.469 124.604M669.577 124.391L669.234 123.867L671.469 122.664L671.431 122.072L672.47 122.299L673.5 123.228L674.228 123.229L674.9 122.785L675.593 123.198L675.384 122.298L676.026 122.05L677.663 123.889L678.334 123.446L679.715 123.927L681.263 123.811L678.372 122.077L677.659 122.507L677.418 122.297L679.023 120.695L679.713 121.154L680.572 121.048L679.061 120.004L678.352 120.434L677.633 119.991L670.907 121.124L670.361 122.047L668.688 123.224L667.642 122.431L668.597 121.757L665.951 120.658L664.399 121.755L663.848 121.402L663.52 122.989L663.848 123.89L664.399 123.538L665.895 124.708L668.683 124.709M855.822 123.903L854.89 123.685L855.808 123.456M838.561 123.903L837.629 123.685L838.547 123.456M952.462 123.216L952.434 122.762L953.352 122.992M927.109 123.011L926.205 122.762L926.011 122.992L926.93 123.222M925.038 123.011L924.154 122.67L923.249 122.992L924.147 123.315M878.606 123.211L877.674 122.994L878.592 122.764M874.463 123.211L873.531 122.994L874.45 122.764M833.728 123.211L832.796 122.994L833.714 122.764M690.29 123.009L689.947 122.484L692.196 121.359L687.182 121.468L687.292 123.239L689.396 123.327M896.557 122.525L894.458 122.635L893.561 122.301L895.839 121.966L896.737 122.303M867.559 122.52L866.627 122.303L867.545 122.073M828.902 122.528L826.651 122.451L828.846 121.382L829.102 122.323M693.853 122.315L696.449 120.767L694.902 120.675L693.542 121.972L693.542 122.509M686.089 122.452L683.916 121.36L682.495 121.816L681.804 121.402L680.908 122.303L681.804 122.094L683.188 122.636M674.228 122.501L673.98 121.595L674.21 121.4L674.439 122.321M606.771 121.615L606.317 121.588L606.546 122.509M710.278 121.07L713.537 119.996L714.234 120.463L715.636 120.02L716.305 120.463L717.051 120.472L719.295 118.842L718.398 117.945L718.542 118.694L717.051 119.781L715.657 119.298L714.255 119.742L713.564 119.328L712.874 119.742L711.493 119.199L708.006 119.29M685.463 121.033L686.671 119.981L681.666 120.059M623.814 121.148L623.787 120.683L625.397 120.918M722.05 120.245L721.145 119.997L720.952 120.226L721.87 120.456M705.479 120.241L704.589 119.328L703.691 120.23L704.589 120.549M702.718 120.24L702.152 119.538L701.62 119.532L702.193 120.226M692.472 120.239L693.059 119.535L692.851 119.329L691.954 120.228M690.402 120.239L690.987 119.534L690.794 119.307L689.858 119.515L690.089 120.436M779.183 119.754L778.251 119.537L779.17 119.307M734.478 119.553L732.897 119.19L731.309 119.535L732.897 119.879M695.813 119.553L694.93 119.213L694.025 119.535L694.923 119.858M782.118 118.862L781.213 118.614L781.02 118.843L781.938 119.073M730.335 118.862L729.431 118.614L729.237 118.843L730.156 119.073M727.573 118.862L726.669 118.614L726.476 118.843L727.394 119.073M724.066 118.975L722.575 117.903L720.952 118.149L721.829 119.086M685.456 118.862L684.552 118.614L684.358 118.843L685.277 119.073M770.898 118.376L769.283 118.152L770.884 117.919M737.723 118.382L737.75 117.917L737.039 117.817L734.761 118.152L735.658 118.487M733.787 118.171L732.897 117.819L731.309 118.152L732.206 118.486M717.217 118.171L716.312 117.922L716.119 118.152L717.037 118.382M86.165 59.5147L89.5488 57.8269L88.739 57.0636L85.5222 57.0311L84.3561 58.6698L85.2488 59.6164M116.497 56.7753L120.458 55.5888L120.686 55.2299L119.809 54.2979L115.63 54.2979L114.706 55.2382L114.706 55.6683M195.252 56.0583L197.959 54.4133L197.078 54.2917L194.381 55.4595L193.667 55.0253L192.769 55.9269L192.96 56.1571M320.217 55.2507L319.312 55.0024L319.118 55.232L320.037 55.4616M352.029 53.8657L355.877 52.2118L357.318 52.2229L357.993 52.673L357.858 51.9685L361.323 50.8891L362.46 51.7887L364.242 51.5246L367.617 53.4039L376.467 52.2561L383.677 50.849L385.584 50.1652L386.157 50.5386L387.319 49.6861L388.006 49.7019L391.108 48.0902L391.803 48.5549L392.532 48.5493L392.74 47.609L391.822 47.833L390.441 47.302L389.06 47.833L388.388 47.3829L386.946 47.3705L376.627 49.3452L373.875 49.3452L363.527 48.0743L360.79 50.0885L354.908 51.5605L347.979 52.7615L345.984 53.4944L346.252 54.0552L347.636 53.5138L350.393 53.5138L351.785 54.06M318.948 53.8623L319.534 53.1577L319.328 52.9517L318.43 53.8512M296.682 54.0075L294.448 52.8417L297.265 50.1507L296.21 50.3906L295.181 51.3261L294.034 51.499L292.867 53.1384L293.762 54.0918M134.491 53.8657L134.137 53.3002L135.013 52.2222L132.891 52.2236L132.012 53.1577L132.891 54.0918M388.529 53.3181L395.938 51.5432L396.682 52.0079L408.366 49.471L410.027 51.3586L410.433 51.4167L417.365 51.4188L418.749 50.8767L419.44 51.2902L420.819 50.1853L422.203 50.7273L424.96 50.7266L425.859 50.3975L425.501 49.9066L418.748 48.6842L417.915 48.8612L419.475 49.9488L416.661 49.9343L416.9 48.9898L415.862 47.4354L412.576 48.5715L411.136 48.5611L410.464 48.111L409.773 48.5244L409.082 48.111L407.702 49.2159L407.011 48.8024L406.34 49.2463L405.612 49.2463L404.94 48.8024L404.268 49.2532L402.18 49.3445L400.795 48.8024L400.929 49.4994L388.538 51.3448L384.77 52.6025L385.59 53.4004L387.007 53.4011L387.679 52.951M301.575 53.1764L300.67 52.9282L300.476 53.1577L301.396 53.3873M153.154 53.1888L152.936 52.1372L152.241 51.5681L151.344 52.4663L152.222 53.3942M285.005 51.7887L284.442 51.0862L283.908 51.0807L284.477 51.7742M912.61 51.0952L911.505 49.8492L909.096 48.1704L907.936 49.0236L907.369 49.0057L909.006 50.1769L912.389 51.3136M252.591 51.1139L253.022 50.159L254.445 50.6153L262.019 46.0367L262.713 46.4502L265.679 43.475L265.145 43.477L263.166 44.7444L257.917 46.4481L251.526 49.8741L251.869 50.3934L251.456 51.0876L251.646 51.3116M902.253 50.4058L901.901 49.843L902.778 48.765L899.961 48.7664L899.084 49.7033L900.003 49.4772L902.039 50.616M891.227 50.4203L891.006 49.4897L890.778 50.4086M876.017 50.4106L875.133 50.0698L874.229 50.392L875.126 50.7149M873.2 50.524L871.688 49.4786L871.446 49.6846L871.653 50.6284M870.514 50.4231L870.3 49.491L869.623 49.9377L868.871 49.9467L866.855 48.7872L866.62 49.025L867.683 50.5358L868.222 50.1859L869.603 50.7163M434.161 50.4231L433.96 49.4634L432.56 49.3666L431.636 49.6805L431.848 50.6285L433.245 50.726M429.935 50.5538L427.054 49.471L426.807 49.6847L427.015 50.6285M1033.42 49.8492L1034.6 47.3905L1041.52 47.2909L1042.92 47.8489L1044.56 46.6811L1044.52 45.5326L1043.59 44.6538L1042.21 45.1848L1040.85 44.6172L1039.45 44.5162L1038.05 44.6165L1037.38 45.0673L1036.69 44.6538L1036.02 45.0977L1035.29 45.0977L1034.64 44.6234L1033.91 44.6234L1032.55 45.1959L1023.58 45.1966L1019.62 43.7778L1015.26 42.7095L1018.38 41.7208L1002.16 40.3759L985.948 41.7076L999.964 43.002L1004.57 45.1018L1003.91 46.2171L1003.91 46.9341L1004.24 47.9588L1004.91 48.5604L1018.05 48.653L1019.41 48.0743L1022.18 47.9817L1027.67 49.955M957.447 49.8727L966.236 47.396L966.982 47.8565L974.521 46.0104L975.93 46.5684L983.497 45.3169L984.243 45.7836L988.192 44.6649L988.558 44.1691L988.206 43.683L982.806 42.4592L982.834 41.8881L982.144 42.3016L981.453 41.8881L981.584 42.5816L972.505 44.4007L971.787 43.9624L971.097 44.3758L970.406 43.9624L969.025 44.5045L955.224 44.5051L937.983 43.2405L937.286 43.7148L936.554 43.7148L935.857 43.2426L919.514 45.1696L912.589 47.0669L910.746 47.898L912.389 49.2318L913.77 48.0812L915.192 48.5403L916.58 47.8655L919.273 47.2404L936.582 45.2166L937.976 45.3086L938.625 45.7891L940.055 45.3155L949.652 46.4308L944.591 47.6034L945.551 47.9609L952.455 47.9616L954.526 47.2909L957.322 47.3815L956.273 48.9773L956.577 49.9315M896.039 49.7192L895.135 49.471L894.942 49.7005L895.86 49.9301M272.689 49.7144L273.276 49.0119L272.397 48.0813L271.476 48.1919L270.054 49.2643L270.287 49.9308L271.686 49.4938L272.38 49.9094M214.58 49.7144L213.708 48.7734L212.769 48.9891L212.995 49.908L213.69 49.4938L214.385 49.9087M414.116 49.6819L413.212 49.9301L413.017 49.7006L413.936 49.471M1075.5 48.4885L1080.73 46.7834L1081.08 46.2379L1080.19 45.9198L1078.8 46.4501L1077.42 45.9081L1072.57 46.0062L1072.36 46.9514L1072.78 47.4513M1033.24 48.53L1031.7 47.4956L1033.26 47.3898L1033.46 48.3391M425.162 48.3364L424.275 47.9851L422.683 48.3177L423.585 48.6517M394.112 48.3461L393.895 47.4154L393.665 48.3343M1065.92 47.6567L1066.37 46.7253L1067.07 47.1423L1067.29 46.9521L1067.09 46.0069L1063.61 45.9081L1061.79 46.4972L1060.17 45.3003L1059.21 46.2621L1062.19 47.88L1065 47.9609M816.64 47.6401L815.038 46.0159L812.483 47.1105L812.089 47.6318L813.008 47.8627L813.657 47.3829L815.058 47.2916L816.446 47.8344M767.577 47.7984L773.197 46.0284L773.232 45.1772L770.912 43.9167L767.425 43.8331L759.865 45.1171L758.422 45.1032L757.614 44.3793L748.39 43.1569L751.849 41.7567L744.026 40.4029L755.66 37.7679L757.552 37.0834L757.953 36.5641L757.607 36.0808L751.007 34.6876L761.902 32.0781L768.558 32.139L770.18 33.3497L769.787 31.9765L768.143 30.7817L760.521 30.6953L751.573 32.5808L748.307 33.9422L747.851 34.4718L748.086 35.5131L749.067 36.8718L742.107 38.7283L739.559 40.0026L739.511 41.0895L742.273 42.659L740.284 44.1691L740.678 44.6849L743.212 45.805L745.345 45.7954L746.705 45.2166L754.991 45.2166L756.012 45.5506L757.041 46.4799L758.443 46.0367L759.112 46.4799L759.865 46.4944L763.234 45.2975L765.347 45.2173L766.245 45.5478L765.803 46.2247L766.038 47.2667L766.707 47.862M398.235 47.6449L396.654 47.2819L395.066 47.6263L396.655 47.9706M961.458 46.4674L960.057 46.5767L959.152 46.2434L960.74 45.9094L961.645 46.2462M784.155 46.3976L791.556 44.6275L792.274 45.0673L792.964 44.6538L793.683 45.0915L796.189 44.0862L794.387 43.2281L793.613 43.2274L786.102 45.1129L784.831 44.7167L783.768 46.2268M769.497 46.4674L769.469 46.0139L770.387 46.2434M623.258 46.4294L646.45 44.6483L646.796 44.1684L646.454 43.6485L651.249 41.9075L651.671 40.9519L650.504 40.1664L645.253 38.3833L642.101 38.2484L640.727 35.5698L636.929 35.5366L634.852 36.2073L630.025 36.2073L627.951 35.5477L625.876 36.2073L622.394 36.1168L623.443 34.5209L623.12 33.4651L622.447 32.8698L615.519 34.8252L613.014 34.7643L611.73 33.1215L610.687 32.7716L609.29 32.8629L607.257 34.7256L606.339 34.6184L604.513 33.5467L601.718 33.4617L593.124 35.5131L595.796 37.6331L587.802 39.6617L587.07 40.1533L589.249 41.6537L589.976 41.7291L594.766 40.4575L595.938 40.4382L597.076 41.9289L602.367 43.728L605.163 43.813L606.528 43.2343L607.959 43.1444L609.982 45.1032L619.005 45.218L620.6 46.5186M1016.69 45.7712L1015.76 45.554L1016.68 45.3245M800.179 45.5651L800.766 44.8606L800.559 44.6545L799.662 45.5541M772.279 45.7712L771.347 45.5541L772.265 45.3245M1078.27 44.976L1083.15 43.374L1079.54 42.5304L1076.02 42.5491L1075.72 43.4777L1076.04 44.5017L1076.71 45.1032M1009.79 43.7017L1005.62 43.8123L1004.72 43.4777L1005.62 43.143L1009.07 43.143L1009.98 43.4804M634.909 43.7225L629.289 43.7321L625.905 42.556L624.496 43.1216L613.431 43.0234L613.084 41.7948L607.797 40.5087L608.163 40.0372L608.163 39.3119L606.885 38.0749L608.578 37.0025L614.139 36.9195L615.165 37.2535L616.403 38.4641L618.951 39.5566L620.358 38.9938L627.257 38.9938L629.331 39.6534L631.406 38.9938L636.276 39.0768L643.469 40.9969M1072.1 42.8001L1071.69 42.0976L1072.11 41.4006L1071.9 41.1967L1071 42.0948L1071.58 42.7856M1070.05 42.8146L1069.83 41.8839L1069.6 42.8028M1068.68 42.1294L1068.68 40.0039L1067.9 40.1664L1066.83 39.0781L1062.61 40.3898L1062.66 41.1469L1064.28 42.3175L1065 41.8881L1066.38 42.4302M1006.34 42.3189L1004.72 42.0948L1006.32 41.8618M806.283 42.1101L805.931 41.5507L808.299 39.8919L806.773 39.6859L805.392 40.2273L804.723 39.7834L803.991 39.7924L804.011 40.2764L805.738 42.0776M599.673 41.6212L598.955 41.1939L598.258 41.6108L598.033 41.4207L598.437 40.2086L603.058 38.3874L605.163 38.3031L606.062 38.6322L605.663 39.1549M305.011 41.5576L308.931 39.7744L321.402 41.048L323.488 40.9485L323.704 40.0033L322.264 38.6073L328.463 36.6595L325.517 35.5477L325.864 34.4891L325.393 33.3144L317.973 32.0947L315.892 30.0972L314.495 30.0059L312.675 30.7375L311.604 32.204L311.468 34.2589L318.08 36.748L317.581 37.5978L314.535 38.8887L313.471 38.6391L312.44 37.7036L310.351 37.6013L308.929 37.6932L305.83 38.9039L304.176 36.9202L300.642 37.0004L297.274 38.1973L296.522 38.1828L295.871 37.7036L294.724 37.5314L293.531 35.91L293.51 34.7374L295.892 33.3123L301.144 31.5775L302.311 30.3413L300.644 30.0875L290.503 33.2937L290.093 33.7804L290.097 34.5092L291.332 34.8632L292.568 39.1369L294.433 40.2709L297.23 40.3559L299.322 39.7841L301.357 41.6461M801.471 40.0489L801.25 39.1182L801.022 40.0371M503.148 40.1879L506.723 38.8451L505.728 37.6172L505.864 37.0509L504.839 35.3313L501.671 34.0404L497.393 32.829L495.405 31.48L492.607 31.48L491.262 32.6575L490.554 32.7391L489.531 32.4162L488.501 31.48L485.723 31.3881L484.698 31.7213L484.097 32.3962L484.087 34.5299L485.205 37.0647L485.704 37.4906L487.102 37.0481L487.428 37.2549L487.999 37.9456L487.585 38.6384L488.464 39.5718L491.262 39.5732L491.954 39.1058L493.968 40.2709L494.7 40.3566M800.007 39.4985L794.753 37.64L794.67 36.9644L786.378 34.8016L784.679 32.2088L783.989 32.6216L783.319 32.1777L782.587 32.1777L781.938 32.6513L781.206 32.6513L780.557 32.1777L779.156 32.6216L778.486 32.1777L777.733 32.168L773.653 34.0252L772.963 33.5536L771.526 33.5474L770.035 34.6371L771.54 36.1147L772.935 36.2073L777.74 34.2388L783.043 34.2139L784.23 35.7489L785.176 36.2232L792.709 37.6711L794.345 39.5352L795.036 39.1224L796.417 39.6645M398.195 39.502L406.294 37.7147L407.014 38.153L407.217 37.949L406.805 37.2549L407.219 36.5593L406.318 36.2288L402.871 36.2281L401.488 36.7702L400.104 36.2281L397.327 36.32L395.962 36.8981L394.347 36.5828L394.281 34.1427L399.222 32.2427L399.793 31.3473L403.833 28.7033L403.579 27.3377L402.141 27.3246L398.482 28.8761L390.787 30.6566L388.134 32.3976L388.589 33.6497L391.604 35.3265L392.514 36.2302L392.938 37.7167L397.302 39.5801M502.654 38.9081L494.68 38.8804L493.093 36.5828L494.22 35.3292L496.086 34.2492L502.901 36.1015L503.859 36.6865M461.739 38.7912L465.311 37.2459L466.656 36.3145L466.674 35.4862L464.971 34.2409L467.119 34.2361L469.8 35.4336L473.313 35.417L473.53 34.4705L473.087 33.7977L473.53 33.1249L473.529 32.3955L472.621 31.48L471.222 31.3784L469.133 31.4794L468.46 31.9302L467.77 31.516L467.079 31.9302L466.407 31.4794L464.275 31.469L460.891 32.6444L460.175 32.2074L459.278 33.1063L459.484 33.4333L460.174 34.0044L460.847 33.5605L461.574 33.5605L462.469 34.5085L461.407 36.3491L459.968 37.9463L460.845 38.8735M375.408 38.8126L380.751 37.6165L381.012 36.5448L380.568 35.872L381.099 34.4601L380.389 33.2612L382.026 32.1805L383.069 30.3599L381.961 29.1278L374.601 26.6304L373.143 26.6324L371.146 27.8252L370.414 27.9102L364.207 27.9095L362.842 27.3308L361.443 27.2305L357.993 27.9088L356.967 27.5763L355.937 26.6401L355.226 26.5481L349.707 26.5481L348.342 27.1268L345.525 27.1337L342.148 25.2496L340.732 25.1659L338.968 25.8781L337.289 27.9199L335.753 29.1036L334.516 28.0589L332.395 29.5129L331.822 29.1084L330.842 30.3219L332.463 31.9454L333.965 30.8806L333.694 30.5286L337.731 29.2308L338.779 28.072L342.637 29.1527L344.835 30.5909L345.567 30.6752L351.75 29.4161L352.622 30.1394L358.683 31.357L360.044 30.7879L362.824 30.6863L365.603 30.7879L366.276 31.2387L366.948 30.7948L367.675 30.7948L369.035 31.357L373.138 30.0861L375.978 30.0903L377.466 31.1793L376.39 32.3962L376.389 33.8136L376.776 34.3405L374.579 36.1147L372.453 36.1216L371.493 35.5982L358.682 33.4721L351.805 34.7235L351.086 34.2824L350.395 34.6959L349.033 33.5543L346.948 33.461L332.314 36.1493L330.805 36.8621L331.736 38.189L333.13 38.2816L338.616 36.9997L340.057 37.0115L340.711 37.492L341.439 37.4913L344.145 35.6217L346.983 35.5374L348.632 37.546L348.976 37.5895L351.127 37.5079L353.807 36.3104L358.021 36.2295L359.615 37.5294L360.772 37.4969L362.135 36.9195L368.344 36.9202L371.759 38.8901M446.593 37.9815L446.64 36.8158L444.743 35.1972L444.653 33.0745L446.233 31.4925L447.28 29.6637L447.072 29.4154L444.987 29.3138L443.604 29.8559L442.914 29.4417L442.204 29.8718L439.48 28.0229L438.081 27.9213L434.588 28.0132L431.173 29.293L428.397 29.2011L427.742 28.7136L426.344 28.6134L424.945 28.7136L424.272 29.1645L423.582 28.7503L422.862 29.1928L414.982 27.8784L413.934 27.3529L412.345 28.7842L409.963 29.822L408.84 31.0133L408.84 33.1215L409.249 33.6027L413.365 35.0305L411.609 36.5461L411.825 37.4913L413.265 37.5072L415.946 36.3104L418.767 36.3194L419.459 36.7868L421.473 35.6258L422.894 36.0787L423.096 35.8755L420.625 33.9678L413.136 31.6349L414.566 30.7796L416.678 30.687L418.076 30.7886L419.657 32.2683L422.673 33.9436L423.741 34.9828L430.445 36.8123L431.867 36.3567L432.558 36.7702L433.228 36.327L433.979 36.3145L435.532 36.9071L443.561 38.2028L445.673 38.2809M597.623 37.4975L596.646 37.2784L596.579 36.2177L599.601 34.9268L601.021 34.8466L601.921 35.1771L600.848 36.3781M321.442 37.4982L319.796 35.3237L317.803 34.3384L324.179 34.252L324.482 35.1806L324.139 36.2274M464.335 36.0725L464.088 35.1667L464.318 34.9718L464.547 35.8927M442.126 35.9985L430.14 34.1745L426.511 32.912L426.108 32.4315L426.112 31.7034L427.722 31.3888L429.087 31.9668L431.862 32.0595L437.389 30.7858L441.535 31.9371L443.198 32.7156L443.163 34.5258M482.47 35.1958L481.906 34.4919L481.351 34.4719L481.558 35.4115M487.823 34.7132L486.394 34.727L486.18 33.7777L487.12 33.5612L488.001 34.496M494.724 34.0169L493.796 33.7998L494.713 33.5695M317.286 34.0217L314.475 34.0404L313.567 33.125L313.571 32.3948L314.496 32.0802L315.892 32.1715L317.254 33.4686M338.168 30.3586L337.264 30.111L337.069 30.3406L337.989 30.5701M330.515 27.736L330.905 26.0302L331.757 26.3994L331.982 26.2093L331.774 25.269L330.373 25.7073L328.99 25.1652L324.812 25.2503L323.195 26.4458L323.449 27.8113L324.868 27.8182L325.54 27.3674L326.923 27.9095" fill="black"/>
</g>
</g>
<defs>
<clipPath id="clip0_1076_2329">
<rect width="169" height="1191" fill="white" transform="translate(0 169) rotate(-90)"/>
</clipPath>
</defs>
</svg>
