<svg width="61" height="61" viewBox="0 0 61 61" fill="none" xmlns="http://www.w3.org/2000/svg">
<path d="M56.4838 48.1788L55.8634 47.93L55.921 47.8885L55.7084 47.7L54.105 46.8168L52.4461 45.2971L52.1093 44.9439L52.1688 44.8967L51.9576 44.6101L51.0285 43.906L50.6807 43.4366L50.6113 43.1513L49.2152 41.5962L49.1419 41.2855L48.9129 41.1676L48.8386 40.9001L47.8998 39.4019L46.5271 37.9016L46.4099 37.6864L46.4782 37.5206L46.1581 37.295L45.3777 36.2112L45.1233 36.0666L44.981 35.7013L44.5313 35.1573L44.3375 34.6333L43.8189 33.9771L42.8165 33.1528L42.0541 32.8039L41.5174 32.2167L41.1515 32.0054L40.972 31.6807L40.2164 31.1025L39.0201 29.8633L38.8936 29.6186L38.2728 29.1569L36.869 28.1743L36.4056 28.0537L35.3674 27.4002L34.3449 26.5438L32.6103 25.7262L31.8336 25.687L31.0314 25.9311L30.5228 26.2043L30.4579 26.7788L30.6156 26.7962L30.4324 26.906L30.3082 27.2074L30.4927 27.6088L30.3996 27.7029L30.6065 28.3015L30.7371 28.3069L30.6895 28.4853L31.0156 28.6654L31.0572 28.8004L31.9179 29.4502L32.0271 29.6742L33.0978 30.5768L33.5501 31.382L33.8866 31.692L34.1692 31.7925L35.0925 32.9201L35.122 33.0855L36.0849 34.0715L36.488 34.7197L36.4585 34.867L36.7471 35.1368L36.6922 35.332L37.0682 35.5483L37.9079 36.4529L38.1597 36.5718L39.0342 37.6482L39.3991 38.2505L39.4048 38.4785L39.606 38.6559L39.7142 38.9369L39.8879 39.0209L39.897 39.575L39.8973 39.5003L39.3409 39.4427L39.1544 39.2512L38.6237 39.0483L38.0535 38.6151L37.693 38.4808L36.0554 37.1403L35.1963 36.6133L35.1167 36.4653L34.7005 36.3384L34.4976 35.9966L34.0791 35.8054L33.8437 35.4465L33.3415 35.0528L32.7265 34.0953L32.232 33.6403L31.6678 33.4561L31.7053 33.3905L31.4241 33.1933L30.8801 33.0095L29.6155 32.1166L26.8139 30.7643L25.2959 29.8302L23.2489 28.9055L21.1527 28.2164L19.1519 27.7096L18.3922 27.9536L17.9774 28.2164L17.9185 28.3624L18.0139 28.4488L17.9443 28.6406L18.0544 28.6986L17.958 28.7819L18.0732 28.8037L18.0193 28.954L18.7572 29.8446L20.3441 30.9598L20.6635 31.3305L20.9511 31.4892L20.9177 31.6063L21.385 31.8042L22.0416 32.3128L23.353 32.972L23.6607 33.2268L24.0045 33.3433L24.3139 33.6282L25.4991 34.2881L26.0144 34.8131L27.8414 35.9541L30.1026 37.0435L30.0588 37.1145L32.2166 38.7122L32.4951 39.1079L33.1939 39.666L33.1788 39.878L33.3445 39.9439L33.2053 40.5308L33.0255 40.722L32.6639 40.7642L31.1305 40.3427L25.2219 37.7356L23.2094 37.0928L20.6367 36.1037L19.3116 35.7348L16.4581 35.3046L14.4831 35.184L13.8781 35.0002L13.1455 34.9343L12.7729 34.9838L11.8689 35.4599L11.8847 35.6816L11.7826 35.7629L12.6075 37.0298L14.6739 38.0918L15.075 38.4725L17.8311 39.6289L21.6405 40.8151L23.8636 41.8145L27.3623 43.0121L28.816 43.7845L28.9449 43.9428L29.2188 43.9937L29.8157 44.5481L29.7387 44.5917L30.1401 44.8113L29.9168 45.116L29.3858 45.3647L28.1139 45.3992L26.6485 45.1572L22.0962 43.9696L16.2036 43.3844L14.6468 43.4138L12.9584 43.2498L11.358 43.4634L10.7882 43.7815L10.518 43.825L10.4671 43.9398L9.45668 44.2478L9.08705 44.5137L9.12623 44.6295L9 44.6462L9.32242 44.6834L9.51157 44.9814L9.8283 45.2094L13.2416 46.8961L14.8912 47.2517L17.2398 48.1279L18.4224 48.3241L20.2658 49.0831L22.0493 49.3067L24.4043 49.8642L25.5888 50.0292L26.0676 50.1491L26.6722 50.5552L26.6676 50.9523L26.4185 51.2784L25.5594 51.5599L22.7316 51.644L20.7385 51.3738L20.0133 51.4615L19.5048 51.6266L19.564 51.6818L18.9524 51.7411L18.4347 51.9657L18.2309 52.116L18.2613 52.6862L18.1287 52.7836L18.2864 52.9176L18.1502 53.0009L18.8345 53.5564L18.954 53.92L19.1104 53.9655L19.3879 54.3093L20.5494 54.682L21.3104 54.8058L21.4332 54.9204L23.0477 55.2237L28.4457 55.7035L31.2262 56.1263L31.4968 56.2612L33.3475 56.5364L33.5203 56.6868L33.9797 56.75L37.099 56.4825L38.4503 56.4758L38.8561 56.3021L40.969 56.0453L41.7558 56.0891L41.8844 56.2107L43.0304 56.4099L44.0117 56.3757L46.1488 57.0825L46.7477 57.4237L47.9888 57.7555L48.2192 57.8562L48.2088 57.9794L48.4971 58.2108L49.8242 58.638L50.2524 58.8771" stroke="black" stroke-width="1.5" stroke-linecap="round" stroke-linejoin="round"/>
<path d="M57.1849 49.6793L57.0882 49.4776L57.2506 49.5807L57.1913 49.8053L57.5349 50.2808L57.8435 51.1239L57.7678 51.13L57.7848 51.6779L57.5015 52.93L57.49 53.3718L57.2174 53.7811L57.1264 54.2791L56.8125 55.0398L55.9216 56.4407L55.9606 56.5958L55.7716 56.7613L55.6536 57.1L54.6586 57.9862L54.6485 58.0905L54.118 58.3119L53.9015 58.2724L53.9571 58.3079L53.8829 58.3956L53.0445 58.9594L52.731 59.0522L52.0752 59.009L51.7584 59.1668L51.6464 59.0901L51.7507 58.981L51.7126 59.0485L51.5369 58.9322" stroke="black" stroke-width="1.5" stroke-linecap="round" stroke-linejoin="round"/>
<path d="M21.0762 11.9402L21.214 12.1365L21.2022 12.3002L21.3142 12.3885L21.2231 12.9294L21.3194 13.4224L21.4351 13.5403L21.4635 14.1461L21.5609 14.3498L21.5223 14.9557L21.6223 15.629L21.5674 15.7625L21.6765 16.1631L21.7914 17.429L21.7396 18.846L21.9531 19.5069L21.9925 20.8541L21.9286 21.1275L21.9888 21.5089L21.7534 22.4469L21.8122 23.225L21.7666 23.4258L21.6794 23.4711L21.7633 23.5695L21.6859 23.6152L21.7653 23.6667L21.8221 23.94L21.6796 24.2072L21.7505 24.2856L21.651 24.4191L21.5934 24.8122L21.6039 25.0267L21.6872 25.07L21.5932 25.3102L21.6669 25.3268L21.5281 25.4094L21.5867 25.7372L21.5213 26.0235L21.4562 26.0448L21.588 26.2428L21.4812 26.3624L21.5156 26.5315L21.4549 26.5691L21.5111 26.5918L21.4231 26.6703L21.501 26.7216L21.3668 26.7878L21.3723 26.917L21.2361 26.9803L21.2921 27.0281L21.1926 27.09" stroke="black" stroke-width="1.5" stroke-linecap="round" stroke-linejoin="round"/>
<path d="M20.8876 33.2004L20.5776 33.2656L20.7782 33.3314L20.8321 33.6531L20.6031 34.5053L20.4021 35.0106L20.3596 34.9413L20.4297 34.9486" stroke="black" stroke-width="1.5" stroke-linecap="round" stroke-linejoin="round"/>
<path d="M18.6864 40.7152L18.5976 40.7139L18.67 40.7886L18.6656 41.0298L18.4832 41.9365L18.2129 42.5681" stroke="black" stroke-width="1.5" stroke-linecap="round" stroke-linejoin="round"/>
<path d="M15.6278 49.3005L15.4515 49.4612L15.2161 50.2345L14.9564 50.44L14.3737 51.2696L13.0243 54.0028L13.018 54.157L12.1434 55.3447L11.4129 57.144L10.9354 57.9842L10.7515 58.1621L10.7984 58.2433L10.6995 58.1962L10.7724 58.2631L10.8638 58.2136L10.7547 58.1652L10.9664 57.8623" stroke="black" stroke-width="1.5" stroke-linecap="round" stroke-linejoin="round"/>
<path d="M19.7671 8.94628L19.6945 9.05359L19.4345 8.12063L19.1407 7.67368L18.7688 7.44552L18.3398 7.3976L17.5079 7.07619L15.2865 6.84985L14.0626 7.14417L13.6698 7.27753L13.5373 7.4239L12.9132 7.5906L12.8838 7.68019L12.6673 7.74166L11.9745 8.21231L11.5231 8.68712L10.8306 9.67425L10.7649 9.94305L10.5337 10.1056L10.5152 10.3163L10.33 10.3434L10.3313 10.5184L10.0729 10.7494L9.87835 11.112L9.70358 12.1554L9.71504 12.57L9.62622 12.7375L9.75697 13.3332L9.70228 13.3595L9.94372 13.5913L9.9307 14.0583L10.1052 14.5393L10.255 14.7003L10.6209 14.805L10.848 14.7795L11.3437 14.4114L11.8404 14.1927L13.0882 14.2203L13.5227 14.0064L14.0988 13.4975L14.6419 13.1678L14.989 13.1146L15.4797 13.2277L15.8543 13.1318L17.148 12.4546L17.5683 12.3531L17.9705 12.5518L18.3617 12.8865L18.9845 13.7163L19.13 13.7783L19.7861 13.6342L20.4954 13.7929L20.9108 13.6311L21.4815 12.8701L22.036 12.557" stroke="black" stroke-width="1.5" stroke-linecap="round" stroke-linejoin="round"/>
<path d="M21.6042 8.07574L21.6482 8.60525L21.6018 8.18747L21.8295 7.53216L21.867 7.12142L22.0719 6.89196L22.0456 6.80757L22.59 6.21581L23.2489 5.93165L23.9975 5.73891L24.0543 5.64437L23.9912 5.55998L24.1892 5.4795L24.445 5.15289L24.6356 5.0896L24.8625 4.86586L25.5696 3.73079L25.8066 3.54717L25.8723 3.33906L26.1424 3.01375L26.3346 2.96374L26.4028 2.85461L27.3097 2.57358L28.1724 2.07324L28.9735 2.16284L29.1348 2.07923L29.4757 2.08053L30.1292 2.26963L30.5449 2.54675L30.784 2.82831L31.0319 3.65916L31.2317 4.04282L31.2768 4.37334L31.1694 5.07579L30.989 5.23363L31.0244 5.39146L30.7848 5.75689L29.7036 7.13965L29.4009 7.4147L28.5977 7.90097L28.4987 8.05021L27.734 8.40131L26.9943 9.06938L26.3455 10.0943L26.3632 9.85596L26.4291 9.92446L26.3299 10.0761L26.259 10.8772L26.2877 11.0746L26.4617 11.1614L27.5355 10.7884L28.4906 10.1834L28.8363 9.90102L28.9459 9.69422L30.1865 9.06053L30.6858 8.98708L31.2116 9.1035L31.618 9.49966L31.9782 10.0737L32.1123 10.1599L32.1219 10.3644L32.516 11.0757L32.8189 12.0118L32.9364 13.2164L32.5163 13.8876L31.9253 14.1418L31.3296 14.2725L30.3524 14.2796L29.6895 14.4403L29.4452 14.5869L29.0251 14.6257L28.3328 14.9768L27.9062 15.0414L27.2839 14.9687L27.236 14.8471L26.9753 14.831L26.831 14.7109L26.2611 14.6554L25.9324 14.6703L25.8379 14.7539L25.392 14.4291L25.0456 14.2879L24.9187 14.3155L24.7507 14.1486L24.5715 14.2129L24.4223 14.0944L24.3921 14.1712L24.2316 13.9561L23.9412 14.1579L23.7839 14.1767L23.3391 14.0509L23.2815 14.2652" stroke="black" stroke-width="1.5" stroke-linecap="round" stroke-linejoin="round"/>
<path d="M20.6274 13.8406L20.704 14.2169L20.7256 14.1586L20.6519 14.1872L20.5756 14.0711L20.373 14.1102L20.2 14.2539L20.0766 14.2372L19.3014 14.8462L18.9988 14.9504L17.7239 15.7695L17.7538 15.8537L17.4543 16.0282L17.5105 16.111L17.0232 16.5564L16.6667 17.063L16.6529 17.2536L16.476 17.3617L16.4239 17.6133L16.221 17.8097L16.2267 17.973L15.8538 18.4494L15.8837 18.6041L15.7413 19.0664L15.6287 19.1615L15.5467 19.5422L15.3206 19.9545L15.3094 20.2439L15.1878 20.4213L15.2021 20.7193L15.1326 20.8495L15.2511 21.6645L15.5019 22.0416L15.7324 22.0752L16.4463 21.9715L17.6567 21.4355L18.3719 21.3097L19.0532 21.0219L19.7875 20.4502L19.814 20.2931L19.9708 20.2171L20.1177 19.9611L20.5477 19.7207L21.016 19.3235L21.301 19.3034L21.3708 19.2266L21.6807 19.2922L22.2928 19.182L22.6402 19.2891L22.6999 19.4045L22.6449 19.4326L22.9426 19.5211L23.0085 19.6337L23.2034 19.6404L23.3174 19.7829L23.3956 19.7477L23.7972 20.2304L23.9941 20.2853L24.1634 20.2155L25.0463 19.3362L25.6579 19.0354L25.854 19.0646L26.4075 19.5798L27.1417 19.754L27.5449 19.5779L28.724 18.7794L29.2535 18.6484L29.8651 18.7247L29.5478 17.935L29.0944 17.4458L28.6974 17.2239L28.3273 16.7639L27.5121 16.1329L27.0214 15.8349L26.5205 15.6294L26.2544 15.6271L25.9694 15.4041L25.8436 15.4395L25.5733 15.2358L25.3302 15.1668L25.2878 15.0561L24.9896 15.0014L24.9883 14.9147L24.7231 14.6571L24.8617 14.4167L24.8833 14.0487L24.9432 14.0565L24.733 13.863" stroke="black" stroke-width="1.5" stroke-linecap="round" stroke-linejoin="round"/>
<path d="M19.802 7.04105L19.9653 7.42053L19.8906 7.4359L19.9917 7.43746L20.0406 7.53305L19.9448 7.45179L20.081 7.41194L20.1693 7.13689L19.7687 6.79387L18.811 6.40787L18.008 5.89503L17.5975 5.45382L17.4001 5.02667L17.1652 4.89201L17.1396 4.60447L17.4173 3.34802L17.6098 3.00552L18.5016 2.44554L19.0347 1.90613L19.5301 1.22712L19.7265 1.09194L19.9461 1L20.026 1.08257L19.9612 1.15132L20.6011 2.38172L20.7058 2.78491L21.1556 3.32041L21.4718 4.00984L21.7065 4.34818L21.8755 4.45418L21.9479 4.67271L22.1829 4.91129L22.2105 5.10194L22.3868 5.13658L22.7223 5.02615L22.5694 5.08944L22.6007 5.1707" stroke="black" stroke-width="1.5" stroke-linecap="round" stroke-linejoin="round"/>
<path d="M22.4878 11.031L22.5496 11.2649L22.4839 11.4326L22.3738 11.425L22.448 11.437L22.4579 11.2904L22.3474 11.207L22.2005 10.7773L22.0594 10.8296L22.0234 10.9609L22.1722 12.0553L22.2649 12.3491L22.3873 12.3695L23.1017 11.7592L23.993 10.5483L24.0654 10.3397L23.7912 10.4905L23.208 10.4676L22.616 10.3387L22.4607 10.2014" stroke="black" stroke-width="1.5" stroke-linecap="round" stroke-linejoin="round"/>
</svg>
