<svg width="340" height="107" viewBox="0 0 340 107" fill="none" xmlns="http://www.w3.org/2000/svg">
<path d="M95.528 0.193958C95.785 0.290323 95.4959 0.547298 94.7571 0.804274C94.1146 1.02913 93.3437 1.12549 93.1189 1.02913C92.8619 0.93276 92.6692 1.06125 92.6692 1.31822C92.6692 1.60732 92.2837 1.76793 91.5449 1.80005C90.6776 1.83217 90.1315 2.12127 89.2964 3.02068C88.686 3.66312 88.1721 4.40192 88.1721 4.6589C88.1721 4.91587 88.0757 5.07648 87.9472 5.07648C87.2084 4.948 86.8872 5.23709 86.3733 6.55409C86.0842 7.35714 85.6987 7.99957 85.5702 7.99957C85.4096 7.99957 85.3132 8.25655 85.3454 8.54565C85.4417 9.66991 85.2811 10.2481 84.8635 10.2481C84.4781 10.2481 83.5144 13.0748 83.8035 13.3639C83.8678 13.4603 83.7393 14.0706 83.5144 14.7773C83.2574 15.4519 83.1611 16.03 83.3217 16.03C83.4502 16.03 83.5465 16.5761 83.5144 17.2186C83.418 18.3749 83.7714 19.2422 84.3175 19.2422C84.6708 19.2422 85.5702 16.7046 85.249 16.6082C85.0563 16.544 85.1526 15.9016 85.4096 15.1306C85.6666 14.3918 85.7629 13.7815 85.6023 13.7815C85.4739 13.7815 85.506 13.2676 85.6666 12.6572C85.8593 12.0469 86.1805 11.6615 86.3411 11.7578C86.5339 11.8863 86.5981 11.7578 86.4696 11.4366C86.1805 10.6657 87.1763 7.93533 88.0757 7.10016C88.4933 6.7147 88.7503 6.39348 88.6539 6.39348C88.5254 6.39348 88.686 6.16863 88.943 5.87953C89.2321 5.62256 89.457 5.17285 89.457 4.91587C89.457 4.6589 89.5533 4.46617 89.7139 4.49829C90.1958 4.56253 91.3843 4.04858 91.2237 3.85585C91.1594 3.72736 91.7055 3.30978 92.4443 2.95644C94.1789 2.12127 96.9092 2.18551 97.905 3.11705C98.2905 3.47039 99.5754 4.04858 100.796 4.46617C101.984 4.85163 102.884 5.30134 102.755 5.46195C102.659 5.62256 102.82 5.75104 103.077 5.75104C103.398 5.75104 103.591 6.04014 103.591 6.4256C103.591 6.81106 103.848 7.16441 104.233 7.26077C104.586 7.35714 104.779 7.54987 104.683 7.71048C104.618 7.87109 104.843 8.06382 105.261 8.16018C105.743 8.28867 106.225 8.89899 106.706 9.95901C107.092 10.8263 107.252 11.4687 107.06 11.3403C106.867 11.2118 106.867 11.3724 107.092 11.8221C107.317 12.1754 107.606 12.4966 107.734 12.4966C107.895 12.4966 107.991 13.9421 107.927 15.7088C107.863 18.0858 107.927 18.921 108.216 18.921C108.73 18.921 109.79 15.6125 109.822 13.7815C109.886 12.4966 109.308 10.6657 108.73 10.2481C108.345 9.95901 107.638 8.51353 107.606 7.87109C107.574 7.54987 107.349 7.10016 107.092 6.90743C106.835 6.7147 106.385 6.13651 106.064 5.65468C105.743 5.17285 105.357 4.85163 105.197 4.948C105.036 5.04436 104.811 4.75526 104.683 4.30556C104.586 3.85585 104.297 3.50251 104.04 3.50251C103.783 3.50251 103.591 3.37402 103.591 3.18129C103.591 3.02068 103.398 2.95644 103.141 3.0528C102.916 3.14917 102.498 2.98856 102.209 2.73159C101.792 2.314 95.7207 -0.0630169 95.2389 0.00122643C95.1425 0.00122643 95.271 0.0975914 95.528 0.193958Z" fill="black"/>
<path d="M279.778 2.0249C278.911 2.86007 277.401 6.77894 277.433 8.22442C277.433 8.73837 277.272 9.5093 277.08 9.99113C276.887 10.5051 276.855 10.8905 277.015 10.8905C277.176 10.8905 277.272 11.4045 277.208 12.0148C277.144 12.6251 277.208 13.0748 277.369 12.9785C277.626 12.8179 278.557 14.713 278.429 15.1306C278.365 15.2591 278.622 15.4518 278.975 15.5482C279.296 15.6446 279.682 15.9979 279.778 16.3191C279.906 16.7367 280.163 16.8652 280.645 16.7367C281.127 16.6082 281.256 16.6725 281.095 16.9616C280.934 17.2185 281.095 17.4113 281.512 17.5398C281.866 17.6361 282.123 17.8289 282.026 17.9574C281.962 18.0858 282.251 18.118 282.669 18.0216C283.247 17.9252 283.472 18.0216 283.472 18.3749C283.472 18.6319 283.825 18.9531 284.275 19.0495C284.725 19.178 285.078 19.3707 285.078 19.5313C285.078 19.6598 285.399 19.7241 285.817 19.6598C286.813 19.4992 287.134 19.7883 287.905 21.5871C288.451 22.8078 288.515 23.2896 288.258 23.8035C288.065 24.1569 288.001 24.7351 288.065 25.0884C288.162 25.4096 287.969 26.5018 287.648 27.4333C287.327 28.397 287.198 29.2 287.359 29.2643C287.519 29.3285 287.455 29.7461 287.198 30.1958C286.973 30.6455 286.813 31.4807 286.877 32.0589C286.973 32.7977 286.877 33.0225 286.62 32.8619C286.363 32.7013 286.331 32.7977 286.459 33.151C286.588 33.4722 286.78 33.9219 286.877 34.1789C286.973 34.4359 286.909 34.6607 286.716 34.6607C286.459 34.6607 286.427 34.8213 286.684 35.271C286.845 35.6244 286.909 36.1383 286.813 36.3953C286.716 36.6844 286.78 36.9093 287.005 36.9093C287.198 36.9093 287.262 37.0699 287.166 37.2305C286.845 37.7123 287.23 38.6438 287.937 39.0614C288.708 39.5433 289.607 39.2863 289.35 38.6438C289.254 38.3869 289.318 38.1941 289.479 38.1941C289.639 38.1941 289.736 37.6481 289.736 36.9735C289.736 36.3311 289.832 35.4638 289.961 35.0462C290.153 34.5322 290.121 34.3716 289.864 34.5322C289.575 34.6929 289.543 34.5001 289.736 33.8256C289.864 33.3116 289.993 32.3801 290.057 31.7376C290.089 31.0952 290.25 30.3564 290.41 30.1315C290.699 29.6176 290.86 29.0394 290.892 28.0757C290.924 27.7224 290.988 27.0157 291.085 26.5018C291.213 25.7951 291.31 25.6987 291.567 26.0199C291.856 26.4375 291.695 25.6024 291.278 24.446C291.181 24.2211 291.599 23.8678 292.273 23.5787C292.916 23.3217 293.43 22.872 293.43 22.615C293.43 22.1974 294.008 21.9726 294.811 22.1011C294.939 22.1011 295.036 21.9083 295.036 21.6514C295.036 21.3944 295.196 21.1695 295.389 21.1695C295.55 21.1695 296.353 20.5271 297.156 19.7241C297.927 18.921 298.955 18.118 299.404 17.9574C299.854 17.7646 300.143 17.5076 300.047 17.347C299.95 17.2185 300.111 16.7688 300.432 16.4155C300.721 16.0622 301.203 15.4518 301.46 15.0985C301.717 14.713 302.103 14.4239 302.327 14.4239C302.552 14.4239 302.745 14.2633 302.745 14.1027C302.745 13.653 303.934 12.4966 304.158 12.7536C304.255 12.85 304.351 12.6894 304.351 12.4003C304.351 12.1112 304.576 11.8542 304.833 11.8542C305.09 11.8542 305.315 11.6936 305.315 11.533C305.315 11.1154 306.503 9.92688 306.696 10.1196C306.792 10.216 307.114 9.54142 307.403 8.64201C307.692 7.74259 307.885 6.93955 307.852 6.90742C307.467 6.58621 303.709 5.52619 303.709 5.71892C303.709 5.8474 303.131 5.91165 302.392 5.87953C301.685 5.8474 300.946 6.00801 300.721 6.23287C300.464 6.48984 300.111 6.55408 299.629 6.36135C299.147 6.20074 298.89 6.20074 298.89 6.4256C298.89 6.71469 295.935 8.22442 294.329 8.77049C294.008 8.86686 293.751 9.15596 293.751 9.44505C293.751 9.70203 293.526 9.92688 293.269 9.92688C293.012 9.92688 292.787 10.1517 292.787 10.4408C292.787 10.6978 292.659 10.8263 292.466 10.7299C292.305 10.6336 292.145 10.6978 292.145 10.8905C292.145 11.0833 292.016 11.1475 291.824 11.0511C291.663 10.9548 291.502 10.9869 291.502 11.1475C291.502 11.5972 290.731 11.8542 289.993 11.6615C289.639 11.5651 289.35 11.1796 289.318 10.6657C289.286 10.216 288.804 9.41293 288.29 8.89898C287.744 8.38503 287.23 7.54986 287.102 7.03591C287.005 6.52196 286.78 6.16862 286.62 6.26499C286.138 6.55408 285.688 5.71892 285.913 4.94799C286.042 4.43404 286.01 4.40192 285.753 4.78738C285.463 5.20497 285.399 5.20497 285.399 4.69102C285.399 4.40192 285.207 4.14495 284.982 4.14495C284.757 4.14495 284.307 3.631 283.986 3.0528C283.44 2.0249 282.155 1.25397 281.031 1.25397C280.806 1.25397 280.228 1.60732 279.778 2.0249ZM282.444 5.97589C283.022 7.29289 283.6 7.99957 284.018 7.99957C284.146 7.99957 284.532 8.57776 284.821 9.28444C285.11 9.99113 285.207 10.473 285.014 10.3766C284.853 10.2481 285.046 10.7621 285.463 11.5009C285.849 12.2075 286.459 12.9142 286.78 13.0106C287.102 13.1069 287.294 13.396 287.198 13.653C287.102 13.8779 287.166 14.167 287.327 14.2633C287.68 14.4882 287.005 16.287 286.459 16.4797C285.913 16.7046 283.729 15.7731 283.954 15.4197C284.05 15.2591 283.408 14.97 282.54 14.7452C280.774 14.3276 280.292 13.653 280.42 11.7578C280.485 11.1154 280.388 10.5693 280.228 10.5693C280.035 10.5693 280.003 10.4087 280.099 10.2481C280.195 10.0554 280.131 9.92688 279.939 9.92688C279.746 9.92688 279.682 9.76627 279.81 9.54142C279.939 9.34869 280.035 8.70625 280.003 8.12806C279.971 7.54986 280.163 6.84318 280.42 6.61833C280.677 6.36135 280.774 5.8474 280.677 5.46194C280.549 4.91587 280.645 4.78738 281.191 4.78738C281.673 4.78738 282.059 5.14072 282.444 5.97589ZM303.388 8.80262C303.388 9.05959 303.516 9.34869 303.709 9.44505C303.901 9.57354 303.934 9.41293 303.805 9.09171C303.677 8.70625 303.741 8.60988 304.062 8.70625C304.64 8.89898 304.865 9.92688 304.319 9.92688C304.126 9.92688 303.452 10.4408 302.841 11.0833C302.167 11.8221 301.589 12.1754 301.267 12.0469C300.914 11.9184 300.818 12.0148 300.978 12.4645C301.107 12.9142 300.978 13.1391 300.432 13.3318C300.015 13.4603 299.469 13.8136 299.18 14.1348C298.89 14.4561 298.569 14.6488 298.473 14.5524C298.376 14.4239 298.184 14.713 298.087 15.1627C297.863 16.0622 297.252 16.4476 296.513 16.1585C296.16 16.03 296.096 16.1585 296.224 16.7367C296.321 17.1543 296.321 17.3792 296.192 17.2507C295.935 17.0258 294.715 18.0858 294.715 18.5355C294.715 18.8568 293.269 19.5634 292.659 19.5634C292.145 19.5634 292.113 17.9252 292.627 17.5398C292.819 17.4113 292.787 17.2185 292.498 17.0258C292.145 16.801 292.113 16.544 292.37 15.8052C292.562 15.3234 292.819 14.6488 292.916 14.2955C293.076 13.8458 293.205 13.7815 293.558 14.0706C293.944 14.3918 293.976 14.3276 293.847 13.7494C293.687 13.1391 293.751 13.1069 294.425 13.2997C294.907 13.4282 295.036 13.396 294.779 13.2033C294.233 12.8179 294.586 12.0148 295.55 11.5972C295.967 11.3724 296.321 11.0833 296.321 10.8905C296.321 10.6657 296.513 10.6336 296.931 10.8905C297.798 11.3402 297.895 11.3081 297.702 10.6336C297.606 10.1517 297.927 9.86264 299.212 9.31657C300.111 8.9311 300.946 8.67413 301.107 8.77049C301.235 8.86686 301.621 8.73837 301.974 8.51352C302.649 7.99957 303.388 8.1923 303.388 8.80262Z" fill="black"/>
<path d="M153.861 6.77896C153.7 7.16442 153.315 7.29291 152.544 7.22866C151.933 7.19654 151.452 7.22866 151.452 7.32503C151.452 7.4214 150.552 7.51776 149.428 7.51776C148.239 7.51776 147.276 7.67837 146.987 7.93535C146.698 8.22444 146.441 8.25657 146.151 7.99959C145.83 7.74262 145.67 7.74262 145.509 7.99959C145.381 8.22444 144.931 8.28869 144.545 8.19232C144.128 8.09596 143.742 8.1602 143.678 8.35293C143.614 8.57778 143.132 8.77052 142.586 8.83476C140.755 9.02749 136.676 11.1475 136.676 11.8863C136.676 12.4645 137.8 12.4003 139.727 11.6936C140.916 11.2439 142.04 10.9869 142.233 11.1154C142.425 11.2118 142.457 11.1475 142.329 10.9548C142.072 10.5372 142.265 10.5051 144.321 10.5051C145.059 10.5372 145.67 10.4409 145.67 10.3124C145.67 9.9269 147.276 9.95902 147.276 10.3766C147.276 10.5693 147.533 10.4409 147.79 10.0875C148.143 9.63781 148.368 9.57356 148.464 9.83054C148.561 10.1518 148.785 10.1518 149.267 9.89478C149.621 9.70205 149.846 9.66993 149.749 9.83054C149.621 9.99115 149.974 10.1518 150.52 10.1518C151.195 10.1518 151.355 10.0554 151.066 9.83054C150.777 9.63781 150.873 9.60568 151.387 9.70205C151.773 9.79842 152.094 9.76629 152.094 9.66993C152.094 9.1881 157.426 9.4772 159.097 10.0554C159.996 10.3445 160.96 10.5693 161.185 10.473C161.377 10.4087 162.116 10.5372 162.791 10.7621C163.947 11.1797 164.011 11.1797 164.3 10.3766C164.493 9.9269 164.622 9.38083 164.622 9.12386C164.622 8.67415 163.176 8.19232 162.662 8.48142C162.309 8.70627 159.482 7.74262 159 7.22866C158.84 7.03593 158.069 6.87532 157.33 6.90745C156.591 6.90745 156.045 6.81108 156.141 6.65047C156.366 6.29713 156.013 6.32925 155.242 6.74684C154.728 7.00381 154.535 7.00381 154.31 6.68259C154.118 6.32925 154.021 6.36137 153.861 6.77896Z" fill="black"/>
<path d="M167.351 13.5566C166.901 14.1027 166.805 15.6445 167.19 16.3512C167.383 16.7045 167.383 17.0258 167.222 17.1221C166.933 17.3149 166.933 17.8609 167.222 18.4391C167.319 18.5997 167.383 19.2422 167.383 19.7882C167.351 20.3664 167.415 20.8483 167.512 20.8483C167.608 20.8483 167.704 21.1695 167.736 21.5549C167.865 22.8719 168.025 23.5786 168.411 24.2853C168.732 24.8314 168.732 25.0241 168.443 25.0241C168.154 25.0241 168.154 25.1205 168.443 25.4738C169.214 26.4053 168.796 29.9066 167.544 33.3116C166.965 34.7892 166.58 36.3953 166.612 36.845C166.676 37.3589 166.548 37.6801 166.355 37.648C166.162 37.6159 165.841 38.162 165.616 38.8686C165.295 39.8965 165.038 40.1856 164.267 40.3462C163.753 40.4426 163.336 40.6353 163.336 40.7638C163.336 40.9887 161.505 41.5348 161.023 41.4384C160.862 41.4384 160.766 41.5669 160.766 41.7596C160.766 41.9523 160.541 42.0166 160.252 41.9202C159.995 41.8239 159.481 41.8881 159.16 42.0487C158.807 42.2414 158.068 42.402 157.49 42.4663C156.205 42.5627 156.012 43.5906 157.168 44.0081C157.682 44.2009 157.843 44.1687 157.682 43.9439C157.554 43.719 157.65 43.6227 157.907 43.719C158.164 43.8154 158.646 43.7512 158.999 43.5584C159.353 43.3657 160.124 43.2372 160.702 43.2372C161.248 43.2372 161.73 43.1087 161.73 42.9802C161.73 42.8196 162.083 42.6911 162.533 42.6911C163.014 42.6911 163.785 42.4663 164.267 42.2093C164.781 41.9523 165.263 41.856 165.391 41.9523C165.488 42.0808 165.584 41.9202 165.584 41.599C165.584 41.2778 165.745 41.1493 165.938 41.2457C166.323 41.5026 167.576 40.4747 167.319 40.0893C167.222 39.9287 167.383 39.7038 167.64 39.6074C167.929 39.5111 168.154 39.1899 168.154 38.9329C168.154 38.6759 168.282 38.5474 168.443 38.6438C168.604 38.7723 168.668 38.5474 168.572 38.1941C168.443 37.7444 168.572 37.5516 168.925 37.5516C169.214 37.5516 169.439 37.3268 169.439 37.0698C169.439 36.8128 169.599 36.588 169.792 36.588C169.953 36.588 170.017 36.4274 169.921 36.2346C169.632 35.7849 170.692 32.9903 171.045 33.2152C171.398 33.44 171.302 31.6733 170.916 31.4164C170.788 31.2879 170.82 30.9024 171.045 30.4848C171.238 30.0994 171.334 29.5854 171.238 29.3284C171.141 29.0715 171.206 28.5254 171.366 28.0757C171.559 27.5939 171.559 27.2405 171.334 27.112C171.173 26.9835 171.141 26.7266 171.27 26.5338C171.623 25.9556 171.655 25.3453 171.334 25.3453C171.206 25.3453 171.141 25.1526 171.238 24.8956C171.334 24.6386 171.238 24.1247 171.045 23.7392C170.756 23.161 170.756 22.9683 171.045 22.7756C171.334 22.5828 171.302 22.3901 170.852 21.9404C170.499 21.5871 170.242 20.8804 170.242 20.2701C170.242 19.724 170.146 19.2422 170.049 19.2422C169.921 19.2422 169.824 18.9209 169.792 18.5034C169.696 16.6403 169.567 16.03 169.278 16.03C169.118 16.03 169.182 15.8694 169.439 15.7088C169.856 15.4518 169.856 15.3875 169.375 15.3875C169.021 15.3875 168.893 15.1948 169.021 14.7772C169.086 14.456 168.925 13.9742 168.636 13.653C168.025 13.0426 167.801 13.0105 167.351 13.5566Z" fill="black"/>
<path d="M156.204 13.621C156.14 13.7174 155.626 13.8458 155.112 13.9101C154.598 13.9743 153.699 14.1992 153.121 14.3919C152.542 14.5525 151.868 14.6489 151.611 14.5525C151.386 14.4562 151 14.5846 150.808 14.8095C150.551 15.0665 149.908 15.195 149.202 15.1307C148.527 15.0665 147.66 15.195 147.242 15.3877L146.503 15.8053L147.435 16.255C148.174 16.6726 148.366 16.6726 148.591 16.2871C148.752 16.0623 148.88 16.0301 148.88 16.2229C148.88 16.6404 150.262 16.5441 151.547 16.0623C152.157 15.8053 152.735 15.8695 153.699 16.1907C154.502 16.4798 154.919 16.512 154.791 16.3192C154.662 16.0944 154.823 16.0301 155.273 16.1907C155.626 16.2871 155.947 16.2871 155.947 16.1265C155.947 15.998 156.461 15.8374 157.104 15.7732C158.099 15.7089 158.228 15.7732 158.035 16.3192C157.939 16.6726 158.067 17.1544 158.356 17.4435C158.838 17.9253 158.838 17.9896 158.356 18.1502C157.907 18.3429 157.907 18.4393 158.485 18.9853C159.192 19.5957 159.352 20.206 158.902 20.206C158.742 20.206 158.613 20.4308 158.613 20.6878C158.613 20.9448 158.742 21.0733 158.902 20.9769C159.063 20.8805 159.127 21.1696 159.031 21.6193C158.935 22.1012 158.999 22.3903 159.192 22.2939C159.352 22.1654 159.481 22.1975 159.513 22.3581C159.513 22.4866 159.609 22.9685 159.673 23.4182C159.77 23.8679 159.866 24.5424 159.898 24.9279C159.93 25.3455 160.059 25.6667 160.219 25.6667C160.348 25.6667 160.444 25.8273 160.444 26.02C160.444 26.1807 160.316 26.2449 160.123 26.1485C159.706 25.8916 160.091 27.0158 160.573 27.4334C161.023 27.851 161.119 28.4934 161.183 31.5129C161.183 32.8941 161.312 34.0184 161.44 34.0184C161.569 34.0184 161.601 34.2754 161.536 34.5966C161.44 34.8857 160.733 35.3996 159.962 35.7209C158.549 36.3312 157.875 37.1663 158.549 37.5518C158.742 37.6803 159.545 37.7445 160.316 37.7124C161.183 37.6482 161.729 37.7445 161.729 37.9694C161.729 38.1621 161.954 38.0336 162.211 37.6803C162.596 37.1985 162.725 37.1663 162.982 37.5197C163.175 37.8088 163.335 37.8409 163.464 37.5839C163.592 37.3912 163.946 37.2306 164.267 37.2306C165.006 37.2306 165.487 35.3354 164.877 34.9178C164.556 34.7251 164.556 34.5966 164.877 34.3717C165.23 34.1469 165.23 34.0826 164.845 33.922C164.46 33.7935 164.363 33.3438 164.46 32.2196C164.492 31.3844 164.427 30.9026 164.299 31.0953C164.138 31.3844 164.01 31.3523 163.849 30.9347C163.721 30.6135 163.817 30.2601 164.042 30.0995C164.363 29.9068 164.363 29.7783 164.074 29.5856C163.849 29.4571 163.624 28.8146 163.528 28.1401C163.464 27.4976 163.271 26.791 163.143 26.5661C162.982 26.3413 162.918 25.7631 162.982 25.2812C163.014 24.7673 162.918 24.3818 162.725 24.3818C162.5 24.3818 162.436 24.0606 162.564 23.5788C162.725 22.9685 162.629 22.7757 162.243 22.7757C161.633 22.7757 161.601 22.6151 162.083 21.78C162.34 21.266 162.307 20.9769 161.986 20.5914C161.729 20.3023 161.536 19.5635 161.536 18.9853C161.569 18.4393 161.44 17.9574 161.247 17.9574C161.087 17.9574 161.151 17.7968 161.408 17.6362C161.826 17.3793 161.826 17.315 161.376 17.315C161.055 17.315 160.637 16.7689 160.316 15.9016C159.866 14.7453 159.545 14.3919 158.678 14.1028C158.067 13.9101 157.393 13.8458 157.2 13.9743C157.007 14.0707 156.75 14.0065 156.622 13.8137C156.493 13.621 156.301 13.5246 156.204 13.621Z" fill="black"/>
<path d="M144.707 15.2592C144.707 15.4198 144.386 15.5804 144 15.6125C143.583 15.6768 142.844 15.7731 142.298 15.8374C141.784 15.9016 141.238 15.998 141.141 15.998C141.013 16.0301 140.82 16.4156 140.724 16.8653C140.563 17.4756 140.66 17.8289 141.077 18.118C141.398 18.3429 141.784 18.4714 141.944 18.375C142.105 18.2465 142.137 18.3429 142.009 18.5356C141.784 18.9211 142.201 19.1459 144 19.692C144.803 19.949 144.996 19.2744 144.321 18.5356C143.808 18.0217 143.615 17.1865 144.032 17.4435C144.193 17.5398 144.771 17.4756 145.317 17.2829C146.056 17.0259 146.313 16.7368 146.313 16.1586C146.313 15.741 146.185 15.3877 146.024 15.3877C145.863 15.3877 145.51 15.2913 145.221 15.1949C144.932 15.0986 144.707 15.1307 144.707 15.2592Z" fill="black"/>
<path d="M189.29 19.1137C189.194 19.2101 186.752 19.5634 185.178 19.724C183.926 19.8525 183.894 19.8525 183.894 20.3343C183.894 20.5592 184.183 20.8483 184.536 20.9447C184.986 21.0732 185.178 20.9447 185.178 20.5913C185.178 20.238 185.275 20.1737 185.435 20.3986C185.757 20.9125 187.748 21.5229 187.748 21.1374C187.748 20.9447 187.909 20.9125 188.134 21.041C188.358 21.1695 189.483 21.3301 190.639 21.3622C191.796 21.3944 193.337 21.6513 194.108 21.9083C194.847 22.1974 195.714 22.3259 196.004 22.2295C196.357 22.101 196.453 22.1332 196.293 22.4223C196.132 22.6792 196.325 22.7756 196.967 22.7114C198.027 22.6471 202.139 23.932 202.878 24.5744C203.167 24.8314 203.456 24.9278 203.584 24.8314C203.873 24.5423 205.126 25.0241 204.901 25.3775C204.805 25.5381 204.837 25.6666 204.998 25.6345C205.126 25.6023 205.704 25.7308 206.218 25.9557C206.764 26.1484 207.375 26.4054 207.6 26.4696C207.824 26.566 207.953 26.7587 207.856 26.8872C207.76 27.0478 208.274 27.3369 208.949 27.5618C209.655 27.7545 210.233 28.0757 210.233 28.2042C210.233 28.3648 210.683 28.6539 211.229 28.8466C211.775 29.0394 212.129 29.3285 212.032 29.4891C211.872 29.7461 212.996 30.2921 213.542 30.1958C213.703 30.1636 213.735 30.2921 213.638 30.4527C213.446 30.7418 214.345 31.2879 214.827 31.1594C214.955 31.1594 215.148 31.3522 215.245 31.6091C215.373 31.8661 215.694 32.091 215.983 32.091C216.401 32.091 216.433 32.1552 216.048 32.3801C215.662 32.637 215.758 32.7334 216.433 32.894C216.915 33.0225 217.461 33.408 217.654 33.7292C217.814 34.0825 218.103 34.2752 218.232 34.211C218.392 34.1146 218.842 34.468 219.228 34.9819C219.645 35.528 220.159 35.9456 220.384 35.9456C220.609 35.9456 220.962 36.2347 221.155 36.588C221.348 36.9414 221.637 37.1662 221.797 37.0698C221.958 36.9735 222.247 37.1983 222.44 37.5517C222.633 37.905 222.954 38.1941 223.146 38.1941C223.339 38.1941 223.853 38.5796 224.303 39.0614C224.753 39.5754 225.234 39.9608 225.363 39.9608C225.491 39.9608 226.005 40.3784 226.487 40.9245C226.969 41.4384 227.483 41.8881 227.579 41.8881C227.708 41.8881 228.029 42.1451 228.35 42.4342C228.671 42.7554 229.121 43.0124 229.378 43.0124C229.635 43.0124 229.924 43.2051 230.021 43.4621C230.117 43.7191 230.824 44.0724 231.627 44.2973C232.398 44.5221 233.04 44.8433 233.04 45.004C233.04 45.1646 233.297 45.3573 233.618 45.4858C233.907 45.5821 234.518 45.9676 234.935 46.3531C235.353 46.7385 235.61 46.8349 235.481 46.61C235.353 46.3852 235.449 46.2246 235.738 46.2246C236.027 46.2246 236.252 46.4173 236.252 46.6422C236.252 46.867 238.822 47.8949 242.677 49.1798C246.21 50.3362 249.101 51.1714 249.101 51.0107C249.101 50.8501 249.486 50.8823 250 51.075C251.51 51.6853 257.131 52.0708 257.485 51.5889C257.71 51.2998 258.802 51.6532 258.609 51.9744C258.513 52.1029 258.962 52.2314 259.573 52.2314C260.279 52.2635 260.761 52.1029 260.89 51.8138C260.986 51.5568 261.211 51.4604 261.436 51.5889C261.982 51.9423 262.592 51.9744 262.592 51.6532C262.592 51.4926 262.946 51.5247 263.395 51.6853C264.295 52.0386 266.126 51.7817 266.126 51.2998C266.126 51.1071 266.383 51.0429 266.704 51.1071C267.025 51.2035 267.443 51.075 267.667 50.818C267.892 50.5932 268.213 50.4647 268.374 50.561C268.663 50.7216 269.177 49.501 268.952 49.244C268.663 48.9871 266.126 48.9228 266.126 49.2119C266.126 49.3725 265.933 49.4368 265.74 49.3404C265.515 49.2762 265.355 48.9871 265.419 48.7622C265.483 48.4731 265.323 48.5052 264.905 48.8907C264.552 49.2119 264.07 49.3725 263.749 49.244C263.459 49.1477 263.235 49.2119 263.235 49.4046C263.235 49.6616 263.074 49.6937 262.624 49.4368C261.725 48.9549 261.307 49.0513 261.307 49.6616C261.307 50.1113 261.243 50.1435 261.018 49.7901C260.793 49.4689 260.601 49.4368 260.022 49.758C259.444 50.0792 259.251 50.0471 259.027 49.7259C258.834 49.4046 258.673 49.4046 258.32 49.6937C257.967 49.9828 257.581 49.9828 256.553 49.6295C255.654 49.3083 255.204 49.2762 255.14 49.501C255.044 49.7259 254.787 49.7259 254.24 49.4368C253.823 49.2119 252.827 48.9871 252.056 48.9228C251.253 48.8907 250.514 48.7301 250.418 48.5695C250.322 48.4089 249.711 48.3125 249.101 48.3125C248.105 48.3446 239.529 45.7428 239.143 45.293C239.047 45.1967 238.854 45.1003 238.661 45.1003C237.666 45.0682 236.252 44.5221 236.252 44.1367C236.252 43.9118 235.899 43.6227 235.449 43.5263C234.999 43.3979 234.646 43.2051 234.646 43.0445C234.646 42.8839 234.389 42.8197 234.036 42.916C233.65 43.0124 233.072 42.7233 232.43 42.0809C231.884 41.5348 231.434 41.2778 231.434 41.4705C231.434 41.6633 231.113 41.5348 230.695 41.1493C230.278 40.7639 229.796 40.4426 229.603 40.4426C229.442 40.4426 229.121 40.0893 228.928 39.6717C228.736 39.1899 228.19 38.8044 227.611 38.6759C227.065 38.5796 226.68 38.3547 226.712 38.2584C226.808 37.9371 224.849 35.9456 224.399 35.9456C224.207 35.9456 223.885 35.5922 223.66 35.1425C223.468 34.7249 223.179 34.4359 223.018 34.5322C222.89 34.6286 222.536 34.468 222.247 34.211C221.99 33.9219 221.54 33.6971 221.283 33.6971C221.026 33.6971 220.898 33.5364 220.994 33.3437C221.123 33.151 220.93 32.9261 220.545 32.8298C220.191 32.7334 219.806 32.4122 219.709 32.0588C219.581 31.7055 219.324 31.5449 219.035 31.6734C218.81 31.7697 218.585 31.6734 218.585 31.4806C218.585 31.2879 218.232 30.9667 217.814 30.8061C217.397 30.6455 216.947 30.2279 216.818 29.8424C216.722 29.4891 216.465 29.2642 216.305 29.3606C216.144 29.457 215.855 29.3927 215.63 29.2C214.184 28.0115 213.638 27.5939 213.446 27.5939C213.253 27.5939 212.707 27.1763 211.261 25.9878C211.037 25.7951 210.298 25.4417 209.591 25.1848C208.884 24.9278 207.953 24.3496 207.535 23.8999C206.636 22.9362 197.802 19.7883 197.577 20.3343C197.481 20.5913 197.353 20.5913 197.16 20.3343C197.031 20.1416 196.678 19.981 196.421 19.9489C194.43 19.8204 192.888 19.5955 192.631 19.4349C192.277 19.2101 189.451 18.9531 189.29 19.1137Z" fill="black"/>
<path d="M106.641 20.9126C106.287 21.1054 105.837 21.4908 105.645 21.7478C105.452 22.0048 105.131 22.1333 104.906 22.0048C104.649 21.8442 104.392 22.1011 104.167 22.7114C103.942 23.2575 103.46 23.8357 103.043 24.0284C102.143 24.446 102.079 24.8957 102.914 25.1206C103.557 25.2812 104.649 24.703 105.548 23.6751C105.837 23.3539 106.159 23.1933 106.287 23.3218C106.384 23.4181 106.48 23.3539 106.48 23.129C106.48 22.9042 106.641 22.8399 106.801 22.9363C107.122 23.129 107.765 21.8442 107.765 20.9769C107.765 20.4308 107.508 20.4308 106.641 20.9126Z" fill="black"/>
<path d="M144.898 21.3623C144.705 21.8763 145.187 23.0969 145.637 23.0969C145.765 23.0969 146.054 23.4503 146.247 23.9C146.44 24.3497 146.825 24.703 147.082 24.703C147.628 24.703 148.078 23.643 147.628 23.4824C147.436 23.4181 147.339 23.2254 147.468 23.0648C147.564 22.9042 147.468 22.7757 147.275 22.7757C147.082 22.7757 147.018 22.6151 147.114 22.4545C147.211 22.2617 147.146 22.1333 146.954 22.1333C146.761 22.1333 146.697 21.9727 146.793 21.812C146.889 21.6193 146.6 21.3302 146.151 21.1696C145.091 20.752 145.123 20.752 144.898 21.3623Z" fill="black"/>
<path d="M84.4758 22.1332C84.1224 22.7114 84.026 24.3817 84.3473 24.3817C84.54 24.3817 84.5721 24.5102 84.4758 24.7029C84.3794 24.8635 84.4436 25.0241 84.6042 25.0241C85.0861 25.0241 85.0539 25.9878 84.5721 26.052C83.9297 26.1163 81.4884 26.2769 79.015 26.4375C77.7944 26.5017 76.1562 26.7908 75.4174 27.1121C74.004 27.6903 73.6186 28.2042 74.6143 28.2042C74.9034 28.2042 75.835 28.2684 76.7023 28.3648C77.6017 28.4291 78.212 28.3648 78.212 28.1721C78.212 28.0115 78.4047 27.9151 78.6296 28.0115C78.8223 28.0757 79.4005 28.0436 79.8823 27.883C80.332 27.7545 80.8139 27.7545 80.9423 27.8509C81.0387 27.9472 81.3278 28.0757 81.5848 28.1078C82.163 28.2042 84.3794 28.9109 84.797 29.1679C84.9897 29.2642 85.4073 29.3927 85.7606 29.4248C86.114 29.4891 86.4994 29.7461 86.66 30.003C86.7885 30.26 87.1419 30.4849 87.3667 30.4849C87.6237 30.4849 87.8485 30.7097 87.8485 30.9667C87.8485 31.2237 88.0734 31.4485 88.3304 31.4485C88.6195 31.4485 88.9086 31.6734 89.0049 31.9303C89.1334 32.1873 89.4225 32.4122 89.6795 32.4122C89.9365 32.4122 90.0328 32.5407 89.9365 32.7334C89.8401 32.894 89.9365 32.9904 90.1613 32.894C90.3862 32.7976 90.7395 33.0546 90.9001 33.4401C91.382 34.468 100.89 37.648 102.303 37.2305C102.914 37.0698 103.267 37.0698 103.267 37.2626C103.267 37.4553 103.524 37.4232 103.942 37.2305C104.295 37.0056 104.68 36.9414 104.777 37.0377C104.873 37.1341 105.259 37.0056 105.58 36.7486C105.933 36.5238 106.447 36.3953 106.736 36.4916C107.09 36.6523 107.154 36.588 106.961 36.2668C106.8 36.0098 106.833 35.9135 107.025 36.0419C107.347 36.2347 109.049 35.7207 110.27 35.0462C110.655 34.8213 111.298 34.7249 111.619 34.8213C112.004 34.9498 112.261 34.8856 112.261 34.6607C112.261 34.468 112.422 34.4037 112.582 34.5001C112.775 34.5965 112.904 34.5322 112.904 34.3395C112.904 34.1468 113.257 33.8577 113.707 33.697C114.156 33.5364 114.51 33.2152 114.51 32.9904C114.51 32.7655 116.116 31.834 118.075 30.9667C120.035 30.0673 121.93 29.1036 122.283 28.8145C122.637 28.4933 123.086 28.3327 123.215 28.4291C123.375 28.5254 123.504 28.4933 123.504 28.3327C123.504 28.2042 123.825 28.0436 124.243 28.0115C125.72 27.883 126.909 27.6903 127.615 27.4654C128.097 27.3048 128.322 27.369 128.322 27.6581C128.354 27.9472 128.483 27.883 128.772 27.5296C128.997 27.2084 129.254 27.0478 129.35 27.1442C129.446 27.2405 129.671 26.8872 129.864 26.3733C130.185 25.4738 130.153 25.4096 129.029 25.0884C127.583 24.7029 125.656 24.7993 125.495 25.2811C125.399 25.5702 125.206 25.5702 124.757 25.3454C124.435 25.1526 124.146 25.1205 124.146 25.2811C124.146 25.4417 122.926 26.1484 121.416 26.823C119.906 27.5296 118.686 28.2363 118.686 28.4612C118.686 28.8466 116.79 29.6176 115.666 29.7139C115.313 29.7461 114.863 30.003 114.67 30.2921C114.445 30.5812 114.06 30.8061 113.771 30.8061C113.482 30.8061 113.161 31.0952 113.064 31.4806C112.936 31.834 112.679 32.0588 112.486 31.9946C112.293 31.9303 111.908 32.1231 111.619 32.38C110.462 33.4722 109.724 33.954 109.563 33.7934C109.467 33.6649 109.37 33.7613 109.37 33.9861C109.37 34.211 109.242 34.3074 109.113 34.211C108.953 34.1146 108.214 34.2431 107.411 34.468C106.64 34.6928 105.098 34.8534 104.006 34.8534C102.785 34.8213 102.111 34.9498 102.239 35.1425C102.336 35.3031 102.207 35.3031 101.95 35.1104C101.372 34.6607 99.3161 34.2431 99.573 34.6286C99.6694 34.7892 99.4445 34.8534 99.0591 34.7571C98.5451 34.5965 98.4809 34.5001 98.8342 34.2752C99.1233 34.0504 99.0912 34.0183 98.6415 34.1468C97.8706 34.4037 93.8875 33.1188 93.5341 32.5407C93.4056 32.2837 93.1487 32.0909 92.9881 32.0909C92.7953 32.0909 92.3777 31.8019 91.9923 31.4164C91.382 30.8061 91.3498 30.7097 91.8638 30.1636C92.2171 29.7782 92.8274 29.5533 93.6626 29.5854C94.3693 29.5854 95.1081 29.457 95.3329 29.2642C95.5578 29.0715 96.1039 29.0072 96.5215 29.1036C97.0354 29.2321 97.196 29.2 97.0354 28.943C96.9069 28.7182 96.9069 28.5575 97.0675 28.5254C98.0954 28.4291 98.9306 28.1721 99.027 27.9151C99.0912 27.7545 99.3482 27.7224 99.6373 27.8187C99.9906 27.9472 100.087 27.8187 99.9906 27.2405C99.8943 26.5339 99.7658 26.4696 98.3845 26.5339C97.5172 26.566 96.393 26.8551 95.8469 27.1442C95.2687 27.4333 93.9517 27.6903 92.8596 27.7545C91.7674 27.7866 90.5147 27.9472 90.065 28.0757C89.3904 28.2363 89.0371 28.1078 88.5231 27.5618C88.1698 27.1442 87.8485 26.7266 87.8485 26.566C87.8485 26.4375 87.6558 26.309 87.431 26.309C86.9491 26.309 86.1782 24.4459 86.4673 23.9641C86.5637 23.7714 86.4994 23.7393 86.2746 23.8677C86.0497 24.0284 85.857 23.7714 85.7285 23.1289C85.5358 22.1653 84.797 21.5871 84.4758 22.1332Z" fill="black"/>
<path d="M135.937 22.4222C135.841 22.7756 135.873 23.1289 135.969 23.2253C136.066 23.3216 136.162 23.8035 136.226 24.2853C136.29 24.7993 136.387 25.7308 136.483 26.3732C136.547 27.0478 136.515 27.5939 136.387 27.5939C136.258 27.5939 136.162 27.8508 136.13 28.1399C136.098 28.4611 136.001 29.4248 135.873 30.3242C135.776 31.1915 135.616 32.4764 135.584 33.1188C135.519 33.7613 135.359 34.4358 135.23 34.6285C135.134 34.8213 135.166 34.9819 135.295 34.9819C135.455 34.9819 135.584 35.4958 135.584 36.1062C135.584 36.7165 135.487 37.2304 135.391 37.2304C135.262 37.2304 135.198 38.3226 135.198 39.6396C135.23 41.342 135.359 42.0808 135.68 42.2093C135.905 42.3057 136.001 42.5948 135.905 42.8518C135.712 43.3978 136.322 44.9397 136.74 44.9397C136.901 44.9397 136.933 45.0682 136.836 45.2609C136.74 45.4215 136.804 45.5821 136.965 45.5821C137.158 45.5821 137.286 45.7106 137.254 45.8712C137.19 46.0318 137.672 46.7385 138.282 47.3809C138.892 48.0555 139.213 48.4731 138.956 48.3125C138.635 48.1519 138.571 48.184 138.732 48.4088C138.86 48.6337 139.149 48.7943 139.406 48.7943C139.631 48.7943 139.888 48.987 139.984 49.2119C140.209 49.8222 142.458 50.4325 143.743 50.2077C144.353 50.1113 145.188 49.9828 145.606 49.9507C145.991 49.9507 146.312 49.8222 146.312 49.7258C146.312 49.6295 146.698 49.5331 147.212 49.5331C148.304 49.501 151.773 47.8949 151.773 47.4131C151.773 47.2846 151.934 47.2524 152.094 47.3488C152.287 47.4452 152.416 47.3809 152.416 47.1882C152.416 46.9955 152.576 46.9312 152.737 47.0276C152.93 47.124 153.058 47.0918 153.058 46.9312C153.058 46.7385 153.283 46.5136 153.572 46.4173C154.054 46.2245 154.054 46.2888 153.7 46.7706C153.443 47.0918 153.604 47.0276 154.054 46.61C154.471 46.1924 155.082 45.7106 155.403 45.4857C155.885 45.1324 155.917 45.0039 155.531 44.49C155.146 43.9439 154.953 43.9439 153.925 44.2651C153.251 44.49 152.737 44.8754 152.737 45.1003C152.737 45.6142 151.613 46.0318 151.099 45.7106C150.842 45.55 150.809 45.6142 150.97 45.9033C151.163 46.2245 151.099 46.2888 150.713 46.1282C150.392 46.0318 150.167 46.0639 150.167 46.2567C150.167 46.4494 150.039 46.4815 149.846 46.3852C149.685 46.2888 149.525 46.353 149.525 46.5779C149.525 46.8027 149.428 46.8991 149.332 46.8027C149.235 46.6743 148.882 46.867 148.529 47.2203C147.854 47.8949 147.115 48.0555 147.469 47.4131C147.597 47.2203 147.437 47.2846 147.115 47.5737C146.698 47.9591 146.345 48.0234 145.798 47.7985C145.381 47.67 145.028 47.6379 145.028 47.7664C145.028 48.0876 143.197 48.0234 142.137 47.67C141.237 47.4131 140.498 46.7064 139.92 45.6464C139.727 45.2609 139.342 44.9397 139.085 44.9397C138.828 44.9397 138.539 44.5542 138.41 44.0403C138.282 43.5584 138.057 43.0124 137.832 42.8518C137.639 42.659 137.447 41.8881 137.415 41.085C137.35 40.282 137.286 38.6117 137.222 37.391C137.158 36.1383 137.222 34.8213 137.35 34.4037C137.511 34.0182 137.511 33.697 137.35 33.697C137.19 33.697 137.126 33.4079 137.222 33.0225C137.35 32.5085 137.479 32.4764 137.672 32.7976C138.057 33.3758 138.025 32.9582 137.639 31.9624C137.415 31.3521 137.511 30.7097 137.929 29.4248C138.25 28.4611 138.507 27.0157 138.475 26.2126C138.443 25.3774 138.539 24.7029 138.635 24.7029C138.764 24.7029 138.796 24.3817 138.667 23.9962C138.282 22.4222 136.258 21.2658 135.937 22.4222Z" fill="black"/>
<path d="M309.812 25.2811C309.812 25.4096 309.041 25.5702 308.141 25.6023C305.475 25.6987 304.544 25.8593 304.415 26.2448C304.351 26.4696 304.158 26.566 303.998 26.4375C303.837 26.3411 303.709 26.4054 303.709 26.566C303.709 26.9836 301.974 27.6581 300.946 27.6581C299.95 27.6581 298.344 28.4291 298.922 28.6218C299.147 28.686 298.666 29.0072 297.862 29.2963C296.481 29.8424 295.742 30.774 296.192 31.5128C296.513 31.9946 297.573 31.7697 297.927 31.1273C298.119 30.774 298.409 30.5491 298.601 30.6455C298.762 30.774 298.89 30.6776 298.89 30.4849C298.89 30.2921 299.051 30.2279 299.212 30.3242C299.404 30.4206 299.533 30.3242 299.533 30.0673C299.533 29.5854 301.942 28.5254 303.227 28.4291C303.644 28.4291 303.901 28.3006 303.837 28.1721C303.741 28.0436 303.966 27.9472 304.255 27.9151C305.989 27.8509 307.531 27.626 308.495 27.3048C309.105 27.1121 309.715 27.0478 309.844 27.1442C310.005 27.2405 310.133 27.1442 310.133 26.9515C310.133 26.7587 310.262 26.6624 310.422 26.7908C310.711 26.9515 312.189 27.1442 314.951 27.4012C315.562 27.4333 316.365 27.5939 316.686 27.7545C317.136 27.9472 317.232 27.9151 317.071 27.6581C316.782 27.1763 316.846 27.1763 318.485 27.7545C319.224 28.0115 319.962 28.1721 320.091 28.0757C320.251 27.9794 321.247 28.2042 322.307 28.5254C323.399 28.8466 324.267 29.0715 324.267 28.9751C324.267 28.8788 324.524 29.0072 324.813 29.2321C325.166 29.5533 325.262 29.5533 325.102 29.2642C324.813 28.7824 324.813 28.7824 326.612 29.3927C327.447 29.6818 328.121 30.0352 328.121 30.1958C328.121 30.3885 328.539 30.6776 329.085 30.8382C329.599 31.0309 330.113 31.4485 330.209 31.7697C330.306 32.091 330.82 32.5085 331.333 32.7013C331.88 32.8619 332.297 33.151 332.297 33.3437C332.297 33.5043 332.618 33.7613 333.004 33.8577C333.903 34.1789 335.156 35.528 335.413 36.5559C335.638 37.5195 336.762 39.5432 337.276 39.8644C337.469 40.0251 337.469 40.1214 337.276 40.1214C337.115 40.1214 337.18 40.282 337.437 40.4426C337.79 40.6675 337.79 40.7639 337.501 40.7639C337.212 40.7639 337.18 40.9245 337.405 41.3421C337.565 41.6311 337.694 42.2415 337.661 42.6912C337.661 43.1409 337.79 43.7833 337.918 44.1045C338.111 44.5221 338.079 44.6506 337.854 44.5221C337.629 44.3615 337.533 44.747 337.597 45.6785C337.726 47.2525 336.634 50.8823 335.831 51.6853C335.509 52.0065 335.156 52.7132 335.027 53.2593C334.899 53.8053 334.674 54.255 334.514 54.255C334.353 54.255 334.064 54.6084 333.903 55.0581C333.743 55.5078 333.454 55.8611 333.261 55.8611C333.1 55.8611 332.875 56.2145 332.747 56.6642C332.65 57.1139 332.426 57.403 332.297 57.3066C332.137 57.2103 331.815 57.7885 331.558 58.5915C331.141 59.78 331.141 60.037 331.494 60.037C331.719 60.037 332.137 59.8121 332.426 59.5552C332.683 59.2982 333.036 59.0733 333.229 59.0733C333.421 59.0733 333.582 58.8806 333.582 58.6557C333.582 58.3988 333.871 57.8848 334.224 57.4672C334.578 57.0497 334.867 56.5357 334.867 56.2787C334.867 56.0218 334.995 55.8933 335.156 56.0218C335.317 56.1181 335.574 55.8933 335.67 55.5399C335.798 55.1545 336.28 54.4478 336.794 53.9338C337.276 53.4199 337.951 52.2956 338.24 51.3962C338.529 50.4968 338.882 49.8222 339.043 49.9186C339.171 50.015 339.46 49.6616 339.621 49.1477C339.846 48.4731 339.846 48.1519 339.621 48.0876C339.364 47.9913 339.396 47.7664 339.653 47.2846C340.071 46.4494 340.135 44.9397 339.717 44.9397C339.557 44.9397 339.46 44.3294 339.525 43.5585C339.589 42.8197 339.428 41.6311 339.171 40.9245C338.946 40.2499 338.818 39.6075 338.882 39.5111C338.978 39.4469 339.043 39.5753 339.043 39.8002C339.043 40.0251 339.139 40.1214 339.235 40.0251C339.364 39.8966 339.3 39.6396 339.139 39.4147C338.946 39.1899 338.561 38.2262 338.24 37.2947C337.886 36.3953 337.533 35.6244 337.372 35.6244C337.244 35.6244 336.891 35.1747 336.601 34.5965C336.312 34.0183 335.863 33.3758 335.638 33.1189C335.381 32.894 335.188 32.5728 335.188 32.4122C335.188 32.2837 334.899 32.2194 334.546 32.3158C334.096 32.4443 333.903 32.3158 333.903 31.9625C333.903 31.6734 333.678 31.4485 333.389 31.4485C333.132 31.4485 332.972 31.32 333.068 31.1594C333.197 30.9988 332.586 30.6133 331.751 30.2921C330.884 30.003 330.049 29.5533 329.888 29.3606C329.695 29.1357 329.213 28.8466 328.764 28.7182C328.314 28.5897 327.8 28.2684 327.607 28.0115C327.447 27.7545 326.901 27.4975 326.451 27.4975C326.001 27.4654 325.68 27.3369 325.776 27.1763C325.841 27.0478 325.744 26.9515 325.584 26.9515C325.391 26.9515 325.23 27.1121 325.23 27.2727C325.23 27.4654 324.781 27.4012 324.106 27.1442C323.335 26.823 322.918 26.7587 322.789 27.0157C322.628 27.2405 322.436 27.1763 322.147 26.823C321.922 26.5017 321.568 26.3411 321.376 26.4696C321.183 26.566 320.348 26.4375 319.513 26.1805C318.677 25.8914 317.714 25.6666 317.36 25.6666C314.02 25.6345 310.486 25.4096 310.197 25.2169C309.972 25.0884 309.812 25.1205 309.812 25.2811Z" fill="black"/>
<path d="M147.243 26.052C147.211 26.2768 147.146 27.0478 147.05 27.7545C146.986 28.4611 146.889 29.4248 146.889 29.9066C146.857 30.4206 146.761 30.806 146.665 30.806C146.44 30.806 146.375 31.8661 146.279 36.1061C146.215 40.282 147.114 41.8238 149.652 41.7917C150.648 41.7596 151.129 41.3099 151.129 40.3462C151.129 39.9286 150.905 39.8002 150.102 39.8644C149.138 39.9608 149.074 39.8965 148.752 38.4189C148.56 37.5516 148.303 36.9734 148.174 37.1019C148.014 37.2304 147.917 37.1662 147.917 36.9734C147.917 36.7486 148.014 36.588 148.174 36.588C148.303 36.588 148.399 35.8492 148.431 34.9819C148.431 34.0825 148.335 33.3758 148.239 33.3758C147.982 33.3758 148.11 30.9666 148.367 30.5169C148.495 30.3563 148.431 30.0994 148.239 30.003C148.014 29.8745 148.014 29.6496 148.174 29.4248C148.624 28.8145 148.849 27.5938 148.495 27.5938C148.335 27.5938 148.303 27.2726 148.399 26.9193C148.56 26.4696 148.463 26.1162 148.206 25.9556C147.596 25.5702 147.275 25.6023 147.243 26.052Z" fill="black"/>
<path d="M268.213 31.1596C268.117 31.2559 267.699 31.288 267.249 31.1917C266.8 31.1274 266.446 31.1917 266.446 31.3523C266.446 31.5129 265.965 31.802 265.354 32.0268C264.198 32.4444 263.62 33.5366 264.391 33.8257C264.648 33.922 265.226 33.8578 265.675 33.6972C266.125 33.5045 266.639 33.4723 266.832 33.5687C267.025 33.6972 267.089 33.6329 266.96 33.4402C266.703 33.0226 268.052 32.5408 268.342 32.9263C268.438 33.0869 269.112 33.2475 269.819 33.2796C273.096 33.4081 275.441 33.8899 275.441 34.3717C275.441 34.5324 275.826 34.8214 276.276 34.9821C276.725 35.1748 276.982 35.4318 276.886 35.6245C276.79 35.7851 276.886 35.9457 277.143 35.9457C277.528 35.9457 278.01 36.2669 279.552 37.5518C279.777 37.7445 279.873 38.0336 279.777 38.1942C279.681 38.387 279.809 38.4191 280.066 38.3227C280.484 38.1621 281.126 39.2543 280.965 39.8646C280.933 39.9931 281.19 40.1858 281.544 40.2822C282.09 40.4749 282.732 41.567 282.572 42.1131C282.539 42.2737 282.636 42.3701 282.764 42.3701C283.214 42.3701 283.76 43.8798 283.567 44.5865C283.471 44.972 283.503 45.2611 283.664 45.2289C284.338 45.1005 284.499 45.2932 284.113 45.7429C283.792 46.1284 283.792 46.2247 284.113 46.2247C284.338 46.2247 284.435 46.4817 284.338 46.8672C284.242 47.2205 284.274 47.4454 284.435 47.349C284.563 47.2526 284.692 47.5096 284.692 47.9272C284.659 49.0193 284.949 50.6897 285.173 50.9466C285.302 51.043 285.173 51.4927 284.884 51.9424C284.595 52.36 284.531 52.6491 284.692 52.5206C285.366 52.103 285.366 52.9382 284.724 54.5443C284.338 55.4758 283.889 56.0861 283.696 55.9577C283.503 55.8292 283.439 56.0219 283.567 56.4716C283.664 56.8571 283.471 58.0135 283.118 59.0092C282.732 60.1335 282.604 60.8723 282.829 60.9365C282.989 61.0008 283.15 61.2578 283.15 61.4826C283.15 61.7396 283.375 61.836 283.76 61.7396C284.113 61.6432 284.82 61.7717 285.334 62.0287C285.816 62.2857 286.587 62.4463 287.037 62.382C287.454 62.3499 288.354 62.2535 289.06 62.2535C289.96 62.2214 290.345 62.0287 290.441 61.6111C290.538 61.2578 291.116 60.8402 291.823 60.6474C292.658 60.3905 293.011 60.1335 292.883 59.8444C292.786 59.5232 293.043 59.3304 293.75 59.202C294.425 59.0414 294.874 58.7201 295.067 58.2062C295.26 57.6601 295.517 57.4674 295.87 57.5959C296.127 57.6922 296.255 57.6601 296.159 57.4674C296.063 57.2746 296.127 57.1462 296.288 57.1462C296.48 57.1462 296.641 56.9534 296.641 56.6965C296.641 56.311 297.669 55.8292 298.665 55.7328C298.825 55.7007 299.114 55.4758 299.307 55.1867C299.532 54.8976 300.014 54.5764 300.431 54.4479C300.817 54.3194 301.138 54.0625 301.138 53.9019C301.138 53.7091 301.299 53.677 301.459 53.7734C301.652 53.8697 301.78 53.8055 301.78 53.6128C301.78 53.42 301.909 53.3237 302.102 53.4521C302.262 53.5485 302.68 53.3879 303.001 53.0667C304.19 51.9424 304.928 51.4285 305.121 51.5891C305.217 51.7176 305.314 51.5891 305.314 51.3321C305.314 50.9788 305.378 50.9788 305.635 51.3642C305.892 51.7497 305.956 51.7497 305.956 51.2036C305.956 50.6575 306.021 50.6575 306.278 51.043C306.534 51.4606 306.599 51.4285 306.599 50.9466C306.599 50.6254 306.727 50.4327 306.856 50.5291C307.016 50.6254 307.434 50.4006 307.819 50.0793C308.205 49.726 308.622 49.4369 308.783 49.4369C308.944 49.4369 309.361 49.1157 309.747 48.6981C310.742 47.606 311.546 47.0278 311.802 47.092C311.963 47.1563 312.059 47.0278 312.059 46.835C312.059 46.6744 312.22 46.6102 312.381 46.7065C312.573 46.8029 312.702 46.7387 312.702 46.5459C312.702 46.3532 313.152 45.775 313.666 45.2611C314.212 44.7471 314.629 44.1689 314.629 43.9762C314.629 43.8156 314.918 43.655 315.272 43.655C315.625 43.655 316.043 43.398 316.139 43.0768C316.428 42.3058 316.942 42.0489 317.681 42.2416C318.195 42.3701 318.227 42.338 317.841 42.081C317.424 41.7919 317.424 41.7277 317.938 41.7277C318.227 41.7277 318.484 41.567 318.484 41.3743C318.484 41.1816 318.677 40.8282 318.934 40.5713C319.351 40.1858 319.319 40.0252 318.709 39.3506C317.938 38.5155 315.368 37.5839 313.28 37.3591C310.518 37.0379 307.562 37.0057 307.562 37.2948C307.562 37.4554 307.402 37.4876 307.241 37.3912C307.048 37.2627 306.984 37.0379 307.081 36.8773C307.209 36.7166 307.145 36.5882 306.984 36.5882C306.791 36.5882 306.567 36.813 306.47 37.1021C306.374 37.3591 306.149 37.5197 305.956 37.3912C305.796 37.2948 305.378 37.3591 305.025 37.5518C304.639 37.7445 304.318 37.7445 304.19 37.5839C303.965 37.1663 300.174 38.5797 300.174 39.0615C300.174 39.2864 300.078 39.447 299.95 39.447C299.371 39.3506 298.954 39.5112 298.311 40.1216C297.926 40.507 297.605 40.6998 297.605 40.6034C297.605 40.4749 297.38 40.6355 297.091 40.8925C296.834 41.1816 296.32 41.4064 295.966 41.4064C295.645 41.4064 295.356 41.5349 295.356 41.7277C295.356 41.8883 295.163 42.0489 294.906 42.0489C294.649 42.0489 294.2 42.2737 293.943 42.5628C293.654 42.8198 293.429 42.9804 293.429 42.884C293.429 42.7877 293.14 42.9804 292.786 43.3337C292.433 43.6871 292.144 44.1047 292.144 44.2653C292.144 44.4259 291.919 44.6186 291.662 44.7471C291.405 44.8435 291.18 45.1326 291.18 45.4217C291.18 45.6786 290.955 45.9035 290.698 45.9035C290.184 45.9035 290.152 46.032 290.056 48.0557C290.024 49.0836 290.12 49.4369 290.57 49.5333C291.02 49.6618 291.277 49.3727 291.662 48.152C291.951 47.2847 292.401 46.5138 292.658 46.4175C292.883 46.3211 293.108 46.032 293.108 45.8071C293.108 45.5502 293.911 44.9398 294.874 44.4259C296.448 43.6228 296.641 43.398 296.48 42.7234C296.32 42.081 296.384 41.9846 296.93 42.1452C297.316 42.2416 297.701 42.1774 297.797 42.0168C297.894 41.8561 298.086 41.7919 298.215 41.8561C298.343 41.9525 299.564 41.5349 300.913 40.9567C302.616 40.2179 303.804 39.8967 304.8 39.961C305.667 39.961 306.149 39.8646 306.053 39.6719C305.924 39.5112 306.085 39.447 306.374 39.5755C306.695 39.6719 306.92 39.6719 306.92 39.5434C306.92 39.3506 307.723 39.3185 309.425 39.447C309.843 39.4791 309.875 39.5434 309.522 39.7682C309.265 39.9288 309.618 39.9931 310.485 39.961C312.156 39.8325 315.272 40.6998 315.272 41.2779C315.272 41.5028 315.015 41.5992 314.661 41.5028C314.212 41.4064 313.987 41.5992 313.73 42.338C313.537 42.884 313.216 43.3337 313.055 43.3337C312.863 43.3337 312.702 43.5586 312.702 43.8477C312.702 44.1047 312.573 44.2332 312.381 44.1368C312.22 44.0404 312.059 44.1047 312.059 44.2653C312.059 44.458 311.931 44.5865 311.77 44.5223C311.61 44.4901 311.192 44.8114 310.807 45.2289C310.421 45.6465 310.132 45.9035 310.132 45.8071C310.132 45.6786 309.843 45.8714 309.49 46.2247C309.136 46.5781 308.847 46.9956 308.847 47.1884C308.847 47.5096 308.173 47.6381 307.305 47.5417C307.048 47.5096 306.791 47.7666 306.695 48.1199C306.599 48.5054 305.892 49.0193 304.8 49.4369C303.836 49.8224 303.065 50.3042 303.065 50.5291C303.065 50.7218 302.905 50.6575 302.744 50.4006C302.487 50.0151 302.423 50.0151 302.423 50.5612C302.423 51.1072 302.359 51.1072 302.102 50.7218C301.845 50.3042 301.78 50.3363 301.78 50.8181C301.78 51.1394 301.652 51.3 301.459 51.2036C301.299 51.1072 301.138 51.1715 301.138 51.3321C301.138 51.5248 301.042 51.6533 300.913 51.6212C300.753 51.5891 300.174 51.8139 299.596 52.1351C298.986 52.4242 298.44 52.617 298.343 52.5206C298.086 52.2636 296.962 52.9382 296.962 53.3237C296.962 53.8376 295.324 55.2188 294.682 55.2188C294.296 55.2188 294.168 55.3795 294.264 55.7007C294.457 56.1504 294.328 56.2146 293.108 56.311C292.851 56.3431 292.658 56.6001 292.722 56.9213C292.786 57.3068 292.658 57.4031 292.272 57.2425C291.855 57.0819 291.758 57.1462 291.919 57.5637C292.08 57.9492 291.919 58.1419 291.341 58.3025C290.923 58.3989 290.409 58.688 290.184 58.945C289.767 59.4589 289.124 59.202 289.446 58.6559C289.574 58.431 289.317 58.5916 288.9 58.9771C288.354 59.4589 287.872 59.6195 287.39 59.4911C287.004 59.3947 286.683 59.2983 286.683 59.2662C286.683 59.2662 287.004 58.431 287.358 57.4674C287.743 56.5037 288.032 55.251 288.032 54.6728C288 54.0946 288.161 53.4521 288.386 53.2273C288.835 52.7455 288.964 51.3642 288.578 51.3642C288.418 51.3642 288.45 51.0109 288.61 50.5612C288.803 50.0151 288.803 49.7581 288.578 49.7581C288.386 49.7581 288.321 49.6296 288.418 49.469C288.546 49.3084 288.418 49.1157 288.225 49.0193C287.904 48.923 287.904 48.7945 288.193 48.4411C288.514 48.0557 288.482 47.8629 288 47.5417C287.583 47.2526 287.454 46.7708 287.518 45.7429C287.583 44.8114 287.422 44.1689 287.069 43.7835C286.78 43.4301 286.523 42.7234 286.523 42.1452C286.555 41.5992 286.394 41.2137 286.233 41.3101C286.073 41.4386 286.009 41.2779 286.137 40.9567C286.266 40.6676 286.233 40.4749 286.073 40.5713C285.687 40.8282 285.077 39.2543 285.27 38.6118C285.398 38.1942 285.366 38.1621 285.173 38.4512C284.949 38.7403 284.788 38.644 284.499 38.0336C284.306 37.5839 283.985 37.2306 283.792 37.2306C283.632 37.2306 283.471 36.9094 283.471 36.4918C283.471 35.9136 283.407 35.8815 283.15 36.2669C282.861 36.6845 282.7 36.4918 282.796 35.8493C282.796 35.7209 282.636 35.6245 282.379 35.6245C282.122 35.6245 281.865 35.3996 281.769 35.1748C281.672 34.9178 281.062 34.5966 280.419 34.4681C279.713 34.3396 279.327 34.1148 279.391 33.8899C279.584 33.4402 273.77 31.4165 271.746 31.2238C268.952 30.9668 268.309 30.9347 268.213 31.1596Z" fill="black"/>
<path d="M41.3673 34.1147C40.6928 34.4681 39.7612 35.1426 39.3115 35.6566C38.8297 36.1384 38.38 36.4917 38.3158 36.3954C38.2194 36.3311 38.0267 36.7808 37.8339 37.3911C37.4485 38.5797 37.6733 38.9651 38.5406 38.6439C38.9582 38.4833 38.9903 38.3869 38.637 38.1621C38.3158 37.9372 38.3479 37.873 38.7976 37.873C39.0867 37.873 39.3437 37.6481 39.3437 37.3911C39.3437 37.1342 39.6328 36.9093 39.9861 36.9093C40.3394 36.9093 40.6285 36.7487 40.6285 36.5881C40.6285 36.3954 41.0782 36.2669 41.5922 36.2669C42.2025 36.2669 42.6522 36.0742 42.7807 35.7529C42.8771 35.496 43.1662 35.3353 43.4231 35.4317C43.7122 35.5602 43.7765 35.496 43.648 35.239C43.4874 34.982 43.5837 34.9499 43.9692 35.0784C44.6438 35.3353 47.1172 34.3717 46.9565 33.8899C46.7638 33.2795 42.7486 33.4402 41.3673 34.1147Z" fill="black"/>
<path d="M48.7896 34.211C48.8859 34.5001 48.9823 34.8213 48.9823 34.9498C48.9823 35.0783 50.7169 35.7207 52.8048 36.4274C55.9206 37.4232 56.6273 37.7765 56.5309 38.2262C56.3703 38.9972 57.9443 39.5432 59.2613 39.1578C59.9359 38.965 60.6747 39.0293 61.7347 39.3826C62.5699 39.6717 63.0517 39.9929 62.8268 40.0572C62.5699 40.1535 63.2444 40.5069 64.2723 40.8602C65.3002 41.2136 66.3281 41.6954 66.553 41.9202C66.7778 42.1451 67.7094 42.5627 68.6088 42.8518C69.5082 43.173 70.5361 43.6869 70.8573 44.0082C71.2106 44.3615 71.6282 44.6185 71.821 44.6185C72.0137 44.6185 72.5276 45.0361 72.9773 45.5821C73.7483 46.5137 75.0653 46.867 75.4507 46.2567C75.7077 45.8712 74.9047 43.976 74.4871 43.976C74.2622 43.976 74.0374 43.7512 73.9089 43.4942C73.8125 43.2372 73.5234 43.0124 73.2986 43.0124C73.0416 43.0124 72.6561 42.7875 72.4313 42.5306C72.2064 42.2736 71.4676 41.8881 70.7931 41.6954C70.1185 41.4705 69.6367 41.2136 69.7009 41.053C69.7973 40.9245 68.8015 40.4105 67.5487 39.9287C66.2639 39.4469 65.1396 38.9329 65.0432 38.8044C64.9469 38.6759 63.7905 38.162 62.4735 37.6802C61.1565 37.1983 59.968 36.6844 59.8716 36.5238C59.5825 36.1062 56.5952 35.0462 56.1455 35.2068C55.9206 35.3031 54.7642 35.0462 53.5757 34.6286C50.8454 33.7292 48.5326 33.5364 48.7896 34.211Z" fill="black"/>
<path d="M262.464 36.0741C262.143 37.3268 262.529 37.8087 264.231 38.3547C265.098 38.6438 265.741 39.0293 265.612 39.1899C265.516 39.3505 265.676 39.479 265.933 39.479C266.223 39.479 266.447 39.6075 266.447 39.8002C266.447 39.9608 266.672 40.0251 266.929 39.9287C267.186 39.8002 267.411 39.8966 267.411 40.0893C267.411 40.3142 267.829 40.6033 268.31 40.796C269.338 41.1493 270.398 43.0124 270.077 43.8476C269.949 44.2009 270.013 44.3294 270.206 44.2009C270.398 44.0724 270.655 44.3294 270.752 44.7791C270.88 45.2931 271.105 45.4858 271.426 45.3894C271.683 45.2609 271.908 45.3573 271.908 45.55C271.908 45.7428 271.748 45.9034 271.555 45.9034C271.394 45.9034 271.587 46.5779 272.037 47.4131C272.454 48.2804 273 49.4047 273.193 49.9829C273.45 50.6574 273.739 50.9465 274.028 50.818C274.285 50.7217 274.478 50.7859 274.478 50.9786C274.478 51.1714 274.317 51.3641 274.092 51.4283C273.835 51.5247 273.964 51.8138 274.382 52.2314C274.767 52.6168 274.992 53.0023 274.863 53.0987C274.767 53.195 274.895 53.2914 275.152 53.2914C275.506 53.2914 275.506 53.3557 275.12 53.6126C274.799 53.8054 274.767 53.9338 275.024 53.9338C275.538 53.9338 276.791 56.3751 276.951 57.6279C277.016 58.1418 277.208 58.6558 277.369 58.6879C277.562 58.7521 277.626 58.9449 277.497 59.1055C277.401 59.2661 277.497 59.3946 277.69 59.3946C277.883 59.3946 277.947 59.5552 277.851 59.7158C277.529 60.2297 278.011 61.3219 278.525 61.3219C278.782 61.3219 278.975 61.5467 278.975 61.8037C278.975 62.0607 279.264 62.2855 279.617 62.2855C279.971 62.2855 280.26 62.0928 280.26 61.8358C280.26 61.5789 280.453 61.3219 280.71 61.2255C281.191 61.0328 281.641 59.7158 281.191 59.7158C281.031 59.7158 281.063 59.3624 281.223 58.8806C281.416 58.3988 281.416 58.1418 281.256 58.2703C281.095 58.3667 280.87 58.1418 280.742 57.7885C280.645 57.4351 280.356 57.146 280.163 57.146C279.939 57.146 280.035 56.9212 280.356 56.6963C280.87 56.3109 280.87 56.2145 280.485 55.9575C280.003 55.7006 274.799 45.0361 274.799 44.3615C274.799 44.1688 274.382 43.5264 273.835 42.9482C273.322 42.37 272.872 41.8239 272.872 41.6954C272.872 41.599 272.518 41.0851 272.069 40.5711C271.619 40.0572 271.266 39.5432 271.266 39.4469C271.266 39.3184 270.912 39.1257 270.463 39.0293C270.013 38.9008 269.724 38.676 269.82 38.5153C269.917 38.3547 269.563 38.0978 269.017 37.9693C268.471 37.8087 268.054 37.5838 268.118 37.4232C268.182 37.1983 263.589 35.3353 262.882 35.3032C262.753 35.3032 262.561 35.6565 262.464 36.0741Z" fill="black"/>
<path d="M154.567 37.6802C154.085 38.1299 153.635 38.5154 153.507 38.5154C153.154 38.5154 152.094 39.8645 152.094 40.3463C152.094 40.9887 152.704 40.8603 154.567 39.8645C155.723 39.2863 156.366 38.7081 156.558 38.0978C156.751 37.6159 156.751 37.2305 156.591 37.2305C156.462 37.2305 156.109 37.1341 155.852 37.0378C155.595 36.9414 155.017 37.2305 154.567 37.6802Z" fill="black"/>
<path d="M42.5265 39.1899C42.1732 39.5433 41.7556 39.8003 41.5629 39.8003C40.6313 39.8003 38.7361 43.2694 39.4428 43.7191C40.0853 44.1367 40.3101 44.0082 40.7277 43.1088C41.2738 41.8882 42.1411 41.0209 42.3659 41.5027C42.4623 41.7918 42.5265 41.7597 42.5265 41.4706C42.5586 41.2457 42.7193 41.1494 42.8799 41.2457C43.0726 41.3421 43.2011 41.2136 43.2011 40.8924C43.2011 40.5069 43.2975 40.4427 43.6187 40.6997C43.8756 40.9245 44.1969 40.9245 44.486 40.7639C45.2569 40.2821 45.5139 40.3784 45.289 41.1172C45.1284 41.567 45.1926 41.7276 45.4175 41.5991C45.7387 41.4063 47.1521 42.4985 46.8951 42.7555C46.6703 42.9803 53.1267 45.004 53.448 44.8113C53.6086 44.7149 54.3474 44.8434 55.0862 45.1004C55.7929 45.3573 56.6602 45.5501 56.9493 45.5179C57.9772 45.4537 58.6517 45.5822 58.4911 45.8392C58.3305 46.1283 59.8081 46.1283 60.0972 45.8392C60.1936 45.7107 60.8039 45.8713 61.4463 46.1283C62.2494 46.4495 62.6348 46.5137 62.7312 46.2567C62.9239 45.6464 63.3736 45.8713 63.5021 46.6101C63.5664 47.0277 63.7912 47.3168 64.0161 47.2525C64.6264 47.124 65.4294 48.0556 65.4937 48.9229C65.4937 49.3404 65.6543 49.6295 65.8149 49.5332C65.9434 49.4368 65.9755 49.6617 65.8791 50.015C65.7185 50.4647 65.847 50.7859 66.2325 51.0108C66.5858 51.2356 66.6822 51.4605 66.4895 51.589C66.104 51.8781 65.9755 52.9702 66.2967 52.9702C66.4252 52.9702 66.5216 53.966 66.4895 55.2188C66.4573 56.4394 66.5537 57.4673 66.6822 57.4673C66.8428 57.4673 66.7143 57.9812 66.4573 58.6558C66.1682 59.2982 66.0397 60.0692 66.104 60.4225C66.2004 60.7437 66.1361 61.0007 65.9755 61.0007C65.7828 61.0007 65.7828 61.2255 65.9755 61.5789C66.1361 61.868 66.2325 62.671 66.2004 63.3135C66.2004 63.9559 66.2646 64.4056 66.3931 64.3414C66.6822 64.1486 67.0676 65.4335 66.8107 65.819C66.7143 65.9796 66.7786 66.1402 66.9713 66.1402C67.164 66.1402 67.2283 66.2687 67.1319 66.4614C67.0355 66.622 67.0998 66.7826 67.3246 66.7826C67.5495 66.7826 67.6137 66.879 67.5174 66.9754C67.421 67.1039 67.5174 67.4893 67.7743 67.8105C68.1277 68.3566 68.1277 68.6457 67.7422 69.77C67.4852 70.4767 67.3567 71.3118 67.4531 71.633C67.678 72.3397 66.6822 73.4319 66.3288 72.8537C66.1361 72.5967 66.0397 72.6609 65.9755 73.0464C65.847 73.5925 65.8149 73.5925 65.3331 73.1428C65.0761 72.8537 64.4337 72.6288 63.9197 72.6288C63.4058 72.6288 62.8597 72.4361 62.667 72.1791C62.4742 71.9543 62.0888 71.7936 61.8318 71.8258C61.5748 71.89 60.2899 71.5688 59.0051 71.1512C57.7523 70.7015 56.6923 70.4767 56.6923 70.6373C56.6923 70.7979 54.8613 70.316 52.6128 69.5451C50.3321 68.8063 48.2763 68.2281 48.0194 68.2924C47.7624 68.3566 46.7024 68.1318 45.6745 67.7784C44.3896 67.3287 43.8435 67.2645 43.8435 67.5214C43.8114 67.7463 43.6829 67.7142 43.4259 67.3929C43.0405 66.879 41.081 66.7826 40.3744 67.2323C39.8925 67.5214 37.6761 66.8469 37.901 66.4614C37.9973 66.3329 37.7725 66.1402 37.387 66.0438C36.9052 65.9153 36.6482 66.076 36.4555 66.6541C36.07 67.6499 37.0979 68.8063 38.4149 68.8384C38.8968 68.8706 39.2501 68.9348 39.1859 69.0312C39.1216 69.1275 39.9568 69.256 41.0489 69.2881C44.6466 69.4488 45.1284 69.513 45.1284 69.7057C45.1284 69.8985 45.1284 69.8985 47.5375 70.0912C48.437 70.1554 49.6897 70.4445 50.3643 70.7336C51.0067 71.0227 51.5528 71.1191 51.5528 70.9264C51.5528 70.4124 52.4201 70.6051 52.8698 71.2476C53.3195 71.8579 59.1978 73.9779 60.3221 73.9137C60.6111 73.9137 60.8681 74.0743 60.8681 74.267C60.8681 74.5561 60.9324 74.5561 61.1251 74.267C61.2857 74.0101 62.0888 74.1707 64.0161 74.8131C65.6222 75.3913 66.6501 75.6162 66.6501 75.3913C66.6501 75.1986 66.7464 75.1343 66.8749 75.2307C67.1319 75.5198 68.5774 73.9458 68.5774 73.3355C68.5774 73.0785 68.7059 72.9179 68.8665 73.0464C69.2519 73.2713 69.5089 72.4361 69.7016 70.4445C69.8301 69.3203 69.7659 68.999 69.541 69.3524C69.1234 69.9948 69.1234 69.4809 69.5732 68.6457C69.8301 68.1639 69.8301 68.0354 69.5732 68.196C69.3804 68.3245 69.2198 68.196 69.1877 67.8427C69.1877 67.5214 69.1556 66.7826 69.1234 66.2044C69.0913 65.6584 69.1877 65.1765 69.3162 65.1765C69.4768 65.1765 69.4768 64.9838 69.3162 64.759C69.0913 64.4056 68.9307 63.1207 68.8665 61.0649C68.8344 60.6795 68.7059 60.3583 68.5774 60.3583C68.1598 60.3583 68.6095 59.0413 69.0913 58.8485C69.3804 58.7522 69.4447 58.5273 69.2519 58.1418C69.0913 57.8527 68.995 57.0176 69.0271 56.2467C69.0592 55.5079 69.0271 54.8012 68.9307 54.7048C68.8344 54.6406 68.7059 53.452 68.6416 52.0708C68.481 48.5374 68.4489 48.1519 68.1919 48.1519C68.0955 48.1519 68.0634 47.8628 68.1598 47.5416C68.3846 46.7065 67.7743 45.6786 66.907 45.3895C66.4895 45.261 66.0397 45.004 65.847 44.7791C65.3973 44.2009 63.5021 43.6549 62.8918 43.8797C62.6027 44.0082 62.2172 43.8476 61.9603 43.4943C61.7033 43.173 61.5106 43.0446 61.5106 43.2694C61.5106 43.5264 61.2857 43.5585 60.7396 43.3337C60.2578 43.1409 59.9045 43.173 59.8402 43.3337C59.776 43.5264 58.9408 43.3658 57.9772 42.9803C56.9171 42.5627 56.1783 42.4342 56.1141 42.6591C55.9856 43.0124 54.4437 42.4342 54.4437 42.0488C54.4437 41.7276 53.0304 41.8561 52.7734 42.1773C52.5164 42.5627 50.6212 41.8239 49.8503 41.0209C49.5291 40.6997 49.0794 40.4427 48.8224 40.4427C48.5654 40.4427 48.3406 40.3142 48.3406 40.1536C48.3406 39.993 48.1479 39.8645 47.9551 39.8966C46.863 39.9287 46.4133 39.7681 46.4133 39.3184C46.4133 38.8045 46.349 38.7724 44.3575 38.676C43.4902 38.6439 42.912 38.8045 42.5265 39.1899Z" fill="black"/>
<path d="M34.8159 43.0124C34.6231 43.5264 34.334 43.9761 34.1413 43.9761C33.9486 43.9761 33.9164 44.2009 34.0128 44.49C34.1413 44.8112 34.0128 45.1646 33.7237 45.3894C33.4025 45.6143 33.1455 46.3531 33.0813 47.1883C33.0492 47.9913 32.8243 49.0192 32.6316 49.501C32.3746 50.1756 32.3746 50.4004 32.6958 50.4004C32.8885 50.4004 32.7922 50.6253 32.471 50.8823C32.1176 51.1392 31.957 51.3641 32.1497 51.3641C32.3104 51.3641 32.4388 51.8138 32.471 52.3278C32.5031 52.8738 32.4067 53.2914 32.3104 53.2914C32.0213 53.2914 32.1176 56.7927 32.4067 57.7242C32.5673 58.1739 32.471 58.72 32.1819 59.1697C31.957 59.5552 31.7643 60.294 31.7964 60.8401C31.8285 61.354 31.6037 62.5746 31.2825 63.4741C30.9612 64.4056 30.8327 65.1765 30.9934 65.1765C31.3146 65.1765 30.0297 69.1596 29.6442 69.2881C29.5158 69.3524 29.4515 69.5451 29.5479 69.6736C29.6442 69.8342 29.4836 70.5087 29.1945 71.1833C28.9054 71.8579 28.6485 72.9821 28.6163 73.6888C28.5521 74.3955 28.4236 75.2949 28.2951 75.6482C27.9739 76.6761 28.8091 77.3828 30.2224 77.2543C30.8327 77.1901 31.4431 77.0295 31.5716 76.901C31.7 76.7404 31.6037 76.7404 31.4109 76.8689C31.1861 76.9974 30.9934 76.9652 30.9934 76.7725C30.9934 76.1943 31.5716 76.098 32.0855 76.6119C32.5673 77.0616 32.6316 77.0616 32.7922 76.6119C32.8885 76.3228 33.1134 76.1943 33.274 76.2907C33.7558 76.5798 34.848 76.098 34.848 75.6161C34.848 74.6203 34.1092 73.4961 33.5952 73.7209C32.3425 74.2349 32.1176 74.1706 31.7322 73.3033C31.3788 72.5324 31.4109 72.147 31.9249 70.83C32.2782 69.8984 32.5995 69.4487 32.6958 69.7057C32.7922 69.9627 32.8564 69.7057 32.8564 69.1917C32.8243 67.7463 33.1776 65.4335 33.531 64.4698C33.7558 63.8916 33.7558 63.5704 33.531 63.5062C33.3383 63.4419 33.4346 62.8637 33.7558 62.1249C34.4625 60.4867 34.5589 60.1013 34.591 58.8485C34.591 58.2703 34.6874 57.8527 34.8159 57.9491C34.9443 58.0133 35.0728 57.66 35.0728 57.146C35.0728 56.6 34.9443 56.1824 34.7837 56.1824C34.6231 56.1824 34.591 55.9897 34.7516 55.7648C35.0728 55.2509 35.1692 54.5763 34.9122 54.5763C34.4625 54.5763 34.6874 50.7217 35.105 50.4326C35.4583 50.2077 35.4262 50.0792 35.0086 49.6295C34.5589 49.1798 34.5268 49.0835 34.9765 48.9228C35.3619 48.7622 35.3941 48.6016 35.105 47.9592C34.8159 47.381 34.848 46.8992 35.2656 45.9034C35.5225 45.1967 35.6189 44.7149 35.4262 44.8112C35.0728 45.0361 35.105 44.8434 35.6832 42.7554C36.0044 41.6633 35.2013 41.8881 34.8159 43.0124Z" fill="black"/>
<path d="M168.54 42.37C168.7 42.884 170.338 43.4943 170.627 43.2052C170.949 42.884 170.338 42.4343 169.31 42.1773C168.604 42.0167 168.411 42.0488 168.54 42.37Z" fill="black"/>
<path d="M172.523 43.4943C172.427 43.7513 172.587 44.1046 172.909 44.2652C173.198 44.458 173.326 44.6186 173.166 44.6186C173.037 44.6186 173.583 45.2931 174.386 46.0962C175.221 46.8992 175.8 47.7023 175.703 47.8629C175.575 48.0235 175.671 48.152 175.864 48.152C176.057 48.152 176.121 48.2805 176.024 48.4732C175.767 48.8587 177.438 52.649 177.855 52.649C178.016 52.649 178.048 52.7775 177.952 52.9703C177.855 53.1309 177.92 53.2915 178.112 53.2915C178.305 53.2915 178.369 53.4521 178.273 53.6127C178.177 53.8054 178.305 54.0303 178.562 54.1267C179.044 54.3194 179.59 55.4437 179.461 55.9255C179.429 56.0861 179.526 56.1825 179.686 56.1825C179.847 56.1825 180.104 56.4716 180.2 56.857C180.329 57.2425 180.586 57.4352 180.875 57.3388C181.1 57.2425 181.421 57.3388 181.549 57.5637C181.806 57.9492 183.669 58.8486 185.115 59.234C185.5 59.3625 185.757 59.5553 185.693 59.6837C185.597 59.8122 187.042 60.4225 188.905 61.0007C190.736 61.6111 192.246 62.2214 192.246 62.3499C192.246 62.5105 192.503 62.6068 192.824 62.5426C193.113 62.4783 193.338 62.639 193.306 62.8317C193.242 63.0565 193.402 63.2493 193.627 63.2493C193.916 63.2493 194.045 63.6669 194.013 64.4378C193.948 66.3009 193.563 67.2966 192.696 67.7463C192.278 68.0033 191.925 68.3567 191.925 68.6136C191.925 68.9991 191.443 69.1597 190.383 69.1276C190.158 69.0955 189.901 69.4488 189.805 69.8664C189.676 70.3482 189.227 70.7337 188.456 70.9906C187.781 71.2155 187.203 71.344 187.139 71.3119C187.074 71.2476 186.914 71.3761 186.817 71.5367C186.432 72.1149 184.633 72.8537 183.959 72.661C183.477 72.5646 183.188 72.661 183.059 73.0143C182.963 73.3034 182.738 73.4319 182.577 73.3355C182.417 73.2392 182.288 73.3034 182.288 73.464C182.288 73.7531 181.935 73.8174 179.654 73.8495C179.204 73.8816 178.723 74.1065 178.626 74.3634C178.53 74.6204 178.305 74.7489 178.112 74.6525C177.952 74.5562 177.791 74.5562 177.791 74.7168C177.791 75.1022 176.217 75.7768 175.735 75.5841C175.478 75.4877 175.221 75.6483 175.093 75.9374C174.964 76.3229 174.707 76.4192 174.322 76.2586C173.744 76.0017 172.876 75.8732 170.403 75.6804C168.572 75.5198 167.448 75.1665 167.673 74.8132C167.769 74.6525 167.191 74.5883 166.388 74.6525C164.204 74.781 157.811 72.5325 157.49 71.5367C157.394 71.1191 157.265 71.0228 157.265 71.2797C157.233 71.6652 157.137 71.6652 156.783 71.1834C156.559 70.8943 156.205 70.6373 155.98 70.6373C155.788 70.6373 155.659 70.5409 155.659 70.3803C155.82 69.4167 155.531 68.6136 154.985 68.4851C154.631 68.3888 154.182 67.8427 153.957 67.2324C153.732 66.6221 153.411 66.1402 153.186 66.1402C152.993 66.1402 152.736 65.9475 152.64 65.6905C152.447 65.1766 151.162 64.7911 151.098 65.2087C150.905 66.4936 151.034 67.4572 151.419 67.5857C151.644 67.6821 151.772 67.9391 151.676 68.1639C151.58 68.3888 151.997 69.2882 152.608 70.1555C153.218 71.0549 153.7 71.9543 153.7 72.147C153.7 72.3719 153.86 72.5646 154.021 72.5646C154.214 72.5646 154.695 72.918 155.113 73.3677C155.499 73.7853 156.237 74.2992 156.719 74.4919C157.201 74.6525 157.522 74.9416 157.426 75.0701C157.201 75.4235 162.533 77.1259 164.107 77.2223C164.782 77.2544 165.424 77.4471 165.553 77.6078C165.649 77.8005 165.97 77.929 166.227 77.9611C166.484 77.9932 167.448 78.0896 168.315 78.1859C169.215 78.3144 170.307 78.4108 170.789 78.4429C171.238 78.475 171.752 78.6035 171.849 78.732C171.977 78.8605 172.33 78.8605 172.619 78.6999C172.909 78.5714 173.904 78.475 174.836 78.5072C176.024 78.5393 176.506 78.4429 176.506 78.1538C176.506 77.8969 176.699 77.8005 176.988 77.8969C177.245 77.9932 177.534 77.8969 177.631 77.672C177.727 77.415 178.177 77.1902 178.658 77.158C179.108 77.158 179.622 76.9011 179.783 76.6441C179.911 76.355 180.297 76.2265 180.682 76.3229C181.035 76.4192 181.549 76.2586 181.838 75.9374C182.224 75.552 182.674 75.4556 183.38 75.5841C183.959 75.6804 184.215 75.6483 183.959 75.5198C183.669 75.3271 183.798 75.1344 184.376 74.8774C184.858 74.6525 185.372 74.5562 185.532 74.6525C185.693 74.781 185.822 74.6847 185.822 74.4919C185.822 74.2992 185.95 74.2028 186.143 74.3313C186.303 74.4277 186.978 74.2671 187.653 73.978C188.327 73.6568 189.002 73.464 189.13 73.4962C189.259 73.4962 189.451 73.3034 189.548 73.0464C189.644 72.7895 189.869 72.661 190.03 72.7574C190.19 72.8537 190.319 72.7252 190.319 72.4683C190.319 72.2113 190.672 71.8901 191.122 71.7937C191.571 71.6652 191.925 71.4404 191.925 71.2797C191.925 70.7015 193.145 69.6736 193.338 70.0912C193.402 70.3161 193.499 70.2197 193.499 69.9306C193.531 69.6415 193.788 69.2239 194.109 69.0633C194.494 68.8064 194.527 68.7421 194.205 68.71C193.82 68.71 193.82 68.6457 194.238 68.2924C195.362 67.4251 196.133 62.6711 195.233 62.382C195.041 62.3177 194.944 61.9644 195.041 61.6432C195.169 61.1935 195.041 61.0007 194.687 61.0007C194.398 61.0007 194.173 60.808 194.173 60.5832C194.173 60.3262 192.053 59.491 188.873 58.431C185.95 57.4673 183.573 56.5679 183.573 56.4394C183.573 56.3109 183.348 56.2788 183.091 56.3752C182.834 56.5037 182.609 56.4073 182.609 56.2146C182.609 55.8291 182.224 55.283 181.196 54.2551C180.875 53.9018 180.714 53.4842 180.843 53.2594C181.003 53.0345 180.971 52.9381 180.746 53.0988C180.554 53.1951 180.329 53.0024 180.2 52.649C180.104 52.2957 179.783 52.0066 179.526 52.0066C179.269 52.0066 179.076 51.846 179.076 51.6854C179.076 51.4927 179.237 51.3642 179.397 51.3642C180.04 51.3642 179.686 50.1435 178.755 49.0835C178.241 48.4732 177.791 47.7986 177.791 47.5738C177.791 47.3811 177.663 47.1883 177.47 47.1883C177.309 47.1883 176.924 46.7386 176.635 46.1604C176.346 45.5822 175.896 44.9398 175.671 44.6828C175.414 44.458 175.221 44.1046 175.221 43.9119C175.221 43.7192 175.125 43.6228 175.029 43.7513C174.9 43.8477 174.611 43.7513 174.354 43.4943C173.744 42.884 172.78 42.884 172.523 43.4943Z" fill="black"/>
<path d="M40.2118 44.5543C39.473 45.3574 39.3766 46.6422 40.0191 46.8028C40.3403 46.8671 40.6936 46.4816 41.0148 45.6143C41.6894 43.944 41.2397 43.3979 40.2118 44.5543Z" fill="black"/>
<path d="M170.533 47.4453C170.211 47.6701 169.44 48.8907 169.44 49.212C169.44 49.5974 171.111 49.7259 171.689 49.4368C172.46 49.0192 172.524 48.3768 171.817 47.7022C171.271 47.124 171.047 47.0919 170.533 47.4453Z" fill="black"/>
<path d="M39.5048 48.5695C39.3442 48.7944 39.1515 50.0471 39.1193 51.3641C39.0551 54.8012 38.8302 56.4715 38.252 58.1097C37.9629 58.8806 37.8023 59.7158 37.8666 59.9407C37.9629 60.1655 37.6738 61.354 37.2563 62.6068C36.6138 64.4698 36.5496 64.9195 36.935 65.048C37.6417 65.3371 37.9308 64.9838 38.3805 63.4419C38.6054 62.6389 38.9266 62.0286 39.0872 62.0607C39.5369 62.1571 40.9824 57.8527 40.5969 57.6279C40.4363 57.4994 40.5327 56.9212 40.8218 56.2466C41.1109 55.5078 41.1751 55.026 40.9824 54.9618C40.7575 54.8975 40.7254 54.6405 40.9182 54.3193C41.0788 53.9981 41.143 52.9702 41.0466 52.0065C40.9503 51.0429 40.9182 49.8865 40.9182 49.4689C40.9503 48.3447 40.1151 47.8307 39.5048 48.5695Z" fill="black"/>
<path d="M161.954 49.4368C161.119 50.4325 161.665 51.5247 163.078 51.6532C163.335 51.6853 164.01 49.758 163.817 49.4368C163.496 48.8907 162.436 48.8907 161.954 49.4368Z" fill="black"/>
<path d="M76.4474 50.6897C76.3511 51.0109 76.3832 51.5248 76.4795 51.846C76.6402 52.2315 76.608 52.36 76.3511 52.1994C76.1262 52.0709 76.0941 52.2636 76.2868 52.9703C76.4474 53.5806 76.4474 53.934 76.2547 53.934C76.062 53.934 75.9977 54.0624 76.0941 54.2231C76.2226 54.3837 76.1583 54.8976 75.9977 55.3152C75.7729 55.8934 75.7729 56.1825 76.062 56.311C76.3511 56.4716 76.3511 56.5358 76.0298 56.6964C75.8371 56.7928 75.7086 56.9855 75.7729 57.114C75.8692 57.2425 75.7407 58.0134 75.4838 58.8165C75.2589 59.6517 75.1304 60.3905 75.2268 60.4547C75.3232 60.5511 75.1947 61.1935 74.9698 61.8681C74.3916 63.699 74.231 65.53 74.4559 68.3246C74.5522 69.5131 74.4559 70.0913 74.1668 70.2198C73.8777 70.3161 73.8456 70.6373 74.0704 71.344C74.2631 72.0186 74.1989 72.661 73.8777 73.3998C73.6207 74.0101 73.4601 74.5562 73.4922 74.6526C73.5243 74.7168 73.2674 75.0059 72.914 75.295C72.5607 75.5841 72.4643 75.7126 72.7213 75.5841C73.0746 75.4235 73.1389 75.4877 72.9783 75.9053C72.8498 76.2265 72.7534 76.6763 72.7534 76.9332C72.7534 77.1902 72.5286 77.3829 72.2716 77.3829C72.0146 77.3829 71.7898 77.6078 71.7898 77.8969C71.7898 78.1539 71.6613 78.2823 71.4685 78.186C71.3079 78.0896 71.1473 78.1539 71.1473 78.3145C71.1473 78.5072 70.8903 78.6678 70.6012 78.6678C70.3121 78.6678 69.8303 78.8927 69.5412 79.1496C69.0915 79.5672 68.8024 79.5672 68.0636 79.2781C66.9715 78.8605 64.7229 78.6999 64.7229 79.0212C64.7229 79.3424 62.635 79.4387 60.2259 79.2139C58.5877 79.0533 55.4076 77.9932 55.4076 77.6078C55.4076 77.4793 55.2791 77.4151 55.1185 77.5114C54.9579 77.6078 53.8015 77.3508 52.5487 76.9011C51.2639 76.4835 50.0754 76.1944 49.8505 76.2908C49.176 76.5478 46.8953 75.5841 46.9917 75.1023C47.088 74.7811 46.9917 74.7489 46.7347 75.0059C46.4777 75.2629 45.8353 75.1665 44.3255 74.6205C43.1049 74.1707 42.1734 74.0101 42.077 74.1707C41.9485 74.3635 41.4667 74.2992 40.8243 74.0423C39.9891 73.6889 39.6358 73.6889 39.3467 73.9459C39.0254 74.235 38.9933 74.235 39.1539 73.9459C39.3145 73.6889 39.2182 73.5926 38.9291 73.721C38.6721 73.8174 38.383 74.1707 38.2866 74.5241C38.1903 74.8453 38.2545 75.0702 38.383 74.9738C38.5436 74.8774 38.7042 74.9738 38.7685 75.1665C38.8327 75.3593 39.443 75.552 40.1497 75.5841C41.5952 75.6805 45.6747 76.9332 46.4135 77.5435C47.2165 78.186 47.8268 78.4751 47.602 78.0896C47.4414 77.8969 47.602 77.8326 48.0196 77.929C48.3729 78.0254 48.5656 78.2502 48.4371 78.443C48.3408 78.6357 48.405 78.6678 48.6299 78.5393C49.1117 78.2181 53.2233 79.5993 52.9663 79.9848C52.87 80.1454 53.1912 80.2739 53.7051 80.2097C54.187 80.1775 55.3755 80.4024 56.307 80.7236C57.2385 81.0448 58.2022 81.2054 58.4592 81.1091C58.7162 81.0127 59.1016 81.1412 59.3586 81.366C59.6798 81.6873 59.9368 81.7194 60.3865 81.4624C60.8362 81.2376 61.0289 81.2376 61.1253 81.4945C61.1895 81.7515 61.4786 81.7515 62.0568 81.5267C62.4744 81.366 62.9884 81.3018 63.149 81.4303C63.3096 81.5267 63.4381 81.4624 63.4381 81.3018C63.4381 81.1412 63.8878 81.0127 64.4017 81.0127C64.9478 81.0127 65.3654 81.1412 65.3654 81.3018C65.3654 81.4624 65.6545 81.4303 66.0399 81.2376C66.4896 80.9806 66.9715 80.9806 67.646 81.2054C68.16 81.366 68.5776 81.4303 68.5776 81.3018C68.5776 81.1733 68.9309 81.0448 69.3806 80.9806C69.8303 80.9485 70.6334 80.8521 71.1473 80.7879C71.6934 80.7236 72.2716 80.6594 72.4643 80.6272C72.6249 80.6272 72.6892 80.4345 72.5607 80.2097C72.4322 80.0169 72.4643 79.9527 72.657 80.0491C73.0746 80.306 74.4238 79.1818 74.1025 78.8605C73.974 78.7321 74.1347 78.4751 74.4238 78.3145C74.9698 78.0254 76.5438 73.5283 76.5117 72.404C76.5117 72.0507 76.608 71.4083 76.7365 70.9586C76.9293 70.3161 76.8971 70.2519 76.608 70.6373C76.2868 71.0228 76.2547 70.9907 76.3832 70.3804C76.4795 69.9949 76.4153 69.6737 76.2547 69.6737C76.0941 69.6737 76.1262 69.3203 76.2868 68.8706C76.4474 68.4209 76.4795 68.0676 76.3511 68.0676C76.2226 68.0676 76.1583 67.5858 76.2226 66.9754C76.2868 66.3973 76.1905 65.7869 75.9977 65.6906C75.805 65.5621 75.7729 65.2087 75.9656 64.7269C76.1262 64.3093 76.1583 63.6348 76.062 63.2493C75.9014 62.6711 75.9656 62.5747 76.2868 62.7675C76.608 62.9602 76.6723 62.896 76.5117 62.4784C76.3832 62.1893 76.7365 60.7759 77.2505 59.3304C77.9893 57.3068 78.1178 56.6322 77.7965 56.4395C77.5717 56.2789 77.5396 56.1825 77.7644 56.1825C77.9893 56.1825 78.0856 55.6685 78.0535 54.8976C78.0214 54.1909 78.0856 53.7091 78.2463 53.7734C78.5032 53.9661 78.3105 50.8181 78.0214 50.3363C77.7002 49.8545 76.6402 50.0793 76.4474 50.6897Z" fill="black"/>
<path d="M169.601 52.2956C169.505 52.4562 169.633 52.6489 169.826 52.7453C170.115 52.8417 170.083 52.9702 169.73 53.0987C169.248 53.3235 169.28 53.4199 169.923 54.1266C170.308 54.5441 170.822 54.8975 171.047 54.8975C171.689 54.8975 173.36 52.9059 173.006 52.5526C172.589 52.135 169.826 51.9423 169.601 52.2956Z" fill="black"/>
<path d="M154.504 53.2271C154.247 54.255 154.568 55.1223 155.275 55.315C155.725 55.4114 155.95 55.1866 156.207 54.3193C156.464 53.5162 156.464 53.0344 156.239 52.7774C155.693 52.135 154.729 52.392 154.504 53.2271Z" fill="black"/>
<path d="M164.267 54.2872C163.946 54.6084 163.785 55.1224 163.882 55.6363C164.042 56.3751 164.139 56.4394 164.878 56.1503C165.841 55.7969 166.227 55.3151 166.227 54.5442C166.227 53.8054 164.91 53.6448 164.267 54.2872Z" fill="black"/>
<path d="M142.006 55.0903C141.781 55.7006 142.295 56.1824 143.194 56.1824C143.515 56.1824 143.74 55.9254 143.74 55.54C143.74 55.1866 143.612 54.8975 143.451 54.8975C143.291 54.8975 142.937 54.8012 142.68 54.7048C142.423 54.6084 142.134 54.769 142.006 55.0903Z" fill="black"/>
<path d="M156.301 56.2145C155.82 57.5958 157.201 58.8164 158.454 58.1418C158.807 57.9491 159.16 57.4994 159.257 57.1139C159.353 56.7606 159.353 56.5357 159.257 56.6321C159.16 56.7285 158.903 56.6 158.711 56.343C158.518 56.1182 157.972 55.7969 157.49 55.6685C156.751 55.5078 156.558 55.6042 156.301 56.2145Z" fill="black"/>
<path d="M146.763 57.8527C146.634 58.2703 146.731 58.6237 146.988 58.7843C147.245 58.9449 147.341 59.0734 147.18 59.0734C147.052 59.0734 147.373 59.6837 147.919 60.3904C148.433 61.1292 148.786 61.8358 148.69 61.9965C148.594 62.1571 148.658 62.2855 148.851 62.2855C149.011 62.2855 149.236 62.5746 149.365 62.8959C149.589 63.6347 150.489 64.0201 150.906 63.6025C151.324 63.185 151.42 61.6431 151.003 61.6431C150.842 61.6431 150.778 61.5467 150.906 61.4504C151.003 61.354 150.682 60.8401 150.168 60.3582C149.654 59.8764 149.332 59.3625 149.429 59.2661C149.557 59.1697 149.429 59.0734 149.14 59.0734C148.883 59.0734 148.465 58.72 148.24 58.3024C147.694 57.2103 147.02 57.0176 146.763 57.8527Z" fill="black"/>
<path d="M175.767 58.7522C175.317 59.2982 175.285 59.5552 175.574 60.1334C175.799 60.5189 176.024 60.6795 176.088 60.4867C176.153 60.2619 176.506 60.1655 176.827 60.2619C177.277 60.3904 177.502 60.1976 177.662 59.5873C177.887 58.6237 177.887 58.5915 176.988 58.3025C176.538 58.174 176.153 58.3346 175.767 58.7522Z" fill="black"/>
<path d="M168.796 59.3302C168.282 59.523 167.511 60.1975 167.511 60.4866C167.511 60.583 167.736 60.6794 167.993 60.6794C168.25 60.6794 168.475 60.9042 168.475 61.1612C168.475 61.5467 168.7 61.6109 169.374 61.4503C170.466 61.1933 170.37 61.2576 170.466 60.3903C170.563 59.5872 169.663 59.0411 168.796 59.3302Z" fill="black"/>
<path d="M228.867 60.294C228.867 60.5188 228.738 60.6152 228.546 60.5188C228.385 60.4225 228.224 60.4546 228.224 60.5831C228.224 60.7437 227.646 60.84 226.94 60.84C226.233 60.84 225.655 60.9364 225.655 61.097C225.655 61.2255 225.526 61.2576 225.333 61.1613C225.173 61.0649 225.012 61.097 225.012 61.2576C225.012 61.4504 224.37 61.8358 223.567 62.1892C222.764 62.5104 222.121 62.9601 222.121 63.1849C222.121 63.4098 221.993 63.5062 221.8 63.4098C221.639 63.3134 221.415 63.6025 221.286 64.0522C221.19 64.5019 220.901 64.8553 220.708 64.8553C220.258 64.8553 219.487 67.0396 219.744 67.4893C219.841 67.6178 219.776 67.7462 219.616 67.7462C219.455 67.7462 219.198 68.2602 219.005 68.8705C218.813 69.513 218.781 69.9948 218.941 69.9948C219.102 69.9948 219.198 70.1875 219.166 70.3802C219.102 70.6051 219.359 70.8299 219.744 70.8942C220.644 71.0227 221.318 69.0954 220.579 68.4208C220.194 68.0353 220.194 67.939 220.644 67.682C220.933 67.5214 221.158 67.1038 221.158 66.7826C221.158 66.4293 221.254 66.1723 221.415 66.1723C222.186 66.3008 222.764 66.0759 222.764 65.6583C222.764 65.3692 223.181 65.0801 223.759 64.9516C224.37 64.8553 224.852 64.5019 224.916 64.1807C225.076 63.6346 226.137 63.0243 226.715 63.1849C226.843 63.2171 226.94 63.1207 226.94 62.9601C226.94 62.2855 228.064 62.3819 230.762 63.2813C232.368 63.8274 233.685 64.4056 233.685 64.5662C233.685 64.7589 234.103 65.048 234.649 65.2086C235.163 65.4014 235.677 65.8189 235.773 66.1723C235.902 66.5256 236.126 66.7183 236.287 66.622C236.576 66.4293 237.154 66.8147 238.118 67.8105C238.407 68.1317 238.889 68.3887 239.21 68.3887C239.531 68.3887 239.788 68.6135 239.788 68.8705C239.788 69.1275 239.949 69.3523 240.142 69.3523C240.367 69.3523 240.72 69.6093 240.977 69.8984C241.234 70.2196 241.33 70.2839 241.202 70.0269C240.913 69.4487 242.422 69.8984 242.776 70.5087C242.904 70.7336 243.771 71.1512 244.703 71.4724C245.602 71.7615 246.598 72.2112 246.887 72.436C247.176 72.693 247.465 72.7894 247.594 72.693C247.915 72.3397 256.845 75.4876 256.588 75.8731C256.46 76.0658 256.588 76.1301 256.909 76.0016C257.198 75.9052 258.066 76.0337 258.804 76.2907C259.575 76.5476 260.218 76.644 260.282 76.4513C260.346 76.2907 260.668 76.2264 260.989 76.3228C261.342 76.4192 261.567 76.5798 261.503 76.7083C261.438 76.8046 262.049 76.9331 262.852 76.9652C263.687 76.9974 265.1 77.1258 265.968 77.2543C266.867 77.3828 268.313 77.4792 269.244 77.4792C270.143 77.5113 270.818 77.6398 270.754 77.7683C270.657 77.8968 270.979 77.8646 271.493 77.6719C272.103 77.4471 272.424 77.4471 272.488 77.6719C272.553 77.8646 272.713 77.961 272.874 77.8646C273.034 77.7683 273.516 77.8325 273.966 78.0253C274.416 78.1859 274.801 78.218 274.801 78.0895C274.801 77.961 276.6 77.8646 278.816 77.8646C281.322 77.8968 282.703 77.8004 282.446 77.6077C282.157 77.4149 282.253 77.3828 282.671 77.5434C283.86 77.961 286.429 78.0253 287.072 77.6719C287.457 77.4471 287.65 77.4471 287.521 77.6398C287.425 77.8325 287.586 77.8968 287.939 77.8004C288.646 77.6077 289.063 76.5155 288.485 76.3228C288.292 76.2585 287.457 76.2264 286.622 76.2585C285.723 76.2907 285.177 76.1943 285.305 76.0016C285.401 75.841 285.177 75.8088 284.727 75.9695C284.309 76.0979 283.603 76.1943 283.153 76.1301C282.286 76.0658 282.125 76.0658 278.816 76.1622C277.596 76.2264 276.247 76.1622 275.861 76.0337C275.347 75.8731 275.122 75.9373 275.122 76.1943C275.122 76.387 274.898 76.2907 274.641 75.9695C274.384 75.6161 274.159 75.4876 274.159 75.6482C274.159 75.841 273.388 75.9695 272.424 75.9695C271.46 75.9695 270.754 75.841 270.818 75.7125C271.107 75.2628 270.69 75.4234 270.176 75.9695C269.726 76.387 269.63 76.4192 269.469 76.0016C269.34 75.6161 269.083 75.584 268.345 75.7767C267.702 75.9695 267.06 75.9052 266.289 75.584C265.679 75.3591 264.972 75.2306 264.715 75.327C264.458 75.4234 263.687 75.327 263.045 75.1343C262.37 74.9094 261.246 74.6846 260.539 74.6203C258.837 74.4918 253.729 72.7251 253.826 72.3076C253.858 72.1148 253.472 71.8257 252.958 71.633C252.412 71.4724 251.995 71.1512 251.995 70.9584C251.995 70.7657 251.738 70.6693 251.416 70.7657C250.71 71.0227 247.208 69.8663 246.727 69.2239C246.534 68.9669 245.313 68.4529 244.028 68.0675C242.744 67.7141 241.78 67.2644 241.876 67.1038C241.973 66.9432 241.459 66.6541 240.752 66.4293C240.045 66.2044 239.467 65.8511 239.467 65.5941C239.467 65.3692 239.274 65.1765 239.05 65.1765C238.825 65.1765 238.407 64.8874 238.086 64.5341C237.797 64.1807 237.251 63.8916 236.897 63.8916C236.544 63.8916 236.255 63.731 236.255 63.5383C236.255 63.3777 235.837 63.0565 235.291 62.8958C234.777 62.7031 234.328 62.414 234.328 62.2534C234.328 62.1249 234.135 62.0607 233.91 62.157C233.332 62.3819 231.661 61.7073 231.886 61.354C232.111 61.0007 230.312 60.5509 229.863 60.8079C229.702 60.9364 229.413 60.7437 229.22 60.4546C229.027 60.1012 228.867 60.037 228.867 60.294Z" fill="black"/>
<path d="M157.49 62.8316C157.49 63.1528 157.425 63.6347 157.425 63.8916C157.393 64.1486 157.522 64.4698 157.714 64.5983C158.1 64.8874 159.353 64.9516 159.064 64.6626C158.967 64.5662 159.031 64.0844 159.192 63.6347C159.417 63.0565 159.385 62.7352 159.096 62.5425C158.389 62.0928 157.554 62.2534 157.49 62.8316Z" fill="black"/>
<path d="M326.483 63.4098C325.551 63.9238 325.005 65.4014 325.519 65.9153C325.905 66.3008 327.639 64.5983 327.896 63.5704C328.089 62.7995 327.672 62.7674 326.483 63.4098Z" fill="black"/>
<path d="M176.892 64.2128C176.539 65.1765 176.571 65.2407 177.534 65.6262C178.755 66.1723 179.59 65.9474 179.815 65.1123C180.04 64.2771 179.397 63.6347 178.177 63.3777C177.342 63.2171 177.181 63.3134 176.892 64.2128Z" fill="black"/>
<path d="M172.009 65.4335C172.009 65.6583 171.849 65.7547 171.688 65.6583C171.495 65.5619 171.206 65.851 171.046 66.3008C170.628 67.3608 170.628 67.7141 171.046 67.1038C171.303 66.6862 171.367 66.6862 171.367 67.168C171.367 67.4893 171.752 67.7784 172.363 67.9068C173.519 68.1638 173.808 67.939 174.129 66.6541C174.322 65.7868 174.29 65.7226 173.487 65.8832C172.909 66.0117 172.523 65.8832 172.33 65.5298C172.138 65.1765 172.041 65.1444 172.009 65.4335Z" fill="black"/>
<path d="M165.295 66.7183C164.974 67.3608 165.006 67.5856 165.327 67.7783C165.552 67.9389 165.616 68.0674 165.424 68.0996C165.263 68.0996 165.52 68.2923 166.034 68.5493C166.869 68.9026 167.062 68.8705 167.608 68.3887C168.443 67.5856 168.058 66.6541 166.741 66.2365C165.745 65.9153 165.616 65.9474 165.295 66.7183Z" fill="black"/>
<path d="M223.467 66.7506C223.082 67.1682 222.76 67.7142 222.76 67.9712C222.76 68.2282 222.632 68.3245 222.439 68.2282C221.957 67.9391 222.054 68.2924 222.6 68.8385C223.017 69.2561 223.017 69.3524 222.568 69.8021C222.311 70.0912 221.957 70.2519 221.797 70.1555C221.668 70.0591 221.379 70.4446 221.186 71.0228C220.705 72.3719 220.737 72.4683 221.476 72.661C221.829 72.7574 222.118 72.661 222.118 72.4683C222.118 72.2434 222.246 72.2755 222.407 72.5325C222.632 72.8858 222.825 72.918 223.146 72.661C223.371 72.4683 224.109 72.147 224.784 71.9543C225.459 71.7295 225.973 71.344 225.973 71.087C225.973 70.7979 226.133 70.7016 226.294 70.7979C226.487 70.8943 226.615 70.7658 226.615 70.5088C226.615 70.2197 226.808 69.9949 227.065 69.9949C227.322 69.9949 227.579 69.77 227.707 69.513C227.804 69.2561 227.739 69.0312 227.547 69.0312C227.354 69.0312 227.29 68.7742 227.418 68.4209C227.611 67.7463 227 66.1724 226.487 66.076C224.913 65.8833 224.109 66.0439 223.467 66.7506Z" fill="black"/>
<path d="M321.216 67.1039C320.509 67.4251 319.642 68.0354 319.289 68.4209C318.936 68.8063 318.839 69.0312 319.096 68.8706C319.449 68.6778 319.514 68.7421 319.353 69.0954C319.128 69.7379 320.445 70.1555 320.799 69.5773C320.927 69.3524 321.056 69.2882 321.056 69.4167C321.056 69.77 322.34 68.453 322.34 68.0997C322.34 67.939 322.565 67.7463 322.822 67.6178C323.4 67.393 323.465 66.4614 322.919 66.4614C322.694 66.4936 321.923 66.7505 321.216 67.1039Z" fill="black"/>
<path d="M310.423 71.9221C309.491 72.2433 308.592 72.4361 308.496 72.3718C308.239 72.2112 306.922 73.7852 306.922 74.267C306.922 74.4276 307.243 74.4598 307.66 74.3313C308.046 74.2028 308.656 74.0743 309.01 74.0422C309.363 73.9779 309.941 73.8494 310.294 73.6888C310.648 73.5603 311.419 73.2391 311.997 73.0143C313.057 72.5967 313.378 71.7936 312.607 71.5045C312.35 71.4082 311.387 71.6009 310.423 71.9221Z" fill="black"/>
<path d="M298.601 75.0058C297.991 75.1985 296.224 75.3591 294.682 75.327C293.044 75.2949 291.952 75.4234 292.08 75.584C292.177 75.7446 292.016 75.8089 291.727 75.6804C291.406 75.5519 291.181 75.6161 291.181 75.8089C291.181 76.0016 290.956 76.0658 290.635 75.9695C290.153 75.7767 289.607 76.2264 289.575 76.8046C289.575 76.901 290.024 77.158 290.538 77.3507C291.084 77.5113 291.502 77.5434 291.502 77.4149C291.502 77.2865 292.016 77.1901 292.626 77.2222C293.237 77.2222 293.751 77.158 293.751 77.0616C293.751 76.9652 294.265 76.901 294.875 76.8689C295.485 76.8689 295.999 76.9331 295.999 77.0616C295.999 77.4149 297.702 77.2222 298.505 76.7725C298.922 76.5477 299.468 76.4513 299.725 76.5477C299.982 76.644 300.175 76.5798 300.175 76.387C300.175 76.2264 300.528 76.1622 300.946 76.2907C301.363 76.387 301.813 76.3228 301.942 76.1301C302.038 75.9373 302.295 75.841 302.456 75.9373C302.616 76.0658 302.745 75.841 302.745 75.4876C302.745 75.0701 302.52 74.8131 302.199 74.781C300.271 74.6525 299.565 74.6846 298.601 75.0058Z" fill="black"/>
<path d="M26.8202 79.7598C26.4027 80.9162 26.4027 81.655 26.8845 81.4944C27.4627 81.3017 27.9124 79.6314 27.4948 79.2138C27.2699 78.9889 27.0772 79.1495 26.8202 79.7598Z" fill="black"/>
<path d="M74.0359 82.201C74.0359 82.3938 73.9074 82.458 73.7146 82.3617C73.2007 82.0404 72.5904 82.6186 72.5904 83.4859C72.5904 83.9356 72.4298 84.2568 72.2049 84.2247C72.0122 84.1926 71.7552 84.5781 71.6267 85.092C71.4982 85.6381 71.177 86.1842 70.8879 86.3769C70.5988 86.5375 70.5025 86.6981 70.7273 86.6981C71.0164 86.6981 71.0164 86.9551 70.7915 87.6618C70.5988 88.1757 70.3418 88.5612 70.1812 88.4648C69.86 88.2721 69.5388 89.4927 69.7315 90.0709C70.0206 90.8097 70.8237 90.874 71.4661 90.2315C71.8194 89.8782 72.1085 89.4606 72.1085 89.3C72.1085 89.1394 72.3013 88.9466 72.5583 88.8503C72.7831 88.7539 73.4255 87.3727 73.9716 85.7666C74.5177 84.1605 74.8068 82.9398 74.6141 83.0362C74.3892 83.1968 74.325 83.0683 74.4534 82.7471C74.5498 82.458 74.5177 82.1368 74.3571 82.0404C74.1643 81.9119 74.0359 82.0083 74.0359 82.201Z" fill="black"/>
<path d="M24.8919 82.4581C24.8919 82.6829 24.6992 82.8114 24.5065 82.7472C24.2816 82.715 24.0568 83.0041 23.9925 83.3896C23.8961 83.9357 24.0568 84.1284 24.5386 84.1284C25.2774 84.1284 25.7592 82.9399 25.2453 82.4259C24.9883 82.169 24.8919 82.169 24.8919 82.4581Z" fill="black"/>
<path d="M31.9553 83.0362C31.5056 84.1926 31.5377 84.3532 32.405 84.5781C33.4329 84.835 34.1395 84.5459 34.3965 83.7108C34.8462 82.2974 32.4692 81.6229 31.9553 83.0362Z" fill="black"/>
<path d="M40.3085 83.8394C40.3085 84.0321 40.18 84.0963 40.0194 84C39.8588 83.9036 39.5697 84.2569 39.377 84.7709C39.2164 85.317 39.1842 85.6703 39.3449 85.5739C39.4733 85.4776 39.6661 85.5418 39.7303 85.7345C39.7624 85.8952 40.3085 86.1521 40.9188 86.2485C41.6576 86.4091 41.9467 86.377 41.7861 86.12C41.6897 85.9594 41.7219 85.4133 41.8825 84.9957C42.1716 84.2569 42.1073 84.1284 41.24 83.8394C40.6297 83.6145 40.3085 83.6145 40.3085 83.8394Z" fill="black"/>
<path d="M48.4373 86.5054C48.0839 87.5976 48.116 87.6618 48.887 87.8545C49.4652 88.0151 49.7864 87.9188 50.0112 87.5333C50.1718 87.2442 50.4288 87.0836 50.5573 87.18C50.7179 87.2442 50.9107 87.0515 51.007 86.6981C51.1034 86.3448 51.0391 86.1199 50.9107 86.2163C50.75 86.3127 50.5894 86.2484 50.5252 86.0878C50.4931 85.9272 50.0434 85.7024 49.5937 85.5739C48.887 85.3811 48.7264 85.5096 48.4373 86.5054Z" fill="black"/>
<path d="M20.3282 86.2163C19.6858 86.4411 19.1076 86.5696 19.0112 86.5053C18.9149 86.409 18.7543 86.7302 18.6579 87.212C18.3046 88.529 18.8827 88.8502 20.3925 88.1114C21.1955 87.726 21.7737 87.1799 21.9664 86.6017C22.3198 85.6059 22.1271 85.5417 20.3282 86.2163Z" fill="black"/>
<path d="M57.9757 86.8588C57.9757 87.1158 57.783 87.3085 57.5902 87.2442C56.8514 87.1158 57.1405 88.3685 57.9115 88.6576C58.9715 89.0431 60.0636 87.9188 59.5176 87.0194C59.0357 86.2806 57.9757 86.1521 57.9757 86.8588Z" fill="black"/>
<path d="M28.4231 88.3364C28.4231 88.5292 28.2946 88.5934 28.134 88.497C27.9734 88.4007 27.7486 88.6577 27.6522 89.0752C27.5558 89.4928 27.3952 90.071 27.2667 90.328C27.1704 90.6171 27.3631 90.8419 27.7486 90.9704C28.134 91.0668 28.4231 90.9704 28.4231 90.8098C28.4231 90.6171 28.6159 90.6492 28.905 90.8741C29.3225 91.1953 29.451 91.0989 29.8365 90.1995C30.1577 89.4286 30.1898 89.0431 29.9007 88.7861C29.3547 88.2401 28.4231 87.951 28.4231 88.3364Z" fill="black"/>
<path d="M11.4638 89.9746C11.271 90.1673 10.7571 90.36 10.2752 90.3921C9.82554 90.4564 9.08674 90.8418 8.63703 91.2916L7.83398 92.0946L8.7334 92.4158C9.40796 92.6407 9.7613 92.6085 10.0504 92.2552C10.2752 92.0304 10.5965 91.9019 10.7892 91.9982C10.9498 92.1267 11.0783 92.0304 11.0783 91.8697C11.0783 91.677 11.2389 91.5164 11.4316 91.5164C11.8492 91.5164 12.6844 90.7134 12.6844 90.2958C12.6844 89.8139 11.8492 89.5891 11.4638 89.9746Z" fill="black"/>
<path d="M36.1017 91.0989C35.7483 92.0625 36.1659 93.4438 36.7762 93.4438C36.969 93.4438 37.0653 93.5722 36.969 93.7329C36.8726 93.8935 37.0011 94.0862 37.2581 94.2147C37.515 94.311 37.7399 94.2468 37.7399 94.0541C37.7399 93.8613 37.8684 93.7971 38.029 93.8935C38.4145 94.1504 38.7036 92.8656 38.4787 91.7734C38.3502 91.1631 37.9969 90.7134 37.515 90.5207C36.455 90.1352 36.4871 90.1031 36.1017 91.0989Z" fill="black"/>
<path d="M68.5766 90.5207C68.5766 90.6492 68.2232 90.9383 67.7735 91.131C67.3238 91.3237 66.9705 91.7413 66.9705 92.0304C66.9705 92.3516 66.8099 92.4801 66.4565 92.3516C66.1996 92.2553 65.6535 92.448 65.268 92.8014C64.8826 93.1547 64.4007 93.3795 64.1759 93.3153C63.9189 93.2189 63.6941 93.4759 63.5656 93.9256C63.4692 94.3753 63.1801 94.7287 62.9231 94.7287C62.6662 94.7287 62.4734 94.9535 62.4734 95.2426C62.4734 95.4996 62.3449 95.6281 62.1522 95.5317C61.9916 95.4353 61.831 95.4996 61.831 95.6923C61.831 95.8851 61.7025 95.9493 61.5098 95.8529C61.3492 95.7566 61.1885 95.7887 61.1885 95.9814C61.1885 96.1741 60.6746 96.5596 60.0643 96.8487C59.454 97.1378 58.94 97.4911 58.94 97.6518C58.94 98.0372 57.0448 98.9688 56.6915 98.7439C56.4987 98.6475 56.2097 98.9045 56.0169 99.3542C55.7921 99.8039 55.503 100.093 55.3745 99.9967C55.2139 99.9003 55.0854 99.9967 55.0854 100.189C55.0854 100.382 54.9569 100.478 54.7963 100.382C54.6357 100.254 54.4429 100.318 54.3787 100.478C54.2502 100.896 49.3677 103.08 48.6289 103.08C48.3077 103.08 47.9222 103.273 47.7937 103.498C47.6652 103.755 46.9264 104.205 46.1876 104.526C44.6458 105.2 44.4209 105.811 45.6094 106.036C46.027 106.132 46.3161 106.1 46.2519 105.971C46.0591 105.65 47.0228 105.265 47.3761 105.489C47.7295 105.714 49.3034 104.976 49.3034 104.622C49.3034 104.462 49.4319 104.429 49.6247 104.526C50.0101 104.783 53.8005 103.434 53.8005 103.048C53.8005 102.888 53.9932 102.759 54.2502 102.759C54.5072 102.759 54.9248 102.47 55.1818 102.117C55.4387 101.763 56.0812 101.314 56.6272 101.121C57.2054 100.928 57.6551 100.543 57.6551 100.286C57.6551 100.029 57.8157 99.9324 57.9764 100.029C58.1691 100.125 58.2976 100.061 58.2976 99.9003C58.2976 99.7076 58.6509 99.5469 59.0685 99.5469C60.1928 99.5469 60.8994 99.2257 60.6425 98.8081C60.5461 98.6154 60.6104 98.5833 60.8031 98.7118C61.0279 98.8403 61.5419 98.5512 61.9916 98.0693C62.4413 97.5554 63.0516 97.1378 63.3086 97.1057C64.2722 96.9451 64.722 96.656 64.722 96.1741C64.722 95.9172 64.9468 95.6923 65.2038 95.6923C65.4608 95.6923 65.6856 95.4996 65.6856 95.2426C65.6856 94.9856 65.8783 94.7287 66.1353 94.6323C66.3923 94.5359 66.6814 94.022 66.8099 93.4759C66.9705 92.7692 67.2917 92.4159 68.0947 92.1589C69.219 91.8056 69.7972 90.7134 69.0263 90.4243C68.7693 90.328 68.5766 90.3601 68.5766 90.5207Z" fill="black"/>
<path d="M6.25928 92.1267C6.25928 92.7371 6.99808 93.251 7.35142 92.8977C7.80113 92.4158 7.51203 91.5164 6.90172 91.5164C6.48413 91.5164 6.25928 91.7413 6.25928 92.1267Z" fill="black"/>
<path d="M45.448 93.6044C45.1589 94.3432 45.2231 94.5681 45.8013 95.082C46.5722 95.7245 46.8935 95.853 46.6044 95.4033C46.508 95.2427 46.7329 95.0499 47.0862 94.9536C47.6001 94.8251 47.6965 94.6323 47.5359 94.022C47.2468 93.1226 47.3753 93.2511 46.508 92.9941C45.8977 92.8014 45.705 92.9299 45.448 93.6044Z" fill="black"/>
<path d="M2.4059 93.3795C2.4059 93.5401 2.1168 93.9898 1.76346 94.4074C0.928289 95.3711 0.960411 95.5959 1.89195 95.8208C2.91985 96.0777 3.94775 95.7244 3.30531 95.3389C2.98409 95.1141 3.01621 95.0498 3.40167 95.0498C3.94775 95.0498 4.4617 93.8934 4.14048 93.3795C3.91562 93.0262 2.4059 93.0583 2.4059 93.3795Z" fill="black"/>
<path d="M18.9801 93.8934C18.7553 94.0861 18.4341 94.568 18.3377 94.9213C18.145 95.4995 18.3056 95.6922 19.1408 95.9813C19.719 96.174 20.2329 96.3347 20.2971 96.3347C20.5541 96.3347 21.0038 94.6964 20.8432 94.2789C20.6184 93.6685 19.5583 93.4437 18.9801 93.8934Z" fill="black"/>
<path d="M29.3883 97.4912C28.9386 98.6476 28.9707 98.8082 29.7095 99.0009C30.0628 99.0973 30.3519 99.0009 30.3519 98.8403C30.3519 98.6476 30.5447 98.6797 30.8338 98.9045C31.2192 99.2257 31.3477 99.1615 31.6368 98.4227C32.0865 97.2342 32.0544 97.0736 31.2514 96.8487C29.9986 96.5275 29.7095 96.6239 29.3883 97.4912Z" fill="black"/>
<path d="M0.15704 98.1015C-0.164179 98.9367 0.0285528 99.8682 0.542503 99.8682C0.703112 99.8682 0.735234 99.9967 0.638869 100.189C0.542503 100.35 0.67099 100.511 0.927965 100.511C1.21706 100.511 1.44192 100.703 1.44192 100.928C1.44192 101.506 5.29654 102.663 7.99478 102.92C9.21541 103.016 10.3397 103.177 10.5003 103.273C10.6288 103.37 10.7573 103.273 10.7573 103.113C10.7573 102.92 10.9179 102.759 11.1106 102.759C11.2712 102.759 11.3355 102.92 11.207 103.145C11.0785 103.37 11.1106 103.402 11.3355 103.273C11.6888 103.048 16.5071 102.663 18.2417 102.695C20.3938 102.759 21.3575 102.92 21.3575 103.145C21.3575 103.273 21.9357 103.337 22.6424 103.241C23.349 103.145 23.9272 103.177 23.9272 103.337C23.9272 103.466 24.2163 103.594 24.5697 103.594C24.923 103.594 25.2121 103.466 25.2121 103.337C25.2121 102.952 25.7582 103.016 26.24 103.498C26.4649 103.723 27.1715 103.883 27.7819 103.851C28.3922 103.851 30.5765 104.397 32.6001 105.104C34.6238 105.779 36.9045 106.389 37.6433 106.453C38.3821 106.517 39.2494 106.646 39.5706 106.742C40.5664 107.031 41.1446 106.453 40.727 105.586C40.5021 105.168 40.3415 105.008 40.3415 105.233C40.3094 105.682 37.5469 104.911 36.776 104.205C36.1335 103.594 31.6686 102.053 31.2831 102.309C30.9298 102.502 28.3922 101.763 28.5528 101.506C28.6492 101.41 27.6534 101.282 26.4006 101.249C22.7066 101.185 21.6787 101.025 21.3575 100.511C21.1969 100.254 21.0363 100.157 21.0363 100.35C21.0363 100.511 20.5866 100.703 20.0726 100.736C19.398 100.8 19.1732 100.703 19.3017 100.446C19.4623 100.189 19.3338 100.157 18.9162 100.35C18.595 100.511 17.9847 100.639 17.5992 100.639C17.1816 100.671 16.8604 100.736 16.8604 100.832C16.8604 100.928 16.0895 100.992 15.1258 100.992C14.0979 100.992 13.4555 100.896 13.5519 100.703C13.7446 100.414 13.5519 100.479 12.1385 101.057C11.9136 101.153 11.7209 101.057 11.7209 100.864C11.7209 100.607 11.5282 100.575 11.1748 100.768C10.436 101.153 8.21963 101.057 7.93054 100.671C7.80205 100.479 7.06324 100.35 6.2602 100.35C4.42925 100.382 3.65833 100.189 3.88318 99.8361C3.97954 99.6755 3.88318 99.547 3.69045 99.547C3.49772 99.547 3.40135 99.4185 3.52984 99.2579C3.6262 99.0973 3.52984 98.8403 3.33711 98.7118C3.08013 98.5833 3.04801 98.6155 3.1765 98.8403C3.30498 99.0652 3.20862 99.2258 2.91952 99.2258C2.63043 99.2258 2.40557 99.0009 2.40557 98.744C2.40557 98.487 2.18072 98.2621 1.89162 98.2621C1.63465 98.2621 1.47404 98.1336 1.5704 97.973C1.66677 97.8124 1.53828 97.5876 1.24918 97.4912C0.510381 97.2021 0.478259 97.2342 0.15704 98.1015Z" fill="black"/>
<path d="M40.2124 98.9687C40.0839 99.3863 39.8912 99.5148 39.6342 99.3542C39.3451 99.1936 39.313 99.2899 39.4415 99.6754C39.5699 99.9966 39.6663 100.35 39.6663 100.511C39.6663 100.639 39.9554 100.832 40.3087 100.928C40.6621 101.025 40.9512 100.96 40.9512 100.8C40.9512 100.639 41.176 100.511 41.433 100.511C41.69 100.511 41.9148 100.382 41.9148 100.221C41.9148 100.061 42.0112 99.7075 42.1076 99.4505C42.2039 99.1293 41.947 98.8723 41.3366 98.6475C40.5015 98.3584 40.3409 98.3905 40.2124 98.9687Z" fill="black"/>
</svg>
